<?xml version="1.0" encoding="UTF-8"?>
<svg id="Logo" xmlns="http://www.w3.org/2000/svg" viewBox="0 0 1280 710.3">
  <defs>
    <style>
      .cls-1 {
        fill: #010101;
      }
    </style>
  </defs>
  <g>
    <path class="cls-1" d="M76.02,584.57c-15.87,0-28.71-6.17-38.16-18.34l-.75-.97-1.87,16.56H.5v-209.77h38.66v76.46l.88-1.03c9.01-10.54,21.02-15.88,35.71-15.88,17.87,0,32.07,6.65,42.21,19.77,10.18,13.16,15.34,31.97,15.34,55.89v2.19c0,23.55-5.09,42.17-15.13,55.34-10.01,13.12-24.2,19.77-42.15,19.77ZM65.74,462.85c-12.78,0-21.71,5.31-26.53,15.79l-.05.1v58.81l.05.1c4.92,10.58,13.94,15.94,26.8,15.94s21.64-6.49,25.72-19.3c1.94-6.08,2.92-15.41,2.92-27.72,0-15.02-2.43-26.17-7.22-33.15-4.83-7.01-12.13-10.57-21.69-10.57Z"/>
    <path class="cls-1" d="M222.44,584.57c-21.15,0-38.27-6.87-50.89-20.43-12.61-13.56-19-32.28-19-55.64v-1.78c0-14.58,2.85-27.76,8.46-39.17,5.59-11.39,13.77-20.32,24.3-26.55,10.51-6.23,22.92-9.39,36.86-9.39,19.81,0,36.2,6.14,48.72,18.24,12.52,12.12,19.6,28.82,21.04,49.63l.27,10.13c0,22.54-6.37,40.87-18.94,54.47-12.56,13.6-29.65,20.49-50.82,20.49ZM222.17,462.57c-9.83,0-17.54,3.89-22.91,11.55-5.34,7.61-8.05,19.52-8.05,35.4,0,14.15,2.71,25.14,8.05,32.66,5.38,7.57,13.18,11.42,23.18,11.42s17.44-3.79,22.91-11.27c5.44-7.42,8.19-19.42,8.19-35.68,0-13.89-2.75-24.81-8.19-32.46-5.47-7.71-13.27-11.62-23.18-11.62Z"/>
    <path class="cls-1" d="M365.43,584.57c-15.71,0-27.85-4.56-36.07-13.56-8.25-9.02-12.52-22.44-12.7-39.88v-96.78h38.66v95.53c0,15.74,7.28,23.72,21.63,23.72,13.59,0,23.06-4.8,28.16-14.28l.06-.11v-104.86h38.79v147.47h-36.35l-1.15-15.88-.79.96c-9.65,11.72-23.19,17.66-40.23,17.66Z"/>
    <path class="cls-1" d="M562.56,581.82v-94.46c0-8.51-1.89-14.79-5.63-18.66-3.74-3.88-10-5.84-18.61-5.84-11.3,0-19.89,4.89-25.54,14.52l-.07.12v104.33h-38.66v-147.47h36.35l1.3,17.96.8-1c10.46-13.08,24.69-19.71,42.28-19.71,15.51,0,27.2,4.6,34.74,13.67,7.58,9.11,11.51,22.95,11.68,41.12v95.42h-38.66Z"/>
    <path class="cls-1" d="M683.5,584.57c-17.23,0-31.25-6.88-41.65-20.46-10.45-13.61-15.75-32.83-15.75-57.12,0-22.92,5.2-41.43,15.47-54.99,10.24-13.53,24.44-20.39,42.22-20.39,14.23,0,26.15,5.39,35.44,16.02l.88,1v-76.58h38.79v209.77h-34.87l-2.01-16.53-.74.93c-9.73,12.17-22.44,18.34-37.77,18.34ZM693.93,462.85c-19.36,0-29.18,15.84-29.18,47.09,0,13.97,2.47,24.83,7.35,32.29,4.93,7.54,12.18,11.36,21.56,11.36,12.4,0,21.28-5.32,26.39-15.81l.05-.1v-58.92l-.05-.1c-5.01-10.49-13.8-15.81-26.12-15.81Z"/>
    <rect class="cls-1" x="792.68" y="372.05" width="38.79" height="209.77"/>
    <path class="cls-1" d="M932.98,584.57c-21.53,0-39.3-6.69-52.82-19.89-13.51-13.19-20.37-31.04-20.37-53.03v-3.84c0-14.77,2.89-28.15,8.6-39.77,5.69-11.62,13.86-20.69,24.3-26.96,10.43-6.28,22.51-9.47,35.9-9.47,20.06,0,36.07,6.41,47.58,19.04,11.53,12.66,17.37,30.88,17.37,54.15v15.69h-94.61l.07.56c1.28,9.78,5.24,17.73,11.76,23.63,6.52,5.92,14.87,8.92,24.83,8.92,15.14,0,27.19-5.49,35.84-16.33l18.81,21.07c-5.86,8.17-13.84,14.63-23.72,19.2-10.03,4.66-21.31,7.02-33.54,7.02ZM928.45,462.57c-7.97,0-14.53,2.75-19.51,8.16-4.94,5.36-8.14,13.15-9.53,23.15l-.08.57h56.23v-3.68c-.18-8.91-2.62-15.91-7.26-20.81-4.66-4.91-11.34-7.4-19.85-7.4Z"/>
    <path class="cls-1" d="M1073.08,584.57c-12.31,0-23.39-2.22-32.93-6.6-9.53-4.39-17.1-10.48-22.51-18.1-5.3-7.46-8.03-15.62-8.14-24.24h36.61c.46,6.93,3.15,12.34,7.99,16.09,4.93,3.8,11.59,5.73,19.8,5.73,7.65,0,13.55-1.49,17.52-4.42,4-2.97,6.03-6.91,6.03-11.73s-2.51-9.02-7.45-11.88c-4.8-2.8-12.62-5.34-23.26-7.54-34.88-7.32-52.57-22.29-52.57-44.52,0-12.95,5.45-23.92,16.21-32.6,10.8-8.72,25.12-13.13,42.57-13.13,18.64,0,33.75,4.44,44.9,13.21,10.99,8.62,16.62,19.95,16.76,33.68h-38.66c-.11-5.55-2-10.23-5.63-13.91-3.74-3.79-9.63-5.72-17.52-5.72-6.75,0-12.08,1.56-15.82,4.64-3.76,3.11-5.67,7.12-5.67,11.92,0,4.55,2.18,8.27,6.47,11.06,4.24,2.75,11.18,5.06,21.23,7.07,9.81,1.95,18.19,4.18,24.9,6.63,20.63,7.57,31.1,20.85,31.1,39.47,0,13.3-5.79,24.22-17.21,32.45-11.49,8.27-26.53,12.46-44.72,12.46Z"/>
    <path class="cls-1" d="M1217.57,584.57c-12.31,0-23.39-2.22-32.93-6.6-9.53-4.39-17.1-10.48-22.51-18.1-5.3-7.46-8.03-15.62-8.14-24.24h36.61c.46,6.93,3.15,12.34,7.99,16.09,4.93,3.8,11.59,5.73,19.8,5.73,7.65,0,13.55-1.49,17.52-4.42,4-2.97,6.03-6.91,6.03-11.73s-2.51-9.02-7.45-11.88c-4.8-2.8-12.62-5.34-23.26-7.54-34.88-7.32-52.57-22.29-52.57-44.52,0-12.95,5.45-23.92,16.21-32.6,10.8-8.72,25.12-13.13,42.57-13.13,18.64,0,33.75,4.44,44.9,13.21,10.99,8.62,16.62,19.95,16.76,33.68h-38.66c-.11-5.55-2-10.23-5.63-13.91-3.74-3.79-9.63-5.72-17.52-5.72-6.75,0-12.08,1.56-15.82,4.64-3.76,3.11-5.67,7.12-5.67,11.92,0,4.55,2.18,8.27,6.47,11.06,4.24,2.75,11.18,5.06,21.23,7.07,9.81,1.94,18.19,4.18,24.9,6.63,20.63,7.57,31.1,20.85,31.1,39.47,0,13.3-5.79,24.22-17.21,32.45-11.49,8.27-26.53,12.46-44.72,12.46Z"/>
  </g>
  <path class="cls-1" d="M988.84,68.87C952.92,16.2,902.68-3.47,848.05.49c-42.22,3.07-84.34,19.17-125.37,43.56-87.51,52.05-110.02,102.95-218.57,170.98-31.29,19.61-69.32,26.49-110.48,19.47-51.11-8.72-73.42-37.71-79.67-62.25-19.07-74.85,56.62-93.12,104-87.71,32.87,3.76,72.74,16.6,131.8,65.66,1.32,1.1,3.05-.71,1.91-1.99-32.73-36.4-75.72-67.96-120.92-78.87-65.56-15.82-166.52,2.27-160.52,106.26,2.99,51.7,39.18,87.05,85.26,106,.19.08.35.17.51.27,20.26,6.25,41.77,9.12,62.61,9.12,39.04,0,82.46-16.35,122.91-36.94,77.02-39.21,146.11-139.28,227.37-172.23,66.94-34.68,137.17-22.63,166.13,9.37,30.99,34.26,27.08,94.94,9.62,127.41-21.89,40.7-67.37,73.11-125.11,76.5-96.66,5.68-160.52-31.39-193-55.7-3.48-2.61-7.64,2.22-4.58,5.31,44.88,45.41,121.13,76.31,210.96,69.64,191.59-14.22,198.27-183.45,155.95-245.51Z"/>
  <g>
    <path class="cls-1" d="M799.37,709.38v-67.13h20.65c5.9,0,11.19,1.33,15.84,3.99,4.66,2.66,8.29,6.44,10.9,11.34,2.62,4.91,3.92,10.48,3.92,16.71v3.09c0,6.24-1.28,11.79-3.85,16.64-2.56,4.86-6.18,8.62-10.85,11.3-4.67,2.68-9.95,4.03-15.82,4.06h-20.78ZM813.2,653.46v44.82h6.68c5.41,0,9.55-1.78,12.41-5.3,2.86-3.54,4.32-8.59,4.37-15.17v-3.55c0-6.83-1.41-12-4.24-15.52-2.83-3.51-6.97-5.27-12.41-5.27h-6.82Z"/>
    <path class="cls-1" d="M920,680.29h-26.55v17.98h31.17v11.11h-45v-67.13h44.9v11.2h-31.07v16h26.55v10.84Z"/>
    <path class="cls-1" d="M976.41,692.74l15.21-50.49h15.4l-23.37,67.13h-14.43l-23.28-67.13h15.34l15.13,50.49Z"/>
    <path class="cls-1" d="M1046.93,709.38h-13.83v-67.13h13.83v67.13Z"/>
    <path class="cls-1" d="M1131.34,687.03c-.52,7.21-3.18,12.9-7.99,17.05-4.81,4.15-11.15,6.22-19.02,6.22-8.61,0-15.37-2.9-20.3-8.69s-7.41-13.75-7.41-23.86v-4.1c0-6.45,1.13-12.15,3.42-17.05,2.27-4.92,5.52-8.7,9.76-11.33,4.22-2.62,9.13-3.94,14.73-3.94,7.73,0,13.98,2.06,18.72,6.22,4.73,4.15,7.46,9.97,8.2,17.48h-13.83c-.34-4.33-1.54-7.47-3.62-9.43-2.08-1.95-5.23-2.92-9.47-2.92-4.62,0-8.06,1.65-10.36,4.95-2.3,3.31-3.47,8.43-3.53,15.39v5.07c0,7.26,1.09,12.56,3.29,15.9,2.2,3.35,5.67,5.03,10.4,5.03,4.28,0,7.46-.98,9.56-2.92,2.1-1.95,3.32-4.97,3.62-9.06h13.83Z"/>
    <path class="cls-1" d="M1199.7,680.29h-26.55v17.98h31.17v11.11h-45v-67.13h44.9v11.2h-31.07v16h26.55v10.84Z"/>
    <path class="cls-1" d="M1266.12,691.77c0-2.61-.92-4.62-2.76-6.01-1.84-1.41-5.16-2.88-9.96-4.43-4.8-1.56-8.59-3.09-11.4-4.59-7.61-4.11-11.42-9.66-11.42-16.64,0-3.62,1.01-6.86,3.06-9.7,2.05-2.84,4.97-5.07,8.81-6.67,3.83-1.6,8.12-2.39,12.89-2.39s9.06.86,12.82,2.6c3.74,1.74,6.65,4.19,8.73,7.35,2.08,3.17,3.12,6.76,3.12,10.79h-13.83c0-3.07-.97-5.47-2.91-7.17-1.94-1.69-4.66-2.56-8.16-2.56s-6.01.71-7.88,2.15c-1.87,1.43-2.81,3.31-2.81,5.64,0,2.19,1.09,4.02,3.29,5.49,2.2,1.48,5.44,2.86,9.7,4.15,7.87,2.36,13.61,5.3,17.2,8.8,3.59,3.5,5.4,7.87,5.4,13.09,0,5.81-2.2,10.37-6.6,13.68-4.39,3.31-10.3,4.95-17.75,4.95-5.16,0-9.87-.94-14.1-2.83-4.25-1.89-7.47-4.48-9.72-7.77-2.23-3.28-3.33-7.09-3.33-11.42h13.87c0,7.41,4.43,11.11,13.28,11.11,3.29,0,5.86-.67,7.71-2.01s2.76-3.2,2.76-5.6Z"/>
  </g>
  <rect class="cls-1" y="671.31" width="759.39" height="16.69"/>
</svg>