<?xml version="1.0" encoding="UTF-8"?>
<svg id="Layer_1" xmlns="http://www.w3.org/2000/svg" viewBox="0 0 22.66 22.66">
  <defs>
    <style>
      .cls-1 {
        fill: #1d897a;
      }

      .cls-2 {
        fill: none;
      }
    </style>
  </defs>
  <path class="cls-2" d="M11.33,15.76c2.44,0,4.42-1.98,4.42-4.42s-1.98-4.42-4.42-4.42-4.42,1.98-4.42,4.42,1.98,4.42,4.42,4.42ZM12.57,9.68c.12-.16.35-.16.5-.03l1.59,1.34s.02.02.02.02l.02.02v.02s.02.02.02.04.02.02.02.03c0,.02.02.02.02.04t.02.03v.21s-.02.02-.02.03-.02.02-.02.04c0,.02-.02.02-.02.03s-.02.02-.02.03v.02s-.02.02-.02.02l-.02.02-1.59,1.42c-.07.05-.14.09-.23.09-.11,0-.19-.05-.27-.12-.12-.14-.11-.37.03-.5l1.29-1.15-1.29-1.15c-.16-.12-.16-.35-.03-.5ZM11.33,9.56c.05-.18.23-.3.42-.27.2.05.32.23.27.41l-.71,3.36c-.04.18-.19.28-.35.28h-.07c-.18-.05-.3-.23-.27-.42l.71-3.36ZM7.98,11.65s-.02-.02-.02-.02v-.02s-.02-.02-.02-.03-.02-.02-.02-.04c0-.02-.02-.02-.02-.03t-.02-.03v-.21s.02-.02.02-.03c0-.02.02-.02.02-.04s.02-.02.02-.03.02-.02.02-.04v-.02l.02-.02.02-.02,1.59-1.42c.14-.12.37-.11.5.03.12.14.12.37-.03.5l-1.29,1.15,1.29,1.22c.16.12.16.35.03.5-.07.09-.16.12-.27.12-.07,0-.16-.03-.23-.09l-1.59-1.42-.02-.02Z"/>
  <path class="cls-2" d="M1.03,12.99l1.74-.04c.16,0,.32.12.35.28.25,1.04.67,2.02,1.29,2.9.09.14.09.32-.04.44l-1.2,1.26c-.05.05-.07.12-.07.2s.03.14.09.19l1.66,1.54c.11.11.28.11.39,0l1.2-1.26c.05-.07.16-.11.25-.11.07,0,.14.02.2.05.9.57,1.91.95,2.97,1.15.16.02.28.16.28.34l.03,1.74c0,.14.13.27.27.27l2.23-.05c.07,0,.14-.03.2-.09.05-.05.07-.12.07-.19l-.03-1.74c0-.18.13-.32.28-.35,1.05-.23,2.04-.66,2.92-1.28.14-.09.32-.09.44.04l1.26,1.2c.11.11.28.11.39,0l1.56-1.61c.05-.05.07-.12.07-.2s-.03-.14-.09-.19l-1.26-1.2c-.12-.11-.14-.3-.05-.44.58-.9.97-1.89,1.17-2.95.03-.16.18-.28.34-.28l1.74-.03c.07,0,.14-.04.19-.09.05-.05.07-.12.07-.2l-.05-2.23c0-.14-.12-.27-.27-.27l-1.73.04c-.18,0-.32-.13-.35-.28-.25-1.04-.67-2.02-1.29-2.9-.09-.14-.09-.32.04-.44l1.2-1.26c.05-.05.07-.12.07-.19s-.03-.14-.09-.2l-1.63-1.54c-.11-.11-.28-.11-.39,0l-1.2,1.26c-.12.12-.3.14-.44.05-.9-.56-1.91-.95-2.97-1.15-.16-.02-.28-.16-.28-.34l-.04-1.74c0-.18-.18-.39-.28-.39l-2.27.03c-.05.02-.19.28-.19.52l-.02,1.68c0,.16-.12.3-.28.34-1.04.23-2.03.66-2.92,1.27-.14.09-.32.09-.44-.03l-1.26-1.2c-.11-.11-.28-.11-.39,0l-1.56,1.61c-.05.05-.07.12-.07.19s.03.14.09.19l1.26,1.2c.12.11.14.3.05.44-.58.9-.97,1.89-1.17,2.96-.02.16-.18.28-.34.28l-1.73.04c-.07,0-.14.03-.19.09-.05.05-.07.12-.07.19l.04,2.21c0,.16.12.27.28.27ZM11.33,6.2c2.83,0,5.13,2.3,5.13,5.13s-2.3,5.13-5.13,5.13-5.13-2.3-5.13-5.13,2.3-5.13,5.13-5.13Z"/>
  <path class="cls-1" d="M1.03,13.72h.02l1.45-.04c.25.94.64,1.82,1.17,2.64l-1.01,1.05c-.18.19-.28.44-.27.69,0,.27.11.5.3.69l1.63,1.54c.39.37,1.01.35,1.38-.04l1.01-1.04c.85.5,1.75.85,2.71,1.04l.03,1.45c.02.53.44.95.97.95h.02l2.25-.05c.27,0,.52-.11.69-.3.18-.19.28-.44.27-.69l-.03-1.45c.94-.25,1.84-.64,2.66-1.17l1.04,1.01c.39.37,1.01.36,1.38-.03l1.56-1.61c.18-.19.28-.44.27-.69,0-.27-.11-.5-.3-.69l-1.05-.99c.5-.83.85-1.74,1.05-2.67l1.49-.05c.27,0,.51-.11.69-.3.18-.19.28-.44.27-.69l-.05-2.23c-.02-.53-.44-.95-.97-.95h-.02l-1.45.03c-.25-.94-.64-1.82-1.17-2.64l1.01-1.04c.18-.19.28-.44.27-.69,0-.27-.11-.5-.3-.69l-1.63-1.54c-.39-.37-1.01-.36-1.38.03l-1.01,1.05c-.85-.5-1.75-.85-2.71-1.05l-.03-1.45c-.02-.53-.44-1.1-.99-1.08l-2.27-.02c-.28,0-.53.18-.71.5-.13.23-.19.5-.19.73l-.02,1.4c-.94.25-1.84.64-2.66,1.17l-1.04-1.01c-.39-.37-1.01-.35-1.38.03l-1.56,1.61c-.18.19-.28.44-.27.69,0,.27.11.5.3.69l1.04.99c-.5.83-.85,1.74-1.04,2.67l-1.45.04c-.27,0-.51.11-.69.3-.19.21-.28.46-.28.72l.05,2.23c.02.53.44.96.97.96ZM.78,10.32c.05-.05.12-.09.19-.09l1.73-.04c.16,0,.32-.12.34-.28.2-1.06.58-2.05,1.17-2.96.09-.14.07-.34-.05-.44l-1.26-1.2c-.05-.05-.09-.12-.09-.19s.02-.14.07-.19l1.56-1.61c.11-.11.28-.11.39,0l1.26,1.2c.12.12.3.12.44.03.89-.62,1.88-1.04,2.92-1.27.16-.04.28-.18.28-.34l.02-1.68c0-.23.14-.5.19-.52l2.27-.03c.11,0,.28.21.28.39l.04,1.74c0,.18.12.32.28.34,1.06.19,2.07.58,2.97,1.15.14.09.32.07.44-.05l1.2-1.26c.11-.11.28-.11.39,0l1.63,1.54c.05.05.09.12.09.2s-.02.14-.07.19l-1.2,1.26c-.13.13-.13.3-.04.44.62.89,1.05,1.86,1.29,2.9.03.16.18.28.35.28l1.73-.04c.14,0,.27.12.27.27l.05,2.23c0,.07-.02.14-.07.2-.05.05-.13.09-.19.09l-1.74.03c-.16,0-.3.13-.34.28-.2,1.06-.58,2.05-1.17,2.95-.09.14-.07.34.05.44l1.26,1.2c.05.05.09.12.09.19s-.02.14-.07.2l-1.56,1.61c-.11.11-.28.11-.39,0l-1.26-1.2c-.12-.12-.3-.12-.44-.04-.89.62-1.88,1.05-2.92,1.28-.16.03-.28.18-.28.35l.03,1.74c0,.07-.02.14-.07.19-.05.05-.13.09-.2.09l-2.23.05c-.14,0-.27-.12-.27-.27l-.03-1.74c0-.18-.12-.32-.28-.34-1.06-.2-2.07-.58-2.97-1.15-.05-.04-.13-.05-.2-.05-.09,0-.19.04-.25.11l-1.2,1.26c-.11.11-.28.11-.39,0l-1.66-1.54c-.05-.05-.09-.12-.09-.19s.02-.14.07-.2l1.2-1.26c.13-.12.13-.3.04-.44-.62-.89-1.05-1.86-1.29-2.9-.03-.16-.19-.28-.35-.28l-1.74.04c-.16,0-.28-.11-.28-.27l-.04-2.21c0-.07.02-.14.07-.19Z"/>
  <path class="cls-1" d="M11.33,16.46c2.83,0,5.13-2.3,5.13-5.13s-2.3-5.13-5.13-5.13-5.13,2.3-5.13,5.13,2.3,5.13,5.13,5.13ZM11.33,6.91c2.44,0,4.42,1.98,4.42,4.42s-1.98,4.42-4.42,4.42-4.42-1.98-4.42-4.42,1.98-4.42,4.42-4.42Z"/>
  <path class="cls-1" d="M9.82,13.17c.11,0,.19-.03.27-.12.12-.14.12-.37-.03-.5l-1.29-1.22,1.29-1.15c.16-.12.16-.35.03-.5-.12-.14-.35-.16-.5-.03l-1.59,1.42-.02.02-.02.02v.02s-.02.02-.02.04-.02.02-.02.03-.02.02-.02.04t-.02.03v.21s0,.02.02.03c0,.02.02.02.02.03,0,.02.02.02.02.04s.02.02.02.03v.02s.02,0,.02.02l.02.02,1.59,1.42c.07.05.16.09.23.09Z"/>
  <path class="cls-1" d="M13.9,11.33l-1.29,1.15c-.14.12-.16.35-.03.5.07.07.16.12.27.12.09,0,.16-.03.23-.09l1.59-1.42.02-.02s.02,0,.02-.02v-.02s.02-.02.02-.03.02-.02.02-.03c0-.02.02-.02.02-.04s0-.02.02-.03v-.21s0-.02-.02-.03c0-.02-.02-.02-.02-.04,0-.02-.02-.02-.02-.03s-.02-.02-.02-.04v-.02l-.02-.02s0-.02-.02-.02l-1.59-1.34c-.14-.12-.37-.12-.5.03-.12.14-.12.37.03.5l1.29,1.15Z"/>
  <path class="cls-1" d="M10.89,13.35h.07c.16,0,.32-.11.35-.28l.71-3.36c.05-.18-.07-.35-.27-.41-.19-.03-.37.09-.42.27l-.71,3.36c-.04.19.09.37.27.42Z"/>
</svg>