<?xml version="1.0" encoding="UTF-8"?>
<svg id="Layer_1" xmlns="http://www.w3.org/2000/svg" viewBox="0 0 23.57 23.57">
  <defs>
    <style>
      .cls-1 {
        fill: #1d897a;
      }

      .cls-2 {
        fill: none;
      }
    </style>
  </defs>
  <path class="cls-2" d="M4.5,11h2.78c1.22,0,2.28.79,2.63,1.96.68-.87,1.09-1.96,1.09-3.14,0-2.82-2.29-5.11-5.11-5.11S.79,7,.79,9.82c0,1.18.41,2.27,1.08,3.14.35-1.17,1.41-1.96,2.63-1.96ZM4.08,7.5c.1-.24.24-.45.42-.64.19-.18.4-.33.64-.42.24-.1.49-.15.75-.15s.51.05.75.15c.24.1.45.24.64.42.19.19.33.4.43.64.1.24.15.49.15.75s-.05.51-.15.75c-.1.24-.24.45-.43.64-.18.19-.4.33-.64.43-.24.1-.49.15-.75.15s-.51-.05-.75-.15c-.24-.1-.45-.24-.64-.43-.18-.18-.33-.4-.42-.64-.1-.24-.15-.49-.15-.75s.05-.51.15-.75Z"/>
  <path class="cls-1" d="M20.04,10.21c-.22,0-.39.18-.39.39v10.61c0,.87-.7,1.57-1.57,1.57H7.86c-.87,0-1.57-.7-1.57-1.57v-4.32c0-.22-.18-.39-.39-.39s-.39.18-.39.39v4.32c0,1.3,1.06,2.36,2.36,2.36h10.22c1.3,0,2.36-1.06,2.36-2.36v-10.61c0-.22-.18-.39-.39-.39Z"/>
  <path class="cls-1" d="M5.5,2.36v.39c0,.22.18.39.39.39s.39-.18.39-.39v-.39c0-.87.7-1.57,1.57-1.57h2.09l.49,1.22c.18.45.61.74,1.09.74h2.86c.48,0,.92-.29,1.1-.74l.49-1.22h2.09c.87,0,1.57.7,1.57,1.57v1.97c0,.22.18.39.39.39s.39-.18.39-.39v-1.97c0-1.3-1.06-2.36-2.36-2.36H7.86c-1.3,0-2.36,1.06-2.36,2.36Z"/>
  <path class="cls-1" d="M1.81,14.07c1.06,1.02,2.5,1.65,4.08,1.65s3.02-.63,4.08-1.65c.02-.01.03-.03.04-.04,1.09-1.07,1.77-2.56,1.77-4.2,0-3.25-2.64-5.89-5.89-5.89S0,6.57,0,9.82c0,1.64.68,3.13,1.77,4.2.02.02.03.03.04.04ZM5.89,4.71c2.82,0,5.11,2.29,5.11,5.11,0,1.18-.41,2.27-1.09,3.14-.35-1.17-1.41-1.96-2.63-1.96h-2.78c-1.22,0-2.28.79-2.63,1.96-.68-.87-1.08-1.96-1.08-3.14,0-2.82,2.29-5.11,5.11-5.11Z"/>
  <path class="cls-1" d="M4.5,9.64c.19.19.4.33.64.43.24.1.49.15.75.15s.51-.05.75-.15c.24-.1.45-.24.64-.43.19-.18.33-.4.43-.64.1-.24.15-.49.15-.75s-.05-.51-.15-.75c-.1-.24-.24-.45-.43-.64-.18-.18-.4-.33-.64-.42-.24-.1-.49-.15-.75-.15s-.51.05-.75.15c-.24.1-.45.24-.64.42-.18.19-.33.4-.42.64-.1.24-.15.49-.15.75s.05.51.15.75c.1.24.24.45.42.64Z"/>
  <path class="cls-1" d="M16.5,16.5h-7.07c-.22,0-.39.18-.39.39s.18.39.39.39h7.07c.22,0,.39-.18.39-.39s-.18-.39-.39-.39Z"/>
  <path class="cls-1" d="M9.43,19.25h3.54c.22,0,.39-.18.39-.39s-.18-.39-.39-.39h-3.54c-.22,0-.39.18-.39.39s.18.39.39.39Z"/>
  <path class="cls-1" d="M9.43,21.22h7.07c.22,0,.39-.18.39-.39s-.18-.39-.39-.39h-7.07c-.22,0-.39.18-.39.39s.18.39.39.39Z"/>
  <path class="cls-1" d="M21.61,5.5h-5.5c-1.08,0-1.96.88-1.96,1.96s.88,1.97,1.96,1.97h5.5c1.08,0,1.96-.88,1.96-1.97s-.88-1.96-1.96-1.96Z"/>
</svg>