<?xml version="1.0" encoding="UTF-8"?>
<svg id="Layer_1" xmlns="http://www.w3.org/2000/svg" viewBox="0 0 24 22.76">
  <defs>
    <style>
      .cls-1 {
        fill: #1d897a;
      }

      .cls-2 {
        fill: none;
      }
    </style>
  </defs>
  <path class="cls-2" d="M12.61,4.22h-1.38c-.23,1.42-.91,1.85-2.33,1.57-.17-.03-.45.1-.57.25-.27.32-.47.7-.7,1.04,1.36,1.39,1.39,2.07.11,3.28.19.32.34.7.59.99.14.16.48.28.66.22,1.38-.45,1.65-.31,2.04,1.11.04.14.11.28.16.41h1.58c-.31-.86.1-1.46.8-1.65.62-.17,1.32-.02,2.12,0,.6-.8.59-.79-.13-1.63-.14-.17-.22-.42-.28-.64-.22-.89.26-1.46.98-1.94-.31-.48-.6-.91-.91-1.37-1.61.74-2.33.28-2.75-1.64ZM12.01,10.95c-1.31.03-2.3-.94-2.31-2.28-.01-1.22.98-2.25,2.17-2.27h0c1.31-.01,2.32.98,2.32,2.28,0,1.24-.95,2.23-2.18,2.26Z"/>
  <path class="cls-2" d="M11.95,7.37h0c-.63.02-1.28.69-1.27,1.3.02.65.65,1.27,1.29,1.26.68,0,1.23-.58,1.23-1.29,0-.68-.59-1.29-1.25-1.27Z"/>
  <path class="cls-2" d="M22.89,3.33c0-1.62-.7-2.33-2.32-2.34-5.77,0-11.54,0-17.31,0C1.7.99.98,1.73.98,3.29c0,3.87,0,7.74,0,11.61v.77h21.92V3.33ZM16.96,9.71c.36.36.48.75.21,1.22-.15.25-.28.51-.43.76-.58.98-.56,1.55-2.04.76-.25-.14-.6-.09-.89-.13-.09.16-.11.18-.12.2-.11,1.08-.7,1.62-1.78,1.62-1.37,0-1.4,0-1.83-1.31-.16-.49-.35-.55-.8-.34-1.2.56-1.22.54-1.89-.64-.13-.23-.26-.46-.38-.7-.37-.68-.25-1.28.34-1.81.43-.38.4-.89-.07-1.26-.66-.52-.75-1.13-.28-1.85.21-.31.44-.6.63-.92.4-.7.83-1.05,1.62-.47.5.37.83.06.93-.5.14-.77.59-1.15,1.35-1.15.24,0,.48,0,.71,0,.8,0,1.28.41,1.43,1.21.14.75.57.98,1.21.58.64-.41,1.05-.26,1.41.37.26.46.55.91.89,1.32.4.48.33.83-.14,1.2-.93.74-.94.97-.08,1.83Z"/>
  <path class="cls-2" d="M9.93,19.26c-.23.8-.45,1.56-.67,2.36h5.61c-.21-.83-.41-1.6-.6-2.36h-4.34Z"/>
  <path class="cls-2" d="M1.09,16.81c.25.88.74,1.31,1.57,1.31,6.19,0,12.37,0,18.56,0,.82,0,1.38-.43,1.7-1.31H1.09Z"/>
  <path class="cls-1" d="M11.87,6.4h0c-1.19.01-2.18,1.05-2.17,2.27.01,1.34,1,2.31,2.31,2.28,1.23-.03,2.18-1.02,2.18-2.26,0-1.3-1.01-2.3-2.32-2.28ZM11.97,9.93c-.64.01-1.27-.61-1.29-1.26-.02-.61.64-1.29,1.27-1.3h0c.65-.02,1.25.59,1.25,1.27,0,.7-.54,1.28-1.23,1.29Z"/>
  <path class="cls-1" d="M21.05,0C14.96,0,8.87,0,2.79,0,1.14,0,0,1.16,0,2.81c0,4.46,0,8.91,0,13.37v.08c0,1.87,1.09,2.96,2.96,2.96h5.87c-.23.86-.44,1.63-.66,2.42-.56,0-1.07-.06-1.56.03-.22.04-.39.35-.58.54.27.18.53.51.8.52,1.8.05,3.6.02,5.4.02,1.69,0,3.39.02,5.08-.03.23,0,.45-.36.67-.56-.22-.17-.43-.44-.67-.48-.43-.08-.89-.02-1.37-.02-.2-.81-.39-1.57-.6-2.43,2.05,0,3.95,0,5.86,0,1.46,0,2.76-1.15,2.77-2.53.03-4.62.03-9.23,0-13.85-.01-1.64-1.29-2.84-2.93-2.84ZM.97,14.89c0-3.87,0-7.74,0-11.61C.98,1.73,1.7.99,3.27.99c5.77,0,11.54,0,17.31,0,1.62,0,2.32.72,2.32,2.34v12.34H.97v-.77ZM9.25,21.62c.23-.8.45-1.56.67-2.36h4.34c.19.76.39,1.53.6,2.36h-5.61ZM21.22,18.12c-6.19.01-12.37.01-18.56,0-.83,0-1.32-.44-1.57-1.31h21.83c-.32.88-.88,1.31-1.7,1.31Z"/>
  <path class="cls-1" d="M17.04,7.88c.47-.38.54-.72.14-1.2-.34-.41-.63-.86-.89-1.32-.36-.63-.77-.78-1.41-.37-.64.41-1.07.17-1.21-.58-.15-.8-.63-1.21-1.43-1.21-.24,0-.48,0-.71,0-.77,0-1.22.38-1.35,1.15-.1.56-.43.87-.93.5-.8-.58-1.23-.23-1.62.47-.18.32-.42.61-.63.92-.48.72-.39,1.34.28,1.85.47.37.5.88.07,1.26-.6.53-.71,1.13-.34,1.81.12.23.25.47.38.7.67,1.18.68,1.2,1.89.64.45-.21.64-.15.8.34.43,1.31.45,1.31,1.83,1.31,1.08,0,1.67-.54,1.78-1.62,0-.02.03-.05.12-.2.29.04.64,0,.89.13,1.48.79,1.47.23,2.04-.76.15-.25.28-.51.43-.76.27-.47.15-.86-.21-1.22-.85-.86-.85-1.09.08-1.83ZM15.29,9.17c.06.23.13.47.28.64.72.85.73.84.13,1.63-.8-.01-1.5-.16-2.12,0-.7.19-1.11.78-.8,1.65h-1.58c-.05-.13-.12-.27-.16-.41-.39-1.43-.66-1.56-2.04-1.11-.19.06-.53-.07-.66-.22-.25-.29-.41-.67-.59-.99,1.28-1.22,1.25-1.9-.11-3.28.23-.35.43-.72.7-1.04.12-.15.4-.28.57-.25,1.43.28,2.1-.15,2.33-1.57h1.38c.42,1.92,1.14,2.39,2.75,1.64.31.46.59.9.91,1.37-.72.47-1.2,1.05-.98,1.94Z"/>
</svg>