<?xml version="1.0" encoding="UTF-8"?>
<svg id="Layer_1" xmlns="http://www.w3.org/2000/svg" viewBox="0 0 19.45 22.73">
  <defs>
    <style>
      .cls-1 {
        fill: #1d897a;
      }

      .cls-2 {
        fill: none;
      }
    </style>
  </defs>
  <path class="cls-2" d="M13.55,8.16c.16-1.26.15-2.54.14-3.81-.02-1.87-1.49-3.31-3.38-3.34-1.81-.03-3.63-.03-5.44,0-1.01.01-1.9.35-2.71.99-1.64,1.3-1.58,6.77.17,7.86.52.32,1.03.66,1.55.97.58.34.86.79.83,1.49-.05,1.17-.01,2.34-.01,3.51s-.02,2.45,0,3.67c.03,1.33.91,2.28,2,2.23,1.23-.05,1.99-.93,1.99-2.31,0-1.6-.02-3.19,0-4.79.05-3-.48-2.31,2.27-3.48,1.35-.57,2.39-1.49,2.58-3ZM8.1,8.08c-.6-.64-1.2-1.28-1.82-1.91-.35-.35-.38-.71-.02-1.03.94-.82,1.89-1.63,2.88-2.4.16-.12.51,0,.77.02-.06.28-.03.66-.2.82-.73.69-1.52,1.33-2.38,2.05.44.49.87.96,1.39,1.53.67-.63,1.29-1.21,1.9-1.8.3-.28.6-.64,1-.24.38.39.1.71-.22,1-.7.65-1.41,1.3-2.09,1.98-.44.43-.81.41-1.22-.03Z"/>
  <path class="cls-2" d="M16.82,15.82c-.25.17-.76.31-.92.17-.44-.36-.07-.69.23-.97.52-.49,1.04-.99,1.64-1.55h0c-.36-.28-.69-.47-.94-.74-.51-.54-.95-.39-1.44.03-.4.35-.88.61-1.24,1-.24.25-.46.65-.46.97,0,1.09.12,2.17.16,3.26.03.83,0,1.65.01,2.47.01.72.43,1.15,1.06,1.12.7-.03.87-.49.84-1.1-.02-.29.07-.61-.02-.87-.35-.99.19-1.36,1-1.7,1.59-.66,1.95-1.55,1.41-3.25-.45.4-.85.83-1.33,1.15Z"/>
  <path class="cls-1" d="M10.98,12.32c1.81-.7,3.27-1.84,3.59-3.83.25-1.56.29-3.19.14-4.76-.19-1.99-1.96-3.64-3.72-3.69-2.21-.05-4.42-.06-6.62-.01C2.4.08.71,1.38.24,3.31,0,4.35.04,5.46,0,6.55c-.07,2.34.95,4.01,3.08,5.04.25.12.48.56.49.86.06,1.09.02,2.18.02,3.27h.12c0,1.49-.08,2.98.02,4.46.11,1.67,1.42,2.65,3.22,2.55,1.64-.09,2.83-1.29,2.82-2.87,0-1.89-.03-3.77-.05-5.66-.02-1.37-.03-1.38,1.24-1.87ZM8.71,14.64c-.03,1.59,0,3.19,0,4.79,0,1.38-.76,2.26-1.99,2.31-1.09.05-1.97-.91-2-2.23-.03-1.22,0-2.44,0-3.67s-.03-2.34.01-3.51c.03-.71-.25-1.16-.83-1.49-.53-.31-1.04-.65-1.55-.97-1.75-1.09-1.81-6.56-.17-7.86.81-.64,1.7-.98,2.71-.99,1.81-.02,3.63-.02,5.44,0,1.88.03,3.35,1.47,3.38,3.34.02,1.27.02,2.55-.14,3.81-.19,1.51-1.23,2.43-2.58,3-2.75,1.17-2.22.47-2.27,3.48Z"/>
  <path class="cls-1" d="M17.32,11.77c-.14-.07-.28-.17-.4-.27-.53-.42-1.07-.42-1.61-.02-.75.55-1.48,1.12-2.25,1.65-.42.29-.57.64-.53,1.14.14,1.66.25,3.33.38,4.99-.02,0-.04,0-.06,0,0,.53-.02,1.06,0,1.59.05.95.89,1.75,1.89,1.83.96.07,1.8-.51,2-1.45.11-.49.12-1,.11-1.5-.02-.49.1-.76.62-.92,1.08-.33,1.79-1.06,1.91-2.22.2-1.97.1-3.85-2.06-4.83ZM16.74,17.92c-.81.34-1.35.7-1,1.7.09.26,0,.58.02.87.03.61-.13,1.06-.84,1.1-.63.03-1.05-.4-1.06-1.12-.02-.83.02-1.65-.01-2.47-.04-1.09-.16-2.17-.16-3.26,0-.33.22-.72.46-.97.36-.38.84-.65,1.24-1,.48-.42.93-.57,1.44-.03.25.27.58.46.94.74h0c-.59.56-1.11,1.06-1.64,1.55-.3.28-.67.61-.23.97.16.13.67,0,.92-.17.48-.32.88-.75,1.33-1.15.55,1.7.18,2.59-1.41,3.25Z"/>
  <path class="cls-1" d="M11.63,5.12c-.4-.4-.7-.05-1,.24-.61.59-1.23,1.17-1.9,1.8-.52-.57-.95-1.05-1.39-1.53.85-.72,1.64-1.36,2.38-2.05.17-.16.14-.54.2-.82-.26-.01-.62-.14-.77-.02-.99.77-1.94,1.58-2.88,2.4-.37.32-.34.67.02,1.03.62.62,1.22,1.26,1.82,1.91.41.44.79.46,1.22.03.68-.68,1.38-1.33,2.09-1.98.32-.3.6-.62.22-1Z"/>
</svg>