<?xml version="1.0" encoding="UTF-8"?>
<svg id="Layer_1" xmlns="http://www.w3.org/2000/svg" viewBox="0 0 24 24.28">
  <defs>
    <style>
      .cls-1 {
        fill: #1d897a;
      }

      .cls-2 {
        fill: none;
      }
    </style>
  </defs>
  <path class="cls-2" d="M7.7,20.1c0,.46.39.86.86.87.47,0,.86-.39.86-.86s-.38-.87-.85-.87-.86.39-.87.86Z"/>
  <path class="cls-2" d="M15.67,19.23c-.48,0-.87.38-.87.85s.38.88.85.88.87-.38.87-.86-.38-.88-.84-.88Z"/>
  <path class="cls-1" d="M24,21.55v-9.4h0V2.66c0-.93-.36-1.67-1.13-2.21-.5-.35-1.07-.45-1.67-.45H2.67C1.31,0,.23.89.04,2.2-.02,2.57,0,2.96,0,3.34c0,.25.17.41.39.41s.37-.15.37-.42v-.67c0-1.1.8-1.9,1.9-1.9h18.57c.16,0,.34,0,.5.04.94.21,1.48.92,1.48,1.98v18.81c0,1.15-.78,1.92-1.94,1.92H2.77c-.18,0-.37,0-.56-.05-.9-.21-1.44-.94-1.44-1.93v-13.31c0-.42-.11-.6-.38-.6-.27,0-.38.19-.38.61v13.31c0,1.65,1.09,2.75,2.75,2.75h18.51c1.63,0,2.74-1.1,2.74-2.74Z"/>
  <path class="cls-1" d="M4.26,8c-.14-.47-.32-.94-.48-1.41-.1-.29-.28-.46-.58-.54-.74-.2-1.48-.42-2.23-.63-.15-.04-.31-.1-.46-.11-.19-.02-.32.11-.36.29-.05.18.02.34.19.42.08.04.16.06.25.09.7.19,1.39.41,2.1.59.26.07.37.19.46.43,1.1,3.23,2.22,6.46,3.32,9.69.2.59.48.79,1.09.79h9.85c.22-.03.34-.15.34-.37s-.12-.34-.35-.36h-.24c-3.15,0-6.31,0-9.46,0-.3,0-.44-.09-.54-.37-.72-2.12-1.45-4.24-2.18-6.36-.12-.36-.24-.72-.37-1.12h0c.1,0,.15,0,.2,0h14.06c.19,0,.22.08.16.25-.6,1.71-1.19,3.41-1.78,5.12-.08.22-.18.31-.43.31h-8.34c-.11,0-.2-.02-.3,0-.21.04-.33.18-.33.39s.12.33.33.36c.08,0,.16,0,.24,0h8.6c.41,0,.73-.2.86-.6.63-1.82,1.27-3.65,1.89-5.47.15-.47-.12-.96-.6-1.09-.15-.03-.32-.03-.48-.03H4.61c-.2,0-.3-.05-.36-.25Z"/>
  <path class="cls-1" d="M6.93,20.09c0,.91.73,1.66,1.63,1.66s1.64-.73,1.65-1.64c0-.89-.72-1.64-1.61-1.64-.92,0-1.66.71-1.67,1.62ZM9.43,20.11c0,.47-.39.86-.86.86-.47-.01-.86-.41-.86-.87,0-.47.4-.86.87-.86s.85.39.85.87Z"/>
  <path class="cls-1" d="M15.67,18.47c-.91,0-1.66.73-1.66,1.63,0,.9.74,1.66,1.63,1.66.9,0,1.65-.75,1.65-1.65s-.73-1.64-1.62-1.64ZM15.65,20.97c-.47,0-.85-.39-.85-.88s.39-.85.87-.85.84.4.84.88-.4.86-.87.86Z"/>
  <path class="cls-1" d="M19.43,3.08c.28,0,.45-.15.45-.38s-.17-.37-.43-.37h-3.52c-.1,0-.24.03-.29.1-.08.11-.15.3-.1.39.07.12.25.25.38.25.59.03,1.17,0,1.76,0h0c.59,0,1.17,0,1.76,0Z"/>
  <path class="cls-1" d="M21.51,3.06c.32,0,.5-.14.5-.38s-.19-.38-.51-.38c-.34,0-.5.14-.5.4s.17.36.51.36h0Z"/>
</svg>