<?xml version="1.0" encoding="UTF-8"?>
<svg id="Layer_1" xmlns="http://www.w3.org/2000/svg" viewBox="0 0 24 24.98">
  <defs>
    <style>
      .cls-1 {
        fill: #1d897a;
      }

      .cls-2 {
        fill: none;
      }
    </style>
  </defs>
  <rect class="cls-2" x=".98" y="7.84" width="10.29" height=".98"/>
  <path class="cls-2" d="M19.1,8.82c2.16,0,3.92-1.76,3.92-3.92s-1.76-3.92-3.92-3.92-3.92,1.76-3.92,3.92,1.76,3.92,3.92,3.92ZM16.92,4.73c.19-.19.5-.19.69,0l.75.76,2.23-2.22c.19-.19.5-.19.69,0,.19.19.19.5,0,.69l-2.57,2.57c-.19.19-.5.19-.69,0l-1.1-1.1c-.19-.19-.19-.5,0-.69Z"/>
  <path class="cls-2" d="M12.25,7.35v5.88c0,.27-.22.49-.49.49h-5.88v6.37h13.22v-10.29c-2.7,0-4.9-2.2-4.9-4.9H5.88v1.96h5.88c.27,0,.49.22.49.49Z"/>
  <path class="cls-2" d="M5.88,23.02c0,.54.44.98.98.98h11.26c.54,0,.98-.44.98-.98v-1.96H5.88v1.96ZM11.27,22.04h2.45c.27,0,.49.22.49.49s-.22.49-.49.49h-2.45c-.27,0-.49-.22-.49-.49s.22-.49.49-.49Z"/>
  <path class="cls-2" d="M16.17.98H6.86c-.54,0-.98.44-.98.98v1.96h8.43c.24-1.19.92-2.23,1.86-2.94ZM13.22,2.94h-2.45c-.27,0-.49-.22-.49-.49s.22-.49.49-.49h2.45c.27,0,.49.22.49.49s-.22.49-.49.49Z"/>
  <path class="cls-2" d="M11.27,9.8H.98v2.94h10.29v-2.94ZM5.14,11.76h-2.69c-.27,0-.49-.22-.49-.49s.22-.49.49-.49h2.69c.27,0,.49.22.49.49s-.22.49-.49.49ZM9.8,11.76h-2.69c-.27,0-.49-.22-.49-.49s.22-.49.49-.49h2.69c.27,0,.49.22.49.49s-.22.49-.49.49Z"/>
  <path class="cls-1" d="M9.8,10.78h-2.69c-.27,0-.49.22-.49.49s.22.49.49.49h2.69c.27,0,.49-.22.49-.49s-.22-.49-.49-.49Z"/>
  <path class="cls-1" d="M5.14,10.78h-2.69c-.27,0-.49.22-.49.49s.22.49.49.49h2.69c.27,0,.49-.22.49-.49s-.22-.49-.49-.49Z"/>
  <path class="cls-1" d="M.49,13.71h4.41v9.31c0,1.08.88,1.96,1.96,1.96h11.26c1.08,0,1.96-.88,1.96-1.96v-13.32c2.23-.46,3.92-2.43,3.92-4.8,0-2.7-2.2-4.9-4.9-4.9H6.86c-1.08,0-1.96.88-1.96,1.96v4.9H.49c-.27,0-.49.22-.49.49v5.88c0,.27.22.49.49.49ZM19.1,23.02c0,.54-.44.98-.98.98H6.86c-.54,0-.98-.44-.98-.98v-1.96h13.22v1.96ZM19.1.98c2.16,0,3.92,1.76,3.92,3.92s-1.76,3.92-3.92,3.92-3.92-1.76-3.92-3.92,1.76-3.92,3.92-3.92ZM5.88,1.96c0-.54.44-.98.98-.98h9.31c-.94.71-1.62,1.74-1.86,2.94H5.88v-1.96ZM5.88,4.9h8.33c0,2.7,2.2,4.9,4.9,4.9v10.29H5.88v-6.37h5.88c.27,0,.49-.22.49-.49v-5.88c0-.27-.22-.49-.49-.49h-5.88v-1.96ZM.98,7.84h10.29v.98H.98v-.98ZM.98,9.8h10.29v2.94H.98v-2.94Z"/>
  <path class="cls-1" d="M18.02,6.53c.19.19.5.19.69,0l2.57-2.57c.19-.19.19-.5,0-.69-.19-.19-.5-.19-.69,0l-2.23,2.22-.75-.76c-.19-.19-.5-.19-.69,0-.19.19-.19.5,0,.69l1.1,1.1Z"/>
  <path class="cls-1" d="M11.27,23.02h2.45c.27,0,.49-.22.49-.49s-.22-.49-.49-.49h-2.45c-.27,0-.49.22-.49.49s.22.49.49.49Z"/>
  <path class="cls-1" d="M13.22,1.96h-2.45c-.27,0-.49.22-.49.49s.22.49.49.49h2.45c.27,0,.49-.22.49-.49s-.22-.49-.49-.49Z"/>
</svg>