<?xml version="1.0" encoding="UTF-8"?>
<svg id="Layer_1" xmlns="http://www.w3.org/2000/svg" xmlns:xlink="http://www.w3.org/1999/xlink" viewBox="0 0 24 18">
  <defs>
    <style>
      .cls-1 {
        fill: #1d897a;
      }

      .cls-2 {
        fill: none;
      }

      .cls-3 {
        clip-path: url(#clippath);
      }
    </style>
    <clipPath id="clippath">
      <rect class="cls-2" x="0" y="0" width="24" height="18"/>
    </clipPath>
  </defs>
  <g class="cls-3">
    <path class="cls-1" d="M12.05,18c-3.42,0-6.85,0-10.27,0-1.13,0-1.66-.54-1.77-1.66-.12-1.17.4-2.13.96-3.05.52-.84.68-1.7.66-2.67-.04-2.81-.02-5.62-.01-8.43C1.63.73,2.31.02,3.75.01,9.33,0,14.92,0,20.5,0c1.32,0,1.96.67,1.96,1.97,0,3.17-.01,6.35,0,9.52,0,.28.07.57.19.82.33.7.8,1.35,1.02,2.08.23.76.35,1.59.33,2.39-.02.8-.64,1.21-1.53,1.21-3.47,0-6.94,0-10.41,0h0ZM21.57,11.58c0-3.25.01-6.41,0-9.59,0-.76-.34-1.02-1.18-1.02-5.48,0-10.97,0-16.45,0-1.08,0-1.32.24-1.32,1.32,0,2.91,0,5.81,0,8.72,0,.19.03.37.05.57h18.9ZM1.14,15.19h21.84c-.41-.82-.78-1.58-1.19-2.31-.08-.14-.34-.25-.52-.25-6.12-.01-12.24-.01-18.36,0-.21,0-.53.16-.63.34-.41.7-.75,1.44-1.15,2.22h0ZM1.05,16.26c-.1.92.56.83,1.08.83,5.05.01,10.09.01,15.14.01,1.67,0,3.35,0,5.02,0,.53,0,.9-.16.83-.83H1.05ZM8.27,4.17c2.29-.05,2.3-.02,2.24,2.2-.01.44,0,.87,0,1.31,0,.66-.41.97-1.01,1-.85.04-1.7.03-2.55,0-.6-.01-.95-.36-.97-.95-.03-.87-.03-1.74,0-2.61.02-.59.37-.93.98-.94.44-.01.87,0,1.31,0h0ZM6.89,5.09c0,.8-.02,1.56.02,2.33,0,.12.24.31.38.32.76.03,1.52.01,2.28.01v-2.66h-2.67ZM14.74,5.66c.85,0,1.7.03,2.54-.02.22-.01.43-.25.64-.39-.19-.16-.39-.47-.59-.47-1.69-.04-3.39-.04-5.08,0-.19,0-.38.33-.57.5.2.12.39.34.6.35.82.04,1.64.02,2.47.02h0s0,0,0,0ZM13.94,8.04c.61,0,1.21.03,1.82-.02.17-.01.43-.28.43-.43,0-.16-.25-.46-.4-.47-1.19-.04-2.38-.04-3.56,0-.18,0-.35.32-.52.5.19.14.37.39.57.4.55.06,1.11.02,1.67.02h0s0,0,0,0ZM12.04,14.04c-.6,0-1.21-.03-1.81.02-.19.02-.35.27-.52.41.17.16.34.45.51.45,1.2.04,2.41.04,3.62,0,.19,0,.37-.29.55-.45-.18-.14-.35-.39-.54-.4-.6-.05-1.2-.02-1.81-.02h0Z"/>
  </g>
</svg>