<?xml version="1.0" encoding="UTF-8"?>
<svg id="Layer_1" xmlns="http://www.w3.org/2000/svg" xmlns:xlink="http://www.w3.org/1999/xlink" viewBox="0 0 24 33">
  <defs>
    <style>
      .cls-1 {
        fill: #1d897a;
      }

      .cls-2 {
        fill: none;
      }

      .cls-3 {
        clip-path: url(#clippath);
      }
    </style>
    <clipPath id="clippath">
      <rect class="cls-2" y="0" width="24" height="33"/>
    </clipPath>
  </defs>
  <g class="cls-3">
    <path class="cls-1" d="M23.96,16.29c0,4.14-.08,8.29.03,12.43.06,2.34-1.84,4.27-4.28,4.27-5.18.01-10.36.02-15.54,0-2.3,0-4.13-1.74-4.14-4.06C-.01,20.75.02,12.58.03,4.4.04,1.54,2.02-.06,4.63,0c5.14.13,10.28.03,15.43.03,2.47,0,3.86,1.34,3.88,3.82.03,4.14,0,8.29,0,12.43h.02ZM22.54,16.24h0c0-3.99,0-7.98,0-11.98,0-1.78-1.01-2.82-2.76-2.82-5.03-.01-10.06-.02-15.08,0-2.13.01-3.08,1.01-3.08,3.13-.01,7.94-.02,15.89-.02,23.83,0,2,.97,2.97,2.96,2.97,4.88,0,9.75,0,14.63,0,2.46,0,3.38-.92,3.38-3.4v-11.74h0ZM8.95,12.02c2.81,0,5.57,0,8.33,0,1.18,0,1.53.38,1.33,1.53-.25,1.43-.58,2.84-.83,4.27-.15.82-.55,1.16-1.41,1.14-2.3-.04-4.6-.05-6.9,0-.81.02-1.24-.28-1.37-1.01-.28-1.57-.58-3.14-.76-4.72-.11-.95-.25-1.63-1.46-1.48-.29.04-.63-.38-.95-.59.31-.27.58-.62.93-.78.28-.13.68-.03,1.02-.03,1.13,0,1.82.55,2.07,1.66h0ZM17.07,13.51h-8.36c.25,1.38.48,2.68.71,3.99h6.84c.27-1.32.53-2.62.81-3.99ZM12.02,3.5c-1.19,0-2.38-.04-3.57.03-.32.02-.61.39-.92.6.28.3.55.86.84.87,2.38.06,4.76.05,7.14-.03.3,0,.58-.53.87-.82-.34-.22-.66-.6-1.01-.63-1.11-.08-2.22-.03-3.34-.03h0s0,0,0,0ZM13.86,28.58c.36-.06.66-.45.99-.69-.32-.25-.62-.69-.95-.71-1.3-.08-2.61-.07-3.91,0-.31.02-.6.39-.89.6.32.28.61.72.97.81.58.13,1.22.04,1.83.04.65,0,1.32.08,1.95-.03h0ZM10.74,21.29c-.45-.28-.92-.8-1.35-.78-.39.03-.75.65-1.12,1.01.4.37.76.95,1.21,1.04.35.07.82-.47,1.24-.74,0-.18,0-.35.01-.53h0ZM17.17,21.31c-.42-.29-.87-.84-1.25-.79-.4.05-.99.67-1.01,1.05,0,.35.63.95,1.03,1,.38.04.82-.49,1.24-.77,0-.16,0-.33,0-.49h0Z"/>
  </g>
</svg>