<?xml version="1.0" encoding="UTF-8"?>
<svg id="Layer_1" xmlns="http://www.w3.org/2000/svg" viewBox="0 0 24 27.91">
  <defs>
    <style>
      .cls-1 {
        fill: #1d897a;
      }

      .cls-2 {
        fill: none;
      }
    </style>
  </defs>
  <path class="cls-2" d="M16.26,1.68v2.25c.55-.04,1.09-.16,1.59-.35-.54-.82-1.14-1.46-1.59-1.91Z"/>
  <path class="cls-2" d="M15.13,3.92V1.68c-.44.44-1.02,1.07-1.54,1.86.49.19,1,.33,1.54.38Z"/>
  <path class="cls-2" d="M15.13,5.06c-.74-.07-1.45-.25-2.11-.53-.41.86-.7,1.84-.7,2.95h2.81v-2.42Z"/>
  <path class="cls-2" d="M20.71,3.02c-.37.4-.81.75-1.29,1.05.54,1.11.81,2.25.81,3.41h2.61c-.13-1.75-.92-3.32-2.13-4.46Z"/>
  <path class="cls-2" d="M15.13,11.5v-2.88h-2.7c.17.9.52,1.86,1.06,2.87h1.64Z"/>
  <path class="cls-2" d="M8.86,25.28c-.07-.07-.16-.13-.26-.17-.1-.04-.2-.06-.3-.06s-.21.02-.31.06c-.1.04-.18.1-.26.17s-.13.16-.17.26c-.04.1-.06.2-.06.3s.02.21.06.31c.04.1.1.18.17.26s.16.13.26.17c.1.04.2.06.31.06s.21-.02.3-.06c.1-.04.18-.1.26-.17s.13-.16.17-.26c.04-.1.06-.2.06-.31s-.02-.21-.06-.3c-.04-.1-.1-.18-.17-.26Z"/>
  <path class="cls-2" d="M15.75,25.42c-.07-.07-.16-.13-.26-.17-.1-.04-.2-.06-.3-.06s-.21.02-.31.06c-.1.04-.18.1-.26.17s-.13.16-.17.26c-.04.1-.06.2-.06.3s.02.21.06.3c.04.1.1.18.17.26s.16.13.26.17c.1.04.2.06.3.06s.21-.02.31-.06c.1-.04.18-.1.26-.17.07-.07.13-.16.17-.26.04-.1.06-.2.06-.3s-.02-.21-.06-.3c-.04-.1-.1-.18-.17-.26Z"/>
  <path class="cls-2" d="M11.18,7.48c0-1.18.27-2.35.83-3.48-.35-.22-.67-.47-.96-.76-1.08,1.12-1.78,2.6-1.9,4.24h2.03Z"/>
  <path class="cls-2" d="M11.28,8.62h-2.12c.09,1.01.39,1.96.91,2.85h2.15c-.48-.97-.79-1.93-.93-2.85Z"/>
  <path class="cls-2" d="M22.83,8.62h-2.69c-.14.93-.46,1.9-.95,2.9l2.41.02-.04.14c.62-.83,1.13-1.85,1.26-3.06Z"/>
  <path class="cls-2" d="M19,8.62h-2.74v2.89h1.67c.54-1,.9-1.97,1.06-2.89Z"/>
  <path class="cls-2" d="M18.87,3.08c.35-.22.67-.48.95-.78-.7-.47-1.5-.82-2.35-1,.44.46.94,1.06,1.4,1.78Z"/>
  <path class="cls-2" d="M18.41,4.58c-.69.28-1.41.44-2.15.49v2.41h2.84c0-1.08-.29-2.06-.69-2.9Z"/>
  <path class="cls-2" d="M12.57,3.01c.37-.57.76-1.06,1.12-1.47-.64.23-1.24.55-1.78.95.2.19.43.36.66.52Z"/>
  <path class="cls-1" d="M9.66,24.48c-.18-.18-.39-.32-.63-.42-.24-.1-.48-.15-.74-.15s-.5.05-.74.15c-.24.1-.44.24-.63.42-.18.18-.32.39-.42.63-.1.24-.15.48-.15.74s.05.5.15.74c.1.24.24.44.42.63.18.18.39.32.63.42.24.1.48.15.74.15s.5-.05.74-.15c.24-.1.44-.24.63-.42.18-.18.32-.39.42-.63.1-.24.15-.48.15-.74s-.05-.5-.15-.74c-.1-.24-.24-.44-.42-.63ZM9.03,26.15c-.04.1-.1.18-.17.26s-.16.13-.26.17c-.1.04-.2.06-.3.06s-.21-.02-.31-.06c-.1-.04-.18-.1-.26-.17s-.13-.16-.17-.26c-.04-.1-.06-.2-.06-.31s.02-.21.06-.3c.04-.1.1-.18.17-.26s.16-.13.26-.17c.1-.04.2-.06.31-.06s.21.02.3.06c.1.04.18.1.26.17.07.07.13.16.17.26.04.1.06.2.06.3s-.02.21-.06.31Z"/>
  <path class="cls-1" d="M16.56,24.62c-.18-.18-.39-.32-.63-.42-.24-.1-.48-.15-.74-.15s-.5.05-.74.15c-.24.1-.44.24-.63.42-.18.18-.32.39-.42.63-.1.24-.15.48-.15.74s.05.5.15.74c.1.24.24.44.42.63.18.18.39.32.63.42.23.09.47.14.71.14h.05c.25,0,.48-.05.71-.15.24-.1.44-.24.63-.42.18-.18.32-.39.42-.63.1-.24.15-.48.15-.74s-.05-.5-.15-.74c-.1-.24-.24-.45-.42-.63ZM15.93,26.28c-.04.1-.1.18-.17.26-.07.07-.16.13-.26.17-.1.04-.2.06-.31.06s-.21-.02-.3-.06c-.1-.04-.18-.1-.26-.17s-.13-.16-.17-.26c-.04-.1-.06-.2-.06-.3s.02-.21.06-.3c.04-.1.1-.18.17-.26s.16-.13.26-.17c.1-.04.2-.06.31-.06s.21.02.3.06c.1.04.18.1.26.17s.13.16.17.26c.04.1.06.2.06.3s-.02.21-.06.3Z"/>
  <path class="cls-1" d="M23.95,7.09c-.03-.31-.09-.61-.16-.91-.07-.3-.16-.6-.26-.88-.1-.29-.22-.57-.36-.85-.14-.28-.29-.54-.46-.8-.17-.26-.35-.51-.54-.74-.2-.24-.4-.46-.63-.67-.22-.21-.45-.41-.7-.6s-.5-.36-.76-.51c-.26-.16-.54-.3-.82-.42-.28-.12-.57-.23-.86-.33-.29-.09-.59-.17-.89-.23-.3-.06-.61-.1-.91-.12-.31-.02-.62-.03-.92-.01-.31.01-.61.04-.92.09-.3.05-.6.11-.9.19-.3.08-.59.18-.87.3-.29.12-.56.25-.83.39-.27.15-.53.31-.78.49-.25.18-.49.37-.72.57-.23.21-.45.42-.65.65-.2.23-.39.47-.57.72-.18.25-.34.51-.48.78-.15.27-.28.55-.39.83-.11.29-.21.58-.29.87-.08.3-.14.6-.19.9-.04.3-.07.61-.08.92-.01.31,0,.62.02.92.02.31.07.61.13.91.06.3.13.6.23.89.09.29.2.58.33.86.02.05.06.1.08.15l-2.77-.02v1.13s14.12.09,14.12.09l-1.9,6.89-12.23-.09-2.99-10.88H0v1.13h2.15l3.75,13.64,12.91.05v-1.13s-12.04-.04-12.04-.04l-.45-1.63,12.78.09,1.85-6.74c.9-.76,1.62-1.61,2.14-2.52.61-1.08.92-2.24.92-3.43,0-.31-.02-.61-.05-.92ZM22.84,7.48h-2.61c0-1.16-.27-2.3-.81-3.41.48-.3.92-.65,1.29-1.05,1.21,1.14,2,2.71,2.13,4.46ZM13.02,4.53c.66.28,1.37.46,2.11.53v2.42h-2.81c0-1.1.28-2.09.7-2.95ZM16.26,1.68c.45.44,1.05,1.09,1.59,1.91-.5.19-1.03.3-1.59.35V1.68ZM15.13,1.68v2.25c-.54-.06-1.06-.19-1.54-.38.52-.79,1.1-1.42,1.54-1.86ZM15.13,8.62v2.88h-1.64c-.54-1.01-.9-1.97-1.06-2.88h2.7ZM16.26,8.62h2.74c-.16.91-.52,1.88-1.06,2.9h-1.67v-2.9ZM16.26,7.48v-2.41c.74-.05,1.46-.21,2.15-.49.41.84.69,1.82.69,2.9h-2.84ZM19.83,2.31c-.28.29-.6.56-.95.78-.46-.72-.96-1.32-1.4-1.78.85.19,1.65.53,2.35,1ZM13.69,1.54c-.36.41-.75.9-1.12,1.47-.23-.16-.46-.33-.66-.52.54-.4,1.14-.72,1.78-.95ZM11.05,3.24c.29.28.61.53.96.76-.55,1.13-.84,2.3-.83,3.48h-2.03c.12-1.64.83-3.12,1.9-4.24ZM9.15,8.62h2.12c.14.91.46,1.87.93,2.86h-2.15c-.52-.9-.82-1.85-.91-2.86ZM19.2,11.52c.49-1,.81-1.98.95-2.9h2.69c-.13,1.21-.63,2.23-1.26,3.06l.04-.14-2.41-.02Z"/>
</svg>