<?xml version="1.0" encoding="UTF-8"?>
<svg id="Layer_1" xmlns="http://www.w3.org/2000/svg" viewBox="0 0 24 17.37">
  <defs>
    <style>
      .cls-1 {
        fill: #1d897a;
      }

      .cls-2 {
        fill: none;
      }
    </style>
  </defs>
  <path class="cls-2" d="M20.13,14.69c-.4.43-.85.76-.79.9.13.33.45.74.77.81.48.11.81-.32.76-.78-.03-.26-.37-.48-.73-.92Z"/>
  <path class="cls-2" d="M17.43,14.71c-.38.41-.75.63-.8.89-.09.52.29.83.81.82.51-.01.9-.31.79-.84-.05-.27-.42-.47-.8-.87Z"/>
  <path class="cls-2" d="M7.49,14.89c-.23.23-.61.45-.64.71-.07.5.28.82.81.84.5.01.78-.27.81-.76.04-.6-.34-.69-.98-.78Z"/>
  <rect class="cls-2" x="1.82" y="1.11" width="2.26" height="11.08"/>
  <path class="cls-2" d="M5.13,15.05h0c-.5-.08-.94,0-.93.63,0,.48.28.77.81.76.49-.01.84-.23.85-.73,0-.42-.15-.8-.72-.65Z"/>
  <rect class="cls-2" x="8.69" y="1.1" width="2.28" height="11.12"/>
  <rect class="cls-2" x="5.2" y="1.11" width="2.34" height="11.07"/>
  <rect class="cls-2" x="19.06" y="1.1" width="2.33" height="11.09"/>
  <rect class="cls-2" x="12.14" y="1.1" width="2.29" height="11.12"/>
  <rect class="cls-2" x="15.59" y="1.1" width="2.33" height="11.1"/>
  <path class="cls-1" d="M22.47,14.04v-.79c0-4.08,0-8.17,0-12.25C22.47.14,22.33,0,21.47,0c-6.55,0-13.09,0-19.64,0C.9,0,.79.1.79,1.03c0,3.49,0,6.97,0,10.46,0,.34.16.77-.43.83-.07,0-.17.31-.14.45.03.14.18.31.32.34.21.06.44.03.67.03h20.16v.89h-10.95c-3.26,0-6.52,0-9.78.02-.21,0-.42.27-.63.42.2.19.37.41.6.54.16.08.39.03.59.03h2.01c-.28,1.98,1.38,2.94,3.18,1.84.7.51,1.46.65,2.24.23.81-.43.93-1.2.84-2.01h6.08c0,1.97,1.21,2.7,3,1.9.16-.07.45.03.64.13,1.28.65,2.61-.09,2.72-1.51.02-.18.03-.37.05-.58.54,0,1.02.06,1.48-.02.22-.04.38-.36.56-.55-.19-.14-.36-.35-.58-.41-.28-.07-.58-.02-.95-.02ZM5.01,16.43c-.53.01-.8-.28-.81-.76,0-.62.43-.7.93-.63h0c.57-.14.73.23.72.66,0,.5-.35.72-.85.73ZM7.66,16.43c-.53-.02-.88-.34-.81-.84.03-.26.42-.47.64-.71.64.09,1.02.18.98.78-.03.5-.31.77-.81.76ZM17.44,16.42c-.52.01-.9-.3-.81-.82.04-.27.41-.48.8-.89.39.4.75.61.8.87.11.53-.27.83-.79.84ZM20.1,16.39c-.31-.07-.64-.48-.77-.81-.05-.14.4-.47.79-.9.36.44.7.66.73.92.05.46-.28.89-.76.78ZM4.08,12.19H1.82V1.11h2.26v11.08ZM7.54,12.18h-2.34V1.11h2.34v11.07ZM10.97,12.22h-2.28V1.1h2.28v11.12ZM14.43,12.22h-2.29V1.1h2.29v11.12ZM17.91,12.2h-2.33V1.1h2.33v11.1ZM21.39,12.18h-2.33V1.1h2.33v11.09Z"/>
</svg>