<?xml version="1.0" encoding="UTF-8"?>
<svg id="Layer_1" xmlns="http://www.w3.org/2000/svg" viewBox="0 0 24 13.2">
  <defs>
    <style>
      .cls-1 {
        fill: #1d897a;
      }

      .cls-2 {
        fill: none;
      }
    </style>
  </defs>
  <path class="cls-2" d="M21.68,3.53c-.27-.03-.55,0-.81.04-.49.09-.97.22-1.45.34-.37.09-.77.1-.79-.37-.01-.2.32-.52.56-.6.48-.17,1-.21,1.64-.33h0c-1.49-1.03-2.91-1.27-4.53-.73-3.03,1.01-6.08,1.93-9.12,2.91-.6.19-1.07.15-1.53-.37-.86-.98-1.81-1.87-2.65-2.86-.46-.54-.9-.73-1.54-.4.34.91.68,1.82,1.03,2.72.22.55.41,1.14.74,1.61.39.55.19.82-.3,1.04-.34.15-.71.25-1.21.42.27.11.37.16.48.2,1.52.57,3.1.58,4.69.62,1.25.03,2.29-.16,2.96-1.37.26-.48.79-.76,1.24-.34.49.47-.11.78-.38,1.09-1.47,1.63-2.94,3.25-4.54,5.01,1.03.05,1.79.18,2.52-.44,1.41-1.19,2.89-2.29,4.35-3.42,1.06-.83,2.11-1.67,3.21-2.45.21-.15.6-.04.91-.05-.1.27-.15.58-.32.8-.18.23-.46.39-.7.57.36.06.65.03.94-.05,1.67-.44,3.35-.87,5.01-1.35.46-.13.99-.36.94-1-.04-.54-.77-1.2-1.34-1.25Z"/>
  <path class="cls-1" d="M22,2.23c-1.75-1.39-3.64-2.06-5.89-1.32-2.97.97-5.96,1.84-8.94,2.79-.42.13-.68.11-.98-.22-.69-.76-1.51-1.42-2.11-2.24C3.35.23,2.45-.08,1.27.02.27.1.06.33.41,1.27c.54,1.45,1.1,2.89,1.68,4.38h0c-.51.21-.99.36-1.41.6-.27.16-.6.42-.67.69-.04.15.34.56.6.64,1.24.4,2.49.83,3.77,1.06,1.12.2,2.28.15,3.34.2-.87,1.09-1.78,2.19-2.64,3.32-.14.19-.21.53-.14.75.05.15.4.24.62.26.57.04,1.15-.03,1.72.02.77.07,1.39-.19,1.99-.66,1.48-1.18,2.98-2.35,4.5-3.48.42-.31.95-.51,1.45-.64.74-.18,1.53-.19,2.27-.38,1.79-.46,3.61-.87,5.33-1.54,1.4-.55,1.55-1.93.52-3.06-.4-.44-.87-.83-1.33-1.2ZM22.08,5.78c-1.66.48-3.33.91-5.01,1.35-.28.08-.58.1-.94.05.24-.19.52-.34.7-.57.17-.22.22-.53.32-.8-.31,0-.7-.1-.91.05-1.09.78-2.15,1.62-3.21,2.45-1.46,1.13-2.94,2.23-4.35,3.42-.73.62-1.49.49-2.52.44,1.6-1.77,3.08-3.38,4.54-5.01.27-.31.88-.62.38-1.09-.44-.42-.97-.14-1.24.34-.67,1.21-1.71,1.4-2.96,1.37-1.59-.04-3.18-.05-4.69-.62-.11-.04-.21-.09-.48-.2.5-.17.87-.27,1.21-.42.49-.21.68-.48.3-1.04-.33-.48-.52-1.06-.74-1.61-.36-.9-.69-1.82-1.03-2.72.64-.33,1.08-.14,1.54.4.84.99,1.79,1.88,2.65,2.86.45.52.92.56,1.53.37,3.04-.98,6.1-1.9,9.12-2.91,1.61-.54,3.04-.31,4.53.73h0c-.64.12-1.16.17-1.64.34-.24.08-.57.41-.56.6.02.47.42.46.79.37.48-.12.96-.24,1.45-.34.26-.05.54-.07.81-.04.58.06,1.3.71,1.34,1.25.05.64-.48.86-.94,1Z"/>
</svg>