<?xml version="1.0" encoding="UTF-8"?>
<svg id="Layer_1" xmlns="http://www.w3.org/2000/svg" viewBox="0 0 24 10.77">
  <defs>
    <style>
      .cls-1 {
        fill: #1d897a;
      }

      .cls-2 {
        fill: none;
      }
    </style>
  </defs>
  <path class="cls-2" d="M12.92,3.51h-2.91v2.44h2.91v-2.44ZM10.84,4.76c0,.25,0,.51,0,.76,0,.08-.1.14-.15.21-.06-.07-.16-.13-.16-.2,0-.54,0-1.08,0-1.6,0-.07.1-.12.15-.19.06.07.16.13.16.2.02.28,0,.55,0,.83ZM11.65,5.48c0,.12-.04.26-.18.23-.07,0-.15-.14-.16-.23,0-.51,0-1.03,0-1.54,0-.08.12-.14.17-.22.06.07.15.14.15.22.02.27,0,.54,0,.81h.02v.73ZM12.45,4.73c0,.25,0,.51,0,.76,0,.08-.11.15-.15.23-.06-.08-.15-.15-.16-.23-.02-.51-.02-1.03,0-1.54,0-.08.11-.15.15-.23.06.08.15.15.16.23.02.26,0,.52,0,.78Z"/>
  <path class="cls-2" d="M3.8,2.23c.53,0,1.07,0,1.63,0-.16-.62-.32-1.21-.47-1.8,0-.04-.09-.09-.12-.09h-1.34c.06.6.12,1.17.18,1.74,0,.06.08.14.13.14Z"/>
  <path class="cls-2" d="M16.2.65h-2.92v2.46h2.92V.65ZM14.1,2.66c0,.08-.1.14-.14.22-.06-.08-.16-.14-.17-.22-.02-.53,0-1.06,0-1.58,0-.07.11-.13.15-.2.06.07.15.13.15.21.02.27,0,.54,0,.81h0c0,.25,0,.51,0,.77ZM14.92,1.86h0v.74c0,.12,0,.28-.17.26-.06,0-.15-.16-.15-.25-.02-.5,0-1.01,0-1.52,0-.08.09-.21.15-.22.14-.02.17.11.17.23v.76ZM15.72,1.87h0c0,.26,0,.52,0,.78,0,.08-.11.15-.15.23-.06-.08-.15-.15-.16-.23-.02-.52-.02-1.04,0-1.55,0-.08.1-.2.16-.21.13-.03.16.1.16.21v.78Z"/>
  <path class="cls-2" d="M16.2,3.5h-2.92v2.46h2.92v-2.46ZM14.11,5.49c0,.09-.09.22-.14.23-.13.03-.18-.09-.18-.22v-1.54c0-.08.1-.15.15-.23.06.08.15.14.16.23.02.25,0,.5,0,.76h0c0,.25,0,.51,0,.77ZM14.92,4.73c0,.24.02.49,0,.73,0,.1-.09.24-.15.25-.14.02-.17-.11-.17-.24v-1.51c0-.12,0-.23.15-.23.15,0,.17.12.17.24v.76ZM15.72,4.75c0,.25,0,.51,0,.76,0,.08-.11.14-.15.21-.06-.07-.16-.13-.16-.2-.02-.53-.02-1.06,0-1.58,0-.07.11-.14.15-.21.06.07.15.13.16.2.02.28,0,.55,0,.83Z"/>
  <path class="cls-2" d="M21.3,5.69c-.23.32-.48.62-.68.95-.14.24-.32.3-.58.3H.45c.05.11.08.17.12.24.54.98,1.08,1.96,1.61,2.94.12.24.26.32.53.32,5.41,0,10.84,0,16.25,0,.84,0,1.48-.29,2.01-.91,1-1.17,1.8-2.48,2.51-3.83.02-.03.02-.07.03-.12h-2.02c-.07,0-.15.07-.19.12Z"/>
  <path class="cls-2" d="M19.52,3.51h-2.94v2.43h2.94v-2.43ZM17.4,5.47c0,.12,0,.25-.16.25s-.18-.12-.18-.24v-1.52c0-.08.11-.15.16-.23.06.08.16.14.16.22.02.26,0,.52,0,.78h.02v.74ZM18.19,5.52c0,.07-.11.13-.16.2-.06-.07-.15-.13-.15-.21-.02-.27,0-.54,0-.8s0-.51,0-.76c0-.08.11-.15.16-.22.06.07.15.14.15.21,0,.53,0,1.06,0,1.57ZM19.02,4.71c0,.26,0,.52,0,.78,0,.08-.11.15-.16.23-.06-.08-.15-.15-.16-.23,0-.51,0-1.03,0-1.54,0-.08.11-.15.16-.23.06.08.15.15.16.23.02.25,0,.5,0,.76Z"/>
  <rect class="cls-2" x="4.56" y="3.53" width="2.8" height=".78"/>
  <path class="cls-2" d="M7.37,4.67h-2.83c-.31,0-.34-.03-.34-.33v-.85c0-.28.03-.31.3-.31h2.86v-.59H2.24v4h5.14v-1.93Z"/>
  <path class="cls-1" d="M23.76,5.24c-.8,0-1.58,0-2.37,0-.1,0-.22.08-.28.15-.24.32-.48.63-.69.97-.13.18-.27.25-.49.25H7.97c-.08,0-.15,0-.25,0V2.55c0-.28-.03-.31-.31-.31-.47,0-.93,0-1.4,0-.17,0-.25-.05-.29-.21-.14-.6-.32-1.18-.46-1.78-.05-.19-.13-.26-.34-.26-.43,0-.85,0-1.29,0-.54,0-.53,0-.47.54.07.56.12,1.11.17,1.7h-1.12c-.31,0-.33,0-.33.33v4.05H.35c-.39,0-.43.08-.25.41.62,1.13,1.25,2.26,1.85,3.39.15.28.32.36.62.36,5.47,0,10.94-.02,16.42,0,.92,0,1.63-.3,2.22-.99,1.09-1.29,1.98-2.73,2.74-4.23.11-.21.04-.31-.19-.31ZM3.5.35h1.33s.12.05.12.09c.15.59.31,1.17.47,1.8-.57,0-1.1,0-1.63,0-.05,0-.13-.09-.13-.14-.07-.57-.12-1.13-.18-1.74h0ZM2.24,2.59h5.13v.59h-2.86c-.27,0-.3.03-.3.31v.85c0,.3.03.33.34.33h2.83v1.93H2.24V2.59ZM7.36,3.53v.78h-2.8v-.78h2.8ZM23.48,5.69c-.72,1.35-1.52,2.66-2.51,3.83-.53.62-1.17.91-2.01.91-5.41,0-10.84,0-16.25,0-.27,0-.4-.08-.53-.32-.53-.98-1.08-1.96-1.61-2.94-.04-.07-.07-.13-.12-.23h0c.1,0,.16,0,.23,0h19.35c.26,0,.43-.06.58-.3.2-.33.45-.63.68-.95.04-.06.12-.12.19-.12h2.02c0,.06,0,.1-.03.12Z"/>
  <path class="cls-1" d="M9.96,6.31h9.61c.23,0,.29-.1.29-.31v-2.51c0-.31-.02-.33-.33-.33h-2.98V.58c0-.17-.04-.28-.24-.28h-3.13c-.18,0-.25.09-.25.27v2.59h-2.98c-.22,0-.3.08-.3.3,0,.85,0,1.7,0,2.55,0,.22.08.3.3.3ZM16.58,3.51h2.94v2.43h-2.94v-2.43ZM13.29.65h2.92v2.46h-2.92V.65ZM13.29,3.5h2.92v2.46h-2.92v-2.46ZM10.01,3.51h2.91v2.44h-2.91v-2.44Z"/>
  <path class="cls-1" d="M14.1,3.96c0-.09-.11-.15-.16-.23-.06.08-.15.15-.15.23v1.54c0,.13.05.25.18.22.06,0,.14-.14.14-.23,0-.26,0-.52,0-.78h0c0-.25.02-.5,0-.75Z"/>
  <path class="cls-1" d="M14.75,3.73c-.14,0-.15.12-.15.23v1.51c0,.13.03.26.17.24.07,0,.15-.15.15-.25.02-.24,0-.49,0-.73v-.76c0-.12-.02-.24-.17-.24Z"/>
  <path class="cls-1" d="M15.41,3.94c-.02.53-.02,1.06,0,1.58,0,.07.11.13.16.2.05-.07.15-.13.15-.21,0-.25,0-.51,0-.76,0-.28.02-.55,0-.83,0-.07-.11-.13-.16-.2-.05.07-.15.14-.15.21Z"/>
  <path class="cls-1" d="M15.56.88c-.07,0-.16.13-.16.21-.02.52-.02,1.04,0,1.55,0,.08.11.15.16.23.05-.08.15-.15.15-.23,0-.26,0-.52,0-.78h0v-.78c0-.12-.03-.24-.16-.21Z"/>
  <path class="cls-1" d="M14.09,1.08c0-.08-.1-.14-.15-.21-.05.07-.15.13-.15.2,0,.53-.02,1.06,0,1.58,0,.08.12.14.17.22.05-.08.14-.14.14-.22,0-.26,0-.52,0-.78h0c0-.26.02-.53,0-.8Z"/>
  <path class="cls-1" d="M14.75.87c-.07,0-.15.14-.15.22,0,.51-.02,1.02,0,1.52,0,.09.1.25.15.25.16.02.17-.13.17-.26v-.73h0v-.77c0-.13-.03-.25-.17-.23Z"/>
  <path class="cls-1" d="M17.38,3.96c0-.08-.11-.14-.16-.22-.06.08-.16.15-.16.23v1.52c0,.12.03.24.18.24s.16-.13.16-.25v-.74h-.02c0-.26.02-.52,0-.78Z"/>
  <path class="cls-1" d="M17.87,3.96c0,.25,0,.51,0,.76s-.02.53,0,.8c0,.08.1.14.15.21.06-.07.16-.13.16-.2,0-.52,0-1.05,0-1.57,0-.07-.1-.14-.15-.21-.06.07-.16.14-.16.22Z"/>
  <path class="cls-1" d="M18.69,3.96c0,.51,0,1.03,0,1.54,0,.08.11.15.16.23.06-.08.16-.15.16-.23,0-.26,0-.52,0-.78s.02-.51,0-.76c0-.08-.11-.15-.16-.23-.06.08-.16.15-.16.23Z"/>
  <path class="cls-1" d="M11.63,3.95c0-.08-.1-.15-.15-.22-.06.08-.17.14-.17.22,0,.51,0,1.03,0,1.54,0,.09.1.22.16.23.14.03.18-.11.18-.23v-.73h-.02c0-.27.02-.54,0-.81Z"/>
  <path class="cls-1" d="M10.67,3.73c-.06.07-.15.12-.15.19,0,.53,0,1.07,0,1.6,0,.07.11.13.16.2.06-.07.15-.13.15-.21,0-.25,0-.51,0-.76,0-.28.02-.55,0-.83,0-.07-.11-.13-.16-.2Z"/>
  <path class="cls-1" d="M12.13,3.96c-.02.51-.02,1.03,0,1.54,0,.08.11.15.16.23.05-.08.15-.15.15-.23,0-.25,0-.51,0-.76s.02-.52,0-.78c0-.08-.11-.15-.16-.23-.05.08-.15.15-.15.23Z"/>
</svg>