<?xml version="1.0" encoding="UTF-8"?>
<svg id="Layer_1" xmlns="http://www.w3.org/2000/svg" viewBox="0 0 24 22.63">
  <defs>
    <style>
      .cls-1 {
        fill: #1d897a;
      }

      .cls-2 {
        fill: none;
      }
    </style>
  </defs>
  <path class="cls-2" d="M9.52,11.8s.1.03.15.05v-.2h2.16c.14-.15.44-.47.79-.84h0c-.79-.74-1.5-1.46-2.27-2.12-.51-.44-.59-.89-.41-1.52.96-3.37-1.22-5.29-3.73-5.97-.37-.1-.84.16-1.27.25.57.76,1.13,1.24,1.65,1.76.3.31.63.65.77,1.04.42,1.18-.28,2.98-1.33,3.64-1.15.72-2.38.56-3.52-.47-.46-.41-.92-.82-1.38-1.23-.11.51-.1.95.02,1.36.56,1.95,2.42,3.19,4.75,2.93,1.51-.17,2.72.03,3.63,1.33Z"/>
  <path class="cls-2" d="M11.24,13.08c-.46-.51-.8-.48-1.27,0-1.83,1.85-3.7,3.67-5.55,5.52-.78.78-.84,1.8-.17,2.48.63.63,1.47.58,2.31-.24,1.38-1.33,2.73-2.71,4.09-4.06.72-.71,1.44-1.41,2.19-2.15h0c-.59-.56-1.13-1.02-1.61-1.54Z"/>
  <path class="cls-2" d="M13.47,13.67c.86.58.65,1.17,0,1.78,1.96,1.91,3.83,3.77,5.76,5.57.34.31.98.54,1.39.44.48-.12,1-.57,1.25-1.02.31-.57.03-1.18-.46-1.63-1.81-1.68-3.63-3.37-5.44-5.05-.43-.4-.87-.8-1.32-1.23-.42.4-.77.74-1.18,1.14ZM20.11,18.74c.35.51.7.8.68,1.04-.03.27-.4.51-.63.77-.24-.24-.64-.45-.68-.73-.04-.24.3-.55.63-1.08Z"/>
  <path class="cls-2" d="M21.82,2.15c-.81.59-1.9,1-1.72,2.36.03.2-.22.48-.4.67-1.14,1.16-2.29,2.3-3.43,3.46-1.29,1.31-2.56,2.63-3.84,3.94h0c.04.08.09.15.13.23.23-.15.5-.27.69-.46,2.34-2.33,4.66-4.68,7-7.02.21-.21.46-.48.72-.51,1.07-.09,1.44-.9,1.79-1.7.1-.23.12-.69,0-.79-.25-.17-.74-.32-.93-.19Z"/>
  <path class="cls-1" d="M22.56.98c-1.2-.25-3.36,1.2-3.49,2.55-.09.89-.56,1.38-1.09,1.91-.58.59-1.18,1.16-1.75,1.76-.92.97-1.83,1.96-2.74,2.93-.83-.78-1.52-1.38-2.13-2.04-.19-.21-.32-.62-.27-.9.59-3.28-.74-5.7-3.83-6.87-1.55-.59-2.34-.39-3.46.79-.35.37-.35.64,0,.97.67.62,1.31,1.25,1.98,1.87.69.64.73,1.76.07,2.58-.61.75-1.54.89-2.33.27-.69-.54-1.33-1.15-2-1.73-.7-.62-1.36-.43-1.48.51-.1.75-.07,1.55.09,2.28.65,2.95,3.89,4.01,6.04,3.69,1.22-.18,1.91.24,2.68,1.22h0c-.24.2-.47.35-.67.54-1.6,1.59-3.24,3.15-4.79,4.79-1.07,1.12-.96,2.73.12,3.78,1.02,1,2.48.97,3.61-.11,1.33-1.28,2.62-2.6,3.92-3.91.53-.54,1.05-1.1,1.6-1.68,1.98,1.92,3.87,3.73,5.74,5.56.83.81,1.79,1.06,2.86.74,1.9-.58,2.46-2.92,1.01-4.32-2.25-2.18-4.56-4.3-6.66-6.27,1.74-1.85,3.5-3.72,5.26-5.58.15-.16.33-.35.52-.39,1.31-.29,1.9-1.26,2.42-2.38.51-1.1-.05-2.32-1.25-2.57ZM5.89,10.47c-2.32.26-4.18-.98-4.75-2.93-.12-.41-.13-.85-.02-1.36.46.41.92.82,1.38,1.23,1.15,1.03,2.38,1.2,3.52.47,1.05-.66,1.75-2.46,1.33-3.64-.14-.39-.46-.73-.77-1.04-.51-.52-1.08-1-1.65-1.76.43-.09.9-.35,1.27-.25,2.51.68,4.69,2.61,3.73,5.97-.18.64-.1,1.09.41,1.52.77.66,1.48,1.38,2.27,2.12h0c-.35.37-.65.69-.79.84h-2.16v.2c-.05-.02-.13-.01-.15-.05-.9-1.3-2.11-1.51-3.63-1.33ZM12.85,14.62c-.75.74-1.48,1.44-2.19,2.15-1.36,1.35-2.71,2.73-4.09,4.06-.85.82-1.69.87-2.31.24-.67-.68-.61-1.69.17-2.48,1.85-1.84,3.72-3.66,5.55-5.52.47-.48.81-.5,1.27,0,.48.52,1.02.98,1.61,1.54h0ZM15.98,13.75c1.81,1.68,3.63,3.37,5.44,5.05.49.45.77,1.06.46,1.63-.25.45-.77.9-1.25,1.02-.41.1-1.06-.13-1.39-.44-1.93-1.8-3.8-3.66-5.76-5.57.65-.61.86-1.19,0-1.78.42-.4.77-.74,1.18-1.14.45.42.89.82,1.32,1.23ZM22.75,3.12c-.35.81-.72,1.61-1.79,1.7-.25.02-.51.3-.72.51-2.34,2.34-4.66,4.68-7,7.02-.19.19-.46.31-.69.46-.04-.08-.09-.15-.13-.23h0c1.28-1.31,2.56-2.63,3.84-3.94,1.14-1.16,2.29-2.3,3.43-3.46.18-.18.43-.46.4-.67-.19-1.36.91-1.78,1.72-2.36.19-.13.68.01.93.19.13.09.11.56,0,.79Z"/>
  <path class="cls-1" d="M20.16,20.55c.23-.25.6-.49.63-.77.03-.25-.33-.53-.68-1.04-.33.53-.68.84-.63,1.08.04.27.44.49.68.73Z"/>
</svg>