<?xml version="1.0" encoding="UTF-8"?>
<svg id="Layer_1" xmlns="http://www.w3.org/2000/svg" viewBox="0 0 24 18.02">
  <defs>
    <style>
      .cls-1 {
        fill: #1d897a;
      }

      .cls-2 {
        fill: none;
      }
    </style>
  </defs>
  <path class="cls-2" d="M20.48,4.59l-.06-.13-.06.13c-.02.09-.09.17-.17.21l-.13.08.11.06c.07.06.13.11.17.21l.06.13.06-.13c.02-.09.09-.17.17-.21l.15-.06-.13-.08c-.07-.06-.13-.11-.17-.21Z"/>
  <path class="cls-2" d="M6.62,11.79c-.13-.11-.15-.3-.08-.45.32-.64.21-1.41-.3-1.91-.3-.28-.69-.45-1.11-.47l.62.62c.09.11.13.24.09.38l-.26.92c-.04.13-.13.22-.26.26l-.94.26c-.13.04-.26,0-.36-.09l-.64-.62c.02.41.19.81.49,1.11.51.51,1.28.62,1.93.28.06-.02.11-.04.17-.04.09,0,.19.04.26.11l4.74,4.97c.08.09.19.15.3.15.13,0,.24-.06.32-.13.07-.09.13-.19.15-.36,0-.11-.06-.21-.13-.28l-5.01-4.71ZM11.25,16.8s-.08.06-.13.06-.1-.02-.13-.06-.06-.08-.06-.13.02-.1.06-.13.08-.06.13-.06.1.02.13.06.06.08.06.13-.02.1-.06.13Z"/>
  <path class="cls-2" d="M23.12.75h-7.31c-.07,0-.13.06-.13.13v15.11c0,.08.06.13.13.13h7.31c.07,0,.13-.06.13-.13V.88c0-.08-.06-.13-.13-.13ZM16.83,1.82c-.08.08-.17.11-.28.11s-.2-.04-.28-.11c-.08-.08-.11-.17-.11-.28s.04-.2.11-.28c.08-.08.17-.12.28-.12s.2.04.28.12c.08.08.12.17.12.28s-.04.2-.12.28ZM17.59,1.63s-.06.04-.09.04c-.03,0-.07-.01-.09-.04-.03-.03-.04-.06-.04-.09s.01-.07.04-.09c.02-.03.06-.04.09-.04.04,0,.07.01.09.04.02.02.04.06.04.09s-.01.07-.04.09ZM19.91,15.56h-1.31c-.21,0-.38-.17-.38-.38s.17-.38.38-.38h1.31c.21,0,.38.17.38.38s-.17.38-.38.38ZM20.78,6.52c-.06.15-.19.24-.36.24s-.3-.09-.36-.24l-.36-.98-.6-.34c-.11-.08-.19-.19-.19-.34s.08-.28.19-.34l.6-.34.36-.98c.06-.15.19-.24.36-.24s.3.09.36.24l.36.98.6.34c.11.07.19.21.19.34s-.07.26-.19.34l-.6.34-.36.98ZM22.54,7.16l-.24.64-.22-.64-.43-.22.43-.24.22-.64.24.64.43.24-.43.22Z"/>
  <path class="cls-1" d="M1.33,1.26c-.08.08-.12.17-.12.28s.04.2.12.28c.08.08.17.11.28.11s.2-.04.28-.11c.08-.08.11-.17.11-.28s-.04-.2-.11-.28c-.08-.08-.17-.12-.28-.12s-.2.04-.28.12Z"/>
  <path class="cls-1" d="M2.47,1.44s-.04.06-.04.09.01.07.04.09c.03.02.06.04.09.04s.07-.01.09-.04c.03-.03.04-.06.04-.09s-.01-.07-.04-.09c-.02-.03-.06-.04-.09-.04s-.07.01-.09.04Z"/>
  <path class="cls-1" d="M4.97,15.56c.21,0,.38-.17.38-.38s-.17-.38-.38-.38h-1.31c-.21,0-.38.17-.38.38s.17.38.38.38h1.31Z"/>
  <path class="cls-1" d="M.88,16.12c-.08,0-.13-.06-.13-.13V.88c0-.08.06-.13.13-.13h7.31c.08,0,.13.06.13.13v10.52l.75.71V.88c0-.49-.39-.88-.88-.88H.88c-.49,0-.88.39-.88.88v15.11c0,.49.39.88.88.88h7.31c.15,0,.28-.04.39-.09l-.62-.66H.88Z"/>
  <path class="cls-1" d="M7.29,11.46c.34-.88.13-1.86-.54-2.53-.68-.65-1.67-.88-2.55-.54-.11.04-.21.15-.24.28-.02.13.02.26.09.34l.98.98-.15.51-.52.15-.98-.98c-.06-.09-.19-.13-.32-.09-.13.02-.23.11-.26.22-.34.88-.13,1.88.54,2.53.67.68,1.67.88,2.55.54l4.56,4.76c.21.24.51.37.82.39h.04c.3,0,.6-.13.82-.34.22-.22.36-.54.34-.86,0-.34-.15-.64-.37-.82l-4.8-4.54ZM11.61,17.14c-.08.07-.19.13-.32.13-.11,0-.22-.06-.3-.15l-4.74-4.97c-.08-.08-.17-.11-.26-.11-.06,0-.11.02-.17.04-.66.34-1.43.22-1.93-.28-.3-.3-.47-.69-.49-1.11l.64.62c.09.09.22.13.36.09l.94-.26c.13-.04.22-.13.26-.26l.26-.92c.04-.13,0-.26-.09-.38l-.62-.62c.41.02.81.19,1.11.47.51.51.62,1.28.3,1.91-.08.15-.06.34.08.45l5.01,4.71c.08.08.13.17.13.28-.02.17-.08.26-.15.36Z"/>
  <path class="cls-1" d="M11.12,16.48c-.05,0-.1.02-.13.06s-.06.08-.06.13.02.1.06.13.08.06.13.06.1-.02.13-.06.06-.08.06-.13-.02-.1-.06-.13-.08-.06-.13-.06Z"/>
  <path class="cls-1" d="M23.12,0h-7.31c-.49,0-.88.39-.88.88v15.11c0,.49.39.88.88.88h7.31c.49,0,.88-.39.88-.88V.88c0-.49-.39-.88-.88-.88ZM23.25,15.99c0,.08-.06.13-.13.13h-7.31c-.07,0-.13-.06-.13-.13V.88c0-.08.06-.13.13-.13h7.31c.07,0,.13.06.13.13v15.11Z"/>
  <path class="cls-1" d="M16.56,1.14c-.11,0-.2.04-.28.12-.08.08-.11.17-.11.28s.04.2.11.28c.08.08.17.11.28.11s.2-.04.28-.11c.08-.08.12-.17.12-.28s-.04-.2-.12-.28c-.08-.08-.17-.12-.28-.12Z"/>
  <path class="cls-1" d="M17.49,1.41s-.07.01-.09.04c-.03.02-.04.06-.04.09s.01.07.04.09c.02.02.06.04.09.04.04,0,.07-.01.09-.04.02-.03.04-.06.04-.09s-.01-.07-.04-.09c-.03-.03-.06-.04-.09-.04Z"/>
  <path class="cls-1" d="M19.91,14.81h-1.31c-.21,0-.38.17-.38.38s.17.38.38.38h1.31c.21,0,.38-.17.38-.38s-.17-.38-.38-.38Z"/>
  <path class="cls-1" d="M14.31,8.36s0-.02-.02-.04t-.02-.04s-.02-.02-.02-.04c0-.02-.02-.02-.02-.04l-.52-.75c-.11-.17-.36-.21-.52-.09-.17.11-.21.36-.09.53l.11.17h-2.27l.11-.17c.11-.17.08-.41-.09-.53-.17-.11-.41-.07-.52.09l-.53.75s-.02.02-.02.04c0,0,0,.02-.02.02t-.02.04v.22s0,.02.02.04c0,0,0,.02.02.02,0,.02.02.02.02.04l.53.75c.07.11.19.17.3.17.07,0,.15-.02.21-.07.17-.11.21-.36.09-.53l-.09-.13h2.29l-.11.17c-.11.17-.08.41.09.52.06.04.15.08.21.08.11,0,.22-.06.3-.17l.52-.75s.02-.02.02-.04.02-.02.02-.04,0-.02.02-.04t.02-.04v-.08s.02-.04,0-.04v-.04Z"/>
  <polygon class="cls-1" points="22.29 6.06 22.07 6.69 21.64 6.94 22.07 7.16 22.29 7.8 22.54 7.16 22.97 6.94 22.54 6.69 22.29 6.06"/>
  <path class="cls-1" d="M21.92,4.87c0-.13-.07-.26-.19-.34l-.6-.34-.36-.98c-.06-.15-.19-.24-.36-.24s-.3.09-.36.24l-.36.98-.6.34c-.11.06-.19.19-.19.34s.08.26.19.34l.6.34.36.98c.06.15.19.24.36.24s.3-.09.36-.24l.36-.98.6-.34c.11-.08.19-.21.19-.34ZM20.63,4.93c-.08.04-.15.11-.17.21l-.06.13-.06-.13c-.04-.09-.09-.15-.17-.21l-.11-.06.13-.08c.08-.04.15-.11.17-.21l.06-.13.06.13c.04.09.09.15.17.21l.13.08-.15.06Z"/>
</svg>