<?xml version="1.0" encoding="UTF-8"?>
<svg id="Layer_1" xmlns="http://www.w3.org/2000/svg" viewBox="0 0 24 25.1">
  <defs>
    <style>
      .cls-1 {
        fill: #1d897a;
      }

      .cls-2 {
        fill: none;
      }
    </style>
  </defs>
  <path class="cls-2" d="M8.3,13.1h0c-.17,1.23.51,2,1.83,2.13,1.73.18,2.62-.58,2.7-2.28-1.49.67-3.01.56-4.53.15Z"/>
  <path class="cls-2" d="M8.02,4.41c.53-.74.85-.71,1.53-.09.32.29.72.62,1.11.69,1.33.22,2.68.32,4.02.47.23-2.34-1.55-4.19-4.01-4.41-2.54-.22-4.55,1.55-4.74,4.25.89.01,1.57-.2,2.08-.91Z"/>
  <path class="cls-2" d="M13.2,11.44c1.84-1.29,1.6-3.17,1.51-5.1-1.05,0-2.06.11-3.03-.03-.99-.15-1.94-.54-2.83-.81-.9.35-1.85.71-2.93,1.12h0c-.17,1.96.07,3.93,2.19,5.07,1.72.93,3.45.9,5.1-.26Z"/>
  <path class="cls-2" d="M21.43,14.88c-.59.27-1.15.13-1.59-.35-.59-.65-.43-1.4.54-2.78-1.4-.06-2.36,1.02-2.25,2.44.03.35-.1.81-.33,1.07-1.31,1.48-2.65,2.93-4.02,4.34-.23.24-.71.38-1.05.35-1.01-.11-2.14.58-2.44,1.61-.28.93.26,1.94,1.25,2.34,1.49.61,3.12-.54,3.12-2.17,0-.34.14-.77.37-1,1.19-1.2,2.46-2.34,3.65-3.54.47-.47.92-.65,1.62-.57,1.6.19,2.74-1,2.54-2.59-.48.29-.92.62-1.41.85ZM12.33,22.77c-.21.03-.68-.42-.7-.69-.02-.3.33-.62.52-.94h0c.12,0,.23,0,.35,0,.2.3.59.62.56.9-.03.28-.44.69-.73.74Z"/>
  <path class="cls-1" d="M.01,23.71c0,.38-.09.84.5.87.61.03.54-.45.55-.82.01-1.28-.01-2.56,0-3.84.03-2.17,1.01-3.8,2.95-4.75.96-.47,2.03-.7,3.03-1.03,1.54,3.14,5.78,2.76,6.74.17.41.09.76.23,1.11.23.23,0,.46-.17.69-.27-.13-.22-.21-.49-.39-.65-.15-.13-.43-.11-.62-.21-.24-.12-.62-.27-.64-.45-.04-.28.08-.7.28-.89.85-.82,1.49-1.76,1.59-2.94.11-1.38.15-2.77.1-4.16C15.81,2.49,13.79.38,11.34.06c-3-.38-5.69,1.04-6.21,3.66-.36,1.81-.23,3.75-.11,5.62.09,1.4,1.09,2.38,2.41,3.31-.41.25-.67.48-.98.58-.5.18-1.03.25-1.53.41C2.02,14.59-.17,16.58.01,20.29.07,21.43.01,22.57.01,23.71ZM10.13,15.24c-1.33-.14-2-.9-1.83-2.13h0c1.52.41,3.04.52,4.53-.15-.08,1.71-.97,2.46-2.7,2.28ZM10.68,1.07c2.46.21,4.23,2.06,4.01,4.41-1.34-.15-2.69-.25-4.02-.47-.4-.06-.79-.4-1.11-.69-.68-.62-1-.65-1.53.09-.51.71-1.19.93-2.08.91.19-2.71,2.2-4.47,4.74-4.25ZM5.92,6.63h0c1.08-.42,2.03-.78,2.93-1.12.89.26,1.84.66,2.83.81.97.14,1.99.03,3.03.03.08,1.93.32,3.81-1.51,5.1-1.65,1.15-3.37,1.18-5.1.26-2.12-1.14-2.36-3.11-2.19-5.07Z"/>
  <path class="cls-1" d="M24,14.2c-.01-.26-.06-.52-.15-.78-.25-.77-.7-.94-1.38-.51-.4.25-.75.58-1.15.83-.15.09-.4.04-.6.05,0-.23-.09-.52.01-.68.19-.3.54-.49.74-.79.21-.32.53-.83.41-1.03-.2-.34-.69-.66-1.08-.69-2.15-.18-3.53,1.1-3.82,3.39-.05.4-.25.85-.52,1.15-.96,1.08-2.01,2.09-2.95,3.18-.38.44-.74.61-1.33.62-1.81.01-3.31,1.76-3.05,3.45.25,1.55,1.35,2.6,2.83,2.71,1.84.13,3.29-.7,3.61-2.37.2-1.06.8-1.71,1.47-2.39.69-.69,1.37-1.4,2.09-2.05.35-.31.79-.5,1.19-.75h0c2.08.23,3.67-1.37,3.67-3.17v-.17ZM20.3,16.62c-.69-.08-1.15.1-1.62.57-1.2,1.2-2.46,2.33-3.65,3.54-.23.23-.37.66-.37,1,0,1.63-1.62,2.79-3.12,2.17-.99-.41-1.53-1.41-1.25-2.34.3-1.03,1.43-1.72,2.44-1.61.34.03.82-.11,1.05-.35,1.38-1.41,2.72-2.86,4.02-4.34.23-.26.36-.72.33-1.07-.11-1.41.85-2.5,2.25-2.44-.97,1.38-1.13,2.13-.54,2.78.44.48,1,.62,1.59.35.49-.23.94-.56,1.41-.85.2,1.59-.94,2.78-2.54,2.59Z"/>
  <path class="cls-1" d="M19.79,23.77c.02.28.28.55.44.82.2-.27.56-.54.58-.82.08-1.49.1-2.99.07-4.48,0-.24-.32-.47-.49-.7-.2.24-.56.46-.58.71-.08.77-.03,1.55-.03,2.32h0c0,.72-.04,1.44.02,2.16Z"/>
  <path class="cls-1" d="M5.38,19.68c-.02-.22-.31-.42-.47-.63-.18.22-.51.43-.52.66-.05,1.41-.05,2.82,0,4.23,0,.23.33.45.5.67.17-.24.47-.46.49-.71.07-.69.02-1.38.02-2.07h0c0-.72.04-1.44-.02-2.15Z"/>
  <path class="cls-1" d="M12.14,21.15h0c-.19.31-.54.64-.52.93.02.26.49.72.7.69.29-.05.7-.45.73-.74.03-.28-.36-.6-.56-.9-.12,0-.24,0-.35.01Z"/>
</svg>