<?xml version="1.0" encoding="UTF-8"?>
<svg id="Layer_1" xmlns="http://www.w3.org/2000/svg" viewBox="0 0 24 23.17">
  <defs>
    <style>
      .cls-1 {
        fill: #1d897a;
      }

      .cls-2 {
        fill: none;
      }
    </style>
  </defs>
  <path class="cls-2" d="M11.14,13.6l-2.03,2.03c-.12.12-.31.14-.45.07-.32-.14-.67-.18-1-.12-.33.06-.65.22-.91.47-.26.26-.42.58-.47.91-.03.15-.03.3-.02.44l.8-.8c.15-.15.39-.15.54,0l1.03,1.03c.15.15.15.39,0,.55l-.8.8c.15.01.3,0,.44-.02.33-.06.65-.22.91-.48l.02-.02c.25-.25.4-.57.46-.89.06-.34.02-.7-.13-1.02-.07-.15-.03-.32.08-.43l2.03-2.03-.15-.14-.34-.34Z"/>
  <path class="cls-2" d="M9.93,10.34c-.15-.15-.15-.4,0-.55l.16-.16-2.64-1.85-.57.57,1.85,2.64.16-.16c.15-.15.39-.15.55,0l3.84,3.84.48-.48-3.84-3.84Z"/>
  <path class="cls-2" d="M14.89,10.82c.12-.12.31-.15.45-.07.32.14.67.18,1,.12.33-.06.65-.22.91-.47h0c.26-.26.42-.58.48-.91.02-.15.03-.29.02-.44l-.8.8c-.15.15-.4.15-.55,0l-1.03-1.03c-.15-.15-.15-.39,0-.54l.8-.8c-.15-.01-.3,0-.44.02-.33.06-.65.22-.91.47-.26.26-.42.58-.47.91-.06.34-.02.7.13,1.02.07.15.03.32-.08.43l-1.69,1.69.48.48,1.69-1.69Z"/>
  <polygon class="cls-2" points="22.38 21.31 1.17 21.31 1.17 22.4 22.83 22.4 22.83 21.31 22.38 21.31 22.38 21.31"/>
  <path class="cls-2" d="M22,9.77L12,2.91,2,9.78v10.76h20v-10.77ZM18.05,18.94l-.02.02c-.32.3-.73.46-1.14.46s-.84-.16-1.16-.48l-3.09-3.08c-.15-.15-.15-.39,0-.54l.11-.11-.57-.57-1.85,1.85c.13.4.16.82.09,1.23-.09.47-.31.93-.67,1.3l-.02.02c-.37.37-.84.6-1.32.69-.49.09-.99.03-1.46-.18-.05-.02-.1-.05-.14-.09-.15-.15-.15-.39,0-.54l1-1-.48-.48-1,1s-.07.06-.11.08c-.19.09-.42,0-.51-.19-.22-.47-.28-.99-.19-1.48.09-.48.32-.95.69-1.32.37-.37.84-.6,1.32-.69.41-.07.83-.04,1.23.09l1.85-1.85-1.42-1.42-.22.21s-.03.03-.05.04c-.17.12-.41.08-.54-.09l-2.29-3.26c-.12-.15-.11-.37.03-.51l1.03-1.03c.13-.13.34-.15.49-.04l3.26,2.29s.05.03.07.06c.15.15.15.39,0,.54l-.21.22,1.42,1.42,1.51-1.51c-.13-.4-.16-.82-.09-1.23.09-.48.32-.95.69-1.32.37-.37.84-.6,1.32-.69.49-.09,1-.03,1.46.18.05.02.1.05.14.09.15.15.15.39,0,.55l-1,1,.48.48,1-1s.07-.06.11-.08c.19-.09.42,0,.51.19.22.47.28.99.19,1.48-.09.48-.32.95-.69,1.32-.37.37-.84.6-1.32.69-.41.07-.83.04-1.23-.09l-1.51,1.51.57.57.11-.1c.15-.15.39-.15.54,0l3.09,3.08c.32.32.48.74.48,1.16s-.16.84-.48,1.16Z"/>
  <path class="cls-2" d="M14.69,14.34l-1.24,1.24,2.81,2.81c.17.17.39.26.62.26s.43-.08.6-.24l.02-.02c.17-.17.26-.39.26-.62s-.09-.45-.26-.62l-2.81-2.81Z"/>
  <path class="cls-2" d="M12,.85L.77,8.47v1.21S11.78,2.12,11.78,2.12c.14-.09.31-.09.44,0l11.01,7.56v-1.21S12,.85,12,.85Z"/>
  <path class="cls-1" d="M23.82,7.94L12.21.07c-.14-.09-.31-.09-.44,0L.17,7.95c-.11.07-.17.19-.17.32v2.15c0,.21.17.38.38.38.08,0,.15-.02.22-.07l.63-.43v10.23s-.45,0-.45,0c-.21,0-.39.17-.39.39v1.86c0,.21.17.39.39.39h22.43c.21,0,.39-.17.39-.39v-1.86c0-.21-.17-.39-.39-.39h-.45v-10.23l.63.43c.17.12.41.07.53-.1.05-.07.07-.16.07-.24v-2.13c0-.14-.08-.26-.18-.32ZM22.83,21.31v1.09H1.17v-1.09h21.66ZM2,9.78L12,2.91l10,6.86v10.77H2v-10.76ZM12.22,2.13c-.13-.09-.3-.1-.44,0L.77,9.68v-1.21S12,.85,12,.85l11.23,7.62v1.21S12.22,2.13,12.22,2.13Z"/>
  <path class="cls-1" d="M14.96,13.52c-.15-.15-.39-.15-.54,0l-.11.1-.57-.57,1.51-1.51c.4.13.82.16,1.23.09.48-.09.95-.32,1.32-.69.37-.37.6-.84.69-1.32.09-.5.03-1.01-.19-1.48-.09-.19-.32-.28-.51-.19-.04.02-.08.05-.11.08l-1,1-.48-.48,1-1c.15-.15.15-.4,0-.55-.04-.04-.09-.07-.14-.09-.46-.21-.97-.27-1.46-.18-.48.09-.95.32-1.32.69-.37.37-.6.84-.69,1.32-.07.41-.04.83.09,1.23l-1.51,1.51-1.42-1.42.21-.22c.15-.15.15-.39,0-.54-.02-.02-.04-.04-.07-.06l-3.26-2.29c-.15-.11-.36-.09-.49.04l-1.03,1.03c-.14.14-.15.36-.03.51l2.29,3.26c.12.17.36.22.54.09.02-.01.03-.03.05-.04l.22-.21,1.42,1.42-1.85,1.85c-.4-.13-.82-.16-1.23-.09-.48.09-.95.32-1.32.69-.37.37-.6.84-.69,1.32-.09.5-.02,1.01.19,1.48.09.19.32.28.51.19.04-.02.08-.05.11-.08l1-1,.48.48-1,1c-.15.15-.15.39,0,.54.04.04.09.07.14.09.46.21.97.27,1.46.18.48-.09.95-.32,1.32-.69l.02-.02c.36-.37.58-.82.67-1.3.07-.41.04-.83-.09-1.23l1.85-1.85.57.57-.11.11c-.15.15-.15.39,0,.54l3.09,3.08c.32.32.74.48,1.16.48s.82-.15,1.14-.46l.02-.02c.32-.32.48-.74.48-1.16s-.16-.84-.48-1.16l-3.09-3.08ZM14.4,10.33c.11-.11.15-.28.08-.43-.15-.32-.19-.68-.13-1.02.06-.33.22-.65.47-.91.26-.26.58-.42.91-.47.15-.03.3-.03.44-.02l-.8.8c-.15.15-.15.39,0,.54l1.03,1.03c.15.15.39.15.55,0l.8-.8c.01.15,0,.3-.02.44-.06.33-.22.65-.48.91h0c-.26.26-.58.42-.91.47-.34.06-.69.02-1-.12-.15-.08-.33-.06-.45.07l-1.69,1.69-.48-.48,1.69-1.69ZM9.59,16.12c-.11.11-.15.28-.08.43.15.32.19.68.13,1.02-.06.33-.21.64-.46.89l-.02.02c-.26.26-.58.42-.91.48-.15.02-.29.03-.44.02l.8-.8c.15-.15.15-.4,0-.55l-1.03-1.03c-.15-.15-.39-.15-.54,0l-.8.8c-.01-.15,0-.3.02-.44.06-.33.22-.65.47-.91.26-.26.58-.42.91-.47.34-.06.69-.02,1,.12.15.08.33.05.45-.07l2.03-2.03.34.34.15.14-2.03,2.03ZM9.45,10.82c-.15-.15-.4-.15-.55,0l-.16.16-1.85-2.64.57-.57,2.64,1.85-.16.16c-.15.15-.15.39,0,.55l3.84,3.84-.48.48-3.84-3.84ZM17.5,18.39l-.02.02c-.17.16-.39.24-.6.24s-.45-.09-.62-.26l-2.81-2.81,1.24-1.24,2.81,2.81c.17.17.26.39.26.62s-.09.45-.26.62Z"/>
</svg>