<?xml version="1.0" encoding="UTF-8"?>
<svg id="Layer_1" xmlns="http://www.w3.org/2000/svg" viewBox="0 0 24 25.1">
  <defs>
    <style>
      .cls-1 {
        fill: #1d897a;
      }

      .cls-2 {
        fill: none;
      }
    </style>
  </defs>
  <path class="cls-2" d="M7.89,15.39c-.11.38-.38.58-.76.68-.35.1-.69.21-1.02.35-.23.11-.47.23-.65.41-1.19,1.19-2.36,2.4-3.53,3.6-1,1.03-1.02,2.53-.04,3.48.98.96,2.43.91,3.45-.12.92-.93,1.8-1.91,2.76-2.79.83-.77,1.44-1.61,1.56-2.76.02-.14.16-.31.29-.4.26-.2.53-.36.82-.55-.88-.84-1.75-1.66-2.62-2.49-.11.23-.21.41-.27.6ZM2.52,21.72c-.12.03-.26.04-.38.06,0-.13-.04-.32.03-.39.35-.39.71-.76,1.07-1.14.9-.93,1.8-1.86,2.72-2.78.1-.1.21-.17.28-.22h0c.26,0,.36.18.27.35-.05.1-.13.17-.21.25-1.23,1.27-2.46,2.53-3.69,3.8-.03.03-.06.09-.1.09ZM3.54,22.58c-.12.13-.3.27-.43.07-.06-.09,0-.33.07-.41,1.28-1.34,2.56-2.68,3.85-4,.08-.08.23-.11.35-.12.05,0,.11.12.17.18h0c-.07.12-.12.22-.18.3-1.28,1.32-2.54,2.66-3.82,3.98ZM8.51,19.21h0c-.08.12-.13.21-.21.29-1.26,1.31-2.51,2.61-3.77,3.92-.13.14-.29.28-.47.1-.16-.17-.02-.32.11-.45,1.27-1.31,2.52-2.63,3.8-3.94.09-.09.24-.12.36-.13.05,0,.11.13.18.22Z"/>
  <path class="cls-2" d="M13.85,12.65c.42.38.8.71,1.14,1.05.26.26.38.59.34.95-.07.44-.29.78-.72.94-.45.17-.86.1-1.21-.24-.36-.35-.71-.7-1.08-1.08-.12.12-.23.24-.35.36h0c.65.69,1.31,1.33,1.91,2.02.25.29.49.62.6.98.27.83.74,1.5,1.37,2.1,1.21,1.15,2.36,2.36,3.54,3.54,1.06,1.06,2.71.97,3.6-.17.75-.95.7-2.29-.17-3.21-1.4-1.47-2.83-2.91-4.25-4.36-.11-.12-.27-.21-.41-.24-.98-.2-1.73-.74-2.33-1.51-.03-.04-.06-.07-.09-.1-.49-.46-.98-.92-1.46-1.37-.09.07-.21.16-.42.33ZM17.81,15.99c.15-.16.32-.06.45.08,1.4,1.42,2.8,2.83,4.2,4.25.07.07.11.15.13.2h0c0,.22-.18.34-.35.25-.09-.04-.15-.12-.22-.18-1.37-1.38-2.75-2.76-4.13-4.15-.13-.13-.25-.28-.1-.45ZM17.26,16.58h0c.12.08.21.13.28.2,1.39,1.4,2.78,2.8,4.17,4.2.12.12.26.28.1.45-.18.2-.34.04-.47-.1-1.39-1.4-2.78-2.79-4.17-4.2-.09-.09-.12-.24-.12-.36,0-.06.12-.12.21-.19ZM16.26,17.61c.07-.06.21-.07.32-.06.06,0,.11.1.17.14,1.36,1.36,2.72,2.74,4.08,4.11.09.09.15.2.21.28h0c-.06.23-.17.33-.36.24-.09-.04-.15-.12-.22-.18-1.34-1.35-2.69-2.7-4.03-4.05-.06-.06-.14-.12-.17-.19-.03-.1-.04-.24.02-.29ZM15.52,18.32c.07-.06.19-.08.29-.07.08,0,.14.1.2.15,1.37,1.37,2.74,2.76,4.11,4.14.08.08.12.17.15.22h0c0,.25-.2.35-.37.25-.1-.06-.16-.13-.24-.21-1.33-1.33-2.66-2.68-3.99-4.02-.06-.06-.13-.12-.16-.2-.03-.09-.04-.22,0-.26Z"/>
  <path class="cls-2" d="M.63,3.74s0,0,0,0c.01-.01,0,0,0,0Z"/>
  <polygon class="cls-2" points=".6 3.77 .6 3.78 .6 3.78 .6 3.77"/>
  <path class="cls-2" d="M14.62,15c.26-.24.3-.66.04-.94-.35-.36-.71-.7-1.06-1.03h0c-.3.29-.6.57-.97.91.37.35.73.69,1.08,1.02.29.27.64.28.91.04Z"/>
  <path class="cls-2" d="M9.04,8.38c-.2-.19-.46-.28-.68-.12-.17.12-.36.35-.37.56,0,.2.15.45.31.6.84.88,1.71,1.74,2.56,2.61.16.17.31.36.43.51.36-.34.66-.61.99-.92-.73-.73-1.42-1.43-2.12-2.13-.37-.37-.74-.74-1.11-1.1Z"/>
  <path class="cls-2" d="M9.4,15.27c.22.2.41.38.66.62h0c.08-.11.12-.17.17-.23,3.17-3.21,6.34-6.4,9.48-9.64.69-.71,1.42-1.3,2.39-1.56.11-.03.24-.1.29-.19.35-.62.68-1.27,1.02-1.91-.26-.25-.51-.49-.76-.72-.5.3-.95.6-1.43.85-.42.21-.65.52-.8.96-.13.41-.3.88-.59,1.18-3.39,3.48-6.81,6.93-10.22,10.39-.08.08-.14.15-.22.25Z"/>
  <path class="cls-2" d="M3.85.62c.1.11.17.18.24.26.67.69,1.35,1.36,2.01,2.06.1.11.15.32.12.45-.18.61-.38,1.23-.6,1.83-.05.13-.2.29-.35.34-.54.19-1.09.31-1.62.51-.35.13-.57.04-.82-.22-.71-.7-1.46-1.38-2.2-2.06-.34,1.49,0,2.81,1.08,3.89,1.1,1.08,2.44,1.45,3.95,1,.32-.1.52-.05.74.19.98,1.03,1.97,2.04,2.98,3.04.43.44.91.83,1.38,1.27.05-.06.15-.17.35-.38-1.08-1.05-2.17-2.06-3.23-3.11-.51-.5-.52-1.21-.07-1.66.48-.48,1.15-.45,1.68.08.99.98,1.97,1.96,2.95,2.93.07.07.13.12.22.2.12-.13.23-.25.43-.48-.78-.73-1.56-1.41-2.28-2.15-.71-.73-1.37-1.52-2.04-2.29-.09-.11-.11-.33-.07-.47.76-2.38-.73-4.87-3.19-5.29-.54-.1-1.08-.11-1.65.07Z"/>
  <path class="cls-1" d="M3.51.16c-.49.13-.53.3-.17.66.73.75,1.46,1.51,2.2,2.25.13.14.16.27.1.46-.16.44-.29.89-.45,1.33-.05.12-.17.24-.3.29-.43.16-.89.28-1.33.43-.17.06-.29.02-.42-.12-.73-.77-1.48-1.52-2.22-2.27-.36-.37-.55-.34-.69.16-.48,1.71-.2,3.27,1.04,4.58,1.2,1.27,2.72,1.68,4.42,1.27.21-.05.34,0,.48.14,1.04,1.07,2.08,2.14,3.13,3.22.34.35.67.7,1.02,1.06-.44.43-.86.84-1.31,1.26-.21-.19-.43-.41-.67-.62-.23-.2-.37-.18-.51.1-.14.3-.25.6-.41.89-.08.13-.21.27-.35.33-.44.17-.9.32-1.35.48-.12.05-.27.11-.36.2-1.31,1.32-2.65,2.64-3.92,4-1.11,1.2-.97,3.07.26,4.14,1.15,1,2.83.94,3.94-.16,1.24-1.26,2.47-2.53,3.71-3.78.27-.27.46-.55.5-.92.09-.88.47-1.56,1.34-1.89,0,0,.03-.02.03-.02.3-.2.32-.34.05-.58-.29-.27-.57-.53-.84-.79.42-.41.82-.8,1.15-1.13.39.35.81.74,1.23,1.11.77.67,1.3,1.49,1.58,2.47.07.21.18.43.34.58,1.45,1.49,2.91,2.96,4.39,4.42,1.15,1.13,3.05,1.07,4.14-.12,1.06-1.15,1.03-2.9-.09-4.06-1.18-1.23-2.4-2.42-3.55-3.67-.58-.62-1.21-1.07-2.03-1.29-.27-.07-.53-.26-.73-.45-.63-.6-1.23-1.24-1.84-1.86-.12-.12-.22-.23-.34-.36.11-.12.18-.2.27-.29,1.65-1.67,3.33-3.32,4.94-5.02.76-.8,1.55-1.45,2.62-1.76.13-.04.26-.18.34-.32.35-.65.69-1.31,1.06-1.96.12-.21.1-.35-.08-.51-.28-.25-.55-.51-.8-.78-.19-.2-.35-.24-.59-.08-.39.26-.79.53-1.21.72-.68.32-1.1.79-1.3,1.52-.08.32-.23.65-.45.88-1.06,1.11-2.13,2.2-3.22,3.27-.97.96-1.96,1.89-2.98,2.87h0c-.97-1.01-1.99-2.04-3-3.1-.33-.35-.61-.71-.92-1.07-.14-.16-.17-.34-.11-.57C9.95,2.82,7.87.21,5.16,0h-.73c-.3.02-.61.08-.92.16ZM.63,3.74s0,0,0,0c0,0,.01,0,0,0ZM.6,3.77s0,0,0,0c0,0,0,0,0,0h0ZM10.78,17.28c-.29.19-.57.35-.82.55-.12.1-.27.26-.29.4-.12,1.15-.74,2-1.56,2.76-.96.88-1.84,1.86-2.76,2.79-1.02,1.04-2.47,1.08-3.45.12-.98-.95-.96-2.46.04-3.48,1.17-1.2,2.34-2.41,3.53-3.6.18-.18.42-.31.65-.41.33-.13.67-.25,1.02-.35.37-.11.64-.3.76-.68.06-.19.16-.37.27-.6.87.83,1.74,1.65,2.62,2.49ZM15.73,13.7s.06.06.09.1c.6.77,1.35,1.31,2.33,1.51.14.03.31.12.41.24,1.42,1.45,2.85,2.89,4.25,4.36.87.91.92,2.26.17,3.21-.89,1.14-2.54,1.23-3.6.17-1.18-1.18-2.33-2.39-3.54-3.54-.63-.6-1.1-1.27-1.37-2.1-.12-.36-.35-.69-.6-.98-.6-.69-1.26-1.33-1.91-2.02h0c.12-.12.23-.24.35-.36.37.37.72.73,1.08,1.08.35.34.76.41,1.21.24.43-.16.65-.5.72-.94.05-.36-.08-.69-.34-.95-.35-.34-.72-.66-1.14-1.05.21-.16.34-.26.42-.33.48.45.97.91,1.46,1.37ZM12.62,13.95c.36-.35.67-.62.97-.9h0c.35.32.71.65,1.06,1.02.26.28.22.7-.04.94-.27.24-.62.23-.91-.04-.35-.33-.71-.66-1.08-1.02ZM19.84,4.64c.29-.3.45-.77.59-1.18.14-.44.37-.75.8-.96.48-.25.93-.56,1.43-.85.25.23.5.47.76.72-.34.64-.67,1.29-1.02,1.91-.05.1-.18.16-.29.19-.97.27-1.7.85-2.39,1.56-3.14,3.24-6.32,6.43-9.48,9.64-.06.06-.1.12-.17.22h0c-.25-.23-.44-.41-.66-.61.08-.1.14-.17.22-.25,3.42-3.46,6.83-6.91,10.22-10.39ZM11.29,12.54c-.12-.14-.27-.34-.43-.51-.85-.87-1.72-1.73-2.56-2.61-.15-.15-.31-.4-.31-.6,0-.2.2-.43.37-.56.22-.15.48-.07.68.12.37.36.74.73,1.11,1.1.7.7,1.39,1.4,2.12,2.13-.33.31-.62.59-.99.92ZM8.69,5.85c-.05.14-.02.36.07.47.66.78,1.32,1.56,2.04,2.29.72.74,1.51,1.42,2.28,2.15-.2.23-.31.35-.43.48-.09-.08-.15-.13-.22-.2-.98-.97-1.96-1.95-2.95-2.93-.53-.53-1.2-.56-1.68-.08-.45.45-.44,1.16.07,1.66,1.06,1.05,2.14,2.06,3.23,3.11-.19.21-.3.33-.35.38-.47-.43-.95-.82-1.38-1.27-1.01-1-2-2.02-2.98-3.04-.22-.24-.42-.29-.74-.19-1.51.45-2.84.09-3.95-1C.62,6.61.28,5.28.62,3.8c.74.68,1.49,1.36,2.2,2.06.25.26.46.36.82.22.53-.2,1.08-.32,1.62-.51.14-.05.3-.2.35-.34.22-.6.42-1.22.6-1.83.04-.13-.02-.35-.12-.45-.65-.7-1.33-1.37-2.01-2.06-.07-.08-.14-.15-.24-.26.58-.17,1.11-.16,1.65-.07,2.46.42,3.94,2.91,3.19,5.29Z"/>
  <path class="cls-1" d="M21.34,21.34c.13.13.29.3.47.1.16-.17.03-.33-.1-.45-1.38-1.4-2.77-2.8-4.17-4.2-.07-.07-.16-.12-.28-.2h0c-.09.08-.21.13-.21.19,0,.12.04.28.12.36,1.38,1.41,2.77,2.8,4.17,4.2Z"/>
  <path class="cls-1" d="M22.03,20.59c.07.07.13.14.22.18.17.09.35-.03.35-.26h0s-.07-.12-.13-.19c-1.4-1.42-2.8-2.83-4.2-4.25-.13-.13-.3-.24-.45-.08-.15.17-.04.32.1.45,1.38,1.38,2.75,2.76,4.13,4.15Z"/>
  <path class="cls-1" d="M16.41,18.09c1.34,1.35,2.69,2.7,4.03,4.05.07.07.13.14.22.18.19.09.31,0,.36-.25h0c-.06-.07-.12-.18-.21-.27-1.36-1.37-2.72-2.75-4.08-4.11-.06-.05-.12-.14-.17-.14-.11,0-.25,0-.32.06-.06.05-.05.19-.02.29.03.08.12.13.17.19Z"/>
  <path class="cls-1" d="M15.68,18.78c1.33,1.34,2.66,2.69,3.99,4.02.08.08.14.15.24.21.17.11.37,0,.37-.25h0s-.08-.14-.15-.22c-1.37-1.38-2.74-2.76-4.11-4.14-.06-.06-.12-.14-.2-.15-.1,0-.22,0-.29.07-.05.04-.04.17,0,.26.03.08.11.14.16.2Z"/>
  <path class="cls-1" d="M7.55,18.3h0c-.07-.08-.12-.19-.17-.19-.12,0-.27.04-.35.12-1.29,1.32-2.57,2.66-3.85,4-.08.09-.12.33-.07.41.13.2.31.07.43-.07,1.28-1.32,2.54-2.66,3.82-3.98.07-.08.12-.17.18-.29Z"/>
  <path class="cls-1" d="M4.17,23.06c-.12.13-.27.28-.11.45.18.18.34.05.47-.1,1.26-1.3,2.51-2.61,3.77-3.92.08-.08.13-.17.21-.28h0c-.08-.1-.13-.23-.18-.23-.12,0-.28.05-.36.13-1.28,1.3-2.53,2.62-3.8,3.94Z"/>
  <path class="cls-1" d="M6.51,17.58c.1-.16,0-.34-.27-.35h0c-.07.05-.18.12-.28.22-.91.92-1.81,1.85-2.72,2.78-.36.38-.73.75-1.07,1.14-.07.08-.03.26-.03.39.12-.02.26-.03.38-.06.04,0,.07-.06.1-.09,1.23-1.27,2.46-2.53,3.69-3.8.08-.08.16-.15.21-.25Z"/>
</svg>