<?xml version="1.0" encoding="UTF-8"?>
<svg id="Layer_1" xmlns="http://www.w3.org/2000/svg" viewBox="0 0 24 21.27">
  <defs>
    <style>
      .cls-1 {
        fill: #1d897a;
      }

      .cls-2 {
        fill: none;
      }
    </style>
  </defs>
  <path class="cls-2" d="M8.52,17.99c-.67,0-1.13.42-1.13,1.05,0,.67.48,1.16,1.14,1.17.57,0,1.13-.52,1.16-1.09.03-.61-.51-1.13-1.17-1.13Z"/>
  <path class="cls-2" d="M10.88,18.68c.95.03,1.91.02,2.84.02v-8.7h-7.97v8.86c.33-.23.62-.33.71-.52.38-.88,1.02-1.4,1.98-1.4.97,0,1.7.4,2.09,1.34.06.16.23.38.35.39Z"/>
  <path class="cls-2" d="M20.77,18.73v-2.71c-.97,0-1.88.03-2.79-.02-.24-.01-.61-.28-.65-.49-.1-.47.27-.56.68-.56.66.01,1.31,0,2.14,0h0c-.61-.8-1.1-1.47-1.62-2.11-.13-.16-.37-.31-.56-.31-1.03-.03-2.06-.02-3.15-.02v6.15h.89c.49-1.22,1.05-1.7,2.09-1.72,1.04-.02,1.78.44,2.18,1.44.07.18.5.22.79.34Z"/>
  <path class="cls-2" d="M11.04,19.74c-.22.01-.43.18-.65.27.03.08.06.15.09.23h5.45c-.26-.6-1.23-.69-4.88-.5Z"/>
  <path class="cls-2" d="M17.88,17.97c-.64.01-1.18.55-1.16,1.15.01.59.6,1.16,1.19,1.14.66-.01,1.16-.58,1.13-1.26-.03-.62-.5-1.05-1.16-1.03Z"/>
  <path class="cls-1" d="M23.6,20.29c-.2-.08-.45-.03-.68-.03h-3.09c.04-.81.6-.56.97-.58.5-.03.94-.09.95-.72.01-1.14.01-2.28,0-3.43,0-.16-.07-.35-.18-.49-.77-1.01-1.51-2.04-2.36-2.98-.29-.33-.84-.56-1.29-.6-1.01-.09-2.03-.03-3.12-.03,0-.57,0-1.05,0-1.53.01-.7-.34-1.01-1.03-1.01-2.67,0-5.34-.01-8.02,0-.87,0-1.08.23-1.08,1.1,0,2.79,0,5.59.02,8.38,0,1.1.17,1.24,1.26,1.33.25.02.49.22.73.33-.03.06-.06.12-.08.19H2.58c-.03-.11-.06-.16-.06-.2,0-4.49-.01-8.99,0-13.48,0-.21.21-.5.41-.61,2.69-1.53,5.39-3.03,8.08-4.56.49-.28.88-.3,1.4,0,2.68,1.5,5.37,2.97,8.08,4.41.52.28.72.57.71,1.16-.04,2.06-.03,4.11,0,6.17,0,.21.17.5.36.62.11.07.45-.05.58-.19.11-.12.07-.38.07-.59,0-2.02,0-4.05,0-6.1.14.03.21.03.28.06.36.13.79.49,1.06-.03.3-.57-.26-.71-.62-.91-3.47-1.91-6.94-3.8-10.4-5.71-.55-.31-1.03-.32-1.57-.01C7.56,2.14,4.15,4.04.75,5.96c-.34.19-.93.36-.59.93.33.57.74.15,1.1-.04.04-.02.09,0,.15,0v13.37c-.12.02-.19.03-.26.05C.73,20.36,0,19.97,0,20.72H0c0,.75.75.51,1.21.51,7.25.02,14.5.02,21.76.02.23,0,.48.03.67-.06.17-.08.37-.31.36-.47,0-.15-.23-.36-.4-.43ZM8.53,20.21c-.66,0-1.14-.51-1.14-1.17,0-.63.45-1.06,1.13-1.05.66,0,1.19.53,1.17,1.13-.03.57-.58,1.1-1.16,1.09ZM8.44,16.94c-.96,0-1.6.52-1.98,1.4-.08.19-.37.28-.71.52v-8.86h7.97v8.7c-.93,0-1.89.02-2.84-.02-.12,0-.29-.23-.35-.39-.39-.94-1.13-1.35-2.09-1.34ZM10.48,20.24c-.03-.08-.06-.15-.09-.23.22-.09.43-.26.65-.27,3.66-.19,4.62-.1,4.88.5h-5.45ZM17.91,20.26c-.59.01-1.17-.55-1.19-1.14-.01-.6.52-1.13,1.16-1.15.66-.02,1.13.41,1.16,1.03.03.68-.48,1.25-1.13,1.26ZM17.8,16.94c-1.04.02-1.6.5-2.09,1.72h-.89v-6.15c1.09,0,2.12-.01,3.15.02.19,0,.43.16.56.31.53.64,1.02,1.31,1.62,2.11h0c-.83,0-1.49.01-2.14,0-.4,0-.78.08-.68.56.05.21.42.47.65.49.91.06,1.82.02,2.79.02v2.71c-.3-.12-.72-.16-.79-.34-.4-1.01-1.14-1.46-2.18-1.44Z"/>
</svg>