<?xml version="1.0" encoding="UTF-8"?>
<svg id="Layer_1" xmlns="http://www.w3.org/2000/svg" viewBox="0 0 24 20.21">
  <defs>
    <style>
      .cls-1 {
        fill: #1d897a;
      }

      .cls-2 {
        fill: none;
      }
    </style>
  </defs>
  <path class="cls-2" d="M11.9,19.13c.32-.03.6-.34.9-.52v-.3c-.28-.2-.57-.56-.85-.54-.29.02-.73.36-.8.63-.12.48.32.79.75.74Z"/>
  <path class="cls-2" d="M18.48,14.68c-.54-1.74-1.05-3.42-1.57-5.13-.81.22-1.53.42-2.29.63.15.5.33.95.41,1.42.03.16-.17.47-.32.51-.14.04-.45-.13-.52-.29-.19-.41-.3-.86-.46-1.37h0c-.7.2-1.36.38-2.06.57.53,1.77,1.05,3.49,1.58,5.24,1.77-.54,3.48-1.06,5.23-1.59Z"/>
  <path class="cls-2" d="M2.38,3.94c-.01.72.57,1.32,1.27,1.31.66,0,1.2-.57,1.2-1.28,0-.73-.5-1.24-1.21-1.25-.71,0-1.24.51-1.26,1.21Z"/>
  <path class="cls-2" d="M1.87,18.49c.26-1.16.44-2.34.68-3.51.26-1.3.27-1.3,1.56-1.39.04,0,.07-.05.14-.09.01-.13.03-.27.03-.41.03-1.15.03-2.29.09-3.44.01-.22.23-.56.41-.61.39-.1.54.21.52.58,0,.19.03.37.05.64,1.08-.17,2.09-.34,3.11-.5l.04-.33c-.5-.07-1.02-.25-1.5-.19-.86.1-1.36-.17-1.67-1-.11-.31-.46-.69-.75-.73-.74-.11-1.5-.07-2.26-.04-.61.03-.98.35-1,1.02-.09,3.31-.2,6.62-.27,9.93,0,.25.22.5.33.76.17-.23.44-.43.49-.69Z"/>
  <rect class="cls-2" x="16.54" y="4.41" width="2.75" height="2.12"/>
  <path class="cls-1" d="M1.37,3.98c0,1.25.98,2.22,2.23,2.2h0c1.34-.01,2.26-.93,2.25-2.23-.01-1.3-.96-2.22-2.29-2.21-1.24.01-2.2.99-2.2,2.24ZM4.85,3.97c0,.71-.54,1.28-1.2,1.28-.7,0-1.28-.59-1.27-1.31.01-.7.54-1.22,1.26-1.21.71,0,1.21.52,1.21,1.25Z"/>
  <path class="cls-1" d="M1.25,20.19c.8.09,1.34-.36,1.54-1.3.29-1.4.59-2.8.88-4.21.55-.21.75.02.88.48.4,1.43.81,2.85,1.28,4.25.08.24.46.57.66.55.44-.05.37-.43.26-.8-.46-1.51-.96-3.01-1.28-4.55-.23-1.11-.18-2.28-.26-3.35,1.34-.2,2.49-.36,3.71-.54.63,2.06,1.27,4.17,1.9,6.27-1.02,1.1-.77,1.85-.33,2.49.47.69,1.51.89,2.29.43.31-.18.69-.5.76-.81.12-.57.04-1.2.04-1.89.79-.24,1.71-.52,2.64-.81,1.27-.39,2.55-.76,3.81-1.19.19-.07.29-.41.43-.63-.23-.1-.46-.22-.7-.3-.1-.03-.23.04-.4.07-.52-1.77-1.04-3.51-1.54-5.25-.14-.51-.39-.73-.95-.56-1.79.53-3.59,1.03-5.38,1.56-.86.25-.94.41-.7,1.25.52,1.77,1.05,3.53,1.57,5.29-.45.18-.64,0-.77-.44-.55-1.94-1.12-3.87-1.7-5.8-.49-1.65-1.11-2.15-2.81-2.17-.52,0-.77-.18-.97-.65-.3-.74-.85-1.14-1.71-1.08-.58.04-1.17-.04-1.75-.04-1.64.01-2.32.73-2.36,2.37C.22,12.07.11,15.3,0,18.54c-.03.94.4,1.55,1.25,1.65ZM11.67,11.03c.7-.19,1.36-.38,2.06-.57h0c.16.5.27.95.46,1.36.07.16.38.33.52.29.15-.05.34-.35.32-.51-.08-.47-.25-.92-.41-1.42.76-.21,1.48-.41,2.29-.63.52,1.71,1.03,3.39,1.57,5.13-1.76.54-3.46,1.05-5.23,1.59-.53-1.75-1.05-3.48-1.58-5.24ZM11.15,18.39c.07-.27.51-.61.8-.63.28-.02.57.35.86.54v.3c-.31.18-.6.49-.92.52-.43.04-.87-.26-.75-.74ZM1.31,8.48c.02-.67.38-.99,1-1.02.75-.03,1.52-.07,2.26.04.29.04.64.43.75.73.3.83.81,1.09,1.67,1,.49-.05,1,.12,1.5.19l-.04.33c-1.02.16-2.03.33-3.11.5-.02-.27-.05-.45-.05-.64.01-.38-.13-.68-.52-.58-.18.04-.4.39-.41.61-.07,1.14-.07,2.29-.09,3.44,0,.14-.02.29-.03.41-.06.04-.1.09-.14.09-1.29.09-1.3.09-1.56,1.39-.23,1.17-.42,2.35-.68,3.51-.05.25-.32.46-.49.69-.12-.25-.34-.51-.33-.76.07-3.31.18-6.62.27-9.93Z"/>
  <path class="cls-1" d="M24,9.84c0-2.92,0-5.83,0-8.75,0-.92-.18-1.09-1.12-1.09h-9.93c-.85,0-1.11.23-1.11,1.07,0,2.2,0,4.39,0,6.59,0,.37.03.71.51.71.47,0,.52-.31.52-.7,0-1.95,0-3.9,0-5.86v-.75h10.16v17.72h-.75c-1.9,0-3.79,0-5.69,0-.4,0-.92-.11-.92.51,0,.66.57.47.94.47,2.07.02,4.14,0,6.2.01,1.05,0,1.18-.03,1.2-.91v-9.02Z"/>
  <path class="cls-1" d="M19.59,7.46c.47,0,.71-.24.71-.72,0-.9,0-1.8,0-2.7,0-.44-.2-.69-.65-.69-1.16,0-2.33-.03-3.49.03-.23.01-.63.35-.64.56-.07.89-.04,1.8-.01,2.7.02.53.29.85.88.82.51-.02,1.02,0,1.53,0h0c.56,0,1.12,0,1.67,0ZM16.54,6.53v-2.12h2.75v2.12h-2.75Z"/>
</svg>