<?xml version="1.0" encoding="UTF-8"?>
<svg id="Layer_1" xmlns="http://www.w3.org/2000/svg" viewBox="0 0 36.43 16.94">
  <defs>
    <style>
      .cls-1 {
        fill: #1d897a;
      }

      .cls-2 {
        fill: none;
      }
    </style>
  </defs>
  <path class="cls-2" d="M21.19,3.61c.06.45.44.79.9.83.43.04.85-.23,1.03-.68.12-.31.2-.64.3-.96.26-.76.53-1.53.81-2.32h-1.52c-.06,0-.14.09-.17.16-.43.8-.84,1.6-1.25,2.42-.08.16-.11.37-.09.55Z"/>
  <rect class="cls-2" x="29.47" y="7.82" width="3.17" height="2.07"/>
  <path class="cls-2" d="M10,13.6c-.46,0-.84.35-.84.8s.37.82.83.82.82-.37.82-.82c0-.43-.37-.79-.81-.8ZM10.01,14.82c-.24,0-.43-.16-.43-.39-.02-.24.17-.44.42-.44h0c.23,0,.43.16.44.39.02.24-.17.43-.42.44Z"/>
  <path class="cls-2" d="M27.29,4.93c-.54,0-.96-.26-1.28-.69-.58.81-1.76,1.03-2.54.02h0c-.21.17-.37.35-.59.47-.19.1-.24.22-.24.43v8.73c0,.1,0,.18.02.28h5.05v-6.34h-3.21c0,.11-.02.22-.02.32v1.84c0,.18,0,.38-.24.37-.23,0-.24-.2-.24-.38v-2.24c0-.34.06-.4.4-.4h3.36c.42,0,.45.04.45.47v6.35h6.28V5.13c0-.1,0-.24-.07-.29-.24-.2-.51-.37-.77-.57-.3.41-.7.66-1.24.66s-.94-.26-1.26-.67c-.91.91-1.58.91-2.58,0-.31.42-.71.68-1.26.68ZM28.97,7.69c0-.26.1-.36.36-.36h3.47c.23,0,.33.1.33.32v2.38c0,.27-.12.35-.37.35h-1.7c-.57,0-1.15,0-1.72,0-.27,0-.37-.1-.37-.37v-2.32Z"/>
  <path class="cls-2" d="M17.85,13.59c-.45,0-.83.35-.84.81,0,.44.36.81.8.81s.83-.35.83-.8h0c0-.44-.36-.81-.79-.82ZM17.8,14.82c-.23,0-.41-.21-.41-.44s.21-.41.43-.41c.24,0,.43.2.43.44h0c0,.23-.21.41-.46.4Z"/>
  <path class="cls-2" d="M27.18,4.45c.57.09,1.12-.35,1.15-.98.03-.97,0-1.95,0-2.92,0-.02-.03-.03-.04-.05h-1.49c-.02.1-.04.19-.06.27-.15.81-.29,1.62-.43,2.43-.11.62.27,1.18.87,1.26Z"/>
  <path class="cls-2" d="M23.78,3.7c.1.47.51.78.97.77.48,0,.89-.36,1-.87.09-.4.15-.81.22-1.21.1-.62.21-1.24.31-1.89v-.02h-1.34c-.17,0-.24.06-.29.21-.29.84-.58,1.68-.86,2.52-.05.15-.05.32-.02.48Z"/>
  <path class="cls-2" d="M28.82,3.48c.02.6.57,1.04,1.12.98.57-.06,1-.57.91-1.15-.14-.89-.3-1.77-.47-2.65,0-.07-.11-.17-.17-.17-.46-.02-.91,0-1.4,0,0,1.02-.03,2,0,2.99Z"/>
  <path class="cls-2" d="M32.97.65c.33,1.02.66,2.03,1,3.05.04.12.11.24.19.35.31.42.89.52,1.33.24.43-.27.57-.79.34-1.25-.41-.8-.82-1.59-1.24-2.38-.03-.07-.13-.16-.2-.16-.48-.02-.95,0-1.44,0,.02.07.02.11.02.16Z"/>
  <path class="cls-2" d="M31.26,2.8c.05.27.09.55.14.82.12.6.69.96,1.25.8.6-.17.88-.72.68-1.32-.28-.79-.55-1.59-.84-2.38-.03-.09-.13-.22-.2-.23-.46-.02-.93,0-1.41,0h0c0,.11,0,.19.02.26.12.69.24,1.38.37,2.06Z"/>
  <path class="cls-2" d="M16.93,10.76h2.13c-.16-.37-.3-.71-.45-1.04-.03-.05-.1-.1-.14-.1h-1.54v1.15Z"/>
  <path class="cls-2" d="M16.36,14.06c.1-.02.23-.09.27-.17.26-.48.64-.76,1.19-.75.56,0,.94.27,1.17.77.09.18.77.25.89.1.03-.03.04-.09.04-.13v-.82c-.21,0-.38.03-.55,0-.1-.03-.18-.15-.27-.23.09-.08.17-.2.28-.23.16-.03.34,0,.54,0v-.48c0-.5-.34-.84-.84-.84h-2.32c-.27,0-.38-.11-.37-.38,0-.43,0-.86.02-1.29,0-.44.03-.45.45-.46h1.36s.02-.08.03-.12c-.17-.05-.36-.14-.53-.15-.43-.03-.86,0-1.29,0h-.56v5.2c.19,0,.35.02.49,0Z"/>
  <path class="cls-1" d="M22.19.25c-.43.86-.89,1.72-1.33,2.58-.26.49-.21.96.07,1.42.27.44.7.64,1.24.7v.5c0,2.91,0,5.82,0,8.73,0,.44.04.49.47.49h11.89c.41,0,.44-.04.44-.44V4.96h0c.16-.04.29-.07.42-.1.87-.25,1.3-1.24.88-2.05-.44-.84-.88-1.68-1.31-2.52-.1-.2-.24-.29-.47-.29-.45,0-.9,0-1.35,0h-10.43c-.22,0-.4,0-.52.25ZM34.39.5c.07,0,.17.09.2.16.43.79.84,1.58,1.24,2.38.24.46.09.98-.34,1.25-.44.28-1.02.17-1.33-.24-.08-.1-.15-.23-.19-.35-.34-1.02-.67-2.03-1-3.05,0-.04,0-.08-.02-.16.5,0,.97-.02,1.44,0ZM30.88.48c.48,0,.95,0,1.41,0,.07,0,.16.14.2.23.29.79.56,1.59.84,2.38.2.6-.08,1.16-.68,1.32-.56.16-1.12-.2-1.25-.8-.05-.27-.09-.55-.14-.82-.12-.69-.24-1.38-.37-2.06-.02-.07-.02-.15-.02-.25h0ZM30.22.5c.06,0,.16.1.17.17.16.89.33,1.77.47,2.65.09.57-.34,1.09-.91,1.15-.56.06-1.11-.38-1.12-.98-.03-.98,0-1.96,0-2.99.49,0,.94-.02,1.4,0ZM31.13,4.26c.32.41.72.67,1.26.67s.95-.25,1.24-.66c.26.19.53.37.77.57.06.05.07.19.07.29v9.04h-6.28v-6.35c0-.43-.03-.47-.45-.47h-3.36c-.34,0-.4.06-.4.4v2.24c0,.18.02.38.24.38.24,0,.24-.19.24-.37v-1.84c0-.1.02-.21.02-.32h3.21v6.34h-5.05c0-.1-.02-.18-.02-.28V5.16c0-.21.05-.32.24-.43.22-.12.38-.3.59-.48h0c.78,1.02,1.96.8,2.54,0,.32.43.74.69,1.28.69s.95-.26,1.26-.68c.99.92,1.66.92,2.58,0ZM26.74.76c.02-.08.04-.16.06-.26h0s1.49,0,1.49,0c.02.03.04.03.04.05,0,.98.03,1.95,0,2.92-.03.64-.58,1.07-1.15.98-.6-.09-.98-.64-.87-1.26.14-.81.28-1.62.43-2.43ZM24.95.49h1.34v.02c-.1.65-.21,1.27-.31,1.89-.07.4-.13.81-.22,1.21-.11.51-.52.87-1,.87-.46,0-.87-.3-.97-.77-.03-.16-.03-.33.02-.48.28-.84.57-1.68.86-2.52.05-.15.12-.21.29-.21ZM22.71.49h1.52c-.28.8-.55,1.56-.81,2.32-.1.32-.18.64-.3.96-.17.45-.6.72-1.03.68-.45-.04-.84-.38-.9-.83-.03-.17,0-.39.09-.55.41-.82.83-1.62,1.25-2.42.03-.07.11-.16.17-.16Z"/>
  <path class="cls-1" d="M8.06,8.14c.07,0,.24-.1.24-.17.02-.3.2-.3.43-.3h6.63v6.41h-.24c-1.24,0-2.49,0-3.73,0-.07,0-.17-.09-.2-.16-.25-.5-.64-.78-1.18-.78s-.96.27-1.2.78c-.03.06-.09.13-.15.15-.4.11-.55-.02-.55-.42,0-.07.03-.16,0-.2-.07-.09-.16-.16-.24-.24-.08.08-.2.15-.22.24-.03.17-.02.34,0,.51.04.33.28.55.62.57h.41c.25.79.64,1.14,1.27,1.16.66.02,1.06-.31,1.36-1.13l.03.02h5.2c.28.78.67,1.12,1.29,1.14.64,0,1.02-.3,1.36-1.16h.48c.58,0,.8-.22.8-.79s-.03-1.13,0-1.7c.02-.48-.21-.79-.57-1.06-.15-.11-.28-.26-.36-.43-.24-.5-.45-1.01-.69-1.51-.22-.44-.57-.67-1.08-.67h-1.88v-.78c0-.37-.04-.42-.41-.42h-6.95c-.43,0-.73.33-.66.72.02.09.12.22.2.23ZM9.99,15.21c-.45,0-.83-.37-.83-.82s.37-.8.84-.8c.44,0,.81.37.81.8,0,.45-.36.82-.82.82ZM17.81,15.21c-.44,0-.8-.37-.8-.81,0-.46.38-.81.84-.81.43,0,.79.37.79.82h0c0,.45-.37.8-.83.8ZM18.61,9.71c.15.33.3.68.45,1.04h-2.13v-1.15h1.54s.11.05.14.1ZM15.87,8.86h.56c.43,0,.86-.03,1.29,0,.17,0,.36.1.53.15,0,.04-.03.08-.03.12h-1.36c-.43,0-.45.03-.45.46,0,.43,0,.86-.02,1.29,0,.27.1.38.37.38h2.32c.5,0,.84.33.84.84v.48c-.2,0-.38-.03-.54,0-.1.03-.19.15-.28.23.09.08.16.2.27.23.17.03.34,0,.55,0v.82s-.02.1-.04.13c-.12.16-.8.09-.89-.1-.23-.5-.62-.77-1.17-.77-.55,0-.93.27-1.19.75-.04.09-.17.16-.27.17-.14.02-.3,0-.49,0v-5.2Z"/>
  <path class="cls-1" d="M30.57,16.47c-.06-.03-.15,0-.23,0H6.82c-.1,0-.21-.02-.29.02-.08.03-.17.14-.17.2,0,.09.08.18.16.24.06.03.17.02.25.02h23.5c.1,0,.21.03.29,0,.09-.04.2-.15.2-.23s-.11-.17-.2-.23Z"/>
  <path class="cls-1" d="M10.38,4.37c.66-.17,1.32-.41,2-.46,2.58-.21,4.67.81,6.35,2.73.03.03.03.07.07.14-.24-.03-.45-.06-.66-.09-.17-.02-.32.03-.3.21,0,.1.14.24.24.25.41.08.83.13,1.25.18.21.03.34-.06.34-.28,0-.44.02-.89,0-1.32,0-.1-.14-.18-.22-.28-.08.09-.2.17-.22.27-.03.22,0,.43,0,.73-.19-.2-.32-.36-.46-.5-2.09-2.12-4.57-2.96-7.5-2.34-.42.09-.82.25-1.22.41-.08.03-.1.19-.16.29.1.04.22.1.33.13.05,0,.12-.05.18-.07Z"/>
  <path class="cls-1" d="M3.43,9.23c.06.04.17.02.25.02h2.93c.78,0,1.57,0,2.35,0,.26,0,.52.03.77,0,.1-.02.18-.14.28-.22-.1-.08-.18-.17-.29-.24-.03-.02-.08,0-.11,0H3.7c-.1,0-.2-.03-.28.02-.08.04-.16.15-.16.23s.1.17.17.22Z"/>
  <path class="cls-1" d="M8.98,12.57c.17,0,.35,0,.35-.23,0-.22-.17-.24-.35-.24h-4.79c-.17,0-.35.02-.35.24s.17.23.35.23h4.79Z"/>
  <path class="cls-1" d="M8.55,10.91c.17,0,.33-.02.33-.23,0-.23-.15-.25-.33-.25H3.97c-.17,0-.35.02-.35.23s.17.24.35.24h2.26c.77,0,1.55,0,2.32,0Z"/>
  <path class="cls-1" d="M2.55,10.9c.1,0,.25-.13.27-.22.03-.17-.1-.24-.27-.24H.28c-.17,0-.31.07-.28.23.02.1.18.23.29.23.36.03.74,0,1.11,0,.38,0,.76.02,1.14,0Z"/>
  <path class="cls-1" d="M33.25,16.48c-.16-.03-.34,0-.51,0-.18,0-.36-.03-.54,0-.1.02-.17.13-.25.21.08.08.17.23.25.23.14.01.28.02.42.02h.21c.14,0,.28,0,.42-.02.09,0,.17-.15.24-.23-.09-.08-.16-.2-.25-.22Z"/>
  <path class="cls-1" d="M4.67,16.47c-.16-.03-.32,0-.49,0-.17,0-.35-.03-.51,0-.1.02-.17.13-.26.2.09.09.16.24.25.24.35.03.7.03,1.04,0,.09,0,.17-.14.24-.22-.09-.08-.16-.2-.27-.23Z"/>
  <path class="cls-1" d="M1.79,9.3c.12-.06.3-.1.36-.2.11-.19-.06-.32-.37-.32-.17,0-.37,0-.37.24,0,.25.19.24.39.29Z"/>
  <path class="cls-1" d="M2.48,12.32c-.03.17.1.24.27.24.16,0,.33-.03.31-.23,0-.1-.14-.19-.27-.35-.15.15-.29.23-.31.33Z"/>
  <path class="cls-1" d="M29.35,10.39h1.73c.56,0,1.12,0,1.69,0,.24,0,.37-.08.37-.35v-2.38c0-.23-.1-.32-.33-.32h-3.47c-.25,0-.36.1-.36.36v2.32c0,.27.1.37.37.37ZM29.47,7.82h3.17v2.07h-3.17v-2.07Z"/>
  <path class="cls-1" d="M9.98,13.98h0c-.24,0-.43.21-.42.45,0,.24.19.39.43.39.24,0,.44-.21.42-.44-.02-.24-.21-.4-.44-.4Z"/>
  <path class="cls-1" d="M17.82,13.98c-.23,0-.43.19-.43.41s.18.43.41.44c.25,0,.46-.17.46-.41h0c0-.24-.18-.43-.43-.43Z"/>
</svg>