<?xml version="1.0" encoding="UTF-8"?>
<svg id="Layer_1" xmlns="http://www.w3.org/2000/svg" viewBox="0 0 24 18.27">
  <defs>
    <style>
      .cls-1 {
        fill: #1d897a;
      }

      .cls-2 {
        fill: none;
      }
    </style>
  </defs>
  <path class="cls-2" d="M8.41,11.09c.02.69-.29,1-.97.99-.64-.01-1.29-.02-1.93,0-.6.02-.85-.26-.85-.83,0-.77,0-1.55,0-2.37h-2.07v8.16h7.54v-8.16h-1.73c0,.78-.02,1.5,0,2.22Z"/>
  <rect class="cls-2" x="8.5" y="1.11" width="1.63" height="2.09"/>
  <rect class="cls-2" x="5.75" y="8.87" width="1.5" height="2.19"/>
  <path class="cls-2" d="M14.9,17.04h6.34V5.04h-6.34v12ZM17.23,8.37c.24-.07.51-.02.77-.02h0c.23,0,.48-.05.69,0,.2.06.37.24.55.37-.16.2-.3.55-.48.58-.53.07-1.08.06-1.61-.02-.17-.02-.3-.33-.45-.51.17-.14.33-.35.53-.41Z"/>
  <path class="cls-1" d="M17.16,9.29c.53.07,1.08.09,1.61.02.18-.03.32-.38.48-.58-.18-.13-.35-.31-.55-.37-.21-.06-.46-.01-.69-.01h0c-.26,0-.53-.05-.77.02-.2.06-.35.27-.53.41.15.18.28.48.45.51Z"/>
  <path class="cls-1" d="M22.28,17.1v-.93c0-3.72-.02-7.45,0-11.17,0-.75-.28-1.02-1-1-1.21.03-2.42,0-3.64,0h-2.82c0-1.07,0-2.05,0-3.02C14.85.3,14.52,0,13.85,0,10.83,0,7.82,0,4.8,0c-.83,0-1.03.23-1.03,1.08,0,1.09,0,2.17,0,3.26,0,.6-.04,1.2.04,1.78.03.22.35.39.54.59.14-.2.37-.39.41-.61.07-.35.02-.72.02-1.08V1.12h2.63c0,.78.02,1.5,0,2.23-.02.56.25.81.79.81.64,0,1.29,0,1.93,0,.95,0,1.03-.09,1.04-1.08V1.08h2.56v15.94h-2.55v-.81c0-2.38,0-4.76,0-7.14,0-1.05-.18-1.24-1.21-1.24-2.48,0-4.95,0-7.43,0-.72,0-1.02.29-1.01,1.02.02,2.46,0,4.91,0,7.37v.84c-.42.02-.77-.01-1.08.08-.19.06-.46.34-.44.5H0c.02.21.25.47.46.57.21.1.51.04.76.04,3.45-.04,6.9-.1,10.35-.12,3.89-.02,7.79,0,11.68-.02.25,0,.5-.28.74-.43-.23-.17-.44-.4-.7-.49-.3-.1-.65-.07-1.02-.1ZM10.13,3.2h-1.63V1.11h1.63v2.09ZM5.75,8.87h1.5v2.19h-1.5v-2.19ZM10.13,17.04H2.59v-8.16h2.07c0,.82,0,1.6,0,2.37,0,.58.25.86.85.83.64-.02,1.29-.01,1.93,0,.68.01.99-.3.97-.99-.02-.72,0-1.44,0-2.22h1.73v8.16ZM21.24,17.04h-6.34V5.04h6.34v12Z"/>
</svg>