<?xml version="1.0" encoding="UTF-8"?>
<svg id="Layer_1" xmlns="http://www.w3.org/2000/svg" xmlns:xlink="http://www.w3.org/1999/xlink" viewBox="0 0 24 24.39">
  <defs>
    <style>
      .cls-1 {
        fill: #1d897a;
      }

      .cls-2 {
        fill: none;
      }

      .cls-3 {
        clip-path: url(#clippath);
      }
    </style>
    <clipPath id="clippath">
      <rect class="cls-2" width="24" height="24.39"/>
    </clipPath>
  </defs>
  <g class="cls-3">
    <path class="cls-1" d="M21.97,19.84c.53,0,.99-.06,1.42.02.23.04.41.33.61.5-.2.18-.39.51-.59.52-1.02.06-2.03.03-3.22.03.3.57.54,1.06.79,1.53.14.27.37.53.43.81.05.25-.07.54-.12.81-.28-.11-.7-.13-.83-.33-.5-.75-.88-1.57-1.37-2.32-.15-.23-.5-.48-.75-.48-3.14-.03-6.28-.01-9.42,0-.08,0-.16.04-.26.06-.22,1.73-1.07,2.93-2.86,3.3-1.67.34-3.36-.58-3.97-2.14-.64-1.64-.06-3.48,1.49-4.3.55-.29.68-.61.67-1.17-.02-4.2-.02-8.4,0-12.59,0-.56-.16-.87-.64-1.13-.99-.54-1.97-1.09-2.92-1.7C.2,1.09-.06.63.01.41.17-.08.61.02.99.23c1.22.7,2.47,1.36,3.64,2.14.31.21.51.79.51,1.21.04,4.23.02,8.45.02,12.68v1c.73.26,1.44.5,2.21.77v-6.36c0-1.76.01-1.77,1.8-1.81.11,0,.22-.02.44-.04v-.98c0-1.94,0-3.89,0-5.83,0-1.05.19-1.25,1.21-1.25,2.32,0,4.64,0,6.96,0,1.06,0,1.18.12,1.18,1.16v6.95c.71,0,1.38.03,2.05,0,.73-.05,1,.21.99.96-.04,2.96-.02,5.91-.02,9.01h0ZM16.71,11.04c0,.81-.02,1.54,0,2.27.03.7-.3.97-.97.96-.79-.01-1.58-.04-2.37,0-.76.05-1.01-.3-1-.99.02-.77,0-1.55,0-2.29h-3.75v8.78h12.22v-8.74h-4.14ZM10.8,9.8h7.01V2.98h-3.13c0,.62.05,1.21-.02,1.79-.03.25-.31.47-.48.71-.18-.23-.48-.44-.51-.69-.08-.59-.02-1.21-.02-1.8h-2.85v6.82ZM7.39,20.86c0-1.27-1.03-2.27-2.33-2.28-1.25-.01-2.28,1.05-2.27,2.34.01,1.23,1.12,2.27,2.38,2.24,1.23-.03,2.22-1.07,2.22-2.3ZM13.53,10.97v2.18h2.05v-2.18h-2.05Z"/>
  </g>
</svg>