<?xml version="1.0" encoding="UTF-8"?>
<svg id="Layer_1" xmlns="http://www.w3.org/2000/svg" xmlns:xlink="http://www.w3.org/1999/xlink" viewBox="0 0 24 20.82">
  <defs>
    <style>
      .cls-1 {
        fill: #1d897a;
      }

      .cls-2 {
        fill: none;
      }

      .cls-3 {
        clip-path: url(#clippath);
      }
    </style>
    <clipPath id="clippath">
      <rect class="cls-2" y="0" width="24" height="20.82"/>
    </clipPath>
  </defs>
  <g class="cls-3">
    <path class="cls-1" d="M1.47,7.24c-.29.17-.47.34-.66.36-.26.03-.53-.05-.79-.08.08-.26.15-.53.26-.78.03-.08.16-.12.24-.17C4.09,4.47,7.66,2.38,11.22.25c.57-.34,1.04-.33,1.6,0,3.56,2.12,7.13,4.23,10.69,6.34.09.05.21.1.24.17.1.25.16.52.23.78-.25.03-.51.13-.74.09-.23-.04-.43-.21-.73-.38v12.48c0,1.01-.08,1.09-1.06,1.09-6.31,0-12.61,0-18.92,0-.94,0-1.06-.11-1.06-1.03,0-3.91,0-7.82,0-11.73v-.82h0ZM2.51,19.76h3.18v-8.81c0-.96.13-1.1,1.08-1.1,3.43,0,6.86,0,10.29,0,1.17,0,1.31.12,1.31,1.28.01,2.6,0,5.21,0,7.81,0,.26.02.53.03.8h2.99c.03-.11.06-.18.06-.25,0-4.18.02-8.37,0-12.55,0-.2-.22-.48-.42-.6-2.8-1.68-5.62-3.33-8.42-5-.43-.26-.77-.27-1.22,0-2.79,1.69-5.6,3.35-8.42,4.99-.35.2-.48.4-.48.81.02,2.68.02,5.36.02,8.04v4.57h0ZM17.35,13.35H6.68v1.56h10.67v-1.56ZM6.65,12.24h10.69v-1.38H6.65v1.38ZM17.36,18.48H6.67v1.28h10.69v-1.28ZM17.36,16.04H6.67v1.29h10.69v-1.29Z"/>
  </g>
</svg>