<?xml version="1.0" encoding="UTF-8"?>
<svg id="Layer_1" xmlns="http://www.w3.org/2000/svg" xmlns:xlink="http://www.w3.org/1999/xlink" viewBox="0 0 19.12 22.11">
  <defs>
    <style>
      .cls-1 {
        fill: #1d897a;
      }

      .cls-2 {
        fill: none;
      }

      .cls-3 {
        clip-path: url(#clippath);
      }
    </style>
    <clipPath id="clippath">
      <rect class="cls-2" width="19.12" height="22.11"/>
    </clipPath>
  </defs>
  <g class="cls-3">
    <path class="cls-1" d="M4.58,1.26C4.64.44,5.08.03,5.87.03c2.81,0,5.61.02,8.42-.01.75,0,.98.25.95.97-.05,1.21-.04,2.44,0,3.65.02.67-.3.89-.92.89-2.97,0-5.93-.01-8.9,0-.58,0-.82-.23-.79-.81.04-.74,0-1.48,0-2.37-1.14.21-2.2.38-3.25.62-.13.03-.27.38-.27.57-.01,5.48-.02,10.96,0,16.44,0,.75.44,1.17,1.21,1.17,4.84,0,9.67.01,14.51,0,.95,0,1.26-.36,1.26-1.33,0-4.69,0-9.37,0-14.06,0-.24-.04-.5.04-.71.06-.16.29-.39.42-.38.19.02.43.2.51.37.1.2.06.47.06.7,0,4.71,0,9.42,0,14.13,0,1.55-.67,2.22-2.22,2.22H2.22C.75,22.1,0,21.36,0,19.91,0,14.48,0,9.06,0,3.63,0,2.5.49,1.96,1.64,1.78c.97-.16,1.93-.34,2.94-.52ZM5.63,4.39h8.53V1.19H5.63v3.21ZM6.47,10.55c-.8,0-1.61-.04-2.4.02-.26.02-.49.31-.73.48.23.19.46.53.69.54,1.66.05,3.31.05,4.97,0,.26,0,.5-.32.76-.49-.24-.18-.47-.5-.72-.52-.85-.06-1.71-.03-2.56-.03h0s0-.01,0-.01ZM3.98,16.86c-.22.02-.42.32-.64.49.19.18.37.51.56.52,1.76.03,3.53.03,5.29-.02.19,0,.37-.33.56-.5-.21-.17-.42-.47-.65-.49-.85-.06-1.71-.03-2.56-.03s-1.71-.03-2.56.02h0ZM6.57,15.13c.82,0,1.65.04,2.47-.02.25-.02.48-.31.72-.48-.24-.18-.47-.51-.72-.52-1.67-.05-3.35-.05-5.02,0-.23,0-.45.36-.67.55.22.16.44.44.67.45.85.05,1.7.02,2.55.02h0s0,0,0,0ZM12.75,16.37c-.26-.13-.58-.16-.87-.23,0,.28-.09.61.02.84.17.35.46.65.71.95.45.52.81.53,1.23-.02.56-.74,1.13-1.48,1.61-2.27.14-.24.02-.63.02-.96-.29.11-.67.15-.85.35-.5.58-.91,1.23-1.42,1.94-.21-.29-.29-.53-.46-.61h0ZM12.73,10.04c-.24-.14-.54-.17-.82-.24-.02.28-.14.61-.03.82.23.44.57.82.9,1.21.32.37.68.4.98-.04.58-.82,1.19-1.62,1.72-2.47.13-.21,0-.58-.02-.88-.26.09-.62.11-.77.29-.51.6-.94,1.26-1.45,1.96-.22-.28-.33-.53-.52-.64h0ZM6.48,8.95c.88,0,1.76.04,2.64-.02.22-.02.43-.32.64-.5-.22-.17-.43-.49-.65-.49-1.71-.04-3.42-.04-5.12,0-.21,0-.42.33-.63.51.21.17.42.46.65.48.82.06,1.65.02,2.48.02h0s0,0,0,0Z"/>
  </g>
</svg>