<?xml version="1.0" encoding="UTF-8"?>
<svg id="Layer_1" xmlns="http://www.w3.org/2000/svg" xmlns:xlink="http://www.w3.org/1999/xlink" viewBox="0 0 24 18.16">
  <defs>
    <style>
      .cls-1 {
        fill: #1d897a;
      }

      .cls-2 {
        fill: none;
      }

      .cls-3 {
        clip-path: url(#clippath);
      }
    </style>
    <clipPath id="clippath">
      <rect class="cls-2" width="24" height="18.16"/>
    </clipPath>
  </defs>
  <g class="cls-3">
    <path class="cls-1" d="M1.98,17.63V5.03c-.44.2-.85.38-1.25.57-.11.06-.24.14-.36.14C.25,5.74.12,5.67,0,5.62c.05-.11.08-.23.14-.33.03-.05.12-.07.18-.11C4.11,3.49,7.9,1.8,11.68.09c.23-.1.42-.09.64.01,3.75,1.69,7.5,3.38,11.25,5.06.07.03.15.04.19.1.08.11.11.25.17.37-.13.04-.3.13-.4.1-.45-.18-.89-.39-1.34-.6-.06-.03-.11-.04-.2-.08v12.57h1.35c.11,0,.25-.03.35.01.1.05.23.16.23.25s-.13.2-.24.25c-.09.04-.21,0-.32,0H.53c-.06,0-.13.02-.17,0-.12-.08-.23-.17-.34-.27.11-.09.22-.23.34-.24.54-.03,1.07-.01,1.64-.01h0ZM4.23,17.61V6.85c0-.48.05-.53.54-.53h14.46c.43,0,.49.06.49.51v10.77h1.71V5.16c0-.3-.11-.44-.36-.56-2.93-1.3-5.85-2.62-8.78-3.94-.23-.11-.41-.11-.63,0-2.93,1.32-5.87,2.64-8.81,3.95-.28.12-.35.27-.35.56v12.43h1.73ZM4.8,17.61h14.37v-2.13H4.8v2.13ZM4.8,8.62v1.72h14.36v-1.72H4.8ZM19.17,10.91H4.81v1.7h14.37v-1.7ZM4.8,14.9h14.37v-1.7H4.8v1.7ZM4.79,8.06h14.39v-1.19H4.79v1.19Z"/>
  </g>
</svg>