<?xml version="1.0" encoding="UTF-8"?>
<svg id="Layer_1" xmlns="http://www.w3.org/2000/svg" xmlns:xlink="http://www.w3.org/1999/xlink" viewBox="0 0 24 22.13">
  <defs>
    <style>
      .cls-1 {
        fill: #1d897a;
      }

      .cls-2 {
        fill: none;
      }

      .cls-3 {
        clip-path: url(#clippath);
      }
    </style>
    <clipPath id="clippath">
      <rect class="cls-2" y="0" width="24" height="22.12"/>
    </clipPath>
  </defs>
  <g class="cls-3">
    <path class="cls-1" d="M7.19,10.62v-4.39c0-1.69,0-3.38,0-5.07,0-.85.29-1.15,1.14-1.16,3.33,0,6.66,0,9.99,0,.9,0,1.18.3,1.18,1.21,0,2.94,0,5.88,0,8.81v.66c1.1,0,2.17,0,3.24,0,1.09,0,1.25.17,1.24,1.26,0,3.02,0,6.04,0,9.06,0,.99-.11,1.1-1.1,1.1-7.27,0-14.54,0-21.81.02-.79,0-1.08-.29-1.07-1.07.03-3.07,0-6.15,0-9.22,0-1.01.18-1.19,1.23-1.2,1.94,0,3.88,0,5.96,0h0ZM8.26,1.16v9.48h10.06V1.19h-2.98c0,.8-.01,1.54,0,2.28.02.73-.35,1.08-1.05,1.09-.69,0-1.39-.02-2.08-.02-.61,0-.91-.27-.88-.92.03-.82,0-1.64,0-2.47h-3.08ZM22.83,11.86h-3.31c0,.81-.03,1.56,0,2.31.04.76-.31,1.05-1.04,1.04-.64-.02-1.28-.01-1.91.02-.75.04-1.06-.3-1.04-1.04.03-.79,0-1.58,0-2.35h-3.11v9.07h10.4v-9.04ZM1.1,20.91h10.19v-9.07h-3.08c0,.85-.01,1.65,0,2.44.01.67-.3.95-.97.92-.66-.03-1.33,0-2-.01-.99-.02-1.11-.13-1.12-1.1,0-.76,0-1.52,0-2.26H1.1v9.09ZM5.23,14.07h1.91v-2.28h-1.91v2.28ZM14.16,3.38V1.19h-1.74v2.19h1.74ZM16.64,14.06h1.69v-2.21h-1.69v2.21Z"/>
  </g>
</svg>