<?xml version="1.0" encoding="UTF-8"?>
<svg id="Layer_1" xmlns="http://www.w3.org/2000/svg" viewBox="0 0 24 24.33">
  <defs>
    <style>
      .cls-1 {
        fill: #1d897a;
      }

      .cls-2 {
        fill: none;
      }
    </style>
  </defs>
  <path class="cls-2" d="M7.54,23.52h8.92c.67,0,1.22-.54,1.22-1.22v-6.59c-.82.6-1.69,1.18-2.64,1.72-2.97,1.72-6.05,2.83-8.72,3.17v1.7c0,.67.54,1.22,1.22,1.22Z"/>
  <path class="cls-2" d="M17.68,14.7v-5.07c-.92-.71-1.95-1.4-3.04-2.03-2.84-1.64-5.77-2.71-8.31-3.05v15.22c2.54-.34,5.47-1.41,8.31-3.05,1.1-.63,2.12-1.31,3.04-2.03Z"/>
  <path class="cls-2" d="M17.68,8.61V2.03c0-.67-.54-1.22-1.22-1.22H7.54c-.67,0-1.22.54-1.22,1.21v1.7c2.67.34,5.75,1.46,8.72,3.17.94.54,1.82,1.13,2.64,1.72ZM13.22,2.43h-2.43c-.23,0-.41-.18-.41-.41s.18-.41.41-.41h2.43c.23,0,.41.18.41.41s-.18.41-.41.41Z"/>
  <path class="cls-2" d="M20.48,12.17c-.59-.63-1.26-1.27-2-1.88v3.76c.75-.62,1.41-1.25,2-1.88Z"/>
  <path class="cls-1" d="M13.22,1.62h-2.43c-.23,0-.41.18-.41.41s.18.41.41.41h2.43c.23,0,.41-.18.41-.41s-.18-.41-.41-.41Z"/>
  <path class="cls-1" d="M5.51,2.03v1.63c-2.51-.16-4.32.46-5.1,1.82-.83,1.44-.39,3.46,1.23,5.72.13.18.38.22.57.09.18-.13.22-.38.09-.57-1.43-1.97-1.85-3.69-1.18-4.83.62-1.07,2.21-1.57,4.4-1.41v15.4c-2.19.15-3.78-.35-4.4-1.41-.95-1.65.41-4.53,3.47-7.36.16-.15.17-.41.02-.58-.15-.16-.41-.17-.58-.02C.64,13.63-.75,16.85.42,18.86c.7,1.22,2.22,1.86,4.33,1.86.24,0,.51-.02.76-.05v1.64c0,1.12.91,2.03,2.03,2.03h8.92c1.12,0,2.03-.91,2.03-2.03v-7.19c.96-.75,1.82-1.53,2.55-2.31,1.84,2.19,2.64,4.3,1.85,5.66-.63,1.09-2.08,1.38-3.18,1.44-.23,0-.4.2-.38.42,0,.22.19.38.41.38h.02c1.87-.1,3.2-.73,3.84-1.84.98-1.7.14-4.19-2-6.69,2.13-2.51,2.98-4.99,2-6.69-.64-1.12-1.98-1.75-3.87-1.84-.24,0-.41.16-.42.39,0,.23.16.41.38.42,1.11.06,2.57.35,3.2,1.44.79,1.35,0,3.47-1.85,5.66-.73-.78-1.59-1.56-2.55-2.31V2.03c0-1.12-.91-2.03-2.03-2.03H7.54c-1.12,0-2.03.91-2.03,2.03ZM18.49,10.28c.74.62,1.4,1.25,2,1.88-.58.63-1.25,1.27-2,1.88v-3.76ZM6.32,2.02c0-.67.54-1.22,1.22-1.22h0s8.92,0,8.92,0c.67,0,1.22.54,1.22,1.22v6.59c-.82-.59-1.69-1.18-2.64-1.72-2.97-1.71-6.05-2.83-8.72-3.17v-1.7ZM6.32,4.55c2.54.34,5.47,1.41,8.31,3.05,1.1.63,2.12,1.31,3.04,2.03v5.07c-.92.71-1.95,1.39-3.04,2.03-2.84,1.64-5.77,2.71-8.31,3.05V4.55ZM6.32,20.6c2.67-.34,5.75-1.45,8.72-3.17.94-.54,1.82-1.12,2.64-1.72v6.59c0,.67-.54,1.22-1.22,1.22H7.54c-.67,0-1.22-.54-1.22-1.22v-1.7Z"/>
  <path class="cls-1" d="M4.46,13.12h0c-.16-.15-.42-.14-.58.02-.15.16-.15.42.02.58l.12.11c.08.07.18.11.28.11.11,0,.22-.04.3-.13.15-.16.15-.42-.02-.58l-.11-.11Z"/>
</svg>