<?xml version="1.0" encoding="UTF-8"?>
<svg id="Layer_1" xmlns="http://www.w3.org/2000/svg" viewBox="0 0 24 30">
  <defs>
    <style>
      .cls-1 {
        fill: #1d897a;
      }

      .cls-2 {
        fill: none;
      }
    </style>
  </defs>
  <path class="cls-2" d="M16.83,14.04c-.17-.1-.26-.28-.25-.47.02-.28.05-.56.05-.82.07-1.25-.36-2.44-1.22-3.35-.86-.91-2.02-1.41-3.27-1.41h-.26c-1.25,0-2.41.5-3.27,1.41-.85.91-1.29,2.1-1.22,3.35l.05.81c.01.18-.08.36-.24.46-.31.19-.51.52-.51.87,0,.71.33,1.36.9,1.79.11.08.18.2.2.33.23,1.59.5,2.19.64,2.4.61.92,1.79,2.17,2.57,2.59h2.02c.77-.42,1.94-1.67,2.56-2.58.17-.26.43-.88.66-2.41.02-.13.09-.24.19-.32h.01c.56-.43.89-1.08.89-1.79,0-.36-.19-.68-.5-.86ZM10.5,15.5h-1c-.28,0-.5-.22-.5-.5s.22-.5.5-.5h1c.28,0,.5.22.5.5s-.22.5-.5.5ZM12.5,20h-1c-.28,0-.5-.22-.5-.5s.22-.5.5-.5h1c.28,0,.5.22.5.5s-.22.5-.5.5ZM14.5,15.5h-1.5v2c0,.28-.22.5-.5.5h-.5c-.28,0-.5-.22-.5-.5s.22-.5.5-.5v-2c0-.28.22-.5.5-.5h2c.28,0,.5.22.5.5s-.22.5-.5.5Z"/>
  <path class="cls-1" d="M10.5,2c-.28,0-.5.22-.5.5s.22.5.5.5h3c.28,0,.5-.22.5-.5s-.22-.5-.5-.5h-3Z"/>
  <path class="cls-1" d="M19.5,25c-.28,0-.5.22-.5.5v2c0,.83-.67,1.5-1.5,1.5H6.5c-.83,0-1.5-.67-1.5-1.5v-1.96c0-.28-.22-.5-.5-.5s-.5.22-.5.5v1.96c0,1.38,1.12,2.5,2.5,2.5h11c1.38,0,2.5-1.12,2.5-2.5v-2c0-.28-.22-.5-.5-.5Z"/>
  <path class="cls-1" d="M4.5,4.97c.28,0,.5-.22.5-.5v-1.97c0-.83.67-1.5,1.5-1.5h11c.83,0,1.5.67,1.5,1.5v1.97c0,.28.22.5.5.5s.5-.22.5-.5v-1.97c0-1.38-1.12-2.5-2.5-2.5H6.5c-1.38,0-2.5,1.12-2.5,2.5v1.97c0,.28.22.5.5.5Z"/>
  <path class="cls-1" d="M17.58,13.36c.01-.19.02-.38.03-.55.08-1.53-.45-2.98-1.5-4.09h.01c-1.05-1.11-2.47-1.72-3.99-1.72h-.26c-1.53,0-2.94.61-3.99,1.72-1.05,1.11-1.58,2.56-1.5,4.1l.03.54c-.46.39-.73.95-.73,1.54,0,.96.41,1.84,1.13,2.46.2,1.27.45,2.12.77,2.61.62.93,1.99,2.48,3.07,2.99.07.03.14.05.21.05h2.26c.07,0,.15-.02.21-.05,1.07-.5,2.43-2.04,3.06-2.97.32-.47.58-1.33.79-2.63.71-.62,1.13-1.52,1.13-2.46,0-.6-.27-1.16-.73-1.54ZM16.44,16.69h-.01c-.1.08-.17.19-.19.32-.23,1.53-.49,2.15-.66,2.41-.62.91-1.79,2.16-2.56,2.58h-2.02c-.78-.42-1.96-1.67-2.57-2.59-.14-.21-.41-.81-.64-2.4-.02-.13-.09-.25-.2-.33-.57-.43-.9-1.08-.9-1.79,0-.35.2-.68.51-.87.16-.1.25-.28.24-.46l-.05-.81c-.07-1.25.37-2.44,1.22-3.35.86-.91,2.02-1.41,3.27-1.41h.26c1.25,0,2.41.5,3.27,1.41.86.91,1.29,2.1,1.22,3.35,0,.26-.03.54-.05.82-.01.19.08.37.25.47.31.18.5.5.5.86,0,.71-.33,1.36-.89,1.79Z"/>
  <path class="cls-1" d="M20.5,6h-2c-.28,0-.5.22-.5.5s.22.5.5.5h1.5v1.5c0,.28.22.5.5.5s.5-.22.5-.5v-2c0-.28-.22-.5-.5-.5Z"/>
  <path class="cls-1" d="M20.5,21c-.28,0-.5.22-.5.5v1.5h-1.5c-.28,0-.5.22-.5.5s.22.5.5.5h2c.28,0,.5-.22.5-.5v-2c0-.28-.22-.5-.5-.5Z"/>
  <path class="cls-1" d="M3.5,9c.28,0,.5-.22.5-.5v-1.5h1.5c.28,0,.5-.22.5-.5s-.22-.5-.5-.5h-2c-.28,0-.5.22-.5.5v2c0,.28.22.5.5.5Z"/>
  <path class="cls-1" d="M6,23.5c0-.28-.22-.5-.5-.5h-1.5v-1.5c0-.28-.22-.5-.5-.5s-.5.22-.5.5v2c0,.28.22.5.5.5h2c.28,0,.5-.22.5-.5Z"/>
  <path class="cls-1" d="M12.5,19h-1c-.28,0-.5.22-.5.5s.22.5.5.5h1c.28,0,.5-.22.5-.5s-.22-.5-.5-.5Z"/>
  <path class="cls-1" d="M10.5,14.5h-1c-.28,0-.5.22-.5.5s.22.5.5.5h1c.28,0,.5-.22.5-.5s-.22-.5-.5-.5Z"/>
  <path class="cls-1" d="M14.5,14.5h-2c-.28,0-.5.22-.5.5v2c-.28,0-.5.22-.5.5s.22.5.5.5h.5c.28,0,.5-.22.5-.5v-2h1.5c.28,0,.5-.22.5-.5s-.22-.5-.5-.5Z"/>
  <path class="cls-1" d="M23.5,13.95c.28,0,.5-.27.5-.55s-.22-.5-.5-.5-.5.22-.5.5v.1c0,.28.22.45.5.45Z"/>
  <path class="cls-1" d="M23.5,14.9c-.28,0-.5.22-.5.5v.1c0,.28.22.45.5.45s.5-.27.5-.55-.22-.5-.5-.5Z"/>
  <path class="cls-1" d="M23.5,16.9c-.28,0-.5.22-.5.5v.1c0,.28.22.45.5.45s.5-.27.5-.55-.22-.5-.5-.5Z"/>
  <path class="cls-1" d="M20.5,12.9c-.28,0-.5.22-.5.5v.1c0,.28.22.45.5.45s.5-.27.5-.55-.22-.5-.5-.5Z"/>
  <path class="cls-1" d="M20.5,14.9c-.28,0-.5.22-.5.5v.1c0,.28.22.45.5.45s.5-.27.5-.55-.22-.5-.5-.5Z"/>
  <path class="cls-1" d="M20.5,16.9c-.28,0-.5.22-.5.5v.1c0,.28.22.45.5.45s.5-.27.5-.55-.22-.5-.5-.5Z"/>
  <path class="cls-1" d="M3.5,13.95c.28,0,.5-.27.5-.55s-.22-.5-.5-.5-.5.22-.5.5v.1c0,.28.22.45.5.45Z"/>
  <path class="cls-1" d="M3.5,15.95c.28,0,.5-.27.5-.55s-.22-.5-.5-.5-.5.22-.5.5v.1c0,.28.22.45.5.45Z"/>
  <path class="cls-1" d="M3.5,17.95c.28,0,.5-.27.5-.55s-.22-.5-.5-.5-.5.22-.5.5v.1c0,.28.22.45.5.45Z"/>
  <path class="cls-1" d="M.5,13.95c.28,0,.5-.27.5-.55s-.22-.5-.5-.5-.5.22-.5.5v.1c0,.28.22.45.5.45Z"/>
  <path class="cls-1" d="M.5,15.95c.28,0,.5-.27.5-.55s-.22-.5-.5-.5-.5.22-.5.5v.1c0,.28.22.45.5.45Z"/>
  <path class="cls-1" d="M.5,17.95c.28,0,.5-.27.5-.55s-.22-.5-.5-.5-.5.22-.5.5v.1c0,.28.22.45.5.45Z"/>
</svg>