<?xml version="1.0" encoding="UTF-8"?>
<svg id="Layer_1" xmlns="http://www.w3.org/2000/svg" viewBox="0 0 24 32.73">
  <defs>
    <style>
      .cls-1 {
        fill: #1d897a;
      }

      .cls-2 {
        fill: none;
      }
    </style>
  </defs>
  <polygon class="cls-2" points="16.36 18.88 13.09 20.52 13.09 20.93 16.36 22.57 16.36 18.88"/>
  <path class="cls-2" d="M10.36,16.36c1.51,0,2.73-1.22,2.73-2.73s-1.22-2.73-2.73-2.73-2.73,1.22-2.73,2.73,1.22,2.73,2.73,2.73Z"/>
  <path class="cls-2" d="M3.82,10.91c-1.51,0-2.73,1.22-2.73,2.73s1.22,2.73,2.73,2.73,2.73-1.22,2.73-2.73-1.22-2.73-2.73-2.73Z"/>
  <path class="cls-2" d="M7.7,16.36c-.24-.24-.44-.51-.61-.8-.17.29-.37.57-.61.8h1.22Z"/>
  <path class="cls-1" d="M16.91,3.27c.3,0,.55-.24.55-.55s-.24-.55-.55-.55h-3.27c-.3,0-.55.24-.55.55s.24.55.55.55h3.27Z"/>
  <path class="cls-1" d="M21.27,0h-12c-1.51,0-2.73,1.22-2.73,2.73v6.61c0,.3.24.55.55.55s.55-.24.55-.55V2.73c0-.91.73-1.64,1.64-1.64h12c.91,0,1.64.73,1.64,1.64v27.27c0,.91-.73,1.64-1.64,1.64h-12c-.91,0-1.64-.73-1.64-1.64,0-.31-.24-.55-.55-.55s-.55.24-.55.55c0,1.51,1.22,2.73,2.73,2.73h12c1.51,0,2.73-1.22,2.73-2.73V2.73c0-1.51-1.22-2.73-2.73-2.73Z"/>
  <path class="cls-1" d="M3.81,9.82c-2.03,0-3.69,1.6-3.81,3.6v.49c.09,1.18.72,2.23,1.65,2.86-.34.3-.57.73-.57,1.22v5.45c0,.91.73,1.64,1.64,1.64h1.64c.3,0,.55-.24.55-.55s-.24-.55-.55-.55h-1.64c-.3,0-.55-.24-.55-.55v-5.45c0-.31.24-.55.55-.55h8.73c.3,0,.55.24.55.55v5.45c0,.31-.24.55-.55.55h-4.36c-.19,0-.34.1-.44.23,0,0-.02.01-.03.02l-2.73,4.36c-.16.25-.09.59.17.75.25.16.59.09.75-.17l2.27-3.62,2.27,3.62h.01c.1.17.28.26.46.26.1,0,.2-.02.28-.09.25-.16.34-.49.17-.75l-2.2-3.52h3.38c.91,0,1.64-.73,1.64-1.64v-1.3l3.58,1.79c.08.04.16.05.24.05.1,0,.2-.02.28-.08.16-.1.26-.27.26-.47v-5.45c0-.19-.1-.36-.26-.47-.16-.1-.36-.11-.53-.02l-3.58,1.79v-1.3c0-.49-.22-.93-.57-1.22.99-.69,1.66-1.83,1.66-3.14,0-2.11-1.71-3.82-3.82-3.82-1.4,0-2.61.76-3.27,1.89-.66-1.12-1.88-1.89-3.27-1.89ZM13.09,20.52l3.27-1.64v3.69l-3.27-1.64v-.41ZM3.82,16.36c-1.51,0-2.73-1.22-2.73-2.73s1.22-2.73,2.73-2.73,2.73,1.22,2.73,2.73-1.22,2.73-2.73,2.73ZM10.36,10.91c1.51,0,2.73,1.22,2.73,2.73s-1.22,2.73-2.73,2.73-2.73-1.22-2.73-2.73,1.22-2.73,2.73-2.73ZM7.7,16.36h-1.22c.24-.23.44-.5.61-.8.17.28.37.56.61.8Z"/>
</svg>