<?xml version="1.0" encoding="UTF-8"?>
<svg id="Layer_1" xmlns="http://www.w3.org/2000/svg" viewBox="0 0 24 26.67">
  <defs>
    <style>
      .cls-1 {
        fill: #1d897a;
      }

      .cls-2 {
        fill: none;
      }
    </style>
  </defs>
  <path class="cls-2" d="M11.56,6.22c-3.43,0-6.22,2.79-6.22,6.22s2.79,6.22,6.22,6.22,6.22-2.79,6.22-6.22-2.79-6.22-6.22-6.22Z"/>
  <path class="cls-2" d="M19.31,18.92c-.17-.17-.39-.26-.63-.26s-.46.09-.63.26c-.17.17-.26.39-.26.63s.09.46.26.63l3.56,3.56c.33.34.92.34,1.25,0h0c.17-.17.26-.39.26-.63s-.09-.46-.26-.63l-3.56-3.56Z"/>
  <path class="cls-1" d="M24,23.12c0-.47-.19-.92-.52-1.25h0s-3.56-3.56-3.56-3.56c-.56-.56-1.48-.65-2.15-.27l-.89-.89c1.11-1.25,1.79-2.9,1.79-4.69,0-3.92-3.19-7.11-7.11-7.11s-7.11,3.19-7.11,7.11,3.19,7.11,7.11,7.11c1.8,0,3.44-.68,4.69-1.79l.89.89c-.16.27-.25.58-.25.9,0,.47.19.92.53,1.25l3.56,3.56c.34.34.78.52,1.25.52s.92-.19,1.25-.52c.33-.34.52-.78.52-1.25h0ZM11.56,18.67c-3.43,0-6.22-2.79-6.22-6.22s2.79-6.22,6.22-6.22,6.22,2.79,6.22,6.22-2.79,6.22-6.22,6.22ZM22.86,23.74h0c-.34.34-.92.34-1.25,0l-3.56-3.56c-.17-.17-.26-.39-.26-.63s.09-.46.26-.63c.17-.17.39-.26.63-.26s.46.09.63.26l3.56,3.56c.17.17.26.39.26.63s-.09.46-.26.63Z"/>
  <path class="cls-1" d="M7.56,24.89c.25,0,.44-.19.44-.44s-.2-.44-.44-.44h-.89c-.25,0-.44.2-.44.44s.2.44.44.44h.89Z"/>
  <path class="cls-1" d="M8.44,2.67c.25,0,.44-.19.44-.44s-.19-.44-.44-.44h-2.67c-.25,0-.44.2-.44.44s.2.44.44.44h2.67Z"/>
  <path class="cls-1" d="M14.22,24.44v-4c0-.25-.2-.44-.44-.44s-.44.2-.44.44v4c0,.74-.6,1.33-1.33,1.33H2.22c-.74,0-1.33-.6-1.33-1.33V2.22c0-.74.6-1.33,1.33-1.33h9.78c.74,0,1.33.6,1.33,1.33v2.22c0,.25.2.44.44.44s.44-.19.44-.44v-2.22c0-1.23-1-2.22-2.22-2.22H2.22C1,0,0,1,0,2.22v22.22c0,1.23,1,2.22,2.22,2.22h9.78c1.23,0,2.22-1,2.22-2.22Z"/>
</svg>