<?xml version="1.0" encoding="UTF-8"?>
<svg id="Layer_1" xmlns="http://www.w3.org/2000/svg" viewBox="0 0 24 19.33">
  <defs>
    <style>
      .cls-1 {
        fill: #1d897a;
      }

      .cls-2 {
        fill: none;
      }
    </style>
  </defs>
  <polygon class="cls-2" points="19.99 8.46 19.99 11.45 22.39 10.12 22.39 7.12 20.68 8.08 19.99 8.46"/>
  <polygon class="cls-2" points="19.59 5.13 17.22 6.44 19.59 7.76 21.97 6.44 19.59 5.13"/>
  <polygon class="cls-2" points="16.8 7.12 16.8 10.12 19.19 11.45 19.19 8.46 18.51 8.08 16.8 7.12"/>
  <path class="cls-1" d="M5.37,2.86s-.07.06-.1.1L.08,9.74c-.14.18-.1.42.07.56.18.14.42.1.56-.07L5.86,3.49,10.08.8h4.32c0,.88-.72,1.6-1.6,1.6h-1.23c-.82,0-1.59.35-2.12.98l-1.34,1.57c-.06.07-.1.17-.1.26v5.2c0,.22.18.4.4.4s.4-.18.4-.4v-5.05l.8-.93v7.98c0,.09.02.18.02.26l-.94-.94c-.16-.16-.41-.16-.57,0-.16.16-.16.41,0,.57l1.3,1.3c.52.52,1.24.82,1.98.82h1.01c.42,0,.83.17,1.13.47.3.3.47.7.47,1.13H3.71c-.09,0-.18.03-.24.08L.16,18.61c-.18.14-.21.38-.07.56.08.1.2.16.32.16.09,0,.17-.02.24-.08l3.21-2.45h10.55c.22,0,.4-.18.4-.4v-.4c0-.6-.22-1.16-.62-1.6h9.42c.22,0,.4-.18.4-.4s-.18-.4-.4-.4h0s-11.99,0-11.99,0c-.66,0-1.2-.54-1.2-1.2v-8c0-.66.54-1.2,1.2-1.2h10.4c.22,0,.4-.18.4-.4s-.18-.4-.4-.4h-7.42c.38-.42.62-.98.62-1.6v-.4c0-.22-.18-.4-.4-.4h-4.84c-.08,0-.15.02-.22.06l-4.37,2.8Z"/>
  <path class="cls-1" d="M23.51,3.2h.08c.22,0,.4-.18.4-.4s-.18-.4-.4-.4h-.08c-.22,0-.4.18-.4.4s.18.4.4.4Z"/>
  <path class="cls-1" d="M11.2,7.2v2.4c0,.22.18.4.4.4s.4-.18.4-.4v-2.4c0-.22-.18-.4-.4-.4s-.4.18-.4.4Z"/>
  <path class="cls-1" d="M23.09,6.2s-.06-.07-.1-.1l-3.2-1.78h0c-.12-.07-.26-.07-.39,0l-3.2,1.78s-.07.06-.1.1c-.02.02-.03.02-.05.05-.03.06-.06.13-.06.2v3.91c0,.14.08.28.21.35l3.19,1.78h0c.06.04.13.06.19.06s.14-.02.19-.05h0l3.19-1.78c.13-.07.21-.21.21-.35v-3.91c0-.07-.02-.14-.06-.2,0-.02-.03-.03-.05-.05ZM19.19,11.45l-2.4-1.33v-2.99l1.71.95.69.38v2.99ZM19.59,7.76l-2.37-1.32,2.37-1.32,2.38,1.32-2.38,1.32ZM22.39,10.12l-2.4,1.33v-2.99l.69-.38,1.71-.95v2.99Z"/>
</svg>