<?xml version="1.0" encoding="UTF-8"?>
<svg id="Layer_1" xmlns="http://www.w3.org/2000/svg" viewBox="0 0 24 27.69">
  <defs>
    <style>
      .cls-1 {
        fill: #1d897a;
      }

      .cls-2 {
        fill: none;
      }
    </style>
  </defs>
  <polygon class="cls-2" points="5.54 15.18 5.54 22.15 11.05 22.15 5.54 15.18"/>
  <path class="cls-1" d="M4.62,13.85v8.77c0,.26.2.46.46.46h6.92c.18,0,.34-.1.42-.26.07-.16.06-.35-.06-.49l-6.92-8.77c-.12-.16-.33-.22-.52-.15h0c-.18.06-.31.24-.31.43ZM5.54,15.18l5.51,6.98h-5.51v-6.98Z"/>
  <path class="cls-1" d="M18,2.77c.26,0,.46-.2.46-.46s-.2-.46-.46-.46h-2.77c-.26,0-.46.2-.46.46s.2.46.46.46h2.77Z"/>
  <path class="cls-1" d="M21.69,0h-10.15c-1.27,0-2.31,1.03-2.31,2.31v6.92c0,.26.2.46.46.46s.46-.2.46-.46V2.31c0-.77.62-1.38,1.38-1.38h10.15c.77,0,1.38.62,1.38,1.38v23.08c0,.77-.62,1.38-1.38,1.38H.92v-.92h.46c.26,0,.46-.2.46-.46s-.2-.46-.46-.46h-.46v-.92h.46c.26,0,.46-.2.46-.46s-.2-.46-.46-.46h-.46v-.92h.46c.26,0,.46-.2.46-.46s-.2-.46-.46-.46h-.46v-.92h.46c.26,0,.46-.2.46-.46s-.2-.46-.46-.46h-.46v-.92h.46c.26,0,.46-.2.46-.46s-.2-.46-.46-.46h-.46v-.92h.46c.26,0,.46-.2.46-.46s-.2-.46-.46-.46h-.46v-.92h.46c.26,0,.46-.2.46-.46s-.2-.46-.46-.46h-.46v-.92h.46c.26,0,.46-.2.46-.46s-.2-.46-.46-.46h-.46v-.92h.46c.26,0,.46-.2.46-.46s-.2-.46-.46-.46h-.46v-.92h.46c.26,0,.46-.2.46-.46s-.2-.46-.46-.46h-.46v-.92h.46c.26,0,.46-.2.46-.46s-.2-.46-.46-.46h-.46v-.92h.46c.26,0,.46-.2.46-.46s-.2-.46-.46-.46h-.46v-.92h.46c.26,0,.46-.2.46-.46s-.2-.46-.46-.46h-.46v-.98l18.94,23.89c.16.2.45.23.65.07.2-.16.23-.45.07-.65L.82.18C.7.02.5-.04.31.03c-.18.06-.31.24-.31.43v26.77c0,.26.2.46.46.46h21.23c1.27,0,2.31-1.03,2.31-2.31V2.31c0-1.27-1.03-2.31-2.31-2.31Z"/>
</svg>