<?xml version="1.0" encoding="UTF-8"?>
<svg id="Layer_1" xmlns="http://www.w3.org/2000/svg" viewBox="0 0 24 23.99">
  <defs>
    <style>
      .cls-1 {
        fill: #1d897a;
      }

      .cls-2 {
        fill: none;
      }
    </style>
  </defs>
  <path class="cls-1" d="M10.8,2.4h2.4c.22,0,.4-.18.4-.4s-.18-.4-.4-.4h-2.4c-.22,0-.4.18-.4.4s.18.4.4.4Z"/>
  <g>
    <path class="cls-2" d="M7.6,23.19h8.8c.66,0,1.2-.54,1.2-1.2V2c0-.66-.53-1.2-1.2-1.2H7.6c-.66,0-1.2.54-1.2,1.2v19.99c0,.66.54,1.2,1.2,1.2ZM10.52,17.69c-.08.13-.22.2-.35.2-.07,0-.14-.02-.2-.05l-.63-.35c-.19-.1-.26-.35-.15-.54.1-.19.35-.26.54-.15l.63.35h0c.19.1.26.35.15.54ZM8.21,14.55c-.13-.07-.21-.21-.21-.35v-4.4c0-.07.02-.14.06-.2.02-.02.03-.03.05-.05.02-.03.06-.07.1-.1h0s3.6-1.99,3.6-1.99c.13-.06.27-.06.39,0l3.6,2s.06.06.1.1c.02.02.04.03.05.05.04.06.06.13.06.2v4.4c0,.14-.08.28-.21.35l-3.59,1.99h0c-.06.03-.13.05-.19.05s-.13-.02-.19-.06h0l-3.59-1.99ZM12.56,18.68l-.35.2c-.06.03-.13.05-.2.05s-.14-.02-.2-.05l-.35-.2c-.19-.1-.26-.35-.15-.54.11-.19.35-.26.54-.15l.15.09.15-.09h.02c.18-.11.43-.04.54.15.11.19.04.43-.15.54ZM14.63,17.51l-.63.35c-.06.03-.14.05-.2.05-.14,0-.28-.07-.35-.2-.11-.19-.04-.43.15-.54l.63-.35h0c.18-.11.43-.04.54.15.11.19.04.43-.15.54ZM16.56,16.43l-.66.38c-.06.03-.14.05-.2.05-.14,0-.28-.07-.35-.2-.11-.19-.04-.43.15-.54l.66-.38h0c.19-.11.43-.04.54.15.11.19.04.43-.15.54ZM15.42,7.37c.11-.19.35-.26.54-.15l.68.38h0c.19.1.26.35.15.54-.08.13-.22.2-.35.2-.07,0-.14-.02-.2-.05l-.68-.38c-.19-.1-.26-.35-.15-.54ZM13.44,6.27h0c.11-.19.35-.26.54-.15l.64.36c.19.1.26.35.15.54-.08.13-.22.2-.35.2-.07,0-.14-.02-.2-.05l-.64-.36c-.19-.1-.26-.35-.15-.54ZM11.45,5.31l.35-.2c.12-.07.27-.07.39,0l.35.2c.19.1.26.35.15.54-.08.13-.22.2-.35.2-.07,0-.14-.02-.2-.05l-.15-.09-.15.09c-.19.11-.43.04-.54-.15-.11-.19-.04-.43.15-.54ZM9.42,6.49l.64-.36c.19-.11.43-.04.54.15.11.19.04.43-.15.54l-.64.36c-.06.03-.13.05-.2.05,0,0,0,0,0,0h0s0,0,0,0c-.14,0-.28-.07-.35-.2-.11-.19-.04-.43.15-.54ZM7.41,7.61l.68-.38c.19-.11.44-.04.54.15.11.19.04.43-.15.54l-.68.38c-.06.03-.13.05-.2.05,0,0,0,0,0,0h0s0,0,0,0c-.14,0-.28-.07-.35-.2-.11-.19-.04-.43.15-.54ZM7.26,15.85c.11-.19.35-.26.54-.15l.66.38h0c.19.1.26.35.15.54-.08.13-.22.2-.35.2-.07,0-.14-.02-.2-.05l-.66-.38c-.19-.1-.26-.35-.15-.54Z"/>
    <polygon class="cls-2" points="14.77 9.8 12 8.25 9.22 9.8 12 11.34 14.77 9.8"/>
    <polygon class="cls-2" points="8.8 10.48 8.8 13.97 11.6 15.52 11.6 12.04 10.8 11.59 8.8 10.48"/>
    <polygon class="cls-2" points="12.4 12.03 12.4 15.51 15.19 13.96 15.19 10.47 13.2 11.58 12.4 12.03"/>
    <path class="cls-1" d="M11.84,6.01l.15-.09.15.09c.06.03.13.05.2.05.14,0,.27-.07.35-.2.11-.19.04-.44-.15-.54l-.35-.2c-.12-.07-.27-.07-.39,0l-.35.2c-.19.11-.26.35-.15.54.11.19.35.26.54.15Z"/>
    <path class="cls-1" d="M10.37,17.15h0l-.63-.35c-.19-.1-.44-.04-.54.15-.11.19-.04.44.15.54l.63.35c.06.03.13.05.2.05.14,0,.27-.07.35-.2.11-.19.04-.44-.15-.54Z"/>
    <path class="cls-1" d="M7.41,16.39l.66.38c.06.03.13.05.2.05.14,0,.27-.07.35-.2.11-.19.04-.44-.15-.54h0l-.66-.38c-.19-.11-.43-.04-.54.15-.11.19-.04.44.15.54Z"/>
    <path class="cls-1" d="M4.89,14.06h0l-.68-.38c-.19-.11-.43-.04-.54.15-.11.19-.04.44.15.54l.68.38c.06.03.13.05.2.05.14,0,.27-.07.35-.2.11-.19.04-.44-.15-.54Z"/>
    <path class="cls-1" d="M2.88,12.93h0l-.64-.36c-.19-.11-.43-.04-.54.15-.11.19-.04.44.15.54l.64.36c.06.03.13.05.2.05.14,0,.27-.07.35-.2.11-.19.04-.44-.15-.54Z"/>
    <path class="cls-1" d="M22.17,10.73h0l-.63-.35c-.19-.11-.43-.04-.54.15-.11.19-.04.44.15.54l.63.35c.06.03.13.05.2.05.14,0,.27-.07.35-.2.11-.19.04-.44-.15-.54Z"/>
    <path class="cls-1" d="M20.27,9.66h0l-.66-.38c-.19-.11-.43-.04-.54.15-.11.19-.04.44.15.54l.66.38c.06.03.13.05.2.05.14,0,.27-.07.35-.2.11-.19.04-.44-.15-.54Z"/>
    <path class="cls-1" d="M15.57,7.92l.68.38c.06.03.13.05.2.05.14,0,.27-.07.35-.2.11-.19.04-.44-.15-.54h0l-.68-.38c-.19-.11-.43-.04-.54.15-.11.19-.04.44.15.54Z"/>
    <path class="cls-1" d="M13.59,6.81l.64.36c.06.03.13.05.2.05.14,0,.27-.07.35-.2.11-.19.04-.44-.15-.54l-.64-.36c-.19-.11-.43-.04-.54.15h0c-.11.19-.04.44.15.54Z"/>
    <path class="cls-1" d="M14.24,16.82h0l-.63.35c-.19.11-.26.35-.15.54.07.13.21.2.35.2.06,0,.14-.02.2-.05l.63-.35c.19-.11.26-.35.15-.54-.11-.19-.36-.26-.54-.15Z"/>
    <path class="cls-1" d="M16.17,15.73h0l-.66.38c-.19.11-.26.35-.15.54.07.13.21.2.35.2.06,0,.14-.02.2-.05l.66-.38c.19-.11.26-.35.15-.54-.11-.19-.35-.26-.54-.15Z"/>
    <path class="cls-1" d="M19.8,13.68h0l-.68.38c-.19.11-.26.35-.15.54.07.13.21.2.35.2.06,0,.14-.02.2-.05l.68-.38c.19-.11.26-.35.15-.54-.11-.19-.36-.26-.54-.15Z"/>
    <path class="cls-1" d="M21.78,12.56h0l-.64.36c-.19.11-.26.35-.15.54.07.13.21.2.35.2.06,0,.14-.02.2-.05l.64-.36c.19-.11.26-.35.15-.54-.11-.19-.35-.26-.54-.15Z"/>
    <path class="cls-1" d="M2.04,11.48c.06,0,.13-.02.2-.05l.63-.35c.19-.11.26-.35.15-.54-.11-.19-.36-.26-.54-.15l-.63.35c-.19.11-.26.35-.15.54.07.13.21.2.35.2Z"/>
    <polygon class="cls-1" points="2.04 11.48 2.04 11.48 2.03 11.48 2.04 11.48"/>
    <path class="cls-1" d="M3.93,10.41c.06,0,.13-.02.2-.05l.66-.38c.19-.11.26-.35.15-.54-.11-.19-.35-.26-.54-.15l-.66.38c-.19.11-.26.35-.15.54.07.13.21.2.35.2Z"/>
    <polygon class="cls-1" points="3.93 10.41 3.93 10.41 3.93 10.41 3.93 10.41"/>
    <polygon class="cls-1" points="7.61 8.36 7.61 8.36 7.6 8.36 7.61 8.36"/>
    <path class="cls-1" d="M7.61,8.36c.06,0,.13-.02.2-.05l.68-.38c.19-.11.26-.35.15-.54-.1-.19-.35-.26-.54-.15l-.68.38c-.19.11-.26.35-.15.54.07.13.21.2.35.2Z"/>
    <polygon class="cls-1" points="9.62 7.23 9.62 7.23 9.61 7.23 9.62 7.23"/>
    <path class="cls-1" d="M9.62,7.23c.06,0,.13-.02.2-.05l.64-.36c.19-.11.26-.35.15-.54-.11-.19-.35-.26-.54-.15l-.64.36c-.19.11-.26.35-.15.54.07.13.21.2.35.2Z"/>
    <path class="cls-1" d="M23.8,11.63v.02s-.36-.2-.36-.2c-.19-.11-.43-.04-.54.15-.07.13-.06.27,0,.39-.06.12-.07.26,0,.39.07.13.21.2.35.2.06,0,.14-.02.2-.05l.35-.2c.13-.07.2-.2.2-.35s-.08-.28-.2-.35Z"/>
    <path class="cls-1" d="M12.16,17.99h-.02l-.15.09-.15-.09c-.19-.11-.43-.04-.54.15-.11.19-.04.44.15.54l.35.2c.06.03.13.05.2.05s.14-.02.2-.05l.35-.2c.19-.11.26-.35.15-.54-.11-.19-.36-.26-.54-.15Z"/>
    <path class="cls-1" d="M.2,12.36l.35.2c.06.03.13.05.2.05.14,0,.27-.07.35-.2.07-.13.06-.27,0-.39.06-.12.07-.26,0-.39v-.02c-.12-.19-.36-.26-.55-.15l-.35.2c-.13.07-.2.2-.2.35s.08.28.2.35Z"/>
    <path class="cls-1" d="M5.6,2v19.99c0,1.1.9,2,2,2h8.8c1.1,0,2-.9,2-2V2c0-1.1-.9-2-2-2H7.6c-1.1,0-2,.9-2,2ZM6.4,2c0-.66.54-1.2,1.2-1.2h8.8c.66,0,1.2.54,1.2,1.2v19.99c0,.66-.53,1.2-1.2,1.2H7.6c-.66,0-1.2-.54-1.2-1.2V2Z"/>
    <path class="cls-1" d="M11.8,16.54c.06.04.13.06.19.06s.14-.02.19-.05h0l3.59-1.99c.13-.07.21-.21.21-.35v-4.4c0-.07-.02-.14-.06-.2,0-.02-.03-.03-.05-.05-.03-.04-.06-.07-.1-.1l-3.6-2c-.12-.06-.26-.06-.39,0l-3.6,2h0s-.07.06-.1.09c-.02.02-.03.02-.05.05-.03.06-.06.13-.06.2v4.4c0,.14.08.28.21.35l3.59,1.99h0ZM15.19,13.96l-2.8,1.55v-3.48l.8-.45,2-1.11v3.49ZM12,8.25l2.78,1.54-2.78,1.54-2.78-1.54,2.78-1.54ZM11.6,15.52l-2.8-1.55v-3.49l2,1.11.8.45v3.49Z"/>
  </g>
</svg>