<?xml version="1.0" encoding="UTF-8"?>
<svg id="Layer_1" xmlns="http://www.w3.org/2000/svg" viewBox="0 0 24 23.73">
  <defs>
    <style>
      .cls-1 {
        fill: #1d897a;
      }

      .cls-2 {
        fill: none;
      }
    </style>
  </defs>
  <path class="cls-2" d="M11.59,3.03l-.94-1.39-.41,1.63c-.21.82-.23,1.66-.09,2.49l.53,3,.49,2.76h0s2.37-.42,2.37-.42l-1.02-5.76c-.15-.83-.46-1.61-.94-2.31Z"/>
  <path class="cls-1" d="M1.32,19.97h0l-.7.31c-.2.09-.29.33-.2.53.06.15.22.23.37.23.06,0,.11,0,.17-.03l.7-.31c.2-.09.29-.33.2-.53-.09-.2-.33-.3-.53-.2Z"/>
  <path class="cls-1" d="M12.85,14.84h0c.06.14.22.23.37.23.06,0,.11,0,.17-.03l6.16-2.8c.2-.09.29-.33.2-.53-.09-.2-.33-.29-.53-.2l-6.16,2.8c-.2.09-.29.33-.2.53Z"/>
  <path class="cls-1" d="M21.37,19.12h0s-.87-.36-.87-.36c-.2-.08-.44.02-.52.22-.08.21.02.44.22.52l.87.35s.1.03.15.03c.16,0,.31-.1.37-.25.08-.21-.02-.44-.22-.52Z"/>
  <path class="cls-1" d="M20.03,8.03h0c.1,0,.21-.04.28-.12.16-.16.16-.41,0-.57l-1.13-1.13c-.16-.16-.41-.16-.57,0-.16.16-.16.41,0,.57l1.13,1.13c.08.08.18.12.28.12Z"/>
  <path class="cls-1" d="M15.36,18.52c-.16-.16-.41-.16-.57,0h0l-.88.88-1.15-2.49c-.1-.2-.33-.29-.53-.19-.2.1-.29.33-.19.53l2.4,5.2c.06.14.22.23.36.23.06,0,.11,0,.17-.04.2-.1.29-.33.19-.53l-.9-1.94,1.09-1.09c.16-.16.16-.41,0-.57Z"/>
  <path class="cls-1" d="M23.43,8.19l-5.09-5.09c-.78-.78-2.05-.78-2.83,0l-2.18,2.18-.02-.07c-.17-.95-.52-1.83-1.06-2.62l-1.44-2.15c-.09-.13-.24-.2-.4-.17-.15.02-.28.14-.32.3l-.62,2.51c-.18.75-.24,1.5-.17,2.27L.34,6.92c-.22.04-.36.25-.33.46.04.22.25.37.46.33l8.93-1.58.27,1.55.14.82-1.58.28-.21-1.18c-.04-.22-.25-.37-.46-.33-.22.04-.36.25-.33.46l.21,1.18L.37,10.17c-.22.04-.36.25-.33.46.03.19.2.33.39.33h.07l9.46-1.67.49,2.76c.03.19.2.33.39.33h.07l3.15-.55c.1-.02.2-.08.26-.17.06-.09.09-.19.06-.3l-.9-5.12,2.58-2.58c.46-.46,1.23-.46,1.7,0l5.09,5.09c.46.46.46,1.23,0,1.7l-6.61,6.6-2.9-1.16c-.21-.08-.44.02-.52.22-.08.21.02.44.22.52l5.59,2.23s.1.03.15.03c.16,0,.31-.1.37-.25.08-.21-.02-.44-.22-.52l-1.89-.75,6.36-6.36c.38-.38.58-.88.58-1.42s-.21-1.04-.58-1.42l.02-.02ZM13.55,11.1l-2.37.42h0s-.49-2.75-.49-2.75l-.53-3c-.14-.83-.12-1.66.09-2.49l.41-1.63.94,1.39c.47.7.78,1.48.94,2.31l1.02,5.76Z"/>
  <path class="cls-1" d="M10,15.07c.17,0,.32-.1.38-.27.07-.21-.03-.44-.24-.51l-3.45-1.22,2.42-2.29c.16-.15.17-.4.02-.56-.15-.15-.4-.16-.56-.01l-2.72,2.57-1.47-.52c-.21-.07-.43.03-.51.24-.07.21.03.44.24.51l5.77,2.04s.09.02.14.02Z"/>
  <polygon class="cls-1" points="9.12 10.22 9.12 10.22 9.13 10.22 9.12 10.22"/>
  <path class="cls-1" d="M5.08,14.65c.16-.16.16-.41,0-.57-.16-.16-.41-.16-.57,0l-1.14,1.14c-.78.78-.78,2.05,0,2.83h0c.08.08.18.12.28.12s.21-.04.28-.12c.16-.16.16-.41,0-.57-.46-.46-.46-1.23,0-1.7l1.14-1.14Z"/>
  <path class="cls-1" d="M12.26,21.05h0s-1.52,1.53-1.52,1.53c-.45.45-1.25.45-1.7,0l-3.66-3.66,4.8-2.28c.2-.1.29-.34.19-.54-.1-.2-.34-.29-.54-.19l-5.28,2.51-1.8.86c-.2.1-.29.34-.19.54.06.14.21.23.36.23.06,0,.12-.02.17-.04l1.53-.73,3.86,3.86c.38.38.88.58,1.42.58s1.04-.21,1.42-.58l1.52-1.52c.16-.16.16-.41,0-.57-.16-.16-.41-.16-.57,0Z"/>
  <path class="cls-1" d="M4.27.29c-.06.22.06.43.27.5h0c.82.23,1.63.55,2.4.94.42.21.83.45,1.23.7.06.04.14.06.22.06.13,0,.26-.06.34-.18.12-.18.06-.43-.12-.55-.42-.26-.85-.52-1.29-.74-.82-.4-1.68-.74-2.55-.98-.22-.06-.43.06-.5.27Z"/>
  <path class="cls-1" d="M.4,1.87c2.18,0,4.31.61,6.14,1.75.06.04.14.06.21.06.14,0,.26-.06.34-.19.12-.18.06-.43-.13-.55C5,1.71,2.73,1.07.4,1.07c-.22,0-.4.18-.4.4s.18.4.4.4Z"/>
</svg>