<?xml version="1.0" encoding="UTF-8"?>
<svg id="Layer_1" xmlns="http://www.w3.org/2000/svg" viewBox="0 0 24 27.69">
  <defs>
    <style>
      .cls-1 {
        fill: #1d897a;
      }

      .cls-2 {
        fill: none;
      }
    </style>
  </defs>
  <path class="cls-2" d="M3.23,3.69c-.26,0-.46.2-.46.46s.2.46.46.46.46-.2.46-.46-.2-.46-.46-.46Z"/>
  <path class="cls-2" d="M6,6c0,.26.2.46.46.46s.46-.2.46-.46-.2-.46-.46-.46-.46.2-.46.46Z"/>
  <path class="cls-2" d="M11.54,26.77h10.15c.77,0,1.38-.62,1.38-1.39V2.31c0-.77-.62-1.39-1.38-1.39h-10.15c-.77,0-1.38.62-1.38,1.39v23.08c0,.77.62,1.39,1.38,1.39ZM15.23,1.85h2.77c.26,0,.46.2.46.46s-.2.46-.46.46h-2.77c-.26,0-.46-.2-.46-.46s.2-.46.46-.46Z"/>
  <path class="cls-2" d="M3.23,7.38c-.26,0-.46.2-.46.46s.2.46.46.46.46-.2.46-.46-.2-.46-.46-.46Z"/>
  <path class="cls-1" d="M15.23,2.77h2.77c.26,0,.46-.2.46-.46s-.2-.46-.46-.46h-2.77c-.26,0-.46.2-.46.46s.2.46.46.46Z"/>
  <path class="cls-1" d="M2.31,27.69h19.39c1.27,0,2.31-1.03,2.31-2.31V2.31c0-1.27-1.03-2.31-2.31-2.31h-10.15c-1.27,0-2.31,1.03-2.31,2.31v23.08c0,.52.18,1,.47,1.39H2.31c-.77,0-1.38-.62-1.38-1.39V2.31c0-.77.62-1.39,1.38-1.39h5.54c.26,0,.46-.2.46-.46s-.2-.46-.46-.46H2.31C1.03,0,0,1.03,0,2.31v23.08c0,1.27,1.03,2.31,2.31,2.31ZM10.15,2.31c0-.77.62-1.39,1.38-1.39h10.15c.77,0,1.38.62,1.38,1.39v23.08c0,.77-.62,1.39-1.38,1.39h-10.15c-.77,0-1.38-.62-1.38-1.39V2.31Z"/>
  <path class="cls-1" d="M5.08,6c0,.77.62,1.38,1.39,1.38s1.38-.62,1.38-1.38-.62-1.39-1.38-1.39-1.39.62-1.39,1.39ZM6.92,6c0,.26-.2.46-.46.46s-.46-.2-.46-.46.2-.46.46-.46.46.2.46.46Z"/>
  <path class="cls-1" d="M3.23,6.46c-.77,0-1.39.62-1.39,1.39s.62,1.39,1.39,1.39,1.39-.62,1.39-1.39-.62-1.39-1.39-1.39ZM3.23,8.31c-.26,0-.46-.2-.46-.46s.2-.46.46-.46.46.2.46.46-.2.46-.46.46Z"/>
  <path class="cls-1" d="M3.23,2.77c-.77,0-1.39.62-1.39,1.38s.62,1.39,1.39,1.39,1.39-.62,1.39-1.39-.62-1.38-1.39-1.38ZM3.23,4.61c-.26,0-.46-.2-.46-.46s.2-.46.46-.46.46.2.46.46-.2.46-.46.46Z"/>
</svg>