<?xml version="1.0" encoding="UTF-8"?>
<svg id="Layer_1" xmlns="http://www.w3.org/2000/svg" viewBox="0 0 24 27.69">
  <defs>
    <style>
      .cls-1 {
        fill: #1d897a;
      }

      .cls-2 {
        fill: #263238;
      }

      .cls-3 {
        fill: none;
      }
    </style>
  </defs>
  <path class="cls-3" d="M15.58,13.83h0c-.32.57-1.27.58-1.6.02h0c.33.58,1.3.56,1.62-.02Z"/>
  <path class="cls-3" d="M18,15.69c.77,0,1.38-.62,1.38-1.38v-2.77c0-.77-.62-1.39-1.38-1.39h-6.46c-.77,0-1.38.62-1.38,1.39v2.77c0,.77.62,1.38,1.38,1.38h6.46ZM17.54,12.46c0-.26.2-.46.46-.46s.46.2.46.46v.92c0,.26-.2.46-.46.46s-.46-.2-.46-.46v-.92ZM12,13.39c0,.26-.2.46-.46.46s-.46-.2-.46-.46v-.92c0-.26.2-.46.46-.46s.46.2.46.46v.92ZM13.02,13.99c-.08-.24-.05-.5.1-.7.16-.22.43-.36.72-.36h1.85c.29,0,.56.14.72.36.15.2.18.46.1.7-.26.75-.96,1.25-1.75,1.25s-1.49-.51-1.74-1.25Z"/>
  <path class="cls-1" d="M8.77,2.77c.26,0,.46-.2.46-.46s-.2-.46-.46-.46h-2.77c-.26,0-.46.2-.46.46s.2.46.46.46h2.77Z"/>
  <path class="cls-1" d="M2.31,27.69h10.15c1.27,0,2.31-1.03,2.31-2.31v-1.81c0-.26-.2-.46-.46-.46s-.46.2-.46.46v1.81c0,.77-.62,1.38-1.38,1.38H2.31c-.77,0-1.38-.62-1.38-1.38V2.31c0-.77.62-1.39,1.38-1.39h10.15c.77,0,1.38.62,1.38,1.39v1.85c0,.26.2.46.46.46s.46-.2.46-.46v-1.85c0-1.27-1.03-2.31-2.31-2.31H2.31C1.03,0,0,1.03,0,2.31v23.08c0,1.27,1.03,2.31,2.31,2.31Z"/>
  <path class="cls-1" d="M14.31,18.92c0-.26-.2-.46-.46-.46h-4.15c-1.78,0-3.23-1.45-3.23-3.23v-5.54c0-1.78,1.45-3.23,3.23-3.23.26,0,.46-.2.46-.46s-.2-.46-.46-.46c-2.29,0-4.15,1.86-4.15,4.15v5.54c0,2.29,1.86,4.15,4.15,4.15h4.15c.26,0,.46-.2.46-.46Z"/>
  <path class="cls-1" d="M19.85,5.52v.02h-1.38v-.92c0-.26-.2-.46-.46-.46s-.46.2-.46.46v1.38c0,.26.2.46.46.46h1.85c1.78,0,3.23,1.45,3.23,3.23v5.54c0,1.78-1.45,3.23-3.23,3.23h-3.74s-.06,0-.09.02c-.03,0-.06.02-.08.04-.03,0-.05.03-.07.05s-.05.05-.06.07c0,0-.02.02-.03.03l-1.85,2.77c-.14.21-.08.5.13.64.07.06.17.07.26.07.15,0,.29-.07.39-.2l1.71-2.57h3.44c2.29,0,4.15-1.86,4.15-4.15v-5.54c0-2.29-1.86-4.15-4.15-4.15Z"/>
  <path class="cls-1" d="M18,16.62c1.27,0,2.31-1.03,2.31-2.31v-2.77c0-1.27-1.03-2.31-2.31-2.31h-6.46c-1.27,0-2.31,1.03-2.31,2.31v2.77c0,1.27,1.03,2.31,2.31,2.31h6.46ZM11.54,15.69c-.77,0-1.38-.62-1.38-1.38v-2.77c0-.77.62-1.39,1.38-1.39h6.46c.77,0,1.38.62,1.38,1.39v2.77c0,.77-.62,1.38-1.38,1.38h-6.46Z"/>
  <path class="cls-1" d="M11.54,12c-.26,0-.46.2-.46.46v.92c0,.26.2.46.46.46s.46-.2.46-.46v-.92c0-.26-.2-.46-.46-.46Z"/>
  <path class="cls-1" d="M18,13.85c.26,0,.46-.2.46-.46v-.92c0-.26-.2-.46-.46-.46s-.46.2-.46.46v.92c0,.26.2.46.46.46Z"/>
  <path class="cls-2" d="M15.58,13.83l-1.6.02c.34.56,1.29.55,1.6-.02Z"/>
  <path class="cls-1" d="M16.51,13.99c.08-.24.05-.5-.1-.7-.16-.22-.43-.36-.72-.36h-1.85c-.29,0-.56.14-.72.36-.15.2-.18.46-.1.7.26.74.96,1.25,1.74,1.25s1.49-.5,1.75-1.25ZM13.97,13.85h0s1.6-.02,1.6-.02h0c-.31.58-1.28.6-1.62.02Z"/>
  <path class="cls-1" d="M16.15,5.54h-4.15v-.92c0-.26-.2-.46-.46-.46s-.46.2-.46.46v1.38c0,.26.2.46.46.46h4.62c.26,0,.46-.2.46-.46s-.2-.46-.46-.46Z"/>
  <path class="cls-1" d="M5.45,22.15c-.26,0-.46.2-.46.46s.2.46.46.46h.09c.26,0,.46-.2.46-.46s-.2-.46-.46-.46h-.09Z"/>
  <path class="cls-1" d="M7.29,22.15c-.26,0-.46.2-.46.46s.2.46.46.46h.09c.26,0,.46-.2.46-.46s-.2-.46-.46-.46h-.09Z"/>
  <path class="cls-1" d="M9.14,22.15c-.26,0-.46.2-.46.46s.2.46.46.46h.09c.26,0,.46-.2.46-.46s-.2-.46-.46-.46h-.09Z"/>
</svg>