<?xml version="1.0" encoding="UTF-8"?>
<svg id="Layer_1" xmlns="http://www.w3.org/2000/svg" viewBox="0 0 24 27.69">
  <defs>
    <style>
      .cls-1 {
        fill: #1d897a;
      }

      .cls-2 {
        fill: none;
      }
    </style>
  </defs>
  <path class="cls-2" d="M6.46,12c.77,0,1.38-.62,1.38-1.39s-.62-1.38-1.38-1.38-1.39.62-1.39,1.38.62,1.39,1.39,1.39Z"/>
  <path class="cls-2" d="M7.85,14.77h-2.77c-.97,0-1.82.6-2.15,1.49h0c1.99,1.66,5.07,1.66,7.06,0-.33-.89-1.18-1.49-2.15-1.49Z"/>
  <path class="cls-2" d="M5.08,13.85h2.77c1.22,0,2.3.68,2.84,1.73.81-.97,1.31-2.22,1.31-3.57,0-3.06-2.48-5.54-5.54-5.54S.92,8.94.92,12c0,1.36.49,2.6,1.31,3.57.54-1.04,1.62-1.73,2.84-1.73ZM6.46,8.31c1.27,0,2.31,1.03,2.31,2.31s-1.03,2.31-2.31,2.31-2.31-1.03-2.31-2.31,1.03-2.31,2.31-2.31Z"/>
  <path class="cls-1" d="M11.54,2.77c.26,0,.46-.2.46-.46s-.2-.46-.46-.46h-2.77c-.26,0-.46.2-.46.46s.2.46.46.46h2.77Z"/>
  <path class="cls-1" d="M23.54,26.77h-.09c-.26,0-.42.2-.42.46s.25.46.51.46.46-.2.46-.46-.2-.46-.46-.46Z"/>
  <path class="cls-1" d="M6,23.08h4.62c.26,0,.46-.2.46-.46s-.2-.46-.46-.46h-4.62c-.26,0-.46.2-.46.46s.2.46.46.46Z"/>
  <path class="cls-1" d="M11.08,20.77c0,.26.2.46.46.46h3.69c.26,0,.46-.2.46-.46s-.2-.46-.46-.46h-3.69c-.26,0-.46.2-.46.46Z"/>
  <path class="cls-1" d="M6,21.23h3.69c.26,0,.46-.2.46-.46s-.2-.46-.46-.46h-3.69c-.26,0-.46.2-.46.46s.2.46.46.46Z"/>
  <path class="cls-1" d="M21.69,26.77h-4.62c.3-.39.47-.87.47-1.38V2.31c0-1.27-1.03-2.31-2.31-2.31H5.08c-1.27,0-2.31,1.03-2.31,2.31v2.31c0,.26.2.46.46.46s.46-.2.46-.46v-2.31c0-.77.62-1.38,1.38-1.38h10.15c.77,0,1.39.62,1.39,1.38v23.08c0,.77-.62,1.38-1.39,1.38H5.08c-.77,0-1.38-.62-1.38-1.38v-6c0-.26-.2-.46-.46-.46s-.46.2-.46.46v6c0,1.27,1.03,2.31,2.31,2.31h16.62c.26,0,.46-.2.46-.46s-.2-.46-.46-.46Z"/>
  <path class="cls-1" d="M6.46,12.92c1.27,0,2.31-1.03,2.31-2.31s-1.03-2.31-2.31-2.31-2.31,1.03-2.31,2.31,1.03,2.31,2.31,2.31ZM6.46,9.23c.77,0,1.38.62,1.38,1.38s-.62,1.39-1.38,1.39-1.39-.62-1.39-1.39.62-1.38,1.39-1.38Z"/>
  <path class="cls-1" d="M2.09,16.74h0c.15.14.3.27.45.39,0,0,.02,0,.03.02.15.11.3.22.46.32.02,0,.04.02.05.03.15.09.31.18.46.26.03.02.06.03.09.05.15.07.3.14.45.2.05.02.09.04.14.06.14.06.28.1.42.15.06.02.14.04.2.06.13.04.25.06.38.09.1.02.2.03.31.05.1.02.19.04.29.05.2.02.42.03.63.03s.42,0,.63-.03c.1,0,.2-.03.29-.05.1-.02.2-.03.31-.05.13-.03.26-.06.38-.09.06-.02.14-.04.2-.06.15-.05.29-.09.42-.15.05-.02.09-.04.14-.06.16-.07.31-.13.45-.2.03-.02.06-.03.09-.05.16-.08.31-.17.46-.26.02,0,.04-.02.05-.03.16-.1.31-.21.46-.32,0,0,.02,0,.03-.02.16-.12.31-.25.45-.38h0c1.28-1.18,2.09-2.87,2.09-4.74,0-3.56-2.9-6.46-6.46-6.46S0,8.44,0,12c0,1.87.8,3.56,2.09,4.74ZM2.94,16.25h0c.33-.89,1.18-1.49,2.15-1.49h2.77c.97,0,1.82.6,2.15,1.49-1.99,1.66-5.07,1.66-7.06,0ZM6.46,6.46c3.06,0,5.54,2.48,5.54,5.54,0,1.36-.5,2.6-1.31,3.57-.54-1.04-1.63-1.73-2.84-1.73h-2.77c-1.22,0-2.3.68-2.84,1.73-.82-.97-1.31-2.22-1.31-3.57,0-3.06,2.48-5.54,5.54-5.54Z"/>
  <path class="cls-1" d="M15.23,5.49c.26,0,.46-.25.46-.51s-.2-.46-.46-.46-.46.2-.46.46v.09c0,.26.2.42.46.42Z"/>
  <path class="cls-1" d="M14.77,6.92c0,.26.2.42.46.42s.46-.25.46-.51-.2-.46-.46-.46-.46.2-.46.46v.09Z"/>
  <path class="cls-1" d="M14.77,8.77c0,.26.2.42.46.42s.46-.25.46-.51-.2-.46-.46-.46-.46.2-.46.46v.09Z"/>
</svg>