<?xml version="1.0" encoding="UTF-8"?>
<svg id="Layer_1" xmlns="http://www.w3.org/2000/svg" viewBox="0 0 24 24.02">
  <defs>
    <style>
      .cls-1 {
        fill: #1d897a;
      }
    </style>
  </defs>
  <path class="cls-1" d="M6.92.87c.07.21.3.31.51.24.57-.21,1.16-.31,1.77-.31,2.16,0,4.12,1.37,4.88,3.4.04.1.12.19.22.23.1.04.22.04.33-.02.56-.28,1.16-.42,1.78-.42,2.21,0,4,1.79,4,4,0,.37-.06.74-.16,1.11-.03.13,0,.26.07.36.08.1.2.15.34.15,0,0,.14-.02.15-.02,1.32,0,2.4,1.08,2.4,2.4s-1.08,2.4-2.4,2.4h-7.61c-1.11,0-2,.9-2,2v2.23l-.52-.52c-.16-.16-.41-.16-.57,0-.16.16-.16.41,0,.57l1.2,1.2s.08.06.13.09.1.03.15.03.1,0,.15-.03.1-.05.13-.09l1.2-1.2c.16-.16.16-.41,0-.57s-.41-.16-.57,0l-.52.52v-2.23c0-.66.54-1.2,1.2-1.2h2.8v6.8c0,.66-.54,1.2-1.2,1.2h-6.4c-.66,0-1.2-.54-1.2-1.2V7.61c0-.67.54-1.2,1.2-1.2h6.4c.66,0,1.2.54,1.2,1.2v5.6c0,.22.18.4.4.4s.4-.18.4-.4v-5.6c0-1.11-.9-2-2-2h-6.4c-1.1,0-2,.9-2,2v14.41c0,1.11.9,2,2,2h6.4c1.1,0,2-.9,2-2v-6.8h4c1.77,0,3.2-1.43,3.2-3.2,0-1.66-1.26-3.02-2.87-3.19h.02c.05-.27.07-.54.07-.82,0-2.65-2.15-4.8-4.8-4.8-.6,0-1.18.11-1.74.33-.97-2.13-3.11-3.53-5.47-3.53-.7,0-1.38.12-2.04.35-.21.07-.31.3-.24.51Z"/>
  <path class="cls-1" d="M4,15.21h1.2c.22,0,.4-.18.4-.4s-.18-.4-.4-.4h-1.2c-1.77,0-3.2-1.43-3.2-3.2s1.34-3.11,3.06-3.19c.12,0,.24-.06.31-.17.07-.1.1-.23.06-.34-.14-.49-.22-.99-.22-1.51,0-1.09.34-2.14.97-3.02.13-.18.09-.43-.1-.56-.18-.13-.43-.09-.56.1-.73,1.02-1.11,2.23-1.11,3.48,0,.42.05.85.14,1.26-1.91.32-3.34,1.96-3.34,3.94,0,2.21,1.79,4,4,4Z"/>
  <path class="cls-1" d="M10.81,7.2c-.22,0-.4.18-.4.4s.18.4.4.4h1.6c.22,0,.4-.18.4-.4s-.18-.4-.4-.4h-1.6Z"/>
  <path class="cls-1" d="M19.61,18.37c.23,0,.4-.22.4-.44s-.18-.4-.4-.4-.4.18-.4.4v.08c0,.22.18.36.4.36Z"/>
  <path class="cls-1" d="M19.21,19.61c0,.22.18.36.4.36s.4-.22.4-.44-.18-.4-.4-.4-.4.18-.4.4v.08Z"/>
  <path class="cls-1" d="M19.21,21.21c0,.22.18.36.4.36s.4-.22.4-.44-.18-.4-.4-.4-.4.18-.4.4v.08Z"/>
  <path class="cls-1" d="M3.6,17.53c-.22,0-.4.18-.4.4v.08c0,.22.18.36.4.36s.4-.22.4-.44-.18-.4-.4-.4Z"/>
  <path class="cls-1" d="M3.6,19.13c-.22,0-.4.18-.4.4v.08c0,.22.18.36.4.36s.4-.22.4-.44-.18-.4-.4-.4Z"/>
  <path class="cls-1" d="M3.6,20.73c-.22,0-.4.18-.4.4v.08c0,.22.18.36.4.36s.4-.22.4-.44-.18-.4-.4-.4Z"/>
  <path class="cls-1" d="M6.16,1.24c-.16-.16-.41-.16-.57,0h0s-.06.06-.06.06c-.16.16-.13.38.03.54.07.07.17.1.26.1.12,0,.24-.05.33-.14.16-.16.16-.41,0-.57Z"/>
</svg>