<?xml version="1.0" encoding="UTF-8"?>
<svg id="Layer_1" xmlns="http://www.w3.org/2000/svg" viewBox="0 0 24 24">
  <defs>
    <style>
      .cls-1 {
        fill: #1d897a;
      }

      .cls-2 {
        fill: none;
      }
    </style>
  </defs>
  <rect class="cls-2" x="2.42" y="9.6" width="1.6" height="3.2"/>
  <path class="cls-1" d="M18.38,19.1c-.4-.44-.62-1.02-.62-1.61,0-.42.11-.83.32-1.19,0,0,0-.02,0-.03.08-.15.06-.34-.06-.47l-1.86-1.86c-.39-.39-.58-.79-.56-1.24.02-.58.35-1.1.59-1.4l4.33,4.19c.16.15.42.15.57,0,.15-.16.15-.41,0-.57l-4.62-4.48h0c-.15-.14-.39-.15-.54,0-.04.04-1.08.99-1.11,2.24-.02.67.26,1.29.8,1.83l1.66,1.66c-.19.42-.3.87-.3,1.34,0,.79.3,1.55.82,2.14.08.09.18.14.3.14.1,0,.19-.03.26-.1.17-.15.18-.4.03-.57Z"/>
  <path class="cls-1" d="M16.4,18.8c0-.22-.18-.4-.4-.4h-6.8c-.66,0-1.2-.54-1.2-1.2v-.8c0-.22-.18-.4-.4-.4s-.4.18-.4.4v.8c0,1.1.9,2,2,2h6.8c.22,0,.4-.18.4-.4Z"/>
  <path class="cls-1" d="M7.2,2v.8c0,.22.18.4.4.4s.4-.18.4-.4v-.8c0-.66.54-1.2,1.2-1.2h7.2c.66,0,1.2.54,1.2,1.2v8.8c0,.22.18.4.4.4s.4-.18.4-.4v-1.51l4.35,4.38c.24.24.45.75.45,1.09v8.85c0,.22.18.4.4.4s.4-.18.4-.4v-8.85c0-.55-.29-1.26-.68-1.66l-4.92-4.94V2c0-1.1-.9-2-2-2h-7.2c-1.1,0-2,.9-2,2Z"/>
  <path class="cls-1" d="M14,2.4c.22,0,.4-.18.4-.4s-.18-.4-.4-.4h-2.4c-.22,0-.4.18-.4.4s.18.4.4.4h2.4Z"/>
  <path class="cls-1" d="M5.62,12c-.22,0-.4.18-.4.4s.18.4.4.4h2.38c.78,0,1.42-.53,1.57-1.29l.42-2.07c.07-.36-.02-.72-.26-1s-.57-.43-.92-.43h-1.5c.06-.27.1-.53.1-.76v-.5c0-.62-.52-1.14-1.14-1.14h-.25c-.22,0-.4.18-.4.4v1.15c-.19.29-.71,1.08-.93,1.75-.07-.07-.17-.11-.27-.11h-2.4c-.22,0-.4.18-.4.4v4c0,.22.18.4.4.4h2.4c.22,0,.4-.18.4-.4v-3.66s.07.04.12.06c.22.05.43-.09.48-.3.13-.57.71-1.47.93-1.77.05-.06.07-.15.07-.23v-.84c.1.06.18.18.18.3v.5c0,.3-.07.65-.21,1.02-.05.12-.02.26.05.37.07.1.2.17.33.17h2.03c.16,0,.26.09.3.14.08.1.11.22.09.34l-.42,2.07c-.07.38-.4.65-.78.65h0s-2.38,0-2.38,0ZM4.02,12.8h-1.6v-3.2h1.6v3.2Z"/>
  <path class="cls-1" d="M0,14c0,.66.54,1.2,1.2,1.2h7.91l3.52,1.57h0c.06.02.1.03.16.03.15,0,.3-.09.37-.24.09-.2,0-.44-.2-.53l-3.6-1.6s-.1-.03-.16-.03H1.2c-.22,0-.4-.18-.4-.4V5.2c0-.22.18-.4.4-.4h9.6c.22,0,.4.18.4.4v8.8c0,.22.18.4.4.4s.4-.18.4-.4V5.2c0-.66-.54-1.2-1.2-1.2H1.2C.54,4,0,4.54,0,5.2v8.8Z"/>
  <path class="cls-1" d="M18.8,23.2h-2v-2.4c0-.16-.1-.3-.24-.37-.37-.16-.7-.39-1.01-.69-.16-.15-.41-.15-.57,0-.15.16-.15.41,0,.57.3.3.65.55,1.02.74v2.14h-6c-.22,0-.4.18-.4.4s.18.4.4.4h8.8c.22,0,.4-.18.4-.4s-.18-.4-.4-.4Z"/>
  <path class="cls-1" d="M8.4,23.2h-.08c-.22,0-.4.18-.4.4s.18.4.4.4h.08c.22,0,.4-.18.4-.4s-.18-.4-.4-.4Z"/>
</svg>