<?xml version="1.0" encoding="UTF-8"?>
<svg id="Layer_1" xmlns="http://www.w3.org/2000/svg" viewBox="0 0 24 26.19">
  <defs>
    <style>
      .cls-1 {
        fill: #1d897a;
      }

      .cls-2 {
        fill: none;
      }
    </style>
  </defs>
  <path class="cls-2" d="M7.42,13.1h-2.62c-.92,0-1.72.57-2.03,1.41h0c1.89,1.57,4.79,1.57,6.68,0-.31-.84-1.12-1.41-2.03-1.41Z"/>
  <path class="cls-2" d="M6.11,5.24C3.22,5.24.87,7.59.87,10.48c0,1.28.46,2.46,1.24,3.38.52-.99,1.54-1.63,2.69-1.63h2.62c1.15,0,2.17.65,2.69,1.63.77-.92,1.24-2.1,1.24-3.38,0-2.89-2.35-5.24-5.24-5.24ZM8.29,9.17c0,1.2-.98,2.18-2.18,2.18s-2.18-.98-2.18-2.18.98-2.18,2.18-2.18,2.18.98,2.18,2.18Z"/>
  <path class="cls-2" d="M21.81,14.8c-.1-.41-.26-.81-.5-1.2-.1-.14-.09-.32,0-.46l.55-.86-.53-.53-.86.55c-.14.09-.32.09-.46,0-.38-.23-.78-.4-1.2-.5-.17-.03-.29-.17-.32-.33l-.22-.99h-.76l-.22.99c-.03.17-.16.3-.32.33-.41.1-.81.26-1.2.5-.14.1-.32.09-.46,0l-.86-.55-.53.53.55.86c.09.15.09.33,0,.47-.23.36-.39.76-.5,1.19-.04.16-.17.29-.33.32l-1,.22v.75l1,.22c.17.03.3.16.33.32.11.43.27.83.5,1.19.1.15.1.33,0,.47l-.55.86.53.54.86-.55c.14-.09.32-.09.46,0,.38.23.79.4,1.2.5.17.03.29.17.32.33l.22,1h.76l.22-1c.03-.17.16-.3.32-.33.41-.1.81-.26,1.2-.5.14-.09.32-.09.46,0l.86.55.53-.54-.55-.86c-.09-.14-.09-.32,0-.46.24-.38.4-.79.5-1.2.04-.16.17-.29.33-.32l.99-.22v-.75l-.99-.22c-.17-.03-.3-.16-.33-.32ZM19.76,17.57s-.07.07-.07.07c-.09.08-.19.11-.3.11-.12,0-.24-.04-.32-.14-.17-.18-.15-.45.03-.62h0c.17-.17.47-.18.64,0,.16.18.18.42.02.59ZM20.08,16.15c-.24,0-.44-.19-.44-.44,0-.96-.79-1.75-1.75-1.75s-1.75.79-1.75,1.75.79,1.75,1.75,1.75c.24,0,.44.19.44.44s-.19.44-.44.44c-1.44,0-2.62-1.18-2.62-2.62s1.18-2.62,2.62-2.62,2.62,1.18,2.62,2.62c0,.24-.19.44-.44.44Z"/>
  <path class="cls-2" d="M6.11,7.86c-.73,0-1.31.58-1.31,1.31s.58,1.31,1.31,1.31,1.31-.58,1.31-1.31-.58-1.31-1.31-1.31Z"/>
  <path class="cls-1" d="M12.66,2.62c.24,0,.44-.19.44-.44s-.19-.44-.44-.44h-2.62c-.24,0-.44.19-.44.44s.19.44.44.44h2.62Z"/>
  <path class="cls-1" d="M18.33,24.01v-.87c0-.24-.19-.44-.44-.44s-.44.19-.44.44v.87c0,.72-.59,1.31-1.31,1.31H6.55c-.73,0-1.31-.59-1.31-1.31v-6.11c0-.24-.19-.44-.44-.44s-.44.19-.44.44v6.11c0,1.2.98,2.18,2.18,2.18h9.6c1.2,0,2.18-.98,2.18-2.18Z"/>
  <path class="cls-1" d="M4.37,2.18v.87c0,.24.19.44.44.44s.44-.19.44-.44v-.87c0-.72.58-1.31,1.31-1.31h9.6c.72,0,1.31.59,1.31,1.31v6.11c0,.24.19.44.44.44s.44-.19.44-.44V2.18c0-1.2-.98-2.18-2.18-2.18H6.55c-1.2,0-2.18.98-2.18,2.18Z"/>
  <path class="cls-1" d="M6.11,6.98c-1.2,0-2.18.98-2.18,2.18s.98,2.18,2.18,2.18,2.18-.98,2.18-2.18-.98-2.18-2.18-2.18ZM7.42,9.17c0,.73-.58,1.31-1.31,1.31s-1.31-.58-1.31-1.31.58-1.31,1.31-1.31,1.31.58,1.31,1.31Z"/>
  <path class="cls-1" d="M6.11,4.37C2.74,4.37,0,7.11,0,10.48c0,1.77.76,3.37,1.97,4.49h0c.14.12.28.24.43.36,0,0,.02,0,.03.02.14.11.29.21.44.31.02,0,.03.02.04.03.14.09.29.17.44.24.03.02.05.03.09.04.14.07.28.13.43.19.04.02.09.04.13.05.13.05.26.1.4.14.06.02.13.03.19.05.12.03.24.06.36.09.1.02.19.03.29.04.1.02.18.03.28.04.19.02.39.03.59.03s.39,0,.59-.03c.1,0,.19-.03.28-.04.1-.02.19-.03.29-.04.12-.03.24-.05.36-.09.06-.02.13-.03.19-.05.14-.04.27-.09.4-.14.04-.02.09-.03.13-.05.15-.06.29-.12.43-.19.03-.02.05-.03.09-.04.15-.08.3-.16.44-.24.02,0,.03-.02.04-.03.15-.1.3-.2.44-.31,0,0,.02,0,.03-.02.15-.11.29-.23.43-.36h0c1.21-1.12,1.97-2.72,1.97-4.49,0-3.37-2.74-6.11-6.11-6.11ZM2.78,14.5h0c.31-.84,1.12-1.41,2.03-1.41h2.62c.92,0,1.72.57,2.03,1.41-1.89,1.57-4.79,1.57-6.68,0ZM11.35,10.48c0,1.28-.47,2.46-1.24,3.38-.52-.99-1.54-1.63-2.69-1.63h-2.62c-1.15,0-2.17.65-2.69,1.63-.78-.92-1.24-2.1-1.24-3.38,0-2.89,2.35-5.24,5.24-5.24s5.24,2.35,5.24,5.24Z"/>
  <path class="cls-1" d="M2.18,19.12c-.24,0-.44.19-.44.44v.09c0,.24.19.39.44.39s.44-.24.44-.48-.19-.44-.44-.44Z"/>
  <path class="cls-1" d="M2.18,20.87c-.24,0-.44.19-.44.44v.09c0,.24.19.39.44.39s.44-.24.44-.48-.19-.44-.44-.44Z"/>
  <path class="cls-1" d="M2.18,22.61c-.24,0-.44.19-.44.44v.09c0,.24.19.39.44.39s.44-.23.44-.48-.19-.44-.44-.44Z"/>
  <path class="cls-1" d="M20.52,3.54c.24,0,.44-.24.44-.48s-.19-.44-.44-.44-.44.19-.44.44v.09c0,.24.19.39.44.39Z"/>
  <path class="cls-1" d="M20.52,5.28c.24,0,.44-.24.44-.48s-.19-.44-.44-.44-.44.19-.44.44v.09c0,.24.19.39.44.39Z"/>
  <path class="cls-1" d="M20.52,7.03c.24,0,.44-.24.44-.48s-.19-.44-.44-.44-.44.19-.44.44v.09c0,.24.19.39.44.39Z"/>
  <path class="cls-1" d="M23.66,14.58v-.02s-1.07-.24-1.07-.24c-.1-.32-.23-.64-.39-.93l.6-.93c.11-.17.09-.4-.06-.54l-1.03-1.03c-.15-.15-.37-.17-.54-.06l-.93.6c-.31-.17-.62-.3-.93-.39l-.24-1.07c-.04-.2-.22-.34-.43-.34h-1.47c-.21,0-.38.14-.43.34l-.23,1.07c-.32.1-.63.23-.93.39l-.93-.6c-.17-.11-.4-.09-.54.06l-1.03,1.03c-.15.15-.17.38-.06.54l.6.93c-.17.3-.29.61-.39.94l-1.07.24c-.2.04-.34.22-.34.43v1.45c0,.2.14.38.34.43l1.07.23c.1.33.23.65.39.94l-.59.93c-.11.17-.09.4.05.54l1.03,1.04c.15.15.38.17.54.06l.93-.6c.31.17.62.3.93.39l.23,1.07c.04.2.22.34.43.34h1.47c.21,0,.38-.14.43-.34l.24-1.07c.32-.1.63-.23.93-.39l.93.6c.17.11.4.09.54-.06l1.03-1.04c.15-.15.17-.38.05-.54l-.6-.93c.17-.31.3-.62.39-.93l1.08-.24c.2-.04.34-.22.34-.43v-1.45c0-.2-.14-.38-.34-.43ZM23.13,16.09l-.99.22c-.17.03-.29.17-.33.32-.1.41-.26.81-.5,1.2-.09.14-.09.32,0,.46l.55.86-.53.54-.86-.55c-.14-.09-.32-.09-.46,0-.38.24-.78.4-1.2.5-.17.03-.29.17-.32.33l-.22,1h-.76l-.22-1c-.03-.17-.16-.3-.32-.33-.41-.1-.81-.27-1.2-.5-.14-.09-.32-.09-.46,0l-.86.55-.53-.54.55-.86c.1-.14.1-.32,0-.47-.23-.36-.39-.76-.5-1.19-.03-.17-.17-.29-.33-.32l-1-.22v-.75l1-.22c.17-.03.29-.17.33-.32.11-.43.27-.83.5-1.19.09-.14.09-.32,0-.47l-.55-.86.53-.53.86.55c.14.09.32.1.46,0,.38-.24.79-.4,1.2-.5.17-.03.29-.17.32-.33l.22-.99h.76l.22.99c.03.17.16.3.32.33.41.1.81.27,1.2.5.14.09.32.09.46,0l.86-.55.53.53-.55.86c-.09.14-.1.32,0,.46.24.38.4.78.5,1.2.03.17.17.29.33.32l.99.22v.75Z"/>
  <path class="cls-1" d="M19.1,16.98h0c-.18.18-.19.45-.03.63.09.1.2.14.32.14.11,0,.21-.03.3-.11,0,0,.07-.06.07-.07.17-.17.14-.41-.02-.59-.17-.17-.46-.16-.64,0Z"/>
  <path class="cls-1" d="M17.9,13.1c-1.44,0-2.62,1.18-2.62,2.62s1.18,2.62,2.62,2.62c.24,0,.44-.19.44-.44s-.19-.44-.44-.44c-.96,0-1.75-.79-1.75-1.75s.79-1.75,1.75-1.75,1.75.79,1.75,1.75c0,.24.19.44.44.44s.44-.19.44-.44c0-1.44-1.18-2.62-2.62-2.62Z"/>
</svg>