<?xml version="1.0" encoding="UTF-8"?>
<svg id="Layer_1" xmlns="http://www.w3.org/2000/svg" viewBox="0 0 24 24">
  <defs>
    <style>
      .cls-1 {
        fill: #1d897a;
      }
    </style>
  </defs>
  <path class="cls-1" d="M20.02,7.11h0c.1,0,.21-.04.28-.12.16-.16.16-.41,0-.57l-1.13-1.13c-.16-.16-.41-.16-.57,0-.16.16-.16.41,0,.57l1.13,1.13c.08.08.18.12.28.12Z"/>
  <path class="cls-1" d="M23.42,7.27l-5.09-5.09c-.75-.75-2.07-.75-2.83,0l-4.3,4.3v-3.28c0-.22-.18-.4-.4-.4s-.4.18-.4.4v8c0,.22.18.4.4.4s.4-.18.4-.4v-3.59l4.86-4.86c.46-.46,1.23-.46,1.7,0l5.09,5.09c.22.22.35.53.35.85s-.13.62-.35.85l-9.45,9.45-2.26,2.26c-.46.46-1.23.46-1.7,0l-5.09-5.09c-.46-.46-.46-1.23,0-1.7l1.93-1.93c.16-.16.16-.41,0-.57s-.41-.16-.57,0l-1.93,1.93c-.78.78-.78,2.05,0,2.83l5.09,5.09c.39.39.9.58,1.42.58s1.02-.19,1.42-.58l1.7-1.7,10.02-10.02c.78-.78.78-2.05,0-2.83h0Z"/>
  <path class="cls-1" d="M1.83,19.97h0s.38.17.38.17c.06.02.11.04.17.04.15,0,.3-.09.36-.23.1-.2,0-.44-.2-.53l-.38-.18c-.2-.1-.44,0-.53.2-.1.2,0,.44.2.53Z"/>
  <path class="cls-1" d="M7.03,22.36c.06.02.11.04.17.04.15,0,.3-.09.36-.23.1-.2,0-.44-.19-.53l-3.2-1.47c-.2-.1-.44,0-.53.19-.1.2,0,.44.19.53l3.2,1.47Z"/>
  <path class="cls-1" d="M8,23.6c0-.22-.18-.4-.4-.4H.4c-.22,0-.4.18-.4.4s.18.4.4.4h7.2c.22,0,.4-.18.4-.4Z"/>
  <path class="cls-1" d="M21,17.85c-.2.1-.28.34-.18.54.07.14.21.22.36.22.06,0,.12-.02.18-.04l1.22-.61c.2-.1.28-.34.18-.54-.1-.2-.34-.28-.54-.18h0s-1.22.6-1.22.6Z"/>
  <path class="cls-1" d="M13.6,22.41h0c.06,0,.12-.02.18-.05l5.64-2.82c.2-.1.28-.34.18-.54-.1-.2-.34-.28-.54-.18l-5.64,2.82c-.2.1-.28.34-.18.54.07.14.21.22.36.22Z"/>
  <path class="cls-1" d="M20.8,23.6c0-.22-.18-.4-.4-.4h-.8c-.22,0-.4.18-.4.4s.18.4.4.4h.8c.22,0,.4-.18.4-.4Z"/>
  <path class="cls-1" d="M18.4,23.6c0-.22-.18-.4-.4-.4h-4.8c-.22,0-.4.18-.4.4s.18.4.4.4h4.8c.22,0,.4-.18.4-.4Z"/>
  <path class="cls-1" d="M10.4.4v1.2c0,.22.18.4.4.4s.4-.18.4-.4V.4c0-.22-.18-.4-.4-.4s-.4.18-.4.4Z"/>
  <path class="cls-1" d="M3.2.4v8.8c0,.22.18.4.4.4s.4-.18.4-.4V.4c0-.22-.18-.4-.4-.4s-.4.18-.4.4Z"/>
  <path class="cls-1" d="M8,13.2v-2.39l1.47-1.47c.16-.16.16-.41,0-.57-.16-.16-.41-.16-.57,0l-.9.9V3.59c0-.22-.18-.4-.4-.4s-.4.18-.4.4v9.6c0,.22.18.4.4.4h0c.22,0,.4-.17.4-.39Z"/>
</svg>