<?xml version="1.0" encoding="UTF-8"?>
<svg id="Layer_1" xmlns="http://www.w3.org/2000/svg" viewBox="0 0 24 26.57">
  <defs>
    <style>
      .cls-1 {
        fill: #1d897a;
      }

      .cls-2 {
        fill: none;
      }
    </style>
  </defs>
  <rect class="cls-2" x="10.72" y="12.4" width="2.66" height="2.66"/>
  <path class="cls-1" d="M21.79,0h-9.74c-1.22,0-2.21.99-2.21,2.21v2.66c0,.25.19.44.44.44s.44-.19.44-.44v-2.66c0-.73.59-1.33,1.33-1.33h9.74c.73,0,1.33.59,1.33,1.33v22.14c0,.73-.59,1.33-1.33,1.33h-9.74c-.73,0-1.33-.59-1.33-1.33v-1.77c0-.25-.19-.44-.44-.44s-.44.19-.44.44v1.77c0,1.22.99,2.21,2.21,2.21h9.74c1.22,0,2.21-.99,2.21-2.21V2.21c0-1.22-.99-2.21-2.21-2.21Z"/>
  <path class="cls-1" d="M15.59,2.66h2.66c.25,0,.44-.2.44-.44s-.2-.44-.44-.44h-2.66c-.25,0-.44.2-.44.44s.2.44.44.44Z"/>
  <path class="cls-1" d="M10.27,11.51c-.25,0-.44.2-.44.44v3.54c0,.25.19.44.44.44h3.54c.25,0,.44-.19.44-.44v-3.54c0-.25-.19-.44-.44-.44h-3.54ZM13.37,15.06h-2.66v-2.66h2.66v2.66Z"/>
  <path class="cls-1" d="M9.83,20.81c0,.25.19.44.44.44s.44-.2.44-.44v-2.21h.89v3.1c0,.25.2.44.44.44s.44-.19.44-.44v-3.1h.89v2.21c0,.25.19.44.44.44h4.43c.25,0,.44-.2.44-.44s-.2-.44-.44-.44h-3.98v-1.77h.89c.25,0,.44-.2.44-.44s-.2-.44-.44-.44h-7.08v-7.08c0-.25-.19-.44-.44-.44s-.44.19-.44.44h-1.94l-.76-1.52c-.07-.15-.23-.25-.4-.25h-1.77c-.25,0-.44.19-.44.44s.19.44.44.44h1.5l.76,1.52c.07.15.23.25.4.25h2.21v.89H2.3c-.25,0-.44.19-.44.44s.19.44.44.44h4.87v.89h-2.21c-.09,0-.18.03-.25.07l-1.21.81H1.42c-.25,0-.44.19-.44.44s.19.44.44.44h2.21c.09,0,.18-.03.25-.07l1.21-.81h2.08v.89h-1.33c-.1,0-.19.04-.27.1l-2.09,1.67h-1.17c-.25,0-.44.2-.44.44s.19.44.44.44h1.33c.1,0,.19-.04.27-.1l2.09-1.67h1.17v1.33c0,.25.19.44.44.44h.44v1.33c0,.25.19.44.44.44s.44-.19.44-.44v-1.33h.89v2.21Z"/>
  <path class="cls-1" d="M6.73,7.08h3.1v1.77h-.89c-.25,0-.44.19-.44.44s.2.44.44.44h7.09v7.08c0,.25.19.44.44.44s.44-.19.44-.44h1.33c.25,0,.44-.19.44-.44s-.2-.44-.44-.44h-1.33v-.89h3.1c.25,0,.44-.2.44-.44s-.19-.44-.44-.44h-3.1v-.89h2.21c.25,0,.44-.19.44-.44s-.19-.44-.44-.44h-2.21v-.89h1.33c.25,0,.44-.19.44-.44s-.2-.44-.44-.44h-1.33v-1.33c0-.25-.19-.44-.44-.44h-.44v-1.33c0-.25-.2-.44-.44-.44s-.44.19-.44.44v1.33h-.89v-2.21c0-.25-.19-.44-.44-.44s-.44.19-.44.44v2.21h-.89v-3.1c0-.25-.2-.44-.44-.44s-.44.2-.44.44v3.1h-.89v-2.21c0-.25-.19-.44-.44-.44h-3.54c-.25,0-.44.19-.44.44s.19.44.44.44Z"/>
  <path class="cls-1" d="M20.9,13.28h.09c.25,0,.44-.19.44-.44s-.2-.44-.44-.44h-.09c-.25,0-.44.19-.44.44s.19.44.44.44Z"/>
  <path class="cls-1" d="M20.1,20.37h-.09c-.25,0-.44.2-.44.44s.19.44.44.44h.09c.25,0,.44-.2.44-.44s-.19-.44-.44-.44Z"/>
  <path class="cls-1" d="M.53,17.71h-.09c-.25,0-.44.2-.44.44s.2.44.44.44h.09c.25,0,.44-.2.44-.44s-.19-.44-.44-.44Z"/>
  <path class="cls-1" d="M.44,13.28h.09c.25,0,.44-.19.44-.44s-.19-.44-.44-.44h-.09c-.25,0-.44.19-.44.44s.2.44.44.44Z"/>
  <path class="cls-1" d="M.44,9.74h.09c.25,0,.44-.19.44-.44s-.19-.44-.44-.44h-.09c-.25,0-.44.19-.44.44s.2.44.44.44Z"/>
  <path class="cls-1" d="M4.87,7.08h.09c.25,0,.44-.19.44-.44s-.19-.44-.44-.44h-.09c-.25,0-.44.19-.44.44s.19.44.44.44Z"/>
  <path class="cls-1" d="M3.19,3.54h.09c.25,0,.44-.19.44-.44s-.19-.44-.44-.44h-.09c-.25,0-.44.19-.44.44s.2.44.44.44Z"/>
  <path class="cls-1" d="M4.96,3.54h.09c.25,0,.44-.19.44-.44s-.19-.44-.44-.44h-.09c-.25,0-.44.19-.44.44s.19.44.44.44Z"/>
  <path class="cls-1" d="M6.73,3.54h.09c.25,0,.44-.19.44-.44s-.19-.44-.44-.44h-.09c-.25,0-.44.19-.44.44s.19.44.44.44Z"/>
  <path class="cls-1" d="M3.28,23.03h-.09c-.25,0-.44.19-.44.44s.2.44.44.44h.09c.25,0,.44-.19.44-.44s-.19-.44-.44-.44Z"/>
  <path class="cls-1" d="M5.05,23.03h-.09c-.25,0-.44.19-.44.44s.19.44.44.44h.09c.25,0,.44-.19.44-.44s-.19-.44-.44-.44Z"/>
  <path class="cls-1" d="M6.82,23.03h-.09c-.25,0-.44.19-.44.44s.19.44.44.44h.09c.25,0,.44-.19.44-.44s-.19-.44-.44-.44Z"/>
</svg>