<?xml version="1.0" encoding="UTF-8"?>
<svg id="Layer_1" xmlns="http://www.w3.org/2000/svg" viewBox="0 0 24 25.71">
  <defs>
    <style>
      .cls-1 {
        fill: #1d897a;
      }

      .cls-2 {
        fill: none;
      }
    </style>
  </defs>
  <path class="cls-2" d="M12.43,18.86c0-.24-.19-.43-.43-.43s-.43.19-.43.43.19.43.43.43.43-.19.43-.43Z"/>
  <path class="cls-1" d="M10.71,1.71c-.24,0-.43.19-.43.43s.19.43.43.43h2.57c.24,0,.43-.19.43-.43s-.19-.43-.43-.43h-2.57Z"/>
  <path class="cls-1" d="M18.43,20.57c-.24,0-.43.19-.43.43v2.57c0,.71-.57,1.29-1.29,1.29H7.29c-.71,0-1.29-.57-1.29-1.29v-2.57c0-.24-.19-.43-.43-.43s-.43.19-.43.43v2.57c0,1.18.96,2.14,2.14,2.14h9.43c1.18,0,2.14-.96,2.14-2.14v-2.57c0-.24-.19-.43-.43-.43Z"/>
  <path class="cls-1" d="M18,2.14v7.29c0,.24.19.43.43.43s.43-.19.43-.43V2.14c0-1.18-.96-2.14-2.14-2.14H7.29c-1.18,0-2.14.96-2.14,2.14v7.29c0,.24.19.43.43.43s.43-.19.43-.43V2.14c0-.71.57-1.29,1.29-1.29h9.43c.71,0,1.29.57,1.29,1.29Z"/>
  <path class="cls-1" d="M13.28,18.93l4.84-1.38c.23-.07.36-.3.29-.53-.07-.23-.3-.36-.53-.29l-4.83,1.38c-.23-.33-.62-.54-1.05-.54-.71,0-1.29.57-1.29,1.28s.57,1.29,1.29,1.29,1.23-.53,1.28-1.21ZM11.57,18.86c0-.24.19-.43.43-.43s.43.19.43.43-.19.43-.43.43-.43-.19-.43-.43Z"/>
  <path class="cls-1" d="M19.84,10.95h0c.09.08.19.12.3.12s.22-.04.31-.13c.16-.17.16-.45,0-.61l-.08-.08c-.17-.16-.42-.14-.58.03-.16.17-.15.46.03.63l.04.04Z"/>
  <path class="cls-1" d="M20.97,11.55c-.19.15-.22.41-.09.6,1.47,1.95,2.25,4.27,2.25,6.71,0,.24.19.43.43.43s.43-.19.43-.43c0-2.63-.84-5.13-2.43-7.23-.15-.19-.41-.22-.6-.09Z"/>
  <path class="cls-1" d="M.43,19.29c.24,0,.43-.19.43-.43,0-2.54.83-4.93,2.42-6.92.15-.19.12-.46-.07-.6h0c-.18-.15-.45-.13-.6.06-1.71,2.14-2.61,4.72-2.61,7.46,0,.24.19.43.43.43Z"/>
  <path class="cls-1" d="M4.05,10.86h0c.12,0,.23-.04.33-.12l.04-.04c.17-.16.18-.44.02-.61-.16-.17-.44-.18-.61-.02l-.09.08c-.17.16-.16.41,0,.58.08.09.19.13.3.13Z"/>
  <path class="cls-1" d="M22.19,19.3v-.16c.02-.09.03-.2.03-.29,0-.9-.13-1.77-.34-2.6v-.06h.06s-.02-.04-.03-.06c-.23-.84-.57-1.64-.98-2.38,0-.02,0-.03-.02-.05,0-.02-.03-.03-.04-.05-.44-.75-.96-1.44-1.57-2.05,0,0,0-.02-.02-.03s-.02,0-.03-.02c-.61-.61-1.3-1.13-2.06-1.58-.02-.02-.03-.03-.05-.04-.02,0-.03,0-.05-.02-.74-.43-1.54-.76-2.38-.99-.02,0-.03-.02-.05-.03h-.06c-.83-.22-1.71-.34-2.61-.34s-1.78.13-2.61.34h-.06s-.03.02-.05.03c-.84.23-1.64.57-2.38.99-.02,0-.03,0-.05.02-.02,0-.03.03-.05.04-.75.44-1.44.97-2.06,1.58,0,0-.02,0-.03.02,0,0,0,.02-.02.03-.61.61-1.13,1.3-1.57,2.06-.02.02-.03.04-.04.05,0,.02,0,.03-.02.05-.42.74-.75,1.54-.99,2.38,0,.02-.02.03-.03.05v.06c-.21.83-.34,1.7-.34,2.6,0,.1,0,.2,0,.29v.16c.02.23.21.41.44.41h6.03c.12,0,.24-.05.32-.15.08-.09.12-.21.1-.33l-.02-.13c0-.09-.03-.17-.03-.26,0-1.89,1.53-3.43,3.43-3.43,1.08,0,2.08.5,2.73,1.36.15.19.41.22.6.09.19-.15.22-.41.09-.6-.82-1.08-2.07-1.7-3.42-1.7-2.37,0-4.29,1.92-4.29,4.29H2.57c0-.69.08-1.37.22-2.02l1.23.33s.08.02.11.02c.19,0,.36-.13.41-.32.06-.23-.08-.46-.3-.52l-1.23-.33c.16-.51.38-1.01.62-1.48l1.1.63c.07.04.15.06.21.06.15,0,.29-.08.37-.21.12-.21.05-.46-.15-.58l-1.1-.63c.29-.45.62-.87.98-1.27l.89.89c.09.09.2.13.3.13s.22-.04.3-.13c.17-.17.17-.44,0-.61l-.89-.89c.39-.36.82-.69,1.27-.98l.63,1.1c.08.14.22.21.37.21.07,0,.15-.02.21-.06.21-.12.27-.38.15-.58l-.63-1.1c.47-.25.97-.46,1.48-.62l.33,1.23c.05.19.22.32.41.32.03,0,.08,0,.11-.02.23-.06.36-.3.3-.52l-.33-1.23c.51-.11,1.05-.18,1.6-.21v1.26c0,.24.19.43.43.43s.43-.19.43-.43v-1.26c.54.03,1.08.09,1.59.21l-.33,1.23c-.06.23.08.46.3.52.04,0,.08.02.11.02.19,0,.36-.13.41-.32l.33-1.23c.51.16,1.01.38,1.48.62l-.63,1.1c-.12.21-.05.46.15.58.07.04.15.06.21.06.15,0,.29-.08.37-.21l.63-1.1c.45.29.87.62,1.27.98l-.89.89c-.17.17-.17.44,0,.61.09.09.2.13.3.13s.22-.04.3-.13l.89-.89c.36.39.69.82.98,1.27l-1.1.63c-.21.12-.27.38-.15.58.08.14.22.21.37.21.07,0,.15-.02.21-.06l1.1-.63c.25.47.45.97.62,1.48l-1.23.33c-.23.06-.36.3-.3.52.05.19.22.32.41.32.03,0,.08,0,.11-.02l1.23-.33c.15.65.22,1.33.22,2.02h-5.57c-.24,0-.43.19-.43.43s.19.43.43.43h5.97c.23,0,.42-.18.43-.41Z"/>
</svg>