<?xml version="1.0" encoding="UTF-8"?>
<svg id="Layer_1" xmlns="http://www.w3.org/2000/svg" viewBox="0 0 24 24.95">
  <defs>
    <style>
      .cls-1 {
        fill: #1d897a;
      }

      .cls-2 {
        fill: none;
      }
    </style>
  </defs>
  <path class="cls-2" d="M7.37,24.11h9.15c.69,0,1.25-.56,1.25-1.25V2.08c0-.69-.56-1.25-1.25-1.25H7.37c-.69,0-1.25.56-1.25,1.25v20.79c0,.69.56,1.25,1.25,1.25ZM8.2,15.38c0-.23.18-.42.41-.42.79,0,1.66-1.02,1.66-2.49v-2.08c0-1.15.93-2.08,2.08-2.08s2.08.93,2.08,2.08c0,.23-.18.42-.41.42s-.42-.18-.42-.42c0-.69-.56-1.25-1.25-1.25s-1.25.56-1.25,1.25v2.08c0,1.99-1.29,3.33-2.5,3.33-.23,0-.41-.18-.41-.42ZM9.61,17.29c-.17,0-.33-.11-.39-.28-.08-.22.05-.45.27-.52,1.14-.37,2.46-1.65,2.46-4.02v-2.08c0-.23.18-.42.42-.42s.42.18.42.42v2.08h0c0,2.31-1.19,4.2-3.03,4.81-.05.02-.09.02-.13.02ZM11.95,18.19l-.17.12c-.08.04-.16.07-.23.07-.14,0-.27-.06-.35-.18-.12-.19-.07-.45.12-.57l.16-.11c.19-.13.45-.09.58.1.13.19.09.45-.1.58ZM12.69,17.3c-.09,0-.18-.03-.26-.09-.17-.14-.21-.4-.07-.58.81-1.03,1.24-2.47,1.24-4.16v-.42c0-.23.18-.42.42-.42s.41.18.41.42h0v.42c0,1.87-.49,3.48-1.41,4.66-.08.1-.2.16-.32.16ZM10.7,1.66h2.49c.23,0,.42.18.42.42s-.18.41-.42.41h-2.49c-.23,0-.42-.18-.42-.41s.18-.42.42-.42ZM10.47,7.17c.57-.34,1.23-.52,1.9-.52h0c2.06,0,3.74,1.67,3.74,3.73v2.08c0,2-.5,3.82-1.45,5.23-.08.12-.22.18-.35.18-.08,0-.17-.02-.23-.07-.19-.13-.24-.38-.12-.57.86-1.27,1.31-2.93,1.31-4.76v-2.08c0-1.6-1.31-2.91-2.91-2.91-.52,0-1.02.13-1.47.4-.19.12-.45.05-.57-.15-.12-.19-.05-.45.15-.57ZM8.21,13.3c.18,0,.42,0,.42-.83v-2.08c0-.66.17-1.31.5-1.87.12-.2.37-.27.57-.15.2.12.27.37.15.57-.26.44-.39.95-.39,1.46v2.08h0c0,1.37-.68,1.66-1.25,1.66-.23,0-.41-.18-.41-.42s.18-.42.41-.42Z"/>
  <path class="cls-1" d="M10.7,2.49h2.49c.23,0,.42-.18.42-.41s-.18-.42-.42-.42h-2.49c-.23,0-.42.18-.42.42s.18.41.42.41Z"/>
  <path class="cls-1" d="M5.29,2.08v20.79c0,1.15.93,2.08,2.08,2.08h9.15c1.15,0,2.08-.93,2.08-2.08V2.08c0-1.15-.93-2.08-2.08-2.08H7.37c-1.15,0-2.08.93-2.08,2.08ZM6.13,2.08c0-.69.56-1.25,1.25-1.25h9.15c.69,0,1.25.56,1.25,1.25v20.79c0,.69-.56,1.25-1.25,1.25H7.37c-.69,0-1.25-.56-1.25-1.25V2.08Z"/>
  <path class="cls-1" d="M11.46,17.5l-.16.11c-.19.12-.24.38-.12.57.08.12.21.18.35.18.08,0,.16-.03.23-.07l.17-.12c.19-.13.23-.39.1-.58-.13-.19-.39-.23-.58-.1Z"/>
  <path class="cls-1" d="M14.43,12.07h0c0-.24-.18-.42-.41-.42s-.42.18-.42.42v.42c0,1.69-.42,3.13-1.24,4.16-.14.18-.11.44.07.58.08.06.17.09.26.09.12,0,.24-.06.32-.16.92-1.18,1.41-2.79,1.41-4.66v-.42Z"/>
  <path class="cls-1" d="M11.11,12.47v-2.08c0-.69.56-1.25,1.25-1.25s1.25.56,1.25,1.25c0,.23.18.42.42.42s.41-.18.41-.42c0-1.15-.93-2.08-2.08-2.08s-2.08.93-2.08,2.08v2.08c0,1.47-.87,2.49-1.66,2.49-.23,0-.41.18-.41.42s.18.42.41.42c1.21,0,2.5-1.34,2.5-3.33Z"/>
  <path class="cls-1" d="M12.77,12.47h0v-2.08c0-.23-.18-.42-.42-.42s-.42.18-.42.42v2.08c0,2.37-1.32,3.64-2.46,4.02-.22.07-.34.31-.27.52.06.17.22.28.39.28.04,0,.08,0,.13-.02,1.84-.61,3.03-2.5,3.03-4.81Z"/>
  <path class="cls-1" d="M10.88,7.88c.45-.27.96-.4,1.47-.4,1.6,0,2.91,1.31,2.91,2.91v2.08c0,1.84-.45,3.49-1.31,4.76-.12.19-.08.45.12.57.07.05.15.07.23.07.13,0,.27-.07.35-.18.95-1.41,1.45-3.23,1.45-5.23v-2.08c0-2.06-1.68-3.74-3.74-3.74h0c-.67,0-1.32.18-1.9.52-.2.12-.27.37-.15.57.12.2.37.27.57.15Z"/>
  <path class="cls-1" d="M8.21,14.14c.57,0,1.25-.29,1.25-1.66h0v-2.08c0-.51.13-1.01.39-1.46.12-.2.05-.45-.15-.57-.2-.12-.45-.05-.57.15-.32.57-.5,1.21-.5,1.87v2.08c0,.83-.24.83-.42.83-.23,0-.41.18-.41.42s.18.42.41.42Z"/>
  <path class="cls-1" d="M.31,10.83l1.6.43s.08.02.11.02c.18,0,.35-.12.4-.31.06-.22-.07-.45-.29-.51l-1.6-.43c-.22-.06-.45.08-.51.29-.06.22.08.45.29.51Z"/>
  <path class="cls-1" d="M.42,14.93s.08,0,.11-.02l1.6-.43c.22-.06.35-.29.29-.51-.06-.22-.28-.35-.51-.29l-1.6.43c-.22.06-.35.29-.29.51.05.18.22.31.4.31Z"/>
  <path class="cls-1" d="M3.33,16.59h0l-1.17,1.17c-.17.17-.17.42,0,.59.08.08.19.12.29.12s.22-.04.29-.12l1.17-1.17c.17-.17.17-.42,0-.59s-.42-.17-.59,0Z"/>
  <path class="cls-1" d="M3.33,8.36c.08.08.19.13.29.13s.22-.04.29-.13c.17-.17.17-.42,0-.59l-1.17-1.17h0c-.17-.17-.42-.17-.59,0s-.17.42,0,.59l1.17,1.17Z"/>
  <path class="cls-1" d="M23.48,10.03l-1.6.43c-.22.06-.35.29-.29.51.05.18.22.31.4.31.03,0,.08,0,.11-.02l1.6-.43c.22-.06.35-.29.29-.51-.06-.22-.28-.36-.51-.29Z"/>
  <path class="cls-1" d="M23.7,14.12l-1.6-.43c-.22-.06-.45.08-.51.29-.06.22.08.45.29.51l1.6.43s.08.02.11.02c.18,0,.35-.12.4-.31.06-.22-.07-.45-.29-.51Z"/>
  <path class="cls-1" d="M20.65,16.59h0c-.17-.17-.42-.17-.59,0s-.17.42,0,.59l1.17,1.17c.08.08.19.12.29.12s.22-.04.29-.12c.17-.17.17-.42,0-.59l-1.17-1.17Z"/>
  <path class="cls-1" d="M20.36,8.48h0c.11,0,.22-.04.29-.13l1.17-1.17c.17-.17.17-.42,0-.59s-.42-.17-.59,0l-1.17,1.17c-.17.17-.17.42,0,.59.08.08.19.13.29.13Z"/>
</svg>