<?xml version="1.0" encoding="UTF-8"?>
<svg id="Layer_1" xmlns="http://www.w3.org/2000/svg" viewBox="0 0 24 21.15">
  <defs>
    <style>
      .cls-1 {
        fill: #1d897a;
      }

      .cls-2 {
        fill: none;
      }
    </style>
  </defs>
  <path class="cls-2" d="M3.2,5.31V.98C1.66,1.62.8,2.41.8,3.15s.87,1.52,2.4,2.16Z"/>
  <path class="cls-2" d="M20.43,6.3c-2.29.81-5.39,1.25-8.44,1.25s-6.15-.44-8.44-1.25c-.06,0-.11-.02-.16-.06-1.1-.4-2-.89-2.59-1.46v11.97c0,1.7,4.6,3.6,11.2,3.6,6.6,0,11.2-1.9,11.2-3.6V4.78c-.59.57-1.5,1.06-2.59,1.46-.05.03-.1.06-.17.06ZM2.56,17.32c-.08.09-.19.14-.3.14-.1,0-.19-.03-.26-.1-.19-.16-.31-.32-.37-.47-.07-.21.03-.44.24-.51.21-.08.43.03.51.23h0s.04.06.14.14c.17.14.18.4.04.57ZM2.73,7.29c-.06.15-.22.24-.37.24-.06,0-.11,0-.16-.03-.13-.06-.26-.11-.38-.17-.19-.09-.29-.33-.19-.53.1-.19.34-.29.54-.19.11.06.23.11.35.16h0c.2.08.3.32.21.52ZM11.58,8.35h.85c.22,0,.4.18.4.39,0,.22-.17.41-.39.41h-.87c-.22,0-.39-.18-.39-.41,0-.22.21-.4.41-.39ZM5.25,18.38c-.05.18-.21.29-.38.29-.04,0-.07,0-.11-.02-.22-.07-.44-.14-.64-.21-.21-.07-.32-.3-.25-.51.08-.21.3-.32.51-.25.19.06.39.13.61.19h0c.22.07.34.29.27.5ZM4.68,8.32c-.22-.06-.34-.27-.29-.49.06-.22.26-.34.49-.29.26.07.54.14.82.19.22.04.36.26.31.47h0c-.04.19-.21.32-.39.32-.02,0-.05,0-.08,0-.29-.06-.57-.13-.85-.2ZM6.4,17.15c0,.22-.18.4-.4.4s-.4-.18-.4-.4v-7.2c0-.22.18-.4.4-.4s.4.18.4.4v7.2ZM8.24,18.94c-.02.2-.19.34-.39.34h-.06c-.23-.03-.46-.06-.68-.1-.22-.04-.37-.25-.33-.46.04-.22.26-.36.46-.33.21.04.43.07.66.1h0c.22.02.38.23.34.45ZM9.31,8.65c-.02.21-.2.36-.4.36h-.04c-.26-.02-.53-.05-.78-.08-.22-.02-.38-.22-.35-.44.02-.22.22-.38.44-.35.25.03.5.06.76.08h.02c.22.02.38.22.36.43ZM10.86,19.54h-.02c-.25,0-.48-.02-.71-.03-.22-.02-.39-.2-.38-.42.02-.22.19-.38.42-.38.22.02.46.03.69.03h0c.22,0,.38.19.38.42,0,.22-.18.38-.4.38ZM13.82,19.51c-.18,0-.35.02-.54.02h-.02c-.22,0-.39-.17-.4-.38,0-.22.16-.41.38-.42.18,0,.35-.02.52-.02.25-.02.42.16.42.38.02.22-.15.42-.38.42ZM14.55,14.33l-4.4,1.84s-.1.03-.15.03c-.08,0-.16-.02-.22-.06-.11-.08-.18-.2-.18-.34v-3.68c0-.14.06-.26.18-.34.11-.08.25-.09.38-.04l4.4,1.84h0c.15.07.25.22.25.38s-.1.3-.25.37ZM15.08,9.01c-.21,0-.38-.15-.4-.36-.02-.22.14-.41.36-.43.25-.02.5-.05.74-.08.21-.02.42.13.44.35h0c.02.22-.14.42-.35.44-.25.03-.5.06-.76.08h-.04ZM16.82,19.19c-.21.03-.42.06-.64.1h-.06c-.19,0-.37-.14-.39-.34-.02-.22.13-.42.34-.45.22-.03.42-.06.62-.1h-.02c.22-.03.42.12.46.34.04.22-.11.42-.33.46ZM18.4,17.15c0,.22-.18.4-.4.4s-.4-.18-.4-.4v-7.2c0-.22.18-.4.4-.4s.4.18.4.4v7.2ZM18.4,8.53c-.18,0-.35-.14-.39-.32-.05-.22.09-.42.3-.47.27-.06.54-.12.79-.18.22-.06.43.07.49.29h0c.06.22-.07.43-.29.49-.27.07-.54.14-.82.19-.03,0-.06,0-.09,0ZM19.88,18.43c-.22.08-.44.15-.69.22-.04.02-.07.02-.11.02-.18,0-.34-.11-.38-.29-.06-.21.06-.43.27-.5.23-.06.46-.14.66-.21h0c.21-.08.44.03.51.24.07.21-.04.44-.25.51ZM22.37,16.84c-.06.16-.17.32-.35.48-.07.07-.17.1-.26.1-.1,0-.22-.05-.3-.14-.14-.17-.14-.42.03-.57.11-.1.14-.14.14-.14.09-.2.32-.3.52-.22h0c.19.08.3.29.23.49ZM21.48,6.78c.12-.06.24-.1.35-.16.2-.1.44,0,.54.19.1.2,0,.43-.19.53-.12.06-.25.11-.38.17-.06.02-.1.03-.16.03h0c-.15,0-.3-.08-.37-.23-.09-.21,0-.44.21-.53Z"/>
  <polygon class="cls-2" points="10.4 15.19 13.36 13.95 10.4 12.71 10.4 15.19"/>
  <path class="cls-2" d="M20.8.98v4.33c1.53-.64,2.4-1.41,2.4-2.16s-.86-1.53-2.4-2.17Z"/>
  <path class="cls-1" d="M20.54.02c-.13-.05-.26-.02-.37.05-.1.07-.17.2-.17.33v5.22c-1.97.67-4.74,1.14-8,1.14s-6.03-.46-8-1.14V.4c0-.13-.06-.26-.17-.33-.1-.07-.24-.1-.37-.05C1.2.84,0,1.92,0,3.15v13.6c0,2.75,6.1,4.4,12,4.4s12-1.65,12-4.4V3.15c0-1.23-1.2-2.31-3.46-3.13ZM3.2.98v4.33c-1.53-.64-2.4-1.42-2.4-2.16S1.66,1.62,3.2.98ZM23.19,16.75c0,1.7-4.6,3.6-11.2,3.6-6.6,0-11.2-1.9-11.2-3.6V4.78c.59.57,1.5,1.06,2.59,1.46.05.03.1.05.16.06,2.29.81,5.39,1.25,8.44,1.25s6.15-.44,8.44-1.25c.06,0,.12-.02.17-.06,1.1-.4,2-.89,2.59-1.46v11.97ZM20.8,5.31V.98c1.54.64,2.4,1.42,2.4,2.17s-.87,1.52-2.4,2.16Z"/>
  <path class="cls-1" d="M6,9.55c-.22,0-.4.18-.4.4v7.2c0,.22.18.4.4.4s.4-.18.4-.4v-7.2c0-.22-.18-.4-.4-.4Z"/>
  <path class="cls-1" d="M18,9.55c-.22,0-.4.18-.4.4v7.2c0,.22.18.4.4.4s.4-.18.4-.4v-7.2c0-.22-.18-.4-.4-.4Z"/>
  <path class="cls-1" d="M14.55,13.59h0s-4.4-1.85-4.4-1.85c-.13-.05-.26-.04-.38.04-.11.07-.18.2-.18.34v3.68c0,.14.06.26.18.34.06.05.14.06.22.06.06,0,.1,0,.15-.03l4.4-1.84c.15-.06.25-.21.25-.37s-.1-.3-.25-.37ZM10.4,15.19v-2.48l2.96,1.24-2.96,1.24Z"/>
  <path class="cls-1" d="M2.38,16.61h0c-.08-.2-.3-.31-.51-.23-.21.07-.31.3-.24.51.06.15.18.31.37.47.07.06.17.1.26.1.11,0,.22-.05.3-.14.14-.17.13-.42-.04-.57-.1-.09-.13-.14-.14-.14Z"/>
  <path class="cls-1" d="M19.62,17.67h0c-.2.08-.42.15-.66.22-.21.06-.34.29-.27.5.05.18.21.29.38.29.04,0,.07,0,.11-.02.25-.07.47-.14.69-.22.21-.07.32-.3.25-.51-.07-.21-.3-.32-.51-.25Z"/>
  <path class="cls-1" d="M16.69,18.4h.02c-.2.02-.41.06-.62.09-.22.03-.37.23-.34.45.02.2.2.34.39.34h.06c.22-.03.43-.06.64-.1.22-.03.37-.24.33-.46-.04-.22-.24-.37-.46-.33Z"/>
  <path class="cls-1" d="M13.78,18.7c-.17,0-.34.02-.52.02-.22,0-.39.19-.38.42,0,.22.18.38.4.38h.02c.18,0,.36-.02.54-.02.22,0,.39-.2.38-.42,0-.22-.18-.4-.42-.38Z"/>
  <path class="cls-1" d="M10.87,18.74h0c-.23,0-.46-.02-.69-.03-.23,0-.41.16-.42.38-.02.22.16.41.38.42.23.02.46.02.71.03h.02c.22,0,.39-.17.4-.38,0-.22-.17-.41-.38-.42Z"/>
  <path class="cls-1" d="M7.9,18.49h0c-.22-.03-.45-.06-.66-.1-.21-.03-.42.11-.46.33-.04.22.11.42.33.46.22.04.45.07.68.1h.06c.2,0,.37-.14.39-.34.03-.22-.12-.42-.34-.45Z"/>
  <path class="cls-1" d="M4.98,17.88h0c-.22-.07-.42-.14-.61-.2-.21-.07-.43.04-.51.25-.07.21.04.44.25.51.2.07.42.14.64.21.04,0,.07.02.11.02.18,0,.34-.11.38-.29.06-.22-.06-.43-.27-.5Z"/>
  <path class="cls-1" d="M22.14,16.35h0c-.2-.08-.43.02-.52.22,0,0-.02.05-.14.14-.17.14-.18.4-.03.57.08.09.19.14.3.14.1,0,.19-.03.26-.1.18-.16.3-.32.35-.48.07-.2-.04-.41-.23-.49Z"/>
  <path class="cls-1" d="M21.64,7.55h0c.06,0,.1-.02.16-.04.13-.06.26-.11.38-.17.2-.1.29-.33.19-.53-.1-.2-.34-.29-.54-.19-.11.06-.23.1-.35.16-.2.09-.3.32-.21.53.06.15.22.24.37.24Z"/>
  <path class="cls-1" d="M6,8.21h0c.05-.22-.1-.43-.31-.47-.28-.06-.55-.12-.82-.19-.22-.06-.43.07-.49.29-.06.22.07.43.29.49.28.07.56.14.85.2.03,0,.06,0,.08,0,.18,0,.35-.13.39-.32Z"/>
  <path class="cls-1" d="M8.95,8.22h-.02c-.26-.02-.51-.05-.76-.08-.22-.02-.42.13-.44.35-.02.22.14.42.35.44.26.03.52.06.78.08h.04c.2,0,.38-.15.4-.36.02-.22-.14-.42-.36-.43Z"/>
  <path class="cls-1" d="M11.56,9.15h.87c.22,0,.4-.18.39-.41,0-.22-.18-.39-.4-.39h-.85c-.2,0-.4.18-.41.39,0,.22.18.4.39.41Z"/>
  <path class="cls-1" d="M16.23,8.49h0c-.02-.22-.23-.38-.44-.35-.25.03-.5.06-.74.08-.22.02-.38.22-.36.43.02.21.19.36.4.36h.04c.26-.02.51-.05.76-.08.22-.02.38-.22.35-.44Z"/>
  <path class="cls-1" d="M19.6,7.84h0c-.06-.22-.27-.34-.49-.29-.26.06-.52.13-.79.18-.22.05-.35.26-.3.47.04.18.21.32.39.32.03,0,.06,0,.09,0,.28-.06.55-.12.82-.19.22-.06.34-.27.29-.49Z"/>
  <path class="cls-1" d="M2.52,6.76h0c-.12-.04-.24-.1-.35-.15-.2-.1-.44,0-.54.19-.1.2,0,.44.19.53.12.06.25.11.38.17.05.02.1.03.16.03.15,0,.3-.09.37-.24.09-.2,0-.44-.21-.53Z"/>
</svg>