<?xml version="1.0" encoding="UTF-8"?>
<svg id="Layer_1" xmlns="http://www.w3.org/2000/svg" viewBox="0 0 24 23.96">
  <defs>
    <style>
      .cls-1 {
        fill: #1d897a;
      }

      .cls-2 {
        fill: none;
      }
    </style>
  </defs>
  <path class="cls-2" d="M3.74,6.78c.16.06.26.21.26.38v6.74c.95-.3,2.02-.55,3.2-.74v-4.81c0-1.1.9-2,2-2h5.6c1.1,0,2,.9,2,2v4.8c1.18.18,2.25.43,3.2.74v-6.74c0-.17.1-.32.26-.38,1.86-.67,2.94-1.54,2.94-2.38,0-1.7-4.6-3.6-11.2-3.6S.8,2.7.8,4.41c0,.84,1.07,1.7,2.94,2.38Z"/>
  <path class="cls-2" d="M14.8,7.15h-5.6c-.66,0-1.2.54-1.2,1.2v13.6c0,.66.54,1.2,1.2,1.2h5.6c.66,0,1.2-.54,1.2-1.2v-13.6c0-.66-.54-1.2-1.2-1.2ZM12.4,8.75h-.8c-.22,0-.4-.18-.4-.4s.18-.4.4-.4h.8c.22,0,.4.18.4.4s-.18.4-.4.4Z"/>
  <path class="cls-2" d="M21.81,15.52c-.19-.11-.26-.35-.14-.54.1-.19.35-.26.54-.14.42.25.74.5.99.74V6.05c-.54.51-1.34.98-2.4,1.38v6.94s0,.1,0,.16v4.84h0c1.54-.64,2.4-1.42,2.4-2.17,0-.71-.76-1.3-1.4-1.68Z"/>
  <path class="cls-2" d="M2.22,15.51c-.65.38-1.42.94-1.42,1.69s.86,1.53,2.4,2.17V7.42c-1.06-.4-1.86-.87-2.4-1.38v9.53c.26-.25.58-.5,1.02-.74.18-.11.43-.05.54.14.11.19.05.43-.14.54Z"/>
  <path class="cls-1" d="M3.46,20.33s.09.02.14.02c.08,0,.16-.02.23-.07.1-.07.17-.2.17-.33v-5.22c.93-.31,2.02-.58,3.2-.76v7.98c0,1.1.9,2,2,2h5.6c1.1,0,2-.9,2-2v-7.98c1.18.19,2.27.45,3.2.76v5.22c0,.13.06.26.17.33.06.05.15.07.23.07.05,0,.09,0,.14-.02,2.26-.82,3.46-1.9,3.46-3.13V4.4c0-2.75-6.1-4.4-12-4.4S0,1.65,0,4.4v12.8c0,1.23,1.2,2.31,3.46,3.13ZM16,21.95c0,.66-.54,1.2-1.2,1.2h-5.6c-.66,0-1.2-.54-1.2-1.2v-13.6c0-.66.54-1.2,1.2-1.2h5.6c.66,0,1.2.54,1.2,1.2v13.6ZM20.81,19.37h0v-4.84c0-.06,0-.11,0-.16v-6.94c1.06-.41,1.86-.87,2.4-1.38v9.52c-.25-.24-.58-.49-.99-.74-.19-.11-.44-.05-.54.14-.11.19-.05.43.14.54.64.38,1.4.97,1.4,1.68,0,.75-.86,1.53-2.4,2.17ZM12,.8c6.6,0,11.2,1.9,11.2,3.6,0,.84-1.07,1.7-2.94,2.38-.16.06-.26.21-.26.38v6.74c-.95-.3-2.02-.55-3.2-.74v-4.8c0-1.1-.9-2-2-2h-5.6c-1.1,0-2,.9-2,2v4.81c-1.18.18-2.25.43-3.2.74v-6.74c0-.17-.1-.32-.26-.38-1.86-.67-2.94-1.54-2.94-2.38C.8,2.7,5.4.8,12,.8ZM2.36,14.97c-.11-.19-.36-.26-.54-.14-.43.25-.76.5-1.02.74V6.04c.54.51,1.34.98,2.4,1.38v11.94c-1.54-.64-2.4-1.42-2.4-2.17s.77-1.31,1.42-1.69c.19-.11.26-.35.14-.54Z"/>
  <path class="cls-1" d="M12.4,7.95h-.8c-.22,0-.4.18-.4.4s.18.4.4.4h.8c.22,0,.4-.18.4-.4s-.18-.4-.4-.4Z"/>
</svg>