<?xml version="1.0" encoding="UTF-8"?>
<svg id="Layer_1" xmlns="http://www.w3.org/2000/svg" viewBox="0 0 24 19.33">
  <defs>
    <style>
      .cls-1 {
        fill: #1d897a;
      }

      .cls-2 {
        fill: none;
      }
    </style>
  </defs>
  <circle class="cls-2" cx="15.2" cy="6.4" r=".8"/>
  <path class="cls-1" d="M23.6,13.6h0s-11.99,0-11.99,0c-.66,0-1.2-.54-1.2-1.2v-8c0-.66.54-1.2,1.2-1.2h10.39c.22,0,.4-.18.4-.4s-.18-.4-.4-.4h-7.42c.38-.42.62-.98.62-1.6v-.4c0-.22-.18-.4-.4-.4h-4.84c-.08,0-.15.02-.22.06l-4.37,2.8s-.07.06-.1.1L.08,9.74c-.14.18-.1.42.07.56.18.14.42.1.56-.07L5.86,3.49,10.08.8h4.32c0,.88-.72,1.6-1.6,1.6h-1.23c-.82,0-1.59.35-2.12.98l-1.34,1.57c-.06.07-.1.17-.1.26v5.2c0,.22.18.4.4.4s.4-.18.4-.4v-5.05l.8-.93v7.98c0,.09.02.18.02.26l-.94-.94c-.16-.16-.41-.16-.57,0-.16.16-.16.41,0,.57l1.3,1.3c.52.52,1.24.82,1.98.82h1.01c.42,0,.83.17,1.13.47.3.3.47.7.47,1.13H3.71c-.09,0-.18.03-.24.08L.16,18.61c-.18.14-.21.38-.07.56.08.1.2.16.32.16.09,0,.17-.02.24-.08l3.21-2.45h10.55c.22,0,.4-.18.4-.4v-.4c0-.6-.22-1.16-.62-1.6h9.42c.22,0,.4-.18.4-.4s-.18-.4-.4-.4Z"/>
  <path class="cls-1" d="M23.51,3.2h.08c.22,0,.4-.18.4-.4s-.18-.4-.4-.4h-.08c-.22,0-.4.18-.4.4s.18.4.4.4Z"/>
  <path class="cls-1" d="M16.8,6.4c0-.88-.72-1.6-1.6-1.6s-1.6.72-1.6,1.6.72,1.6,1.6,1.6,1.6-.72,1.6-1.6ZM14.4,6.4c0-.44.36-.8.8-.8s.8.36.8.8-.36.8-.8.8-.8-.36-.8-.8Z"/>
  <path class="cls-1" d="M21.99,6.8l-2.41,2.67h0s-1.15-.93-1.15-.93c-.49-.39-1.2-.34-1.63.12l-3.57,3.85c-.15.16-.14.42.02.57.08.07.18.1.27.1.1,0,.22-.04.3-.13l3.57-3.85c.14-.15.38-.17.54-.04l1.1.88-.41.49c-.14.17-.12.42.04.56.17.14.42.13.56-.03l3.37-3.73c.14-.16.38-.18.55-.04l.21.17c.17.14.42.11.56-.06.14-.17.11-.42-.06-.56l-.21-.17c-.5-.4-1.22-.34-1.65.13Z"/>
  <path class="cls-1" d="M11.2,7.2v2.4c0,.22.18.4.4.4s.4-.18.4-.4v-2.4c0-.22-.18-.4-.4-.4s-.4.18-.4.4Z"/>
</svg>