<?xml version="1.0" encoding="UTF-8"?>
<svg id="Layer_1" xmlns="http://www.w3.org/2000/svg" viewBox="0 0 24 24">
  <defs>
    <style>
      .cls-1 {
        fill: #1d897a;
      }

      .cls-2 {
        fill: none;
      }
    </style>
  </defs>
  <path class="cls-2" d="M17.6,15.46V2c0-.66-.54-1.2-1.2-1.2H7.6c-.66,0-1.2.54-1.2,1.2v13.46c1.6.34,3.49.54,5.6.54s4-.2,5.6-.54ZM12.7,8.01h-.11c-.22,0-.39-.18-.39-.41,0-.22.18-.38.41-.39h.1c.22,0,.39.18.39.41,0,.22-.18.39-.4.39ZM15.56,7.81c.02-.22.24-.38.45-.34l.09.02c.22.03.37.24.34.46-.02.19-.2.34-.39.34-.02,0-.06-.02-.06-.02h-.08,0c-.22-.02-.38-.23-.34-.45ZM14.3,7.29h.12c.22.02.38.22.37.43-.02.21-.19.37-.4.37,0,0-.03,0-.03,0h-.12c-.22-.02-.38-.21-.37-.43.02-.22.23-.38.43-.36ZM7.66,8.33l-.11.02h-.07c-.19,0-.36-.14-.39-.34-.03-.22.12-.42.34-.46l.1-.02c.22-.04.42.11.46.33.04.22-.11.42-.33.46ZM9.39,8.13h-.16.02c-.21,0-.38-.16-.4-.37-.02-.22.14-.41.36-.43h.06c.21-.02.44.14.46.36.02.22-.12.41-.34.44ZM10.8,1.6h2.4c.22,0,.4.18.4.4s-.18.4-.4.4h-2.4c-.22,0-.4-.18-.4-.4s.18-.4.4-.4ZM11.01,8.02h-.11c-.22,0-.39-.17-.4-.38,0-.22.16-.41.38-.42h.1,0c.2,0,.41.18.42.39,0,.22-.16.41-.38.42Z"/>
  <path class="cls-2" d="M7.6,23.2h8.8c.66,0,1.2-.54,1.2-1.2v-5.74c-1.66.34-3.56.54-5.6.54s-3.94-.19-5.6-.54v5.74c0,.66.54,1.2,1.2,1.2Z"/>
  <path class="cls-2" d="M5.6,15.26v-6.52c-2.93.76-4.8,2.01-4.8,3.26s1.79,2.49,4.8,3.26Z"/>
  <path class="cls-1" d="M10.8,2.4h2.4c.22,0,.4-.18.4-.4s-.18-.4-.4-.4h-2.4c-.22,0-.4.18-.4.4s.18.4.4.4Z"/>
  <path class="cls-1" d="M5.6,16.08v5.92c0,1.1.9,2,2,2h8.8c1.1,0,2-.9,2-2v-5.92c3.38-.84,5.6-2.34,5.6-4.08,0-1.46-1.47-2.76-4.21-3.68l-.18.36.13-.38c-.21-.07-.38.06-.46.27-.07.21.09.45.3.52,2.26.77,3.61,1.85,3.61,2.9,0,1.22-1.79,2.49-4.8,3.26V2c0-1.1-.9-2-2-2H7.6c-1.1,0-2,.9-2,2v5.92c-3.51.86-5.6,2.38-5.6,4.08s2.22,3.24,5.6,4.08ZM6.4,2c0-.66.54-1.2,1.2-1.2h8.8c.66,0,1.2.54,1.2,1.2v13.46c-1.6.34-3.49.54-5.6.54s-4-.21-5.6-.54V2ZM6.4,16.26c1.66.34,3.56.54,5.6.54s3.94-.19,5.6-.54v5.74c0,.66-.54,1.2-1.2,1.2H7.6c-.66,0-1.2-.54-1.2-1.2v-5.74ZM5.6,8.74v6.52c-3.01-.78-4.8-2.05-4.8-3.26s1.87-2.5,4.8-3.26Z"/>
  <path class="cls-1" d="M15.9,8.26h.07s.04.02.06.02c.19,0,.37-.14.39-.34.03-.22-.12-.42-.34-.46l-.09-.02c-.21-.03-.42.12-.45.34-.03.22.12.42.34.45Z"/>
  <path class="cls-1" d="M14.23,8.07h0s.11,0,.11,0c0,0,.02,0,.03,0,.21,0,.38-.16.4-.37.02-.22-.14-.42-.37-.43h-.12c-.2-.02-.41.14-.43.36-.02.22.15.41.37.42Z"/>
  <path class="cls-1" d="M12.71,7.21h-.1c-.22,0-.4.17-.41.39,0,.22.17.41.39.41h.11c.22,0,.39-.18.4-.39,0-.22-.17-.41-.39-.41Z"/>
  <path class="cls-1" d="M10.98,7.22h0s-.1,0-.1,0c-.22.02-.39.2-.38.42,0,.22.18.38.4.38h.11c.22,0,.39-.2.38-.42,0-.22-.22-.4-.42-.38Z"/>
  <path class="cls-1" d="M9.26,7.33h-.06c-.22.02-.38.22-.36.43.02.21.19.36.4.36h-.02s.02,0,.04,0h.12c.22-.03.35-.22.34-.44-.02-.22-.26-.38-.46-.36Z"/>
  <path class="cls-1" d="M7.53,7.54l-.1.02c-.22.03-.37.24-.34.46.03.2.2.34.39.34h.07l.11-.02c.22-.04.37-.24.33-.46-.04-.22-.25-.37-.46-.33Z"/>
</svg>