<?xml version="1.0" encoding="UTF-8"?>
<svg id="Layer_1" xmlns="http://www.w3.org/2000/svg" viewBox="0 0 24 30.4">
  <defs>
    <style>
      .cls-1 {
        fill: #1d897a;
      }

      .cls-2 {
        fill: none;
      }
    </style>
  </defs>
  <path class="cls-2" d="M6.97,21.17c0,.25.2.44.44.44h9.16c.25,0,.44-.2.44-.44v-6.94H6.97v6.94ZM12,15.7c1.23,0,2.23,1,2.23,2.23s-1,2.23-2.23,2.23-2.23-1-2.23-2.23,1-2.23,2.23-2.23Z"/>
  <path class="cls-2" d="M12,9.65c-1.3,0-2.35,1.06-2.35,2.35v1.34h4.71v-1.34c0-1.3-1.06-2.35-2.36-2.35Z"/>
  <path class="cls-2" d="M8.76,12.01c0-1.79,1.46-3.24,3.24-3.24s3.25,1.46,3.25,3.24v1.34h.89v-1.34c0-2.28-1.85-4.14-4.14-4.14s-4.14,1.85-4.14,4.14v1.34h.89v-1.34Z"/>
  <path class="cls-2" d="M12,19.26c.74,0,1.34-.6,1.34-1.34s-.6-1.34-1.34-1.34-1.34.6-1.34,1.34.6,1.34,1.34,1.34Z"/>
  <path class="cls-2" d="M10.84,26.74c.4.21.79.41,1.16.6.4-.22.82-.44,1.27-.67,3.59-1.87,8.07-4.2,8.07-8.29V7.25L12,2.94,2.67,7.25v11.14c0,4.11,4.53,6.46,8.17,8.35ZM16.59,6.04l.81.37-.37.81-.81-.37.37-.81ZM14.97,5.29l.81.37-.37.81-.81-.37.37-.81ZM12,6.98c2.77,0,5.03,2.26,5.03,5.03v1.34h.89v7.83c0,.74-.6,1.34-1.34,1.34H7.42c-.74,0-1.34-.6-1.34-1.34v-7.83h.89v-1.34c0-2.77,2.26-5.03,5.03-5.03Z"/>
  <path class="cls-1" d="M14.45,29.06c1.63-.86,3.31-1.75,4.85-2.85l-.52-.73c-1.48,1.06-3.14,1.94-4.75,2.78-.72.38-1.39.74-2.03,1.1-.64-.36-1.32-.72-2.03-1.1C5.71,26.03.89,23.48.89,18.39v-9.44h-.89v9.44c0,5.63,5.3,8.43,9.55,10.68.79.42,1.54.81,2.23,1.21l.22.13.22-.13c.69-.4,1.44-.79,2.23-1.21Z"/>
  <path class="cls-1" d="M0,8.05h.89v-1.94L12,.98l11.11,5.13v12.28c0,2.53-1.15,4.62-3.62,6.57l.55.7c2.66-2.11,3.95-4.49,3.95-7.27V5.54L12,0,0,5.54v2.51Z"/>
  <path class="cls-1" d="M4.77,24.03c1.68,1.43,3.8,2.53,5.66,3.49.48.25.93.48,1.35.71l.21.12.21-.12c.46-.25.95-.51,1.46-.78,1.85-.97,3.96-2.06,5.61-3.48,1.97-1.69,2.93-3.52,2.93-5.59V6.68L12,1.96,1.78,6.68v11.71c0,2.08.98,3.93,2.99,5.64ZM2.67,7.25L12,2.94l9.33,4.3v11.14c0,4.08-4.47,6.41-8.07,8.29-.44.23-.87.45-1.27.67-.37-.2-.75-.4-1.16-.6-3.64-1.89-8.17-4.24-8.17-8.35V7.25Z"/>
  <path class="cls-1" d="M6.97,13.34h-.89v7.83c0,.74.6,1.34,1.34,1.34h9.16c.74,0,1.34-.6,1.34-1.34v-7.83h-.89v-1.34c0-2.77-2.25-5.03-5.03-5.03s-5.03,2.26-5.03,5.03v1.34ZM17.03,21.17c0,.25-.2.44-.44.44H7.42c-.25,0-.44-.2-.44-.44v-6.94h10.05v6.94ZM9.65,13.34v-1.34c0-1.3,1.06-2.35,2.35-2.35s2.36,1.06,2.36,2.35v1.34h-4.71ZM7.86,12.01c0-2.28,1.85-4.14,4.14-4.14s4.14,1.85,4.14,4.14v1.34h-.89v-1.34c0-1.79-1.46-3.24-3.25-3.24s-3.24,1.46-3.24,3.24v1.34h-.89v-1.34Z"/>
  <path class="cls-1" d="M12,20.15c1.23,0,2.23-1,2.23-2.23s-1-2.23-2.23-2.23-2.23,1-2.23,2.23,1,2.23,2.23,2.23ZM12,16.59c.74,0,1.34.6,1.34,1.34s-.6,1.34-1.34,1.34-1.34-.6-1.34-1.34.6-1.34,1.34-1.34Z"/>
  <rect class="cls-1" x="14.74" y="5.44" width=".89" height=".89" transform="translate(3.48 17.21) rotate(-65.24)"/>
  <rect class="cls-1" x="16.36" y="6.19" width=".89" height=".89" transform="translate(3.74 19.11) rotate(-65.24)"/>
</svg>