<?xml version="1.0" encoding="UTF-8"?>
<svg id="Layer_1" xmlns="http://www.w3.org/2000/svg" viewBox="0 0 24 22.61">
  <defs>
    <style>
      .cls-1 {
        fill: #1d897a;
      }
    </style>
  </defs>
  <path class="cls-1" d="M.19,15.03c-.06.13-.1.26-.14.4-.03.14-.05.28-.06.42,0,.14,0,.28.03.42.02.14.06.28.11.41.05.13.11.26.19.38.08.12.16.23.26.34.1.1.2.2.32.28.11.08.24.15.37.21.13.06.26.11.4.14.14.03.28.05.42.06.14,0,.28,0,.42-.03.14-.02.28-.06.41-.11.13-.05.26-.11.38-.19.12-.07.23-.16.34-.26.1-.1.2-.2.28-.32.08-.12.15-.24.21-.37.06-.13.1-.26.14-.4.03-.14.05-.28.06-.42,0-.14,0-.28-.03-.42-.02-.14-.06-.28-.11-.41-.05-.13-.11-.26-.19-.38-.08-.12-.16-.23-.26-.34-.1-.1-.2-.2-.32-.28-.11-.08-.24-.15-.37-.21-.13-.06-.26-.1-.4-.14-.14-.03-.28-.05-.42-.06-.14,0-.28,0-.42.03-.14.02-.28.06-.41.11-.13.05-.26.11-.38.19-.12.08-.23.16-.34.26s-.2.2-.28.32c-.08.12-.15.24-.21.37Z"/>
  <path class="cls-1" d="M4.54,14.56l5.51-2.44c-.1-.17-.17-.35-.24-.53l-5.63,2.49c.13.15.25.31.35.48Z"/>
  <path class="cls-1" d="M5,4.31l5.23,4.55c.11-.16.24-.3.38-.44L5.36,3.85c-.1.16-.22.32-.36.46Z"/>
  <path class="cls-1" d="M5.07,1.5c-.05-.14-.12-.28-.2-.41s-.17-.25-.28-.36c-.1-.11-.22-.21-.34-.3-.12-.09-.25-.16-.39-.23-.14-.06-.28-.11-.43-.15-.15-.04-.3-.06-.45-.06-.15,0-.3,0-.45.03-.15.02-.3.06-.44.12-.14.05-.28.12-.41.2-.13.08-.25.17-.36.28-.11.1-.21.22-.3.34-.09.12-.16.25-.23.39-.06.14-.11.28-.15.43-.03.15-.05.3-.06.45,0,.15,0,.3.03.45.02.15.06.3.12.44.05.14.12.28.2.41.08.13.17.25.28.36.1.11.22.21.34.3.12.09.25.16.39.23.14.06.28.11.43.15.15.04.3.06.45.06.15,0,.3,0,.45-.03.15-.02.3-.06.44-.12.14-.05.28-.12.41-.2.13-.08.25-.17.36-.28s.21-.22.3-.34c.09-.12.16-.25.23-.39.06-.14.11-.28.15-.43s.05-.3.06-.45c0-.15,0-.3-.03-.45-.03-.15-.06-.3-.12-.44Z"/>
  <path class="cls-1" d="M13.26,8.23c-.16-.04-.32-.06-.48-.06-.16,0-.32,0-.48.03-.16.03-.32.07-.47.12-.15.06-.3.13-.43.21-.14.08-.27.18-.38.29-.12.11-.22.23-.32.36-.09.13-.18.27-.24.42-.07.15-.12.3-.15.46-.04.16-.06.32-.06.48s0,.32.03.48c.03.16.07.32.12.47.06.15.13.29.21.43.08.14.18.27.29.38.11.12.23.22.36.32.13.09.27.18.42.24.15.07.3.12.46.15.16.04.32.06.48.06.16,0,.32,0,.48-.03.16-.03.32-.07.47-.12.15-.06.29-.13.43-.21.14-.08.27-.18.38-.29.12-.11.22-.23.32-.36.09-.13.18-.27.24-.42.07-.15.12-.3.15-.46.04-.16.06-.32.06-.48,0-.16,0-.32-.03-.48-.03-.16-.07-.32-.12-.47-.06-.15-.13-.3-.21-.43-.08-.14-.18-.27-.29-.38-.11-.12-.23-.22-.36-.32-.13-.09-.27-.18-.42-.24-.15-.07-.3-.12-.46-.15Z"/>
  <path class="cls-1" d="M23.89,12.94c-.04-.11-.09-.21-.15-.31s-.13-.19-.21-.27c-.08-.08-.16-.16-.26-.23-.09-.07-.19-.12-.3-.17s-.21-.08-.33-.11c-.11-.03-.22-.04-.34-.05-.12,0-.23,0-.34.02s-.22.05-.33.09c-.11.04-.21.09-.31.15-.1.06-.19.13-.27.21-.08.08-.16.16-.23.26-.07.09-.12.19-.17.3-.05.1-.08.21-.11.32-.03.11-.04.23-.05.34,0,.11,0,.23.02.34.02.11.05.22.09.33.04.11.09.21.15.31.06.1.13.19.21.27.08.08.16.16.26.23.09.07.19.12.3.17s.21.08.32.11c.11.03.23.04.34.05.12,0,.23,0,.34-.02.11-.02.22-.05.33-.09.11-.04.21-.09.31-.15.1-.06.19-.13.27-.21.08-.08.16-.16.23-.26.07-.09.13-.19.17-.3.05-.11.08-.21.11-.33.03-.11.04-.22.04-.34,0-.11,0-.23-.02-.34-.02-.11-.05-.22-.09-.33Z"/>
  <path class="cls-1" d="M14.55,8.22l1.33-2.13c-.19-.06-.36-.15-.52-.26l-1.29,2.08c.17.09.34.19.49.31Z"/>
  <path class="cls-1" d="M14.79,18.02l-1.09-4.51c-.18.06-.37.11-.56.14l1.09,4.49c.19-.06.38-.09.57-.11Z"/>
  <path class="cls-1" d="M20.13,12.59l-4.45-1.35c-.04.19-.09.37-.17.55l4.44,1.35c.04-.19.09-.37.17-.55Z"/>
  <path class="cls-1" d="M12.97,20.53c0,.13,0,.26.03.39.02.13.06.26.1.38.05.12.1.24.17.35.07.11.15.22.24.31.09.1.19.18.3.26.11.08.22.14.34.2.12.06.25.1.37.13.13.03.26.05.39.05.13,0,.26,0,.39-.03s.26-.06.38-.1c.12-.05.24-.1.35-.17.11-.07.22-.15.31-.24.1-.09.18-.19.26-.29.08-.11.14-.22.2-.34.05-.12.1-.24.13-.37.03-.13.05-.26.05-.39,0-.13,0-.26-.03-.39-.02-.13-.06-.26-.1-.38-.05-.12-.1-.24-.17-.35-.07-.11-.15-.22-.24-.31s-.19-.18-.3-.26c-.11-.08-.22-.14-.34-.2-.12-.05-.25-.1-.37-.13-.13-.03-.26-.05-.39-.05h0c-.13,0-.26,0-.39.02-.13.02-.26.06-.38.1s-.24.1-.35.17-.22.15-.31.24c-.1.09-.18.19-.26.3-.08.11-.14.22-.2.34-.05.12-.1.24-.13.37-.03.13-.05.26-.05.39Z"/>
  <path class="cls-1" d="M18.27,3.26c-.04-.11-.09-.21-.15-.31-.06-.1-.13-.19-.21-.27-.08-.08-.16-.16-.26-.23-.09-.07-.19-.12-.3-.17-.11-.05-.21-.08-.33-.11-.11-.03-.22-.04-.34-.05-.11,0-.23,0-.34.02-.11.02-.22.05-.33.09-.11.04-.21.09-.31.15s-.19.13-.27.21c-.08.08-.16.16-.23.26-.07.09-.12.19-.17.3s-.08.21-.11.32c-.03.11-.04.23-.05.34,0,.12,0,.23.02.34.02.11.05.22.09.33.04.11.09.21.15.31.06.1.13.19.21.27.08.08.17.16.26.23.09.07.19.13.3.17.11.05.21.08.32.11.11.03.23.04.34.04.12,0,.23,0,.34-.02.11-.02.22-.05.33-.09.11-.04.21-.09.31-.15.1-.06.19-.13.27-.21.08-.08.16-.16.23-.26s.12-.19.17-.3.08-.21.11-.33c.03-.11.04-.22.04-.34,0-.11,0-.23-.02-.34-.02-.11-.05-.22-.09-.33Z"/>
</svg>