<?xml version="1.0" encoding="UTF-8"?>
<svg id="Layer_1" xmlns="http://www.w3.org/2000/svg" viewBox="0 0 24 33.21">
  <defs>
    <style>
      .cls-1 {
        fill: #1d897a;
      }

      .cls-2 {
        fill: none;
      }
    </style>
  </defs>
  <polygon class="cls-2" points="11.03 17.19 10.02 19.65 11.7 17.89 11.03 17.19"/>
  <polygon class="cls-2" points="13.99 19.65 12.98 17.19 12.31 17.89 13.99 19.65"/>
  <polygon class="cls-2" points="15.83 24.16 14.7 21.38 12.5 22.49 15.83 24.16"/>
  <polygon class="cls-2" points="18.26 30.1 16.29 25.29 12.49 27.2 18.26 30.1"/>
  <path class="cls-2" d="M12.8,16.75l-.63-1.55c-.11.01-.22.01-.33,0l-.63,1.55.8.83.8-.83Z"/>
  <polygon class="cls-2" points="7.71 25.29 5.75 30.09 11.51 27.2 7.71 25.29"/>
  <polygon class="cls-2" points="14.53 20.97 14.44 20.74 12 18.21 9.57 20.74 9.48 20.97 12 22.24 14.53 20.97"/>
  <polygon class="cls-2" points="9.31 21.38 8.18 24.16 11.51 22.49 9.31 21.38"/>
  <polygon class="cls-2" points="16.13 24.88 16.09 24.78 12 22.73 7.92 24.78 7.88 24.88 12 26.95 16.13 24.88"/>
  <path class="cls-1" d="M15.97,17.98c1.12-1.1,1.82-2.66,1.82-4.39s-.65-3.18-1.7-4.27c-.57.59-.73.76-1.21,1.26.76.79,1.23,1.89,1.23,3.1s-.49,2.35-1.27,3.14c.44.46.6.63,1.13,1.17Z"/>
  <path class="cls-1" d="M6.2,13.58c0,1.69.67,3.22,1.74,4.31l1.05-1.09c-.79-.8-1.27-1.91-1.27-3.14s.47-2.3,1.23-3.1l-1.13-1.17c-1,1.08-1.62,2.56-1.62,4.19Z"/>
  <path class="cls-1" d="M19.02,13.65c0,2.02-.79,3.85-2.06,5.18.5.52.51.53,1,1.04,1.53-1.59,2.47-3.79,2.47-6.21s-.94-4.62-2.47-6.21c-.49.51-.5.52-1,1.04,1.27,1.32,2.06,3.15,2.06,5.18Z"/>
  <path class="cls-1" d="M3.56,13.65c0,2.43.94,4.62,2.47,6.21l1-1.04c-1.27-1.33-2.06-3.15-2.06-5.18s.79-3.85,2.06-5.18l-1-1.04c-1.53,1.59-2.47,3.79-2.47,6.21Z"/>
  <path class="cls-1" d="M19.07,6.28c1.81,1.88,2.93,4.49,2.93,7.36s-1.12,5.48-2.93,7.36c.71.74.72.76,1.42,1.48,2.17-2.26,3.52-5.39,3.52-8.84s-1.34-6.58-3.52-8.84c-.69.72-.71.74-1.42,1.48Z"/>
  <path class="cls-1" d="M3.51,22.48l1.42-1.48c-1.81-1.88-2.93-4.49-2.93-7.36s1.12-5.48,2.93-7.36l-1.42-1.48C1.34,7.07,0,10.19,0,13.65s1.34,6.57,3.51,8.84Z"/>
  <path class="cls-1" d="M4.51,33.13l.99-2.41,6.5-3.27,6.51,3.27.98,2.41c.03.07.11.1.17.07l.76-.34c.07-.03.1-.11.07-.18l-7.34-17.96c.32-.33.5-.76.5-1.23,0-.95-.74-1.72-1.65-1.72s-1.65.77-1.65,1.72c0,.47.18.91.5,1.23l-7.34,17.96s-.01.04-.01.05h0c0,.06.03.11.08.13l.76.34s.04.01.05.01c.05,0,.1-.03.12-.09ZM18.26,30.1l-5.77-2.9,3.8-1.91,1.96,4.81ZM15.83,24.16l-3.34-1.68,2.2-1.11,1.14,2.78ZM13.99,19.65l-1.68-1.75.68-.71,1.01,2.46ZM11.84,15.2c.11.01.22.01.33,0l.63,1.55-.8.83-.8-.83.63-1.55ZM11.03,17.19l.68.71-1.68,1.75,1-2.46ZM9.57,20.74l2.43-2.53,2.43,2.53.09.23-2.53,1.27-2.52-1.27.09-.23ZM9.31,21.38l2.2,1.11-3.34,1.68,1.14-2.78ZM7.92,24.78l4.08-2.05,4.08,2.05.04.1-4.13,2.07-4.12-2.07.04-.1ZM7.71,25.29l3.8,1.91-5.76,2.89,1.96-4.8Z"/>
  <path class="cls-1" d="M10.51,4.87c.34-.33.52-.76.52-1.28,0-.47-.15-.85-.43-1.13-.29-.28-.69-.42-1.2-.42-.13,0-.27,0-.41.02v-1.04h1.82V.09h-2.76v2.9c.32-.04.6-.07.82-.07.7,0,1.05.26,1.05.77,0,.25-.08.44-.25.59s-.39.21-.68.21c-.38,0-.75-.11-1.09-.33v.98c.33.15.73.22,1.21.22.59,0,1.06-.17,1.4-.5Z"/>
  <path class="cls-1" d="M14.26,5.37c.72,0,1.33-.15,1.82-.44v-2.61h-2.12v.93h1v1.01c-.16.08-.37.12-.64.12-.45,0-.8-.15-1.06-.44-.26-.29-.4-.7-.4-1.24s.15-.95.44-1.26c.29-.32.67-.47,1.14-.47.56,0,1.03.12,1.41.35V.23c-.4-.15-.87-.23-1.4-.23-.84,0-1.51.26-2.02.77s-.76,1.18-.76,1.99.23,1.45.69,1.91c.46.46,1.1.69,1.9.69Z"/>
</svg>