<?xml version="1.0" encoding="UTF-8"?>
<svg id="Layer_1" xmlns="http://www.w3.org/2000/svg" viewBox="0 0 24 37.81">
  <defs>
    <style>
      .cls-1 {
        fill: #1d897a;
      }

      .cls-2 {
        fill: none;
      }
    </style>
  </defs>
  <path class="cls-2" d="M4.8,1.2c-1.99,0-3.6,1.62-3.6,3.6s1.62,3.6,3.6,3.6,3.6-1.61,3.6-3.6-1.62-3.6-3.6-3.6Z"/>
  <path class="cls-2" d="M19.13,22.5c1.96-.04,3.54-1.63,3.54-3.6s-1.58-3.56-3.54-3.6c-1.96.03-3.54,1.63-3.54,3.6s1.58,3.56,3.54,3.6Z"/>
  <circle class="cls-2" cx="4.93" cy="33.01" r="3.6"/>
  <path class="cls-1" d="M9.73,33.01c0-1.1-.37-2.11-1-2.92l7.47-7.35c.8.6,1.79.96,2.87.96.02,0,.04,0,.06,0s.04,0,.06,0c2.65,0,4.8-2.15,4.8-4.8s-2.15-4.8-4.8-4.8c-.02,0-.04,0-.06,0s-.04,0-.07,0c-1.11,0-2.13.38-2.95,1.02l-7.52-7.4c.62-.81,1-1.82,1-2.92C9.6,2.15,7.45,0,4.8,0S0,2.15,0,4.8s2.15,4.8,4.8,4.8c1.12,0,2.15-.39,2.96-1.03l7.52,7.4c-.63.81-1.01,1.83-1.01,2.93s.4,2.18,1.06,3.01l-7.44,7.33c-.82-.64-1.84-1.03-2.96-1.03-2.65,0-4.8,2.15-4.8,4.8s2.15,4.8,4.8,4.8,4.8-2.15,4.8-4.8ZM4.8,8.4c-1.99,0-3.6-1.61-3.6-3.6s1.62-3.6,3.6-3.6c1.99,0,3.6,1.62,3.6,3.6s-1.62,3.6-3.6,3.6ZM19.14,15.31c1.96.04,3.54,1.63,3.54,3.6s-1.58,3.56-3.54,3.6c-1.96-.04-3.54-1.63-3.54-3.6s1.58-3.56,3.54-3.6ZM4.93,36.61c-1.99,0-3.6-1.61-3.6-3.6s1.62-3.6,3.6-3.6,3.6,1.62,3.6,3.6-1.62,3.6-3.6,3.6Z"/>
</svg>