<?xml version="1.0" encoding="UTF-8"?>
<svg id="Layer_1" xmlns="http://www.w3.org/2000/svg" viewBox="0 0 24 20.74">
  <defs>
    <style>
      .cls-1 {
        fill: #1d897a;
      }

      .cls-2 {
        fill: none;
      }
    </style>
  </defs>
  <path class="cls-2" d="M12,9.49c.58,0,1.05-.47,1.05-1.06s-.47-1.05-1.05-1.05-1.05.47-1.05,1.05.47,1.06,1.05,1.06Z"/>
  <path class="cls-2" d="M23.3.7H.7v2.11h22.59V.7ZM3.16,2.11h-1.05v-.7h1.05v.7ZM4.92,2.11h-1.05v-.7h1.05v.7ZM6.68,2.11h-1.05v-.7h1.05v.7ZM21.89,2.11h-5.98v-.7h5.98v.7Z"/>
  <polygon class="cls-2" points="11.39 16.88 10.88 18.63 13.12 18.63 12.61 16.88 11.39 16.88"/>
  <path class="cls-2" d="M.7,15.82c0,.19.16.35.35.35h21.89c.19,0,.35-.16.35-.35v-1.76H.7v1.76Z"/>
  <path class="cls-2" d="M8.48,8.97h.56l.07.26c.07.24.16.48.29.7l.13.23-.4.4.75.75.4-.4.23.13c.22.13.45.22.7.29l.26.07v.56h1.05v-.56l.26-.07c.24-.07.48-.16.7-.29l.23-.13.4.4.75-.75-.4-.4.13-.23c.13-.22.22-.45.29-.7l.07-.26h.56v-1.05h-.56l-.07-.26c-.07-.24-.16-.48-.29-.7l-.13-.23.4-.4-.75-.75-.4.4-.23-.13c-.22-.13-.45-.22-.7-.29l-.26-.07v-.56h-1.05v.56l-.26.07c-.24.07-.48.16-.7.29l-.23.13-.4-.4-.75.75.4.4-.13.23c-.13.22-.22.45-.29.7l-.07.26h-.56v1.05ZM12,6.68c.97,0,1.76.79,1.76,1.76s-.79,1.76-1.76,1.76-1.76-.79-1.76-1.76.79-1.76,1.76-1.76Z"/>
  <rect class="cls-1" x="2.11" y="1.41" width="1.05" height=".7"/>
  <rect class="cls-1" x="3.87" y="1.41" width="1.05" height=".7"/>
  <rect class="cls-1" x="5.62" y="1.41" width="1.05" height=".7"/>
  <rect class="cls-1" x="15.91" y="1.41" width="5.98" height=".7"/>
  <rect class="cls-1" x="21.89" y="5.63" width=".7" height=".7"/>
  <rect class="cls-1" x="21.89" y="4.22" width=".7" height=".7"/>
  <path class="cls-1" d="M12,10.2c.97,0,1.76-.79,1.76-1.76s-.79-1.76-1.76-1.76-1.76.79-1.76,1.76.79,1.76,1.76,1.76ZM12,7.38c.58,0,1.05.47,1.05,1.05s-.47,1.06-1.05,1.06-1.05-.47-1.05-1.06.47-1.05,1.05-1.05Z"/>
  <path class="cls-1" d="M7.78,7.21v2.46h.74c.04.12.09.24.15.36l-.52.52,1.74,1.74.52-.52c.12.06.24.11.36.15v.74h2.46v-.74c.12-.04.24-.09.36-.15l.52.52,1.74-1.74-.52-.52c.06-.12.11-.24.15-.36h.74v-2.46h-.74c-.04-.12-.09-.24-.15-.36l.52-.52-1.74-1.74-.52.52c-.12-.06-.24-.11-.36-.15v-.74h-2.46v.74c-.12.04-.24.09-.36.15l-.52-.52-1.74,1.74.52.52c-.06.12-.11.24-.15.36h-.74ZM9.05,7.91l.07-.26c.07-.24.16-.48.29-.7l.13-.23-.4-.4.75-.75.4.4.23-.13c.22-.13.45-.22.7-.29l.26-.07v-.56h1.05v.56l.26.07c.24.07.48.16.7.29l.23.13.4-.4.75.75-.4.4.13.23c.13.22.22.45.29.7l.07.26h.56v1.05h-.56l-.07.26c-.07.24-.16.48-.29.7l-.13.23.4.4-.75.75-.4-.4-.23.13c-.22.13-.45.22-.7.29l-.26.07v.56h-1.05v-.56l-.26-.07c-.24-.07-.48-.16-.7-.29l-.23-.13-.4.4-.75-.75.4-.4-.13-.23c-.13-.22-.22-.45-.29-.7l-.07-.26h-.56v-1.05h.56Z"/>
  <path class="cls-1" d="M0,4.92h.7v-1.41h22.59v9.84H.7v-7.74h-.7v10.2c0,.58.47,1.05,1.05,1.05h9.6l-.5,1.76h-4.13c-.58,0-1.06.47-1.06,1.05v1.05h11.25v-.7H5.67v-.35c0-.19.16-.35.35-.35h11.95c.19,0,.35.16.35.35v.35h-1.41v.7h2.11v-1.05c0-.58-.47-1.05-1.06-1.05h-4.13l-.5-1.76h9.6c.58,0,1.05-.47,1.05-1.05V0H0v4.92ZM10.88,18.63l.5-1.76h1.23l.5,1.76h-2.23ZM23.3,15.82c0,.19-.16.35-.35.35H1.05c-.19,0-.35-.16-.35-.35v-1.76h22.59v1.76ZM.7.7h22.59v2.11H.7V.7Z"/>
</svg>