<?xml version="1.0" encoding="UTF-8"?>
<svg id="Layer_1" xmlns="http://www.w3.org/2000/svg" viewBox="0 0 24 27.1">
  <defs>
    <style>
      .cls-1 {
        fill: #1d897a;
      }

      .cls-2 {
        fill: none;
      }
    </style>
  </defs>
  <circle class="cls-2" cx="12" cy="25.11" r="1.19" transform="translate(-14.17 34.58) rotate(-84.35)"/>
  <path class="cls-2" d="M12,14.34c.66,0,1.19-.53,1.19-1.19s-.53-1.19-1.19-1.19-1.19.53-1.19,1.19.53,1.19,1.19,1.19Z"/>
  <path class="cls-2" d="M1.39,8.8c.57.33,1.3.13,1.63-.44.33-.57.13-1.3-.44-1.63-.19-.11-.39-.16-.59-.16-.41,0-.81.21-1.03.6-.33.57-.13,1.3.44,1.63Z"/>
  <path class="cls-2" d="M1.98,18.14c-.2,0-.41.05-.59.16-.57.33-.77,1.06-.44,1.63.16.28.42.47.72.55.31.08.63.04.9-.12.28-.16.47-.42.55-.72.08-.31.04-.63-.12-.9-.22-.38-.62-.6-1.03-.6Z"/>
  <path class="cls-2" d="M22.61,8.8c.57-.33.76-1.06.44-1.63-.16-.28-.42-.47-.72-.56-.1-.03-.21-.04-.31-.04-.21,0-.41.05-.59.16-.57.33-.76,1.06-.44,1.63.33.57,1.06.76,1.63.44Z"/>
  <path class="cls-2" d="M22.61,18.3c-.57-.33-1.3-.13-1.63.44-.16.28-.2.6-.12.9.08.31.28.56.55.72.28.16.6.2.9.12.31-.08.56-.28.72-.55.33-.57.13-1.3-.44-1.63Z"/>
  <path class="cls-2" d="M12,3.18c.66,0,1.19-.53,1.19-1.19s-.53-1.19-1.19-1.19-1.19.53-1.19,1.19.53,1.19,1.19,1.19Z"/>
  <rect class="cls-1" x="12.79" y="9.58" width=".79" height=".79"/>
  <rect class="cls-1" x="14.38" y="10.37" width=".79" height=".79"/>
  <path class="cls-1" d="M10.01,1.98c0,1.09.89,1.98,1.98,1.98s1.98-.89,1.98-1.98-.89-1.98-1.98-1.98-1.98.89-1.98,1.98ZM12,.79c.66,0,1.19.53,1.19,1.19s-.53,1.19-1.19,1.19-1.19-.53-1.19-1.19.53-1.19,1.19-1.19Z"/>
  <path class="cls-1" d="M13.98,25.11c0-1.09-.89-1.98-1.98-1.98s-1.98.89-1.98,1.98.89,1.98,1.98,1.98,1.98-.89,1.98-1.98ZM12,26.31c-.66,0-1.19-.53-1.19-1.19s.53-1.19,1.19-1.19,1.19.53,1.19,1.19-.53,1.19-1.19,1.19Z"/>
  <path class="cls-1" d="M23.01,17.61c-.95-.55-2.16-.22-2.71.73-.27.46-.34.99-.2,1.51.14.51.46.94.92,1.21.31.18.65.27.99.27.17,0,.35-.02.52-.07.51-.14.94-.47,1.21-.93.55-.95.22-2.16-.73-2.71ZM23.05,19.93c-.16.28-.42.47-.72.55-.31.08-.63.04-.9-.12-.27-.16-.47-.42-.55-.72-.08-.31-.04-.63.12-.9.33-.57,1.06-.77,1.63-.44.57.33.76,1.06.44,1.63Z"/>
  <path class="cls-1" d="M.99,9.49c.31.18.65.27.99.27.17,0,.35-.02.52-.07.51-.14.94-.47,1.21-.93.55-.95.22-2.16-.73-2.71-.95-.55-2.16-.22-2.71.73-.55.95-.22,2.16.73,2.71ZM.95,7.17c.22-.38.62-.6,1.03-.6.2,0,.41.05.59.16.57.33.76,1.06.44,1.63-.33.57-1.06.76-1.63.44-.57-.33-.77-1.06-.44-1.63Z"/>
  <path class="cls-1" d="M22.02,9.75c.34,0,.68-.09.99-.27.95-.55,1.27-1.76.73-2.71-.27-.46-.69-.79-1.21-.92-.51-.14-1.05-.07-1.51.2-.95.55-1.27,1.76-.73,2.71.37.64,1.04.99,1.72.99ZM21.42,6.74c.18-.11.39-.16.59-.16.1,0,.21.01.31.04.31.08.56.28.72.56.33.57.13,1.3-.44,1.63-.57.33-1.3.13-1.63-.44-.33-.57-.13-1.3.44-1.63Z"/>
  <path class="cls-1" d="M2.5,17.42c-.51-.14-1.05-.07-1.51.2-.95.55-1.27,1.76-.73,2.71.26.46.69.79,1.21.93.17.05.34.07.52.07.34,0,.68-.09.99-.27.46-.27.79-.69.93-1.21.14-.51.07-1.05-.2-1.51-.27-.46-.69-.79-1.21-.92ZM3.13,19.64c-.08.31-.28.56-.55.72-.28.16-.6.2-.9.12-.31-.08-.56-.28-.72-.55-.33-.57-.13-1.3.44-1.63.19-.11.39-.16.59-.16.41,0,.81.21,1.03.6.16.28.2.6.12.9Z"/>
  <path class="cls-1" d="M19.41,8.81l-2.47,1.42c-1-1.49-2.65-2.5-4.55-2.63v-2.85h-.79v2.84c-.79.05-1.54.25-2.25.61l.35.71c.72-.36,1.49-.54,2.29-.54,2.85,0,5.16,2.32,5.16,5.16,0,1.82-.95,3.43-2.38,4.35v-.84h-.79v1.26c-.61.26-1.28.4-1.98.4s-1.37-.14-1.98-.4v-2.78c0-.22.18-.4.4-.4h3.18c.22,0,.4.18.4.4v.72h.79v-.72c0-.66-.53-1.19-1.19-1.19h0c.25-.33.4-.74.4-1.19,0-1.09-.89-1.98-1.98-1.98s-1.98.89-1.98,1.98c0,.45.15.86.4,1.19h0c-.66,0-1.19.53-1.19,1.19v2.36c-1.43-.92-2.38-2.52-2.38-4.35,0-1.69.83-3.27,2.21-4.24l-.45-.65c-.62.43-1.14.97-1.54,1.57l-2.46-1.42-.4.69,2.47,1.42c-.4.81-.61,1.7-.61,2.63s.22,1.83.61,2.63l-2.46,1.42.4.69,2.47-1.42c1,1.49,2.65,2.5,4.55,2.63v2.85h.79v-2.85c1.89-.13,3.55-1.14,4.55-2.63l2.46,1.42.4-.69-2.46-1.42c.39-.79.61-1.68.61-2.63s-.22-1.83-.61-2.63l2.46-1.42-.4-.69ZM12,11.96c.66,0,1.19.53,1.19,1.19s-.53,1.19-1.19,1.19-1.19-.53-1.19-1.19.53-1.19,1.19-1.19Z"/>
</svg>