<?xml version="1.0" encoding="UTF-8"?>
<svg id="Layer_1" xmlns="http://www.w3.org/2000/svg" viewBox="0 0 24 20.74">
  <defs>
    <style>
      .cls-1 {
        fill: #1d897a;
      }

      .cls-2 {
        fill: none;
      }
    </style>
  </defs>
  <g>
    <path class="cls-2" d="M4.42,11.88v1.48h3.52v-1.48c0-.19-.16-.35-.35-.35h-2.81c-.19,0-.35.16-.35.35Z"/>
    <path class="cls-2" d="M3.71,11.88c0-.58.47-1.05,1.06-1.05h0c-.22-.29-.35-.66-.35-1.05,0-.97.79-1.76,1.76-1.76s1.76.79,1.76,1.76c0,.39-.13.76-.35,1.05h0c.58,0,1.05.47,1.05,1.05v1.48h3.01v-5.98H.7v5.98h3.01v-1.48Z"/>
    <path class="cls-2" d="M7.23,9.77c0-.58-.47-1.05-1.05-1.05s-1.05.47-1.05,1.05.47,1.05,1.05,1.05,1.05-.47,1.05-1.05Z"/>
    <path class="cls-2" d="M7.93,5.27c0-.19-.16-.35-.35-.35h-2.81c-.19,0-.35.16-.35.35v1.41h3.52v-1.41Z"/>
    <path class="cls-2" d="M6.18,4.22c.58,0,1.05-.47,1.05-1.05s-.47-1.06-1.05-1.06-1.05.47-1.05,1.06.47,1.05,1.05,1.05Z"/>
    <path class="cls-2" d="M.7,15.82c0,.19.16.35.35.35h21.89c.19,0,.35-.16.35-.35v-1.76H.7v1.76Z"/>
    <polygon class="cls-2" points="11.39 16.88 10.88 18.63 13.12 18.63 12.61 16.88 11.39 16.88"/>
    <path class="cls-2" d="M16.07,11.88v1.48h3.52v-1.48c0-.19-.16-.35-.35-.35h-2.81c-.19,0-.35.16-.35.35Z"/>
    <path class="cls-2" d="M18.88,3.16c0-.58-.47-1.06-1.05-1.06s-1.05.47-1.05,1.06.47,1.05,1.05,1.05,1.05-.47,1.05-1.05Z"/>
    <path class="cls-2" d="M15.36,11.88c0-.58.47-1.05,1.05-1.05h0c-.22-.29-.35-.66-.35-1.05,0-.97.79-1.76,1.76-1.76s1.76.79,1.76,1.76c0,.39-.13.76-.35,1.05h0c.58,0,1.05.47,1.05,1.05v1.48h3.01v-5.98h-10.95v5.98h3.01v-1.48Z"/>
    <path class="cls-2" d="M18.88,9.77c0-.58-.47-1.05-1.05-1.05s-1.05.47-1.05,1.05.47,1.05,1.05,1.05,1.05-.47,1.05-1.05Z"/>
    <path class="cls-2" d="M16.07,5.27v1.41h3.52v-1.41c0-.19-.16-.35-.35-.35h-2.81c-.19,0-.35.16-.35.35Z"/>
    <path class="cls-2" d="M15.36,5.27c0-.58.47-1.05,1.05-1.05h0c-.22-.29-.35-.66-.35-1.05,0-.97.79-1.76,1.76-1.76s1.76.79,1.76,1.76c0,.39-.13.76-.35,1.05h0c.58,0,1.05.47,1.05,1.05v1.41h3.01V.7h-10.95v5.98h3.01v-1.41Z"/>
    <path class="cls-1" d="M0,2.11h.7V.7h10.95v5.98h-3.01v-1.41c0-.58-.47-1.05-1.05-1.05h0c.22-.29.35-.66.35-1.05,0-.97-.79-1.76-1.76-1.76s-1.76.79-1.76,1.76c0,.39.13.76.35,1.05h0c-.58,0-1.06.47-1.06,1.05v1.41H.7v-3.87h-.7v13.01c0,.58.47,1.05,1.05,1.05h9.6l-.5,1.76h-4.13c-.58,0-1.06.47-1.06,1.05v1.05h11.25v-.7H5.67v-.35c0-.19.16-.35.35-.35h11.95c.19,0,.35.16.35.35v.35h-1.41v.7h2.11v-1.05c0-.58-.47-1.05-1.05-1.05h-4.13l-.5-1.76h9.6c.58,0,1.05-.47,1.05-1.05V0H0v2.11ZM6.18,2.11c.58,0,1.05.47,1.05,1.06s-.47,1.05-1.05,1.05-1.05-.47-1.05-1.05.47-1.06,1.05-1.06ZM4.42,5.27c0-.19.16-.35.35-.35h2.81c.19,0,.35.16.35.35v1.41h-3.52v-1.41ZM.7,7.38h10.95v5.98h-3.01v-1.48c0-.58-.47-1.05-1.05-1.05h0c.22-.29.35-.66.35-1.05,0-.97-.79-1.76-1.76-1.76s-1.76.79-1.76,1.76c0,.39.13.76.35,1.05h0c-.58,0-1.06.47-1.06,1.05v1.48H.7v-5.98ZM7.58,11.53c.19,0,.35.16.35.35v1.48h-3.52v-1.48c0-.19.16-.35.35-.35h2.81ZM5.12,9.77c0-.58.47-1.05,1.05-1.05s1.05.47,1.05,1.05-.47,1.05-1.05,1.05-1.05-.47-1.05-1.05ZM10.88,18.63l.5-1.76h1.23l.5,1.76h-2.23ZM23.3,15.82c0,.19-.16.35-.35.35H1.05c-.19,0-.35-.16-.35-.35v-1.76h22.59v1.76ZM19.23,11.53c.19,0,.35.16.35.35v1.48h-3.52v-1.48c0-.19.16-.35.35-.35h2.81ZM16.77,9.77c0-.58.47-1.05,1.05-1.05s1.05.47,1.05,1.05-.47,1.05-1.05,1.05-1.05-.47-1.05-1.05ZM12.35.7h10.95v5.98h-3.01v-1.41c0-.58-.47-1.05-1.05-1.05h0c.22-.29.35-.66.35-1.05,0-.97-.79-1.76-1.76-1.76s-1.76.79-1.76,1.76c0,.39.13.76.35,1.05h0c-.58,0-1.05.47-1.05,1.05v1.41h-3.01V.7ZM19.23,4.92c.19,0,.35.16.35.35v1.41h-3.52v-1.41c0-.19.16-.35.35-.35h2.81ZM16.77,3.16c0-.58.47-1.06,1.05-1.06s1.05.47,1.05,1.06-.47,1.05-1.05,1.05-1.05-.47-1.05-1.05ZM12.35,7.38h10.95v5.98h-3.01v-1.48c0-.58-.47-1.05-1.05-1.05h0c.22-.29.35-.66.35-1.05,0-.97-.79-1.76-1.76-1.76s-1.76.79-1.76,1.76c0,.39.13.76.35,1.05h0c-.58,0-1.05.47-1.05,1.05v1.48h-3.01v-5.98Z"/>
  </g>
  <path class="cls-1" d="M21.89,1.41h.7v.7h-.7v-.7Z"/>
  <path class="cls-1" d="M21.89,2.81h.7v.7h-.7v-.7Z"/>
</svg>