<?xml version="1.0" encoding="UTF-8"?>
<svg id="Layer_1" xmlns="http://www.w3.org/2000/svg" viewBox="0 0 24 29.32">
  <defs>
    <style>
      .cls-1 {
        fill: #1d897a;
      }

      .cls-2 {
        fill: none;
      }
    </style>
  </defs>
  <path class="cls-2" d="M8.23,7.73h3.34V.91c-.8.18-1.56.87-2.17,1.99-.71,1.3-1.12,3-1.17,4.83Z"/>
  <path class="cls-2" d="M7.37,8.59h-2.66c.17,2.94,2.09,5.42,4.73,6.41-.29-.33-.56-.72-.8-1.17-.77-1.42-1.22-3.27-1.28-5.24Z"/>
  <path class="cls-2" d="M8.65,2.49c.24-.45.51-.84.8-1.17-2.64.99-4.56,3.47-4.73,6.41h2.66c.06-1.97.51-3.82,1.28-5.24Z"/>
  <path class="cls-2" d="M14.6,2.9c-.61-1.12-1.37-1.81-2.17-1.99v6.82h3.34c-.06-1.83-.47-3.53-1.17-4.83ZM14.15,6.38h-.86v-.86h.86v.86ZM14.15,4.66h-.86v-.86h.86v.86Z"/>
  <path class="cls-2" d="M19.29,8.59h-2.66c-.06,1.97-.51,3.82-1.28,5.24-.24.45-.51.84-.8,1.17,2.64-.99,4.56-3.47,4.73-6.41Z"/>
  <path class="cls-2" d="M11.57,15.41v-6.82h-3.34c.06,1.83.47,3.53,1.17,4.83.61,1.12,1.37,1.81,2.17,1.99Z"/>
  <path class="cls-2" d="M12.43,8.59v6.82c.8-.18,1.56-.87,2.17-1.99.71-1.3,1.12-3,1.17-4.83h-3.34Z"/>
  <path class="cls-2" d="M12,16.32c-4.5,0-8.16-3.66-8.16-8.16,0-.62.07-1.22.2-1.81l-1.47.65v10.73c0,1.69.86,3.22,2.62,4.68,1.58,1.3,3.59,2.32,5.38,3.22.5.25.98.5,1.42.73.48-.26.99-.52,1.53-.79,3.52-1.79,7.9-4.02,7.9-7.84V7l-1.47-.65c.13.58.2,1.19.2,1.81,0,4.5-3.66,8.16-8.16,8.16ZM8.54,22.2h-.76l-1.32-3.83.81-.28.88,2.55.84-2.54.82.27-1.27,3.83ZM12.12,20.81h-.46v1.39h-.86v-4.04h1.31c.74,0,1.34.6,1.34,1.33s-.6,1.33-1.34,1.33ZM17.42,22.15h-.81l-1.44-2.29v2.34h-.86v-4.03h.81l1.44,2.29v-2.29h.86v3.99Z"/>
  <path class="cls-2" d="M14.56,1.32c.29.33.55.72.8,1.17.77,1.42,1.22,3.27,1.28,5.24h2.66c-.17-2.94-2.09-5.42-4.73-6.41Z"/>
  <path class="cls-2" d="M12.12,19.02h-.46v.94h.45c.27,0,.49-.22.49-.47s-.22-.47-.49-.47Z"/>
  <path class="cls-1" d="M14.62,27.91c1.55-.8,3.15-1.62,4.62-2.63l-.48-.71c-1.43.98-3,1.79-4.53,2.58-.79.41-1.54.79-2.23,1.18-.69-.39-1.44-.78-2.23-1.18-2.02-1.04-4.32-2.23-6.05-3.74-1.93-1.69-2.87-3.54-2.87-5.67v-9.11h-.86v9.11c0,5.34,5.2,8.02,9.38,10.18.86.45,1.68.87,2.4,1.29l.22.12.21-.12c.73-.42,1.54-.84,2.4-1.29Z"/>
  <path class="cls-1" d="M12,0c-2.4,0-4.57,1.04-6.06,2.7L0,5.34v2.43h.86v-1.87l4.07-1.81c-.22.37-.4.77-.56,1.18l-2.65,1.17v11.29c0,1.96.96,3.71,2.93,5.34,1.65,1.36,3.71,2.41,5.53,3.33.58.29,1.12.57,1.61.83l.21.11.2-.11c.52-.28,1.1-.58,1.71-.89,1.81-.92,3.87-1.97,5.49-3.32,1.94-1.61,2.88-3.34,2.88-5.29V6.44l-2.65-1.17c-.16-.41-.34-.8-.56-1.18l4.07,1.81v11.83c0,2.42-1.17,4.43-3.68,6.33l.52.69c2.71-2.04,4.02-4.34,4.02-7.02V5.34l-5.94-2.64c-1.49-1.66-3.66-2.7-6.06-2.7ZM12.43.91c.8.18,1.56.87,2.17,1.99.71,1.3,1.12,3,1.17,4.83h-3.34V.91ZM15.35,13.83c.77-1.42,1.22-3.27,1.28-5.24h2.66c-.17,2.94-2.09,5.42-4.73,6.41.29-.33.55-.72.8-1.17ZM12.43,15.41v-6.82h3.34c-.06,1.83-.47,3.53-1.17,4.83-.61,1.12-1.37,1.81-2.17,1.99ZM9.4,13.42c-.71-1.3-1.12-3-1.17-4.83h3.34v6.82c-.8-.18-1.56-.87-2.17-1.99ZM9.44,15c-2.64-.99-4.56-3.47-4.73-6.41h2.66c.06,1.97.51,3.82,1.28,5.24.24.45.51.84.8,1.17ZM11.57.91v6.82h-3.34c.06-1.83.47-3.53,1.17-4.83.61-1.12,1.37-1.81,2.17-1.99ZM9.44,1.32c-.29.33-.56.72-.8,1.17-.77,1.42-1.22,3.27-1.28,5.24h-2.66c.17-2.94,2.09-5.42,4.73-6.41ZM19.96,6.35l1.47.65v10.73c0,3.82-4.38,6.05-7.9,7.84-.54.27-1.05.54-1.53.79-.44-.24-.92-.48-1.42-.73-1.78-.9-3.8-1.92-5.38-3.22-1.76-1.46-2.62-2.99-2.62-4.68V7l1.47-.65c-.13.58-.2,1.19-.2,1.81,0,4.5,3.66,8.16,8.16,8.16s8.16-3.66,8.16-8.16c0-.62-.07-1.22-.2-1.81ZM19.29,7.73h-2.66c-.06-1.97-.51-3.82-1.28-5.24-.24-.45-.51-.84-.8-1.17,2.64.99,4.56,3.47,4.73,6.41Z"/>
  <polygon class="cls-1" points="16.56 20.45 15.13 18.16 14.32 18.16 14.32 22.2 15.18 22.2 15.18 19.86 16.62 22.15 17.42 22.15 17.42 18.16 16.56 18.16 16.56 20.45"/>
  <polygon class="cls-1" points="8.15 20.64 7.27 18.09 6.46 18.37 7.78 22.2 8.54 22.2 9.81 18.37 9 18.1 8.15 20.64"/>
  <path class="cls-1" d="M12.12,18.16h-1.31v4.04h.86v-1.38h.46c.74,0,1.34-.6,1.34-1.33s-.6-1.33-1.34-1.33ZM12.12,19.95h-.45s0-.94,0-.94h.46c.26,0,.49.21.49.47s-.22.47-.49.47Z"/>
  <rect class="cls-1" x="13.29" y="3.8" width=".86" height=".86"/>
  <rect class="cls-1" x="13.29" y="5.52" width=".86" height=".86"/>
</svg>