<?xml version="1.0" encoding="UTF-8"?>
<svg id="Layer_1" xmlns="http://www.w3.org/2000/svg" viewBox="0 0 24 24">
  <defs>
    <style>
      .cls-1 {
        fill: #1d897a;
      }

      .cls-2 {
        fill: none;
      }
    </style>
  </defs>
  <path class="cls-2" d="M8.21,12.35h-2.17c.14,2.41,1.71,4.44,3.87,5.25-.24-.27-.45-.59-.65-.96-.63-1.16-1-2.67-1.05-4.29Z"/>
  <path class="cls-2" d="M9.87,16.31c.5.92,1.12,1.48,1.78,1.63v-5.58h-2.74c.05,1.5.38,2.89.96,3.95Z"/>
  <rect class="cls-2" x=".7" y="18.38" width="5.62" height="3.52"/>
  <rect class="cls-2" x=".7" y=".7" width="5.62" height="3.52"/>
  <rect class="cls-2" x="3.16" y="22.59" width=".7" height=".7"/>
  <rect class="cls-2" x="3.16" y="4.92" width=".7" height=".7"/>
  <rect class="cls-2" x="20.13" y="4.92" width=".7" height=".7"/>
  <rect class="cls-2" x="17.67" y=".7" width="5.62" height="3.52"/>
  <path class="cls-2" d="M15.79,11.65h2.17c-.14-2.41-1.71-4.44-3.87-5.25.24.27.45.59.65.96.63,1.16,1,2.67,1.05,4.29Z"/>
  <path class="cls-2" d="M9.87,7.69c-.58,1.06-.92,2.46-.96,3.96h2.74v-5.59c-.66.15-1.28.72-1.78,1.63Z"/>
  <rect class="cls-2" x="20.13" y="22.59" width=".7" height=".7"/>
  <path class="cls-2" d="M14.13,7.69c-.5-.91-1.12-1.48-1.78-1.63v5.59h2.74c-.05-1.5-.38-2.89-.96-3.96ZM13.76,10.59h-.7v-.7h.7v.7ZM13.76,9.19h-.7v-.7h.7v.7Z"/>
  <path class="cls-2" d="M14.75,16.64c-.2.37-.42.68-.65.96,2.16-.81,3.73-2.84,3.87-5.25h-2.17c-.05,1.62-.41,3.13-1.05,4.29Z"/>
  <path class="cls-2" d="M15.09,12.35h-2.74v5.58c.66-.15,1.28-.71,1.78-1.63.58-1.06.91-2.46.96-3.95Z"/>
  <path class="cls-1" d="M4.57,23.3v-.7h2.46v-4.92H0v4.92h2.46v.7h-.7v.7h3.52v-.7h-.7ZM.7,21.89v-3.52h5.62v3.52H.7ZM3.87,23.3h-.7v-.7h.7v.7Z"/>
  <path class="cls-1" d="M21.54,23.3v-.7h2.46v-2.11h-.7v1.41h-5.62v-3.52h5.62v1.41h.7v-2.11h-7.03v4.92h2.46v.7h-.7v.7h3.51v-.7h-.7ZM20.84,23.3h-.7v-.7h.7v.7Z"/>
  <path class="cls-1" d="M19.43,4.92v.7h-.7v.7h3.51v-.7h-.7v-.7h2.46V0h-7.03v4.92h2.46ZM20.84,5.62h-.7v-.7h.7v.7ZM17.67.7h5.62v3.52h-5.62V.7Z"/>
  <path class="cls-1" d="M2.46,4.92v.7h-.7v.7h3.52v-.7h-.7v-.7h2.46V0H0v4.92h2.46ZM3.87,5.62h-.7v-.7h.7v.7ZM.7.7h5.62v3.52H.7V.7Z"/>
  <path class="cls-1" d="M12,5.32c-1.64,0-3.22.6-4.44,1.69l.47.52c.56-.5,1.2-.88,1.88-1.14-.24.27-.45.59-.65.96-.63,1.16-1,2.67-1.05,4.29h-2.17c.08-1.34.61-2.62,1.5-3.62l-.52-.47c-1.09,1.23-1.69,2.8-1.69,4.44,0,3.68,3,6.68,6.68,6.68s6.68-3,6.68-6.68-3-6.68-6.68-6.68ZM6.03,12.35h2.17c.05,1.62.41,3.13,1.05,4.29.2.37.42.68.65.96-2.16-.81-3.73-2.84-3.87-5.25ZM11.65,17.94c-.66-.15-1.28-.71-1.78-1.63-.58-1.06-.91-2.46-.96-3.95h2.74v5.58ZM11.65,11.65h-2.74c.05-1.5.38-2.89.96-3.96.5-.91,1.12-1.48,1.78-1.63v5.59ZM17.97,11.65h-2.17c-.05-1.62-.41-3.13-1.05-4.29-.2-.37-.42-.68-.65-.96,2.16.81,3.73,2.84,3.87,5.25ZM12.35,6.06c.66.15,1.28.72,1.78,1.63.58,1.06.91,2.46.96,3.96h-2.74v-5.59ZM12.35,17.94v-5.58h2.74c-.05,1.5-.38,2.89-.96,3.95-.5.92-1.12,1.48-1.78,1.63ZM14.09,17.6c.24-.27.45-.59.65-.96.63-1.16,1-2.67,1.05-4.29h2.17c-.14,2.41-1.71,4.44-3.87,5.25Z"/>
  <rect class="cls-1" x="7.73" y="2.11" width="8.53" height=".7"/>
  <rect class="cls-1" x="20.13" y="7.03" width=".7" height="9.94"/>
  <rect class="cls-1" x="3.16" y="7.03" width=".7" height="9.94"/>
  <rect class="cls-1" x="7.73" y="19.78" width="8.53" height=".7"/>
  <rect class="cls-1" x="13.05" y="8.48" width=".7" height=".7"/>
  <rect class="cls-1" x="13.05" y="9.89" width=".7" height=".7"/>
</svg>