<?xml version="1.0" encoding="UTF-8"?>
<svg id="Layer_1" xmlns="http://www.w3.org/2000/svg" viewBox="0 0 24 23.2">
  <defs>
    <style>
      .cls-1 {
        fill: #1d897a;
      }

      .cls-2 {
        fill: none;
      }
    </style>
  </defs>
  <rect class="cls-2" x=".7" y="17.58" width="5.63" height="3.51"/>
  <rect class="cls-2" x="3.16" y="21.8" width=".7" height=".7"/>
  <rect class="cls-2" x="20.13" y="21.8" width=".7" height=".7"/>
  <path class="cls-2" d="M20.48,1.76c0-.19-.16-.35-.35-.35h-7.97l.7.7h7.27c.12,0,.24.02.35.06v-.41Z"/>
  <rect class="cls-2" x="11.65" y="21.8" width=".7" height=".7"/>
  <rect class="cls-2" x="9.19" y="17.58" width="5.63" height="3.51"/>
  <path class="cls-1" d="M3.87,12.66h16.27c.58,0,1.05-.47,1.05-1.05V1.76c0-.58-.47-1.05-1.05-1.05h-8.67l-.7-.7H3.87c-.58,0-1.05.47-1.05,1.05v1.76h.7v-1.76c0-.19.16-.35.35-.35h6.6l2.11,2.11h7.56c.19,0,.35.16.35.35v8.44c0,.19-.16.35-.35.35H3.87c-.19,0-.35-.16-.35-.35V3.52h-.7v8.09c0,.58.47,1.05,1.05,1.05ZM20.13,2.11h-7.27l-.7-.7h7.97c.19,0,.35.16.35.35v.41c-.11-.04-.23-.06-.35-.06Z"/>
  <path class="cls-1" d="M16.97,21.8h2.46v.7h-.7v.7h3.52v-.7h-.7v-.7h2.46v-2.11h-.7v1.41h-5.63v-3.51h5.63v1.41h.7v-2.11h-7.03v4.92ZM20.13,21.8h.7v.7h-.7v-.7Z"/>
  <path class="cls-1" d="M0,21.8h2.46v.7h-.7v.7h3.51v-.7h-.7v-.7h2.46v-4.92H0v4.92ZM3.87,22.5h-.7v-.7h.7v.7ZM6.33,17.58v3.51H.7v-3.51h5.63Z"/>
  <path class="cls-1" d="M8.48,21.8h2.46v.7h-.7v.7h3.52v-.7h-.7v-.7h2.46v-4.92h-7.03v4.92ZM12.35,22.5h-.7v-.7h.7v.7ZM9.19,17.58h5.63v3.51h-5.63v-3.51Z"/>
  <polygon class="cls-1" points="12.35 16.17 12.35 15.47 20.13 15.47 20.13 16.17 20.84 16.17 20.84 14.77 12.35 14.77 12.35 13.36 11.65 13.36 11.65 14.77 3.16 14.77 3.16 16.17 3.87 16.17 3.87 15.47 11.65 15.47 11.65 16.17 12.35 16.17"/>
  <rect class="cls-1" x="19.08" y="3.52" width=".7" height=".7"/>
  <rect class="cls-1" x="17.67" y="3.52" width=".7" height=".7"/>
</svg>