<?xml version="1.0" encoding="UTF-8"?>
<svg id="Layer_1" xmlns="http://www.w3.org/2000/svg" viewBox="0 0 24 24">
  <defs>
    <style>
      .cls-1 {
        fill: #1d897a;
      }

      .cls-2 {
        fill: none;
      }
    </style>
  </defs>
  <path class="cls-2" d="M2.46,11.65c.58,0,1.05-.47,1.05-1.05s-.47-1.05-1.05-1.05-1.05.47-1.05,1.05.47,1.05,1.05,1.05Z"/>
  <path class="cls-2" d="M21.54,11.65c.58,0,1.05-.47,1.05-1.05s-.47-1.05-1.05-1.05-1.05.47-1.05,1.05.47,1.05,1.05,1.05Z"/>
  <path class="cls-2" d="M12,2.81c.58,0,1.05-.47,1.05-1.05s-.47-1.05-1.05-1.05-1.05.47-1.05,1.05.47,1.05,1.05,1.05Z"/>
  <rect class="cls-2" x="11.65" y="13.76" width=".7" height=".7"/>
  <path class="cls-2" d="M22.95,12.35h-2.81c-.19,0-.35.16-.35.35v1.76h3.52v-1.76c0-.19-.16-.35-.35-.35Z"/>
  <path class="cls-2" d="M10.24,3.87v1.76h3.52v-1.76c0-.19-.16-.35-.35-.35h-2.81c-.19,0-.35.16-.35.35Z"/>
  <path class="cls-2" d="M.7,12.7v1.76h3.52v-1.76c0-.19-.16-.35-.35-.35H1.05c-.19,0-.35.16-.35.35Z"/>
  <circle class="cls-2" cx="12" cy="19.43" r="1.05"/>
  <path class="cls-1" d="M15.51,13.76v-4.92h-7.03v2.11h.7v-1.41h5.62v3.51h-5.62v-1.41h-.7v2.11h2.46v.7h-.7v.7h3.52v-.7h-.7v-.7h2.46ZM12.35,14.46h-.7v-.7h.7v.7Z"/>
  <path class="cls-1" d="M13.41,20.48h0c.22-.29.35-.66.35-1.05,0-.97-.79-1.76-1.76-1.76s-1.76.79-1.76,1.76c0,.4.13.76.35,1.05h0c-.58,0-1.05.47-1.05,1.06v2.46h2.11v-.7h-1.41v-1.76c0-.19.16-.35.35-.35h2.81c.19,0,.35.16.35.35v1.76h-1.41v.7h2.11v-2.46c0-.58-.47-1.06-1.05-1.06ZM12,20.48c-.58,0-1.05-.47-1.05-1.05s.47-1.05,1.05-1.05,1.05.47,1.05,1.05-.47,1.05-1.05,1.05Z"/>
  <path class="cls-1" d="M22.95,11.65h0c.22-.29.35-.66.35-1.05,0-.97-.79-1.76-1.76-1.76s-1.76.79-1.76,1.76c0,.39.13.76.35,1.05-.58,0-1.06.47-1.06,1.05v2.46h4.92v-2.46c0-.58-.47-1.05-1.05-1.05ZM21.54,9.54c.58,0,1.05.47,1.05,1.05s-.47,1.05-1.05,1.05-1.05-.47-1.05-1.05.47-1.05,1.05-1.05ZM23.3,14.46h-3.52v-1.76c0-.19.16-.35.35-.35h2.81c.19,0,.35.16.35.35v1.76Z"/>
  <path class="cls-1" d="M10.24,1.76c0,.4.13.76.35,1.05h0c-.58,0-1.05.47-1.05,1.05v2.46h4.92v-2.46c0-.58-.47-1.05-1.05-1.05h0c.22-.29.35-.66.35-1.05,0-.97-.79-1.76-1.76-1.76s-1.76.79-1.76,1.76ZM13.41,3.52c.19,0,.35.16.35.35v1.76h-3.52v-1.76c0-.19.16-.35.35-.35h2.81ZM12,.7c.58,0,1.05.47,1.05,1.05s-.47,1.05-1.05,1.05-1.05-.47-1.05-1.05.47-1.05,1.05-1.05Z"/>
  <path class="cls-1" d="M0,12.7v2.46h4.92v-2.46c0-.58-.47-1.05-1.05-1.05h0c.22-.29.35-.66.35-1.05,0-.97-.79-1.76-1.76-1.76s-1.76.79-1.76,1.76c0,.39.13.76.35,1.05h0C.47,11.65,0,12.12,0,12.7ZM2.46,9.54c.58,0,1.05.47,1.05,1.05s-.47,1.05-1.05,1.05-1.05-.47-1.05-1.05.47-1.05,1.05-1.05ZM3.87,12.35c.19,0,.35.16.35.35v1.76H.7v-1.76c0-.19.16-.35.35-.35h2.81Z"/>
  <path class="cls-1" d="M20.61,8l.64-.3c-1.17-2.52-3.36-4.48-5.99-5.37l-.22.67c2.45.82,4.49,2.64,5.58,5Z"/>
  <path class="cls-1" d="M18.44,18.97c-.9.83-1.93,1.47-3.08,1.91l.25.66c1.23-.46,2.34-1.15,3.3-2.05.96-.89,1.74-1.94,2.3-3.12l-.63-.3c-.52,1.1-1.24,2.08-2.14,2.9Z"/>
  <path class="cls-1" d="M3.42,16.07l-.63.3c.56,1.18,1.33,2.23,2.3,3.12.97.89,2.08,1.58,3.3,2.05l.25-.66c-1.14-.43-2.17-1.07-3.08-1.91-.9-.83-1.62-1.81-2.14-2.9Z"/>
  <path class="cls-1" d="M8.97,3l-.22-.67c-2.63.89-4.82,2.84-5.99,5.37l.64.3c1.1-2.35,3.13-4.17,5.58-5Z"/>
  <rect class="cls-1" x="13.41" y="10.24" width=".7" height=".7"/>
  <rect class="cls-1" x="12" y="10.24" width=".7" height=".7"/>
</svg>