<?xml version="1.0" encoding="UTF-8"?>
<svg id="Layer_1" xmlns="http://www.w3.org/2000/svg" viewBox="0 0 24 20.74">
  <defs>
    <style>
      .cls-1 {
        fill: #1d897a;
      }

      .cls-2 {
        fill: none;
      }
    </style>
  </defs>
  <path class="cls-2" d="M23.3.7H.7v2.11h22.59V.7ZM3.16,2.11h-1.06v-.7h1.06v.7ZM4.92,2.11h-1.05v-.7h1.05v.7ZM6.68,2.11h-1.05v-.7h1.05v.7ZM21.89,2.11h-5.98v-.7h5.98v.7Z"/>
  <path class="cls-2" d="M.7,15.82c0,.19.16.35.35.35h21.89c.19,0,.35-.16.35-.35v-1.76H.7v1.76Z"/>
  <polygon class="cls-2" points="18.63 9.87 17.31 9.6 17.57 10.93 17.85 10.64 18.85 11.64 19.34 11.14 18.35 10.15 18.63 9.87"/>
  <polygon class="cls-2" points="11.39 16.88 10.88 18.63 13.12 18.63 12.61 16.88 11.39 16.88"/>
  <path class="cls-1" d="M0,4.92h.7v-1.41h22.59v9.84H.7v-7.73h-.7v10.2c0,.58.47,1.05,1.05,1.05h9.6l-.5,1.76h-4.13c-.58,0-1.05.47-1.05,1.05v1.05h11.25v-.7H5.67v-.35c0-.19.16-.35.35-.35h11.95c.19,0,.35.16.35.35v.35h-1.41v.7h2.11v-1.05c0-.58-.47-1.05-1.05-1.05h-4.13l-.5-1.76h9.6c.58,0,1.05-.47,1.05-1.05V0H0v4.92ZM10.88,18.63l.5-1.76h1.23l.5,1.76h-2.23ZM23.3,15.82c0,.19-.16.35-.35.35H1.05c-.19,0-.35-.16-.35-.35v-1.76h22.59v1.76ZM.7.7h22.59v2.11H.7V.7Z"/>
  <rect class="cls-1" x="3.87" y="1.41" width="1.05" height=".7"/>
  <rect class="cls-1" x="2.11" y="1.41" width="1.06" height=".7"/>
  <rect class="cls-1" x="5.62" y="1.41" width="1.05" height=".7"/>
  <rect class="cls-1" x="15.91" y="1.41" width="5.98" height=".7"/>
  <polygon class="cls-1" points="5.37 8.45 5.78 9.89 6.43 9.88 6.99 7.07 6.3 6.93 6.04 8.24 5.68 7 5.06 7 4.7 8.24 4.44 6.92 3.75 7.06 4.31 9.89 4.96 9.88 5.37 8.45"/>
  <polygon class="cls-1" points="9.3 8.45 9.72 9.89 10.37 9.88 10.93 7.07 10.24 6.93 9.98 8.24 9.62 7 8.99 7 8.63 8.24 8.37 6.92 7.68 7.06 8.24 9.89 8.89 9.88 9.3 8.45"/>
  <polygon class="cls-1" points="13.24 8.45 13.65 9.89 14.3 9.88 14.86 7.07 14.17 6.93 13.91 8.24 13.56 7 12.93 7 12.57 8.24 12.31 6.92 11.62 7.06 12.18 9.89 12.83 9.88 13.24 8.45"/>
  <rect class="cls-1" x="15.07" y="9.18" width=".7" height=".7"/>
  <path class="cls-1" d="M16.41,8.7l.73,3.65.71-.71,1,.99,1.49-1.49-.99-1,.71-.71-3.65-.73ZM18.85,11.64l-.99-.99-.28.28-.26-1.32,1.32.26-.28.28,1,1-.5.5Z"/>
  <rect class="cls-1" x="21.89" y="5.62" width=".7" height=".7"/>
  <rect class="cls-1" x="21.89" y="4.22" width=".7" height=".7"/>
</svg>