<?xml version="1.0" encoding="UTF-8"?>
<svg id="Layer_1" xmlns="http://www.w3.org/2000/svg" viewBox="0 0 24 22.43">
  <defs>
    <style>
      .cls-1 {
        fill: #1d897a;
      }

      .cls-2 {
        fill: none;
      }
    </style>
  </defs>
  <path class="cls-2" d="M12,11.58c1.29,0,2.37.96,2.54,2.21h.71c-.18-1.63-1.56-2.91-3.25-2.91-1.8,0-3.26,1.46-3.26,3.26v1.05h.7v-1.05c0-1.41,1.15-2.56,2.56-2.56Z"/>
  <path class="cls-2" d="M12,17.76c-.58,0-1.05.47-1.05,1.05s.47,1.05,1.05,1.05,1.05-.47,1.05-1.05-.47-1.05-1.05-1.05Z"/>
  <path class="cls-1" d="M10.14,14.14c0-1.02.83-1.86,1.86-1.86s1.86.83,1.86,1.86v.35h2.11v-.35c0-2.19-1.78-3.97-3.97-3.97s-3.97,1.78-3.97,3.97v1.05h-.7v6.18c0,.58.47,1.05,1.05,1.05h4.77v-.7h-4.77c-.19,0-.35-.16-.35-.35v-5.47h7.93v5.47c0,.19-.16.35-.35.35h-1.76v.7h1.76c.58,0,1.05-.47,1.05-1.05v-6.18h-6.53v-1.05ZM9.44,15.2h-.7v-1.05c0-1.8,1.46-3.26,3.26-3.26,1.68,0,3.07,1.28,3.25,2.91h-.71c-.17-1.25-1.24-2.21-2.54-2.21-1.41,0-2.56,1.15-2.56,2.56v1.05Z"/>
  <path class="cls-1" d="M12,17.06c-.97,0-1.76.79-1.76,1.76s.79,1.76,1.76,1.76,1.76-.79,1.76-1.76-.79-1.76-1.76-1.76ZM12,19.87c-.58,0-1.05-.47-1.05-1.05s.47-1.05,1.05-1.05,1.05.47,1.05,1.05-.47,1.05-1.05,1.05Z"/>
  <polygon class="cls-1" points="3.79 5.16 4.35 4.6 4.91 5.16 5.41 4.66 4.85 4.1 5.41 3.54 4.91 3.04 4.35 3.6 3.79 3.04 3.29 3.54 3.85 4.1 3.29 4.66 3.79 5.16"/>
  <polygon class="cls-1" points="16.03 5.16 16.59 4.6 17.15 5.16 17.65 4.66 17.09 4.1 17.65 3.54 17.15 3.04 16.59 3.6 16.03 3.04 15.53 3.54 16.09 4.1 15.53 4.66 16.03 5.16"/>
  <polygon class="cls-1" points="19.09 5.16 19.65 4.6 20.22 5.16 20.71 4.66 20.15 4.1 20.71 3.54 20.22 3.04 19.65 3.6 19.09 3.04 18.59 3.54 19.15 4.1 18.59 4.66 19.09 5.16"/>
  <polygon class="cls-1" points="12.97 5.16 13.53 4.6 14.09 5.16 14.59 4.66 14.03 4.1 14.59 3.54 14.09 3.04 13.53 3.6 12.97 3.04 12.47 3.54 13.03 4.1 12.47 4.66 12.97 5.16"/>
  <polygon class="cls-1" points="9.91 5.16 10.47 4.6 11.03 5.16 11.53 4.66 10.97 4.1 11.53 3.54 11.03 3.04 10.47 3.6 9.91 3.04 9.41 3.54 9.97 4.1 9.41 4.66 9.91 5.16"/>
  <polygon class="cls-1" points="6.85 5.16 7.41 4.6 7.97 5.16 8.47 4.66 7.91 4.1 8.47 3.54 7.97 3.04 7.41 3.6 6.85 3.04 6.35 3.54 6.91 4.1 6.35 4.66 6.85 5.16"/>
  <path class="cls-1" d="M20.13,0H3.87c-.88,0-1.75.31-2.43.87l.44.55c.56-.46,1.27-.71,1.99-.71h16.27c1.75,0,3.16,1.42,3.16,3.16s-1.42,3.16-3.16,3.16h-6.79l-1.35,1.35-1.35-1.35H3.87c-1.74,0-3.16-1.42-3.16-3.16,0-.72.25-1.43.71-1.99l-.55-.44C.31,2.12,0,2.98,0,3.87h0c0,2.13,1.74,3.87,3.87,3.87h6.5l1.64,1.64,1.64-1.64h6.5c2.13,0,3.87-1.73,3.87-3.87s-1.74-3.87-3.87-3.87Z"/>
  <rect class="cls-1" x="21.19" y="2.11" width=".7" height=".7"/>
  <rect class="cls-1" x="19.78" y="1.41" width=".7" height=".7"/>
  <rect class="cls-1" x="14.56" y="16.6" width=".7" height=".7"/>
  <rect class="cls-1" x="14.56" y="18.01" width=".7" height=".7"/>
</svg>