<?xml version="1.0" encoding="UTF-8"?>
<svg id="Layer_1" xmlns="http://www.w3.org/2000/svg" viewBox="0 0 24 13.28">
  <defs>
    <style>
      .cls-1 {
        fill: #1d897a;
      }
    </style>
  </defs>
  <path class="cls-1" d="M2.59,1.84c-.3-.18-.68-.32-1.1-.28-.11.01-.19.04-.27.07l.15-.96h1.85V0H.71l-.34,2.45.18-.07c.17-.02.37-.07.62-.07.84,0,1.28.32,1.29.95,0,.62-.52.94-1.04.94-.41,0-.78-.14-.98-.26l-.12-.07-.23.71.07.04c.24.15.69.32,1.27.32,1.11,0,1.91-.74,1.91-1.77,0-.58-.27-1.07-.75-1.34Z"/>
  <path class="cls-1" d="M3.69,2.5c0,.73.25,1.39.68,1.8.45.43,1.04.64,1.81.64.61,0,1.09-.14,1.43-.26l.04-.03v-2.37h-1.74v.67h.94v1.19c-.13.05-.37.09-.65.09-1.04,0-1.66-.67-1.66-1.76s.68-1.75,1.76-1.75c.49,0,.78.1.98.19l.12.05.21-.69-.08-.04c-.22-.11-.66-.22-1.2-.22-1.56,0-2.61,1-2.61,2.5Z"/>
  <polygon class="cls-1" points="21.32 13.28 24 13.28 24 .96 21.32 1.71 21.32 13.28"/>
  <polygon class="cls-1" points="16.09 13.28 18.64 13.28 18.64 2.45 16.09 3.19 16.09 13.28"/>
  <polygon class="cls-1" points="10.73 13.28 13.41 13.28 13.41 3.93 10.73 4.68 10.73 13.28"/>
  <polygon class="cls-1" points="5.5 13.28 8.04 13.28 8.04 5.42 5.5 6.16 5.5 13.28"/>
  <polygon class="cls-1" points="0 13.28 2.82 13.28 2.82 6.91 0 7.65 0 13.28"/>
</svg>