<?xml version="1.0" encoding="UTF-8"?>
<svg id="Layer_1" xmlns="http://www.w3.org/2000/svg" viewBox="0 0 24 16.88">
  <defs>
    <style>
      .cls-1 {
        fill: #1d897a;
      }

      .cls-2 {
        fill: none;
      }
    </style>
  </defs>
  <path class="cls-2" d="M14.01,10.5c.15.03.3.05.45.05h4.62c1.16,0,2.11-.95,2.11-2.11s-.95-2.11-2.11-2.11h-4.62c-.16,0-.31.02-.46.05.3.64.46,1.35.46,2.06s-.16,1.43-.45,2.06Z"/>
  <path class="cls-2" d="M9.99,6.38c-.15-.03-.3-.05-.45-.05h-4.62c-1.16,0-2.11.95-2.11,2.11s.95,2.11,2.11,2.11h4.62c.16,0,.31-.02.45-.05-.3-.64-.45-1.35-.45-2.06s.16-1.43.45-2.06Z"/>
  <path class="cls-1" d="M19.08,3.52h-4.62c-.9,0-1.74.24-2.46.66-.75-.43-1.59-.66-2.46-.66h-4.62c-1.43,0-2.79.63-3.73,1.72l.53.46c.81-.94,1.97-1.48,3.2-1.48h4.62c.63,0,1.24.14,1.81.41-.39.32-.73.69-1,1.12-.26-.08-.53-.12-.8-.12h-4.62c-1.55,0-2.81,1.26-2.81,2.81s1.26,2.81,2.81,2.81h4.62c1.55,0,2.81-1.26,2.81-2.81,0-.76.4-1.42,1-1.79.26.56.4,1.17.4,1.79,0,2.33-1.89,4.22-4.22,4.22h-4.62c-2.33,0-4.22-1.89-4.22-4.22,0-.78.22-1.54.62-2.2l-.6-.37c-.48.77-.73,1.66-.73,2.57,0,2.71,2.21,4.92,4.92,4.92h4.62c.9,0,1.74-.24,2.46-.66.75.43,1.59.66,2.46.66h4.62c1.67,0,3.22-.84,4.13-2.25l-.59-.38c-.79,1.21-2.11,1.94-3.54,1.94h-4.62c-.63,0-1.25-.14-1.81-.41.39-.32.73-.69,1-1.12.26.08.53.12.8.12h4.62c1.55,0,2.81-1.26,2.81-2.81s-1.26-2.81-2.81-2.81h-4.62c-1.55,0-2.81,1.26-2.81,2.81,0,.76-.4,1.42-1,1.8-.26-.56-.4-1.17-.4-1.8,0-2.33,1.89-4.22,4.22-4.22h4.62c2.33,0,4.22,1.89,4.22,4.22,0,.59-.12,1.16-.36,1.69l.64.28c.28-.63.42-1.29.42-1.98,0-2.71-2.21-4.92-4.92-4.92ZM14.46,6.33h4.62c1.16,0,2.11.95,2.11,2.11s-.95,2.11-2.11,2.11h-4.62c-.15,0-.3-.02-.45-.05.29-.63.45-1.33.45-2.06s-.16-1.42-.46-2.06c.15-.03.3-.05.46-.05ZM9.54,10.55h-4.62c-1.16,0-2.11-.95-2.11-2.11s.95-2.11,2.11-2.11h4.62c.15,0,.3.02.45.05-.29.63-.45,1.32-.45,2.06s.16,1.42.45,2.06c-.15.03-.3.05-.45.05Z"/>
  <rect class="cls-1" x="11.65" width=".7" height="2.11"/>
  <rect class="cls-1" x="9.89" y=".64" width=".7" height="1.89" transform="translate(.14 3.91) rotate(-21.77)"/>
  <rect class="cls-1" x="12.81" y="1.22" width="1.89" height=".7" transform="translate(7.19 13.76) rotate(-68.22)"/>
  <rect class="cls-1" x="9.3" y="14.93" width="1.89" height=".7" transform="translate(-7.74 19.12) rotate(-68.21)"/>
  <rect class="cls-1" x="13.41" y="14.36" width=".7" height="1.89" transform="translate(-4.7 6.19) rotate(-21.77)"/>
  <rect class="cls-1" x="11.65" y="14.77" width=".7" height="2.11"/>
</svg>