<?xml version="1.0" encoding="UTF-8"?>
<svg id="Layer_1" xmlns="http://www.w3.org/2000/svg" viewBox="0 0 24 17.93">
  <defs>
    <style>
      .cls-1 {
        fill: #1d897a;
      }

      .cls-2 {
        fill: none;
      }
    </style>
  </defs>
  <path class="cls-2" d="M12,7.38c.58,0,1.05-.47,1.05-1.05s-.44-1.02-.99-1.05c.02.29-.09.58-.31.8-.22.22-.51.33-.8.31.03.55.49.99,1.05.99Z"/>
  <path class="cls-2" d="M12,8.79c1.36,0,2.46-1.1,2.46-2.46s-1.1-2.46-2.46-2.46-2.46,1.1-2.46,2.46,1.1,2.46,2.46,2.46ZM10.31,5.84l.13-.44.39.23c.22.13.38,0,.42-.05.09-.09.16-.26.06-.43l-.23-.39.44-.13c.16-.04.32-.07.49-.07.97,0,1.76.79,1.76,1.76s-.79,1.76-1.76,1.76-1.76-.79-1.76-1.76c0-.16.02-.33.07-.49Z"/>
  <path class="cls-2" d="M9.55,8.33c-.45-.55-.72-1.24-.72-2s.27-1.46.72-2c-.94.4-1.74,1.06-2.44,2,.7.95,1.5,1.61,2.44,2Z"/>
  <rect class="cls-2" x="18.73" y="9.14" width=".7" height="3.87"/>
  <rect class="cls-2" x="13.1" y="11.6" width=".7" height="1.41"/>
  <rect class="cls-2" x="15.91" y="10.55" width=".7" height="2.46"/>
  <path class="cls-2" d="M14.45,8.33c.94-.4,1.74-1.06,2.44-2-.7-.95-1.5-1.61-2.44-2,.45.55.72,1.24.72,2s-.27,1.46-.72,2Z"/>
  <path class="cls-2" d="M2.81,14.77h6.87l.7.7h3.22l.7-.7h6.87V2.11H2.81v12.66ZM14.51,13.71h-2.11v-2.81h2.11v2.81ZM17.32,13.71h-2.11v-3.87h2.11v3.87ZM19.78,2.81h.7v.7h-.7v-.7ZM19.78,4.22h.7v.7h-.7v-.7ZM18.02,8.44h2.11v5.27h-2.11v-5.27ZM6.39,6.13c.75-1.08,1.65-1.88,2.67-2.36.86-.41,1.82-.61,2.93-.61s2.07.2,2.93.61c1.02.48,1.92,1.27,2.67,2.36l.14.2-.14.2c-.75,1.08-1.65,1.88-2.68,2.36-.86.41-1.82.61-2.93.61s-2.07-.2-2.93-.61c-1.02-.48-1.92-1.27-2.68-2.36l-.14-.2.14-.2ZM5.27,10.2h2.81v.7h-2.81v-.7ZM5.27,11.6h2.81v.7h-2.81v-.7ZM5.27,13.01h2.81v.7h-2.81v-.7ZM3.87,10.2h.7v.7h-.7v-.7ZM3.87,11.6h.7v.7h-.7v-.7ZM3.87,13.01h.7v.7h-.7v-.7Z"/>
  <path class="cls-1" d="M23.3,1.05c0-.58-.47-1.05-1.05-1.05H1.76C1.18,0,.7.47.7,1.05v1.76h.7v-1.76c0-.19.16-.35.35-.35h20.48c.19,0,.35.16.35.35v13.71h-.7V1.41H2.11v13.36h-.7V3.52h-.7v11.25h-.7v2.11c0,.58.47,1.05,1.05,1.05h19.43v-.7H1.05c-.19,0-.35-.16-.35-.35v-1.41h8.69l.7.7h3.81l.7-.7h8.69v1.41c0,.19-.16.35-.35.35h-1.76v.7h1.76c.58,0,1.05-.47,1.05-1.05v-2.11h-.7V1.05ZM21.19,14.77h-6.87l-.7.7h-3.22l-.7-.7H2.81V2.11h18.38v12.66Z"/>
  <rect class="cls-1" x="19.78" y="4.22" width=".7" height=".7"/>
  <rect class="cls-1" x="19.78" y="2.81" width=".7" height=".7"/>
  <path class="cls-1" d="M12,8.09c.97,0,1.76-.79,1.76-1.76s-.79-1.76-1.76-1.76c-.17,0-.33.02-.49.07l-.44.13.23.39c.1.17.04.33-.06.43-.05.04-.21.18-.42.05l-.39-.23-.13.44c-.04.16-.07.32-.07.49,0,.97.79,1.76,1.76,1.76ZM11.75,6.08c.22-.22.33-.51.31-.8.55.03.99.49.99,1.05s-.47,1.05-1.05,1.05-1.02-.44-1.05-.99c.29.02.58-.09.8-.31Z"/>
  <path class="cls-1" d="M9.07,8.89c.86.41,1.82.61,2.93.61s2.07-.2,2.93-.61c1.02-.48,1.92-1.27,2.68-2.36l.14-.2-.14-.2c-.75-1.08-1.65-1.88-2.67-2.36-.86-.41-1.82-.61-2.93-.61s-2.07.2-2.93.61c-1.02.48-1.92,1.27-2.67,2.36l-.14.2.14.2c.75,1.08,1.65,1.88,2.68,2.36ZM16.89,6.33c-.7.95-1.5,1.61-2.44,2,.45-.55.72-1.24.72-2s-.27-1.46-.72-2c.94.4,1.74,1.06,2.44,2ZM12,3.87c1.36,0,2.46,1.1,2.46,2.46s-1.1,2.46-2.46,2.46-2.46-1.1-2.46-2.46,1.1-2.46,2.46-2.46ZM9.55,4.32c-.45.55-.72,1.24-.72,2s.27,1.46.72,2c-.94-.4-1.74-1.06-2.44-2,.7-.95,1.5-1.61,2.44-2Z"/>
  <path class="cls-1" d="M12.4,13.71h2.11v-2.81h-2.11v2.81ZM13.1,11.6h.7v1.41h-.7v-1.41Z"/>
  <path class="cls-1" d="M20.13,8.44h-2.11v5.27h2.11v-5.27ZM19.43,13.01h-.7v-3.87h.7v3.87Z"/>
  <path class="cls-1" d="M15.21,13.71h2.11v-3.87h-2.11v3.87ZM15.91,10.55h.7v2.46h-.7v-2.46Z"/>
  <rect class="cls-1" x="3.87" y="11.6" width=".7" height=".7"/>
  <rect class="cls-1" x="3.87" y="13.01" width=".7" height=".7"/>
  <rect class="cls-1" x="3.87" y="10.2" width=".7" height=".7"/>
  <rect class="cls-1" x="5.27" y="10.2" width="2.81" height=".7"/>
  <rect class="cls-1" x="5.27" y="13.01" width="2.81" height=".7"/>
  <rect class="cls-1" x="5.27" y="11.6" width="2.81" height=".7"/>
</svg>