<?xml version="1.0" encoding="UTF-8"?>
<svg id="Layer_1" xmlns="http://www.w3.org/2000/svg" viewBox="0 0 24 27.72">
  <defs>
    <style>
      .cls-1 {
        fill: #1d897a;
      }

      .cls-2 {
        fill: none;
      }
    </style>
  </defs>
  <path class="cls-2" d="M16.17,11.07v-.45h-.4c.13.15.27.3.4.45Z"/>
  <polygon class="cls-2" points="16.17 9.7 16.17 7.12 15.35 9.7 16.17 9.7"/>
  <path class="cls-2" d="M19.54,14.79l-1.19-3.74-1.1,1.21c.83.91,1.64,1.81,2.29,2.53Z"/>
  <polygon class="cls-2" points="16.17 16.17 16.17 13.45 13.69 16.17 16.17 16.17"/>
  <polygon class="cls-2" points="16.17 18.58 16.17 17.09 14.09 17.09 16.17 18.58"/>
  <path class="cls-2" d="M14.91,11.06l-1.18,3.69,2.26-2.49c-.42-.47-.8-.89-1.09-1.2Z"/>
  <polygon class="cls-2" points="17.09 7.12 17.09 9.7 17.91 9.7 17.09 7.12"/>
  <polygon class="cls-2" points="17.09 23.56 21.54 23.56 17.09 20.38 17.09 23.56"/>
  <polygon class="cls-2" points="17.09 17.09 17.09 18.58 19.17 17.09 17.09 17.09"/>
  <path class="cls-2" d="M19.33,15.93c-.49-.54-1.17-1.29-2.02-2.22-.07-.08-.14-.16-.21-.23v2.7h2.45c-.07-.07-.14-.15-.22-.24Z"/>
  <polygon class="cls-2" points="17.09 10.62 17.09 11.06 17.49 10.62 17.09 10.62"/>
  <rect class="cls-1" x="5.08" y="24.94" width=".92" height=".92"/>
  <path class="cls-1" d="M5.2,21.71h.69c.32,0,.58.26.58.58v.69c0,.32-.26.58-.58.58h-.69c-.32,0-.58-.26-.58-.58v-.69c0-.32.26-.58.58-.58Z"/>
  <path class="cls-1" d="M7.97,13.4h.69c.32,0,.58.26.58.58v.69c0,.32-.26.58-.58.58h-.69c-.32,0-.58-.26-.58-.58v-.69c0-.32.26-.58.58-.58Z"/>
  <rect class="cls-1" x="3.7" y="11.09" width="3.7" height=".92"/>
  <rect class="cls-1" x="4.62" y="18.94" width="1.85" height="1.85" rx=".58" ry=".58"/>
  <path class="cls-1" d="M21.35,20.47l.75,2.36-4.68-3.34,2.94-2.1.69,2.17.88-.28-4.24-13.29c.2-.24.32-.55.32-.89,0-.76-.62-1.39-1.39-1.39s-1.39.62-1.39,1.39c0,.34.12.65.32.89l-4.22,13.22.88.28.67-2.09,2.94,2.1-3.9,2.79.54.75,3.7-2.64v3.18h-4.22v.92h4.22v1.39h.92v-1.39h5.54l.49,1.53.88-.28-1.77-5.54-.88.28ZM14.91,11.06c.28.31.66.73,1.09,1.2l-2.26,2.49,1.18-3.69ZM16.17,18.58l-2.08-1.49h2.08v1.49ZM16.17,16.17h-2.48l2.48-2.72v2.72ZM16.17,11.07c-.14-.15-.27-.3-.4-.45h.4v.45ZM16.17,9.7h-.82l.82-2.58v2.58ZM19.54,14.79c-.65-.72-1.47-1.61-2.29-2.53l1.1-1.21,1.19,3.74ZM17.09,7.12l.82,2.58h-.82v-2.58ZM17.09,10.62h.4l-.4.44v-.44ZM17.09,13.47c.07.08.14.16.21.23.85.94,1.53,1.69,2.02,2.22.08.09.15.16.22.24h-2.45v-2.7ZM17.09,17.09h2.08l-2.08,1.49v-1.49ZM17.09,23.56v-3.18l4.45,3.18h-4.45Z"/>
  <rect class="cls-1" x="4.62" y="13.4" width="1.85" height="1.85" rx=".58" ry=".58"/>
  <path class="cls-1" d="M14.14,1.75c.72-.54,1.59-.83,2.49-.83,2.29,0,4.16,1.87,4.16,4.16,0,1.32-.61,2.53-1.66,3.33l.55.74c1.29-.97,2.03-2.45,2.03-4.07,0-2.8-2.28-5.08-5.08-5.08-1.11,0-2.16.35-3.05,1.02l.56.74Z"/>
  <path class="cls-1" d="M5.2,16.17h.69c.32,0,.58.26.58.58v.69c0,.32-.26.58-.58.58h-.69c-.32,0-.58-.26-.58-.58v-.69c0-.32.26-.58.58-.58Z"/>
  <path class="cls-1" d="M7.97,16.17h.69c.32,0,.58.26.58.58v.69c0,.32-.26.58-.58.58h-.69c-.32,0-.58-.26-.58-.58v-.69c0-.32.26-.58.58-.58Z"/>
  <path class="cls-1" d="M3.34,7.56l.71.59c.4-.49.93-.76,1.49-.76s1.09.27,1.49.76l.71-.59c-.58-.7-1.37-1.09-2.2-1.09s-1.62.39-2.2,1.09Z"/>
  <path class="cls-1" d="M7.97,21.71h.69c.32,0,.58.26.58.58v.69c0,.32-.26.58-.58.58h-.69c-.32,0-.58-.26-.58-.58v-.69c0-.32.26-.58.58-.58Z"/>
  <path class="cls-1" d="M9.11,6.15c-.95-.98-2.22-1.53-3.57-1.53s-2.62.54-3.57,1.53l.67.64c.77-.8,1.81-1.25,2.9-1.25s2.13.44,2.9,1.25l.67-.64Z"/>
  <path class="cls-1" d="M1.85,27.72h7.39c1.02,0,1.85-.83,1.85-1.85v-14.78c0-1.02-.83-1.85-1.85-1.85H1.85c-1.02,0-1.85.83-1.85,1.85v.92h.92v-.92c0-.51.41-.92.92-.92h7.39c.51,0,.92.42.92.92v14.78c0,.51-.41.92-.92.92H1.85c-.51,0-.92-.42-.92-.92v-12.94h-.92v12.94c0,1.02.83,1.85,1.85,1.85Z"/>
  <path class="cls-1" d="M11.55,5.08c0,1.61.74,3.09,2.03,4.07l.56-.74c-1.06-.79-1.66-2.01-1.66-3.33,0-1.04.39-2.03,1.08-2.8l-.68-.62c-.85.94-1.33,2.15-1.33,3.42Z"/>
  <path class="cls-1" d="M19.32,6.87c.35-.53.54-1.15.54-1.79,0-1.78-1.45-3.23-3.23-3.23s-3.23,1.45-3.23,3.23c0,.64.19,1.26.54,1.79l.77-.51c-.25-.38-.38-.82-.38-1.28,0-1.27,1.04-2.31,2.31-2.31s2.31,1.04,2.31,2.31c0,.46-.13.9-.38,1.28l.77.51Z"/>
  <path class="cls-1" d="M2.42,16.17h.69c.32,0,.58.26.58.58v.69c0,.32-.26.58-.58.58h-.69c-.32,0-.58-.26-.58-.58v-.69c0-.32.26-.58.58-.58Z"/>
  <path class="cls-1" d="M2.43,21.71h.69c.32,0,.58.26.58.58v.69c0,.32-.26.58-.58.58h-.69c-.32,0-.58-.26-.58-.58v-.69c0-.32.26-.58.58-.58Z"/>
  <path class="cls-1" d="M7.97,18.94h.69c.32,0,.58.26.58.58v.69c0,.32-.26.58-.58.58h-.69c-.32,0-.58-.26-.58-.58v-.69c0-.32.26-.58.58-.58Z"/>
  <path class="cls-1" d="M2.43,18.94h.69c.32,0,.58.26.58.58v.69c0,.32-.26.58-.58.58h-.69c-.32,0-.58-.26-.58-.58v-.69c0-.32.26-.58.58-.58Z"/>
  <path class="cls-1" d="M2.43,13.4h.69c.32,0,.58.26.58.58v.69c0,.32-.26.58-.58.58h-.69c-.32,0-.58-.26-.58-.58v-.69c0-.32.26-.58.58-.58Z"/>
</svg>