<?xml version="1.0" encoding="UTF-8"?>
<svg id="Layer_1" xmlns="http://www.w3.org/2000/svg" viewBox="0 0 24 23.75">
  <defs>
    <style>
      .cls-1 {
        fill: #1d897a;
      }

      .cls-2 {
        fill: none;
      }
    </style>
  </defs>
  <path class="cls-2" d="M18.41,20.95c0,.57.69.85,1.09.45.25-.25.25-.66,0-.91-.4-.4-1.09-.12-1.09.45Z"/>
  <path class="cls-2" d="M4.98,1.71c-.4-.4-1.09-.12-1.09.45s.69.86,1.09.45c.25-.25.25-.66,0-.91Z"/>
  <path class="cls-2" d="M9.8,1.86c-.4-.4-1.09-.12-1.09.45s.69.86,1.09.45c.25-.25.25-.66,0-.91Z"/>
  <path class="cls-2" d="M21.04,5.62c-.4-.4-1.09-.12-1.09.45s.69.86,1.09.45c.25-.25.25-.66,0-.91Z"/>
  <path class="cls-2" d="M17.37,1.82c.25-.25.25-.66,0-.91-.4-.4-1.09-.12-1.09.45s.69.86,1.09.45Z"/>
  <polygon class="cls-2" points="10.67 11.3 5.37 9.25 3.34 11.26 8.45 13.43 10.67 11.3"/>
  <path class="cls-2" d="M8.38,14.19c-.91-.38-1.82-.77-2.74-1.16v3.24l5.29,2.3.05-6.57-2.21,2.12c-.11.1-.26.13-.39.07Z"/>
  <path class="cls-2" d="M16.32,8.83l-4.64-1.84-3.05,1.06s-.03.01-.05.02l-2.25.78,5.02,1.95,4.97-1.97Z"/>
  <polygon class="cls-2" points="14.13 13.36 19.08 11.2 17.21 9.25 11.96 11.33 14.13 13.36"/>
  <path class="cls-2" d="M14.22,14.11c-.13.06-.29.04-.4-.06l-2.11-1.96-.05,6.44,5.28-2.7v-2.9h0l-2.72,1.18Z"/>
  <path class="cls-2" d="M21.99,15.73c0,.57.69.86,1.09.45.25-.25.25-.65,0-.91-.4-.4-1.09-.12-1.09.45Z"/>
  <path class="cls-2" d="M4.08,21.12c0,.57.69.86,1.09.45.25-.25.25-.66,0-.91-.4-.4-1.09-.12-1.09.45Z"/>
  <path class="cls-2" d="M1.82,7.08c.25-.25.25-.66,0-.91-.4-.4-1.09-.12-1.09.45s.69.86,1.09.45Z"/>
  <path class="cls-2" d="M.84,17.16c0,.57.69.85,1.09.45.25-.25.25-.66,0-.91-.4-.4-1.09-.12-1.09.45Z"/>
  <path class="cls-2" d="M13.1,22.38c0,.57.69.86,1.09.45.25-.25.25-.66,0-.91-.4-.4-1.09-.12-1.09.45Z"/>
  <path class="cls-1" d="M12.37,22.38c0,1.21,1.47,1.82,2.33.96.86-.86.25-2.33-.96-2.33-.75,0-1.37.61-1.37,1.37ZM14.19,21.93c.25.25.25.66,0,.91-.4.4-1.09.12-1.09-.45s.69-.86,1.09-.45Z"/>
  <path class="cls-1" d="M2.33,7.59c.86-.86.25-2.33-.96-2.33-.75,0-1.37.61-1.37,1.36,0,1.21,1.47,1.82,2.33.96ZM1.82,6.17c.25.25.25.66,0,.91-.4.4-1.09.12-1.09-.45s.69-.86,1.09-.45Z"/>
  <path class="cls-1" d="M17.68,20.95c0,1.21,1.47,1.82,2.33.96.86-.86.25-2.33-.96-2.33-.75,0-1.37.61-1.37,1.37ZM19.5,20.5c.25.25.25.65,0,.91-.4.4-1.09.12-1.09-.45s.69-.86,1.09-.45Z"/>
  <path class="cls-1" d="M.11,17.16c0,1.21,1.47,1.82,2.33.96.86-.86.25-2.33-.96-2.33-.75,0-1.36.61-1.36,1.37ZM1.93,16.71c.25.25.25.65,0,.91-.4.4-1.09.12-1.09-.45s.69-.86,1.09-.45Z"/>
  <path class="cls-1" d="M22.63,14.37c-.75,0-1.37.61-1.37,1.36,0,1.21,1.47,1.82,2.33.97.86-.86.25-2.33-.96-2.33ZM23.09,16.19c-.4.4-1.09.12-1.09-.45s.69-.85,1.09-.45c.25.25.25.66,0,.91Z"/>
  <path class="cls-1" d="M4.72,19.76c-.75,0-1.37.61-1.37,1.37,0,1.21,1.47,1.82,2.33.97.86-.86.25-2.33-.97-2.33ZM5.17,21.58c-.4.4-1.09.12-1.09-.45s.69-.86,1.09-.45c.25.25.25.66,0,.91Z"/>
  <path class="cls-1" d="M5.49,3.13c.86-.86.25-2.33-.97-2.33-.75,0-1.36.61-1.36,1.36,0,1.21,1.47,1.82,2.33.96ZM3.89,2.16c0-.57.69-.86,1.09-.45.25.25.25.66,0,.91-.4.4-1.09.12-1.09-.45Z"/>
  <path class="cls-1" d="M21.55,7.04c.86-.86.25-2.33-.96-2.33-.75,0-1.37.61-1.37,1.37,0,1.21,1.47,1.82,2.33.96ZM19.94,6.08c0-.57.69-.86,1.09-.45.25.25.25.66,0,.91-.4.4-1.09.12-1.09-.45Z"/>
  <path class="cls-1" d="M2.57,11.71c.79.33,1.57.67,2.36,1.01v1.13l-2.08,1.67c-.16.13-.18.35-.05.51.12.16.35.18.51.06l1.63-1.31v1.73h0c0,.14.08.27.22.33l2.03.88-1.44,1.59c-.14.15-.13.38.02.51.15.14.38.13.51-.02l1.61-1.77,3.23,1.41c.12.06.24.08.37.01l.95-.49.6,1.73c.07.19.27.29.46.22.19-.06.29-.27.22-.46l-.63-1.83,3.07-1.57,1.55,2.37c.11.17.33.21.5.11.17-.11.21-.33.11-.5l-1.51-2.31.68-.35c.13-.06.2-.19.2-.32h0v-1.66l3.07,1.11c.19.07.39-.03.46-.22.07-.19-.03-.39-.22-.46l-3.31-1.2v-1l2.18-.95c.23-.1.29-.4.11-.58l-2.4-2.5s-.09-.07-.15-.09l-.67-.27,2.22-1.06c.18-.09.25-.3.17-.48-.09-.18-.3-.25-.48-.17l-2.81,1.36-2.16-.86,2.46-3.71c.11-.17.07-.39-.1-.5-.17-.11-.39-.06-.5.1l-2.54,3.84-1.16-.46c-.09-.03-.18-.03-.26,0l-.76.26-.59-2.29c-.05-.19-.25-.31-.44-.26-.19.05-.31.25-.26.44l.61,2.35-1.49.52-2.62-3.84c-.11-.16-.34-.21-.5-.09-.16.11-.21.34-.09.5l2.51,3.68-2.6.9-2.21-1.26c-.17-.1-.39-.04-.49.14-.1.17-.04.39.14.49l1.94,1.1-2.23,2.2c-.19.18-.14.49.1.6ZM10.94,18.57l-5.29-2.3v-3.24c.91.39,1.82.78,2.74,1.16.13.05.28.03.39-.07l2.21-2.12-.05,6.57ZM16.94,15.83l-5.28,2.7.05-6.44,2.11,1.96c.11.1.27.12.4.06l2.72-1.18h0v2.9ZM17.21,9.25l1.88,1.95-4.95,2.15-2.18-2.02,5.25-2.08ZM8.58,8.07s.03-.01.05-.02l3.05-1.06,4.64,1.84-4.97,1.97-5.02-1.95,2.25-.78ZM5.37,9.25l5.29,2.05-2.22,2.12-5.1-2.17,2.03-2.01Z"/>
  <path class="cls-1" d="M17.89,2.33c.86-.86.25-2.33-.97-2.33-.75,0-1.36.61-1.36,1.37,0,1.21,1.47,1.82,2.33.96ZM17.37.91c.25.25.25.66,0,.91-.4.4-1.09.12-1.09-.45s.69-.85,1.09-.45Z"/>
  <path class="cls-1" d="M10.31,3.27c.86-.86.25-2.33-.96-2.33-.75,0-1.36.61-1.36,1.36,0,1.21,1.47,1.82,2.33.96ZM8.71,2.31c0-.57.69-.86,1.09-.45.25.25.25.66,0,.91-.4.4-1.09.11-1.09-.45Z"/>
</svg>