<?xml version="1.0" encoding="UTF-8"?>
<svg id="Layer_1" xmlns="http://www.w3.org/2000/svg" viewBox="0 0 24 20.64">
  <defs>
    <style>
      .cls-1 {
        fill: #1d897a;
      }

      .cls-2 {
        fill: none;
      }
    </style>
  </defs>
  <polygon class="cls-2" points="8.13 8.33 6.01 11.25 6.73 11.25 6.73 16.88 9.54 16.88 9.54 11.25 10.25 11.25 8.13 8.33"/>
  <path class="cls-1" d="M19.33,3.95c-.22-.94-.85-1.73-1.74-2.14-.88-.41-1.89-.4-2.75.02-1.25-1.18-2.87-1.83-4.6-1.83-1.22,0-2.41.33-3.44.96l.36.6c.93-.56,1.99-.86,3.08-.86,1.63,0,3.15.64,4.28,1.81l.2.2.24-.15c.7-.43,1.58-.48,2.33-.12.76.36,1.27,1.04,1.39,1.87l.04.27.27.03c1.2.15,2.29.71,3.07,1.57.81.9,1.24,2.04,1.24,3.31,0,2.67-2.25,4.92-4.92,4.92h-.4v-4.22h-4.22v4.22h-3.52v-2.46h1.39l-3.5-4.82-3.5,4.82h1.39v2.46h-.4c-1.29,0-2.52-.54-3.48-1.52-.92-.94-1.44-2.18-1.44-3.4,0-2.37,1.43-4.2,3.73-4.78l.18-.04.07-.17c.39-1.01,1.06-1.89,1.92-2.56l-.43-.56c-.91.71-1.63,1.63-2.08,2.69-1.16.32-2.15.96-2.87,1.84C.42,6.89,0,8.13,0,9.49h0c0,1.4.6,2.82,1.64,3.89,1.09,1.12,2.5,1.73,3.98,1.73h.4v2.46h4.22v-2.46h3.52v.7h-1.39l3.5,4.82,1.48-2.04-.57-.41-.92,1.26-2.12-2.92h.72v-5.63h2.81v5.63h.72l-.79,1.09.57.41,1.61-2.21h-1.39v-.7h.4c3.05,0,5.63-2.58,5.63-5.63,0-1.42-.51-2.77-1.42-3.78-.84-.93-1.99-1.55-3.25-1.76ZM9.54,11.25v5.63h-2.81v-5.63h-.72l2.12-2.92,2.12,2.92h-.72Z"/>
  <rect class="cls-1" x="11.56" y="1.81" width=".7" height=".7"/>
  <rect class="cls-1" x="12.97" y="2.51" width=".7" height=".7"/>
</svg>