<?xml version="1.0" encoding="UTF-8"?>
<svg id="Layer_1" xmlns="http://www.w3.org/2000/svg" viewBox="0 0 24 45.51">
  <defs>
    <style>
      .cls-1 {
        fill: #1d897a;
      }

      .cls-2 {
        fill: none;
      }
    </style>
  </defs>
  <path class="cls-2" d="M16,5.33h1.33c.37,0,.67-.3.67-.67V1.33h-2v4Z"/>
  <rect class="cls-2" x="12.67" y="1.33" width="2" height="4"/>
  <rect class="cls-2" x="8" y="32" width="8" height="2"/>
  <path class="cls-2" d="M12,22.67c1.1,0,2-.9,2-2v-6h-4v6c0,1.1.9,2,2,2Z"/>
  <path class="cls-2" d="M6,4.67c0,.37.3.67.67.67h1.33V1.33h-2v3.33Z"/>
  <rect class="cls-2" x="9.33" y="1.33" width="2" height="4"/>
  <path class="cls-2" d="M22.67,24.39v-5.06h-7.33v1.33c0,1.84-1.5,3.33-3.33,3.33s-3.33-1.5-3.33-3.33v-1.33H1.33v5.06l6.28,6.28h8.78l6.28-6.28Z"/>
  <path class="cls-2" d="M16,36.67v-1.33H8v1.33c0,.37.3.67.67.67h6.67c.37,0,.67-.3.67-.67Z"/>
  <path class="cls-1" d="M14.67,42.09v2.09h-5.33v-5.51h5.33v2.09h1.33v-2.2c.78-.27,1.33-1.02,1.33-1.89v-5.06l6.67-6.67V0H0v4h1.33V1.33h3.33v3.33c0,1.1.9,2,2,2h10.67c1.1,0,2-.9,2-2V1.33h3.33v16.67h-7.33v-4.67h-6.67v4.67H1.33V5.33H0v19.61l6.67,6.67v5.06c0,.87.56,1.61,1.33,1.89v6.96h8v-3.42h-1.33ZM8,5.33h-1.33c-.37,0-.67-.3-.67-.67V1.33h2v4ZM11.33,5.33h-2V1.33h2v4ZM14.67,5.33h-2V1.33h2v4ZM18,4.67c0,.37-.3.67-.67.67h-1.33V1.33h2v3.33ZM16,34H8v-2h8v2ZM10,14.67h4v6c0,1.1-.9,2-2,2s-2-.9-2-2v-6ZM7.61,30.67l-6.28-6.28v-5.06h7.33v1.33c0,1.84,1.5,3.33,3.33,3.33s3.33-1.5,3.33-3.33v-1.33h7.33v5.06l-6.28,6.28H7.61ZM8,36.67v-1.33h8v1.33c0,.37-.3.67-.67.67h-6.67c-.37,0-.67-.3-.67-.67Z"/>
  <rect class="cls-1" x="20" y="10" width="1.33" height="1.33"/>
  <rect class="cls-1" x="20" y="7.33" width="1.33" height="1.33"/>
</svg>