<?xml version="1.0" encoding="UTF-8"?>
<svg id="Layer_1" xmlns="http://www.w3.org/2000/svg" viewBox="0 0 24 20.39">
  <defs>
    <style>
      .cls-1 {
        fill: #1d897a;
      }

      .cls-2 {
        fill: none;
      }
    </style>
  </defs>
  <path class="cls-2" d="M20.48,18.63c0-.12.01-.24.04-.35h-5.36v.7h5.36c-.02-.11-.04-.23-.04-.35Z"/>
  <rect class="cls-2" x="11.65" y="15.47" width=".7" height="1.41"/>
  <path class="cls-2" d="M3.52,18.63c0,.12-.01.24-.04.35h5.36v-.7H3.48c.02.11.04.23.04.35Z"/>
  <path class="cls-2" d="M1.76,17.58c-.58,0-1.05.47-1.05,1.05s.47,1.06,1.05,1.06,1.05-.47,1.05-1.06-.47-1.05-1.05-1.05Z"/>
  <path class="cls-2" d="M22.95,1.41h-11.1l1.05,1.41h10.05c.12,0,.24.02.35.06v-1.12c0-.19-.16-.35-.35-.35Z"/>
  <path class="cls-2" d="M22.24,19.69c.58,0,1.05-.47,1.05-1.05s-.47-1.06-1.05-1.06-1.05.47-1.05,1.05.47,1.06,1.05,1.06Z"/>
  <rect class="cls-2" x="2.81" y="11.25" width="6.33" height="1.41"/>
  <path class="cls-1" d="M22.95.7h-11.63l-.53-.7H1.05C.47,0,0,.47,0,1.05v1.76h.7v-1.76c0-.19.16-.35.35-.35h9.38l2.11,2.81h10.4c.19,0,.35.16.35.35v10.55c0,.19-.16.35-.35.35H1.05c-.19,0-.35-.16-.35-.35V3.51h-.7v10.9c0,.58.47,1.05,1.05,1.05h9.89v1.41h-1.05c-.46,0-.85.29-.99.7H3.16c-.32-.43-.83-.7-1.41-.7-.97,0-1.76.79-1.76,1.76s.79,1.76,1.76,1.76c.57,0,1.08-.28,1.41-.7h5.73c.14.41.54.7.99.7h1.76v-.7h-1.76c-.19,0-.35-.16-.35-.35v-1.41c0-.19.16-.35.35-.35h4.22c.19,0,.35.16.35.35v1.41c0,.19-.16.35-.35.35h-1.76v.7h1.76c.46,0,.85-.29,1-.7h5.73c.32.43.83.7,1.4.7.97,0,1.76-.79,1.76-1.76s-.79-1.76-1.76-1.76c-.57,0-1.08.28-1.4.7h-5.73c-.15-.41-.54-.7-.99-.7h-1.06v-1.41h9.89c.58,0,1.05-.47,1.05-1.05V1.76c0-.58-.47-1.05-1.05-1.05ZM1.76,19.69c-.58,0-1.05-.47-1.05-1.06s.47-1.05,1.05-1.05,1.05.47,1.05,1.05-.47,1.06-1.05,1.06ZM8.84,18.98H3.48c.02-.11.04-.23.04-.35s-.01-.24-.04-.35h5.36v.7ZM22.24,17.58c.58,0,1.05.47,1.05,1.06s-.47,1.05-1.05,1.05-1.05-.47-1.05-1.06.47-1.05,1.05-1.05ZM15.16,18.28h5.36c-.02.11-.04.23-.04.35s.01.24.04.35h-5.36v-.7ZM12.35,16.88h-.7v-1.41h.7v1.41ZM23.3,2.87c-.11-.04-.23-.06-.35-.06h-10.05l-1.05-1.41h11.1c.19,0,.35.16.35.35v1.12Z"/>
  <rect class="cls-1" x="21.89" y="4.22" width=".7" height=".7"/>
  <rect class="cls-1" x="20.48" y="4.22" width=".7" height=".7"/>
  <path class="cls-1" d="M2.11,10.55v2.81h7.74v-2.81H2.11ZM9.14,12.66H2.81v-1.41h6.33v1.41Z"/>
</svg>