<?xml version="1.0" encoding="UTF-8"?>
<svg id="Layer_1" xmlns="http://www.w3.org/2000/svg" viewBox="0 0 24 24">
  <defs>
    <style>
      .cls-1 {
        fill: #1d897a;
      }

      .cls-2 {
        fill: none;
      }
    </style>
  </defs>
  <path class="cls-2" d="M7.59,16.59c1.08-.12,2.35-.19,3.86-.22v-3.83h-4.35c.04,1.45.21,2.81.49,4.05Z"/>
  <path class="cls-2" d="M15.37,4.33c-.8-1.63-1.8-2.62-2.82-2.89v5.09c1.41-.03,2.6-.08,3.6-.18-.22-.74-.48-1.42-.77-2.02Z"/>
  <path class="cls-2" d="M8.63,4.33c-.29.6-.56,1.28-.78,2.02.99.1,2.19.15,3.6.18V1.44c-1.02.26-2.02,1.26-2.82,2.89Z"/>
  <path class="cls-2" d="M8.63,19.66c.8,1.63,1.8,2.64,2.82,2.91v-5.1c-1.41.03-2.6.09-3.59.19.22.74.48,1.41.77,2Z"/>
  <path class="cls-2" d="M7.1,11.45h4.35v-3.83c-1.51-.03-2.79-.1-3.87-.22-.28,1.24-.45,2.6-.49,4.05Z"/>
  <path class="cls-2" d="M7.65,20.14c-.34-.71-.64-1.49-.89-2.34-1.42.22-2.43.55-3.31.99,1.48,1.86,3.55,3.22,5.93,3.81-.67-.62-1.25-1.47-1.73-2.45Z"/>
  <path class="cls-2" d="M6.5,7.26c-1.55-.25-2.69-.62-3.69-1.14-1,1.55-1.62,3.37-1.71,5.33h4.91c.03-1.49.21-2.9.49-4.19Z"/>
  <path class="cls-2" d="M6.01,12.55H1.1c.1,1.96.72,3.78,1.71,5.33,1-.52,2.14-.9,3.69-1.14-.29-1.29-.46-2.71-.49-4.19Z"/>
  <path class="cls-2" d="M7.65,3.85c.48-.99,1.06-1.83,1.73-2.45-2.38.59-4.45,1.95-5.93,3.81.89.44,1.89.77,3.31.99.25-.85.54-1.65.89-2.35Z"/>
  <path class="cls-2" d="M17.5,16.74c1.55.25,2.69.62,3.69,1.14,1-1.55,1.62-3.37,1.71-5.33h-4.91c-.03,1.49-.21,2.9-.49,4.19Z"/>
  <path class="cls-2" d="M17.99,11.45h4.91c-.1-1.96-.72-3.78-1.71-5.33-1,.52-2.14.89-3.69,1.14.29,1.29.46,2.7.49,4.19Z"/>
  <path class="cls-2" d="M14.62,1.41c.67.62,1.25,1.46,1.73,2.45.34.71.64,1.5.89,2.35,1.42-.22,2.43-.55,3.31-.99-1.48-1.86-3.55-3.22-5.93-3.81Z"/>
  <path class="cls-2" d="M16.42,7.41c-1.08.12-2.36.19-3.87.22v3.83h4.35c-.03-1.45-.2-2.81-.49-4.05Z"/>
  <path class="cls-2" d="M16.9,12.55h-4.35v3.83c1.51.03,2.78.1,3.86.22.28-1.24.46-2.6.49-4.05Z"/>
  <path class="cls-2" d="M16.35,20.14c-.48.99-1.06,1.83-1.73,2.45,2.38-.59,4.45-1.95,5.93-3.81-.89-.44-1.89-.77-3.31-.99-.24.85-.54,1.64-.89,2.34Z"/>
  <path class="cls-2" d="M16.13,17.66c-.99-.1-2.18-.16-3.59-.19v5.1c1.02-.27,2.02-1.27,2.82-2.91.29-.6.55-1.27.77-2Z"/>
  <path class="cls-1" d="M12,0C5.38,0,0,5.38,0,12s5.38,12,12,12,12-5.38,12-12S18.62,0,12,0ZM9.38,1.41c-.67.62-1.25,1.46-1.73,2.45-.34.71-.64,1.5-.89,2.35-1.42-.22-2.43-.55-3.31-.99,1.48-1.86,3.55-3.22,5.93-3.81ZM2.81,6.12c1,.52,2.14.89,3.69,1.14-.29,1.29-.46,2.7-.49,4.19H1.1c.1-1.96.72-3.78,1.71-5.33ZM1.1,12.55h4.91c.03,1.49.21,2.9.49,4.19-1.55.25-2.69.62-3.69,1.14-1-1.55-1.62-3.37-1.71-5.33ZM3.45,18.78c.89-.44,1.89-.77,3.31-.99.25.85.54,1.64.89,2.34.48.99,1.06,1.83,1.73,2.45-2.38-.59-4.45-1.95-5.93-3.81ZM11.45,22.57c-1.02-.27-2.02-1.27-2.82-2.91-.29-.6-.55-1.27-.77-2,.99-.1,2.18-.16,3.59-.19v5.1ZM11.45,16.37c-1.51.03-2.78.1-3.86.22-.28-1.24-.46-2.6-.49-4.05h4.35v3.83ZM11.45,11.45h-4.35c.04-1.45.21-2.81.49-4.05,1.08.12,2.36.19,3.87.22v3.83ZM11.45,6.53c-1.41-.03-2.6-.08-3.6-.18.22-.74.48-1.42.78-2.02.8-1.63,1.8-2.62,2.82-2.89v5.09ZM12.55,1.44c1.02.26,2.02,1.26,2.82,2.89.29.6.56,1.28.77,2.02-.99.1-2.19.15-3.6.18V1.44ZM12.55,7.63c1.51-.03,2.79-.1,3.87-.22.28,1.24.45,2.6.49,4.05h-4.35v-3.83ZM12.55,12.55h4.35c-.03,1.45-.21,2.81-.49,4.05-1.08-.12-2.35-.19-3.86-.22v-3.83ZM12.55,22.57v-5.1c1.41.03,2.6.09,3.59.19-.22.74-.48,1.41-.77,2-.8,1.63-1.8,2.64-2.82,2.91ZM14.62,22.59c.67-.62,1.25-1.47,1.73-2.45.34-.71.64-1.49.89-2.34,1.42.22,2.43.55,3.31.99-1.48,1.86-3.55,3.22-5.93,3.81ZM21.19,17.88c-1-.52-2.14-.9-3.69-1.14.29-1.29.46-2.71.49-4.19h4.91c-.1,1.96-.72,3.78-1.71,5.33ZM22.9,11.45h-4.91c-.03-1.49-.21-2.9-.49-4.19,1.55-.25,2.69-.62,3.69-1.14,1,1.55,1.62,3.37,1.71,5.33ZM17.23,6.2c-.24-.85-.54-1.65-.89-2.35-.48-.99-1.06-1.83-1.73-2.45,2.38.59,4.45,1.95,5.93,3.81-.89.44-1.89.77-3.31.99Z"/>
</svg>