<?xml version="1.0" encoding="UTF-8"?>
<svg id="Layer_1" xmlns="http://www.w3.org/2000/svg" viewBox="0 0 24 25.42">
  <defs>
    <style>
      .cls-1 {
        fill: #1d897a;
      }

      .cls-2 {
        fill: none;
      }
    </style>
  </defs>
  <rect class="cls-2" x="8.28" y="14.06" width="2.61" height="5.21"/>
  <path class="cls-2" d="M12,22.44c-.62,0-1.12.5-1.12,1.12s.5,1.12,1.12,1.12,1.12-.5,1.12-1.12-.5-1.12-1.12-1.12Z"/>
  <path class="cls-2" d="M2.42,6.32c-.18-.1-.37-.15-.56-.15-.39,0-.76.2-.97.56-.31.53-.12,1.22.41,1.53.26.15.56.19.85.11.29-.08.53-.26.68-.52.15-.26.19-.56.11-.85-.08-.29-.26-.53-.52-.68Z"/>
  <path class="cls-2" d="M12,2.98c.62,0,1.12-.5,1.12-1.12s-.5-1.12-1.12-1.12-1.12.5-1.12,1.12.5,1.12,1.12,1.12Z"/>
  <path class="cls-2" d="M2.15,17.05c-.1-.03-.19-.04-.29-.04-.19,0-.38.05-.56.15-.53.31-.72.99-.41,1.53.31.53.99.72,1.53.41.26-.15.44-.39.52-.68.08-.29.04-.59-.11-.85-.15-.26-.39-.44-.68-.52Z"/>
  <path class="cls-2" d="M21.85,8.36c.29.08.59.04.85-.11.26-.15.44-.39.52-.68.08-.29.04-.59-.11-.85-.21-.36-.58-.56-.97-.56-.19,0-.38.05-.56.15-.26.15-.44.39-.52.68-.08.29-.04.59.11.85s.39.44.68.52Z"/>
  <path class="cls-2" d="M22.7,17.16c-.17-.1-.36-.15-.56-.15-.1,0-.19.01-.29.04-.29.08-.53.26-.68.52s-.19.56-.11.85c.08.29.26.53.52.68.53.31,1.22.13,1.53-.41.15-.26.19-.56.11-.85-.08-.29-.26-.53-.52-.68Z"/>
  <rect class="cls-2" x="13.12" y="14.06" width="2.61" height="2.98"/>
  <path class="cls-1" d="M16.47,13.32h-4.1v4.47h4.1v-4.47ZM15.72,17.04h-2.61v-2.98h2.61v2.98Z"/>
  <path class="cls-1" d="M21.66,9.08c.16.04.32.06.48.06.32,0,.64-.08.93-.25.43-.25.74-.65.87-1.13.13-.48.06-.98-.19-1.41-.51-.89-1.65-1.19-2.54-.68-.43.25-.74.65-.87,1.13-.13.48-.06.98.19,1.41.25.43.65.74,1.13.87ZM21.06,7c.08-.29.26-.53.52-.68.18-.1.37-.15.56-.15.39,0,.76.2.97.56.15.26.19.56.11.85-.08.29-.26.53-.52.68-.26.15-.56.19-.85.11-.29-.08-.53-.26-.68-.52s-.19-.56-.11-.85Z"/>
  <path class="cls-1" d="M23.07,16.52c-.43-.25-.93-.31-1.41-.19-.48.13-.88.44-1.13.87-.25.43-.32.93-.19,1.41.13.48.44.88.87,1.13.29.17.61.25.93.25.64,0,1.27-.33,1.62-.93.25-.43.31-.93.19-1.41-.13-.48-.44-.88-.87-1.13ZM23.1,18.69c-.31.53-.99.72-1.53.41-.26-.15-.44-.39-.52-.68-.08-.29-.04-.59.11-.85s.39-.44.68-.52c.1-.03.19-.04.29-.04.19,0,.38.05.56.15.26.15.44.39.52.68.08.29.04.59-.11.85Z"/>
  <path class="cls-1" d="M10.14,1.86c0,1.03.84,1.86,1.86,1.86s1.86-.84,1.86-1.86-.84-1.86-1.86-1.86-1.86.84-1.86,1.86ZM12,.74c.62,0,1.12.5,1.12,1.12s-.5,1.12-1.12,1.12-1.12-.5-1.12-1.12.5-1.12,1.12-1.12Z"/>
  <path class="cls-1" d="M13.86,23.55c0-1.03-.84-1.86-1.86-1.86s-1.86.84-1.86,1.86.84,1.86,1.86,1.86,1.86-.83,1.86-1.86ZM12,24.67c-.62,0-1.12-.5-1.12-1.12s.5-1.12,1.12-1.12,1.12.5,1.12,1.12-.5,1.12-1.12,1.12Z"/>
  <path class="cls-1" d="M2.34,16.33c-.48-.13-.98-.06-1.41.19-.43.25-.74.65-.87,1.13-.13.48-.06.98.19,1.41.25.43.65.74,1.13.87.16.04.32.06.49.06.32,0,.64-.08.93-.25.43-.25.74-.65.87-1.13.13-.48.06-.98-.19-1.41-.25-.43-.65-.74-1.13-.87ZM2.94,18.42c-.08.29-.26.53-.52.68-.53.31-1.22.13-1.53-.41-.31-.53-.12-1.22.41-1.53.17-.1.36-.15.56-.15.1,0,.2.01.29.04.29.08.53.26.68.52.15.26.19.56.11.85Z"/>
  <path class="cls-1" d="M2.79,5.67c-.43-.25-.93-.32-1.41-.19-.48.13-.88.44-1.13.87C0,6.78-.06,7.29.06,7.77c.13.48.44.88.87,1.13.29.17.61.25.93.25.16,0,.32-.02.49-.06.48-.13.88-.44,1.13-.87.25-.43.32-.93.19-1.41-.13-.48-.44-.88-.87-1.13ZM2.83,7.84c-.15.26-.39.44-.68.52-.29.08-.59.04-.85-.11-.53-.31-.72-.99-.41-1.53.21-.36.58-.56.97-.56.19,0,.38.05.56.15.26.15.44.39.52.68.08.29.04.59-.11.85Z"/>
  <path class="cls-1" d="M19.66,8.19l-2.02,1.08-5.27-3.69v-1.11h-.74v1.11l-3.19,2.24.43.61,3.14-2.2,6.94,4.86v.91l-6.94-4.86-6.94,4.86v-.91l3.19-2.24-.43-.61-1.47,1.03-2.02-1.08-.35.66,1.69.9-1.36.95v2.73l1.12-.78v3.16l-1.45.77.35.66,1.1-.59v3.37h6.2v.93h.74v-.93h3.22v-.74h-3.96v-5.96h-4.1v5.96h-1.36v-7.15l5.82-4.08,5.82,4.08v7.15h-1.49v.74h2.23v-3.37l1.1.59.35-.66-1.45-.77v-3.16l1.12.78v-2.73l-1.36-.95,1.69-.9-.35-.66ZM8.28,14.06h2.61v5.21h-2.61v-5.21Z"/>
  <rect class="cls-1" x="13.16" y="10.11" width=".74" height=".74" transform="translate(-2.81 15.57) rotate(-55.05)"/>
  <rect class="cls-1" x="11.94" y="9.25" width=".74" height=".74" transform="translate(-2.64 14.17) rotate(-54.94)"/>
</svg>